<?xml version="1.0" encoding="utf-8" ?>
<svg baseProfile="full" height="200mm" version="1.1" viewBox="0,0,200,200" width="200mm" xmlns="http://www.w3.org/2000/svg" xmlns:ev="http://www.w3.org/2001/xml-events" xmlns:xlink="http://www.w3.org/1999/xlink"><defs /><rect fill="#1a1a1a" height="200" width="200" x="0" y="0" /><rect fill="#1a1a1a" height="200" width="180" x="10" y="0" /><text alignment-baseline="middle" fill="#e1ed5e" style="dominant-baseline: central; font-size:9.0px; font-family:Arial;" text-anchor="middle" x="100.0" y="100.0">2017</text><line stroke="#e1ed5e" stroke-width="0.3" x1="100.0" x2="100.0" y1="15.0" y2="10.0" /><path d="M 100.0 14.0 a86.0,86.0 0 0,1 42.46469731375804,11.215312516191453" fill="none" id="id61" stroke="none" /><text fill="#e1ed5e" style="font-size:6.75px; font-family:Arial;" text-anchor="middle"><textPath startOffset="22.20632615414155" xlink:href="#id61">January</textPath></text><path d="M 102.16513564639614 79.11191278185805 l 0.717964456032635 -6.926542548083702 a27.963653109578342,27.963653109578342 0 0,0 0.47835596611735,0.05374886644033325 l -0.8370871256597103 6.913157728172768" fill="#ff4d07" stroke="none" /><path d="M 102.52436894288641 79.15227682838746 l 1.0756921209569084 -8.883698089690652 a29.94858677601453,29.94858677601453 0 0,0 0.511244155295519,0.06637416416286082 l -1.2284510047602735 8.863865602363655" fill="#ff6809" stroke="none" /><path d="M 103.59715602781102 79.31037775812273 l 0.6795257444621486 -3.9084017617961537 a24.967034102323563,24.967034102323563 0 0,0 0.4227809113512626,0.07726050920186632 l -0.746701776916312 3.896125771243549" fill="#ff2203" stroke="none" /><path d="M 105.01212808612495 79.60689891045804 l 1.576851546150021 -6.415816282280909 a27.606751044694853,27.606751044694853 0 0,0 0.4604952144400955,0.11739048351443941 l -1.6870556492751416 6.387722802597602" fill="#ff4806" stroke="none" /><path d="M 106.0581310904928 79.89281104454417 l 1.2647793247968264 -4.197855162057077 a25.384250757203876,25.384250757203876 0 0,0 0.41728641257932403,0.12965291963456965 l -1.3368511100868685 4.175462107539987" fill="#ff2803" stroke="none" /><path d="M 106.40334571778207 80.00007090966166 l 1.6473548406454463 -5.145275837292511 a26.402558783837907,26.402558783837907 0 0,0 0.4316405698688524,0.1423051094652001 l -1.7356782327567164 5.116157003568074" fill="#ff3705" stroke="none" /><path d="M 106.74666289553966 80.11325718540242 l 1.8252024343234985 -5.3800422457694905 a26.681216286370802,26.681216286370802 0 0,0 0.43365615581040123,0.15129411770042087 l -1.9175405941971733 5.347827274896862" fill="#ff3b05" stroke="none" /><path d="M 107.4271985657038 80.35727306442388 l 2.7528630651935853 -7.280502467016865 a28.78357059632311,28.78357059632311 0 0,0 0.4619308505895934,0.17922199350241766 l -2.8777770807828458 7.232037769623901" fill="#ff5808" stroke="none" /><path d="M 108.43124777332544 80.76684994638697 l 1.5915055447634765 -3.6305023617542322 a24.96401782257799,24.96401782257799 0 0,0 0.3920752129904864,0.17591271935069114 l -1.6537628762207432 3.6025693118870095" fill="#ff2203" stroke="none" /><path d="M 108.76106565485865 80.91482961587045 l 3.1551805631550143 -6.873268733822635 a28.562868997507163,28.562868997507163 0 0,0 0.44506633732283585,0.2089646130611112 l -3.273025111777448 6.817939138121521" fill="#ff5507" stroke="none" /><line stroke="#e1ed5e" stroke-width="0.3" x1="143.23703022742887" x2="145.7803849466894" y1="26.81831364943548" y2="22.513508569990506" /><path d="M 143.74570117128098 25.957352633546492 a86.0,86.0 0 0,1 28.547481713284135,27.462654790039103" fill="none" id="id62" stroke="none" /><text fill="#e1ed5e" style="font-size:6.75px; font-family:Arial;" text-anchor="middle"><textPath startOffset="19.985693538727396" xlink:href="#id62">February</textPath></text><path d="M 114.68862486808459 84.99185889309783 l 4.42794262358697 -4.524262026219594 a27.330531001398768,27.330531001398768 0 0,0 0.3333858859512143,0.33195422100725414 l -4.505164309705507 4.447371954562221" fill="#ff4406" stroke="none" /><path d="M 115.4437574822437 85.77008943001954 l 20.612307907451196 -18.99222378369794 a49.02805383043277,49.02805383043277 0 0,0 0.5665223357225639,0.62556811283157 l -20.936173883789795 18.634602883596823" fill="#a7ff21" stroke="none" /><path d="M 116.82858285166822 87.43820079747576 l 4.063069843514641 -3.0329034815313047 a26.07021104901589,26.07021104901589 0 0,0 0.2653418476588118,0.3619259820094532 l -4.114674303687079 2.962515055850358" fill="#ff3204" stroke="none" /><path d="M 117.04232023915458 87.72973835380427 l 15.511079906680369 -11.167787378666166 a40.113164960479956,40.113164960479956 0 0,0 0.3986243479512973,0.5638258706739503 l -15.701016874435549 10.899135007660423" fill="#ffee16" stroke="none" /><line stroke="#e1ed5e" stroke-width="0.3" x1="172.23445277983987" x2="176.4835382374775" y1="55.19839476539836" y2="52.563006222186495" /><path d="M 173.08426987136738 54.67131705675599 a86.0,86.0 0 0,1 12.851231095245387,41.99856678651699" fill="none" id="id63" stroke="none" /><text fill="#e1ed5e" style="font-size:6.75px; font-family:Arial;" text-anchor="middle"><textPath startOffset="22.20632615414155" xlink:href="#id63">March</textPath></text><path d="M 118.21658344932153 89.55222093294921 l 28.508338982395113 -16.350422025363326 a53.864292049923044,53.864292049923044 0 0,0 0.4543641782779342,0.8082631738389968 l -28.78556080196548 15.857275341589533" fill="#72ff27" stroke="none" /><path d="M 118.56541770881063 90.18545643968196 l 11.028069053558736 -5.829950384632718 a33.47423859549508,33.47423859549508 0 0,0 0.2649096517485161,0.5117211281294992 l -11.126788138467369 5.6392565342428735" fill="#ff980e" stroke="none" /><path d="M 119.47837535516314 92.15188598940014 l 29.422551110345292 -11.854763623059734 a52.72100147220294,52.72100147220294 0 0,0 0.33190745006293315,0.844668257533976 l -29.622252110289928 11.346546360629972" fill="#7eff26" stroke="none" /><path d="M 119.85752413597 93.16781622104841 l 1.6425008083747177 -0.5651191610320279 a22.73699987670614,22.73699987670614 0 0,0 0.1241469493987646,0.37118357698032833 l -1.6519850515452523 0.5367624811293855" fill="#ff0100" stroke="none" /><path d="M 120.37134235888165 94.90015583598534 l 54.07245629899692 -13.536717209514087 a76.74112703397094,76.74112703397094 0 0,0 0.30976811635706875,1.2841888275637612 l -54.297457215614806 12.603943150290918" fill="#44ffe6" stroke="none" /><line stroke="#e1ed5e" stroke-width="0.3" x1="184.98032266829074" x2="189.97916517819016" y1="98.17113171792111" y2="98.06355123074" /><path d="M 185.9800911702706 98.14961562048488 a86.0,86.0 0 0,1 -9.607161424134198,41.387399972396054" fill="none" id="id64" stroke="none" /><text fill="#e1ed5e" style="font-size:6.75px; font-family:Arial;" text-anchor="middle"><textPath startOffset="21.466115282336823" xlink:href="#id64">April</textPath></text><path d="M 119.54520255179757 107.68017299344265 l 3.9325536859823456 1.5452739634855928 a25.225263319055962,25.225263319055962 0 0,0 -0.16227938709873105,0.40276413034337866 l -3.905371684626222 -1.6127374616717849" fill="#ff2603" stroke="none" /><path d="M 119.12269723197855 108.67885076344098 l 3.320399477899406 1.5069658424286367 a24.646367883672916,24.646367883672916 0 0,0 -0.17865727593326594,0.38481187826285074 l -3.2939675851263086 -1.563897787970318" fill="#ff1d03" stroke="none" /><path d="M 118.64920377521936 109.65438752849418 l 5.7900751506836805 2.9974271286628746 a27.519934021307947,27.519934021307947 0 0,0 -0.2214011346055433,0.4188075094776323 l -5.737621507853244 -3.0966496532266414" fill="#ff4606" stroke="none" /><line stroke="#e1ed5e" stroke-width="0.3" x1="174.80103733775053" x2="179.2010983576182" y1="140.37084112569926" y2="142.7455964860345" /><path d="M 175.68104954172406 140.8457921977663 a86.0,86.0 0 0,1 -30.038265399797805,32.042727171017184" fill="none" id="id65" stroke="none" /><text fill="#e1ed5e" style="font-size:6.75px; font-family:Arial;" text-anchor="middle"><textPath startOffset="22.206326154141568" xlink:href="#id65">May</textPath></text><line stroke="#e1ed5e" stroke-width="0.3" x1="143.8653032363475" x2="146.44561519142675" y1="172.8068346515853" y2="177.08958963109032" /><path d="M 144.38136562736335 173.6633856474863 a86.0,86.0 0 0,1 -40.68145358897372,12.25698825130547" fill="none" id="id66" stroke="none" /><text fill="#e1ed5e" style="font-size:6.75px; font-family:Arial;" text-anchor="middle"><textPath startOffset="21.466115282336833" xlink:href="#id66">June</textPath></text><path d="M 107.2578585660854 119.70592522655815 l 2.234827296049465 6.067814519837761 a27.46628379290004,27.46628379290004 0 0,0 -0.44505900556744854,0.15958232495552496 l -2.1300487298522817 -6.105384385833246" fill="#ff4606" stroke="none" /><path d="M 106.91757812671514 119.82793768551818 l 2.1208545985358302 6.079031136260099 a27.43837275899356,27.43837275899356 0 0,0 -0.44728502258829433,0.15174336460025803 l -2.0158998430103092 -6.11463748775848" fill="#ff4506" stroke="none" /><path d="M 106.57524785965236 119.94407469862006 l 0.8121645611570173 2.4634616095132147 a23.593887888083216,23.593887888083216 0 0,0 -0.38680342791354494,0.12384224276825907 l -0.769639788152532 -2.4770766989411803" fill="#ff0e01" stroke="none" /><path d="M 104.13013068566511 120.58985236759428 l 0.7537572688865952 3.757690026914195 a24.83254280586268,24.83254280586268 0 0,0 -0.41982651945788996,0.08046075164964234 l -0.6889631348570009 -3.770107976912305" fill="#ff2003" stroke="none" /><path d="M 103.7750983002368 120.6578951692458 l 0.5994477225923047 3.280266426963814 a24.33458924066924,24.33458924066924 0 0,0 -0.4127042374699779,0.07175392175665087 l -0.5428945136502769 -3.290098927241471" fill="#ff1902" stroke="none" /><line stroke="#e1ed5e" stroke-width="0.3" x1="102.19456741930631" x2="102.32365962044197" y1="184.97166512339345" y2="189.96999836594603" /><path d="M 102.22038585953345 185.97133177190398 a86.0,86.0 0 0,1 -42.740103519485714,-10.115201625700543" fill="none" id="id67" stroke="none" /><text fill="#e1ed5e" style="font-size:6.75px; font-family:Arial;" text-anchor="middle"><textPath startOffset="22.20632615414155" xlink:href="#id67">July</textPath></text><line stroke="#e1ed5e" stroke-width="0.3" x1="58.666819895761336" x2="56.23545636021788" y1="174.27360380694188" y2="178.64263932499728" /><path d="M 58.180547188652646 175.14741091055294 a86.0,86.0 0 0,1 -31.652253787137756,-30.449443065178592" fill="none" id="id68" stroke="none" /><text fill="#e1ed5e" style="font-size:6.75px; font-family:Arial;" text-anchor="middle"><textPath startOffset="22.20632615414155" xlink:href="#id68">August</textPath></text><path d="M 83.06392112726016 112.41649034213515 l -4.946681337752188 3.6266022092446657 a27.13366936192065,27.13366936192065 0 0,0 -0.27291329886840465,-0.37905270245655126 l 5.0083744289962 -3.540915901336976" fill="#ff4106" stroke="none" /><line stroke="#e1ed5e" stroke-width="0.3" x1="26.63291911575756" x2="22.317208475507996" y1="142.92168965132927" y2="145.44649492493687" /><path d="M 25.769776987707644 143.4266507060508 a86.0,86.0 0 0,1 -11.730757126820373,-40.83630448921669" fill="none" id="id69" stroke="none" /><text fill="#e1ed5e" style="font-size:6.75px; font-family:Arial;" text-anchor="middle"><textPath startOffset="21.46611528233685" xlink:href="#id69">September</textPath></text><path d="M 81.87401531095188 110.60418214915194 l -11.378565219891996 6.6567626673900815 a34.18272489560842,34.18272489560842 0 0,0 -0.29274737326417216,-0.510429721035618 l 11.491464589308546 -6.459913100496157" fill="#ffa20e" stroke="none" /><path d="M 81.51974371655577 109.97397251340807 l -6.022685979788992 3.250501697485553 a27.843866428891154,27.843866428891154 0 0,0 -0.22400720926106948,-0.42373722060100466 l 6.077745697274947 -3.1463494617984225" fill="#ff4b07" stroke="none" /><path d="M 81.18737489456691 109.33194174019688 l -12.623626047444029 6.261908806695883 a35.09139583182173,35.09139583182173 0 0,0 -0.26376488347128024,-0.5434337845286761 l 12.729544187530028 -6.043686066201921" fill="#ffae10" stroke="none" /><path d="M 80.87730276802145 108.67885076344099 l -2.4146568903799572 1.095893876386698 a23.651707239979796,23.651707239979796 0 0,0 -0.16506516939737015,-0.37217838105900347 l 2.4331631445086073 -1.0541671588349988" fill="#ff0f01" stroke="none" /><path d="M 80.58989483394504 108.01547362559985 l -9.773347473581312 4.035939436604087 a31.573888971201388,31.573888971201388 0 0,0 -0.20312142179699064,-0.5041307110335668 l 9.84137150963569 -3.867109357727715" fill="#ff7f0b" stroke="none" /><path d="M 80.20201598880116 107.00284435728193 l -6.977621074029859 2.468089394247502 a28.401260778458127,28.401260778458127 0 0,0 -0.15905946096757795,-0.46230124765506253 l 7.019071365940665 -2.347615443503143" fill="#ff5307" stroke="none" /><path d="M 79.86692584326677 105.97154293290107 l -1.578286122736666 0.468125397490377 a22.6462467837474,22.6462467837474 0 0,0 -0.10763153218630356,-0.37467948347100577 l 1.5861102918090737 -0.44088843851477527" fill="#ff0000" stroke="none" /><path d="M 79.76711848015287 105.62410040840567 l -18.99973932550739 5.281325924602895 a40.72010390335494,40.72010390335494 0 0,0 -0.18190625136840607,-0.6769408321283494 l 19.087833653217572 -4.953494159299007" fill="#fff517" stroke="none" /><path d="M 79.50377843672027 104.57218783832718 l -8.812711737629165 1.9658927527237184 a30.029320156343914,30.029320156343914 0 0,0 -0.10819987505148997,-0.5054737946473913 l 8.845245651405095 -1.8139051386601635" fill="#ff6909" stroke="none" /><path d="M 79.35854240842038 103.8639653848113 l -24.928870065431195 4.666545014465388 a46.361884888769275,46.361884888769275 0 0,0 -0.14008697790730557,-0.7856821672656263 l 25.00550348567769 -4.236744096466548" fill="#c5ff1e" stroke="none" /><path d="M 79.07016306316243 101.71520430193888 l -3.5444659738154547 0.29046969189062594 a24.5563480821543,24.5563480821543 0 0,0 -0.03089824871271264,-0.42158205491204176 l 3.5489407811925027 -0.22941450048182352" fill="#ff1c02" stroke="none" /><path d="M 79.0235259727143 100.99374915477108 l -19.060219554225352 0.9029676316012178 a40.081596369250505,40.081596369250505 0 0,0 -0.026716993385169446,-0.6894468849797362 l 19.07293868046172 -0.5747434996074849" fill="#ffed16" stroke="none" /><line stroke="#e1ed5e" stroke-width="0.3" x1="15.007084014347285" x2="10.007500721073583" y1="101.09737516637583" y2="101.16192664675087" /><path d="M 14.007167355692545 101.11028546245083 a86.0,86.0 0 0,1 10.666146001902534,-42.60595125391555" fill="none" id="id70" stroke="none" /><text fill="#e1ed5e" style="font-size:6.75px; font-family:Arial;" text-anchor="middle"><textPath startOffset="22.20632615414155" xlink:href="#id70">October</textPath></text><path d="M 79.00175016825051 100.2711162175752 l -4.615299991743287 0.05958985566713107 a25.615684669112916,25.615684669112916 0 0,0 -0.0018976376224273844,-0.4409441532003686 l 4.615641926655217 0.019863775736912923" fill="#ff2b04" stroke="none" /><path d="M 79.03285615573316 98.82574320788736 l -32.4002440676331 -1.8145631539094325 a53.45101624112441,53.45101624112441 0 0,0 0.0593545766169778,-0.9181890293071754 l 32.36420890001172 2.3720112474696196" fill="#76ff27" stroke="none" /><path d="M 79.12142395522702 97.74499172005258 l -14.715029430189649 -1.58930921024449 a35.800607923227865,35.800607923227865 0 0,0 0.07144718287235227,-0.6121158307910253 l 14.685491894313708 1.842368779360377" fill="#ffb711" stroke="none" /><path d="M 79.16333360222342 97.38593545837743 l -2.3918107865902134 -0.30006468636283473 a23.41055961445705,23.41055961445705 0 0,0 0.05360349383610426,-0.3994082910410381 l 2.3862912936962752 0.3411913194685322" fill="#ff0b01" stroke="none" /><path d="M 79.26566170972629 96.67025291283419 l -2.766123234201823 -0.44421435846572194 a23.80156458841453,23.80156458841453 0 0,0 0.0684443894476444,-0.40396266093474614 l 2.7580669832339555 0.49176280771629605" fill="#ff1101" stroke="none" /><path d="M 79.54389044137918 95.25157060432595 l -52.98902764551458 -12.300220420657071 a75.39790872095965,75.39790872095965 0 0,0 0.3043461708793544,-1.2617113631686658 l 52.769448674374416 13.210517015485133" fill="#42ffd9" stroke="none" /><path d="M 80.14247586403 93.16781622104843 l -6.41056984951047 -2.205621961719045 a27.779393338158663,27.779393338158663 0 0,0 0.15946287066131082,-0.4508230088606315 l 6.371653898039349 2.3156425970062875" fill="#ff4a06" stroke="none" /><path d="M 80.38941819471856 92.48833698450439 l -4.847286572427011 -1.8567110161822122 a26.190718920616256,26.190718920616256 0 0,0 0.16488485593052865,-0.4196139734922236 l 4.814608166614791 1.9398739945701993" fill="#ff3404" stroke="none" /><path d="M 81.26839172434947 90.50648371742162 l -29.350719315800305 -14.875472924134758 a53.905081964212755,53.905081964212755 0 0,0 0.42659600605633485,-0.8240477009192718 l 29.090313876583856 15.378493347314366" fill="#71ff27" stroke="none" /><line stroke="#e1ed5e" stroke-width="0.3" x1="26.266209847984243" x2="21.928928074336255" y1="57.711370442889674" y2="55.22380399835377" /><path d="M 25.398753493254645 57.213857153982495 a86.0,86.0 0 0,1 29.58750427330803,-30.492523968695096" fill="none" id="id71" stroke="none" /><text fill="#e1ed5e" style="font-size:6.75px; font-family:Arial;" text-anchor="middle"><textPath startOffset="21.46611528233685" xlink:href="#id71">November</textPath></text><path d="M 81.96595687620814 89.24020034530311 l -3.4983683724168517 -2.087260330207016 a25.073725193871383,25.073725193871383 0 0,0 0.2243312781924426,-0.3687416374103418 l 3.4619212959381924 2.1471697408244323" fill="#ff2303" stroke="none" /><path d="M 82.34701348167596 88.62581576622439 l -11.169939144808817 -7.197022757664196 a34.28776418638849,34.28776418638849 0 0,0 0.3239432276492228,-0.4933877601771471 l 11.044399281801674 7.38822858181901" fill="#ffa30f" stroke="none" /><path d="M 84.07557802195018 86.31012108654704 l -44.641474422381066 -38.377303754120135 a79.870015135382,79.870015135382 0 0,0 0.9052244503991286,-1.0348280306749014 l 43.97425810840409 39.14004734099798" fill="#48f9ff" stroke="none" /><path d="M 87.22198572758235 83.33499621200491 l -7.9637071462677556 -10.386215489327782 a34.08793733566403,34.08793733566403 0 0,0 0.4687153817198081,-0.3530267080224254 l 7.783745610789557 10.521758786856063" fill="#ffa00e" stroke="none" /><path d="M 88.39885842347998 82.49532879139004 l -4.580431461783841 -6.911298013496873 a29.291344439080135,29.291344439080135 0 0,0 0.42267824876911114,-0.27492169055982457 l 4.460786187230442 6.989118628216232" fill="#ff5f08" stroke="none" /><line stroke="#e1ed5e" stroke-width="0.3" x1="56.762969772571076" x2="54.21961505331055" y1="26.818313649435495" y2="22.513508569990535" /><path d="M 56.25429882871897 25.957352633546506 a86.0,86.0 0 0,1 42.265352541879196,-11.944610805530505" fill="none" id="id72" stroke="none" /><text fill="#e1ed5e" style="font-size:6.75px; font-family:Arial;" text-anchor="middle"><textPath startOffset="22.20632615414155" xlink:href="#id72">December</textPath></text><path d="M 89.3179101791058 81.91981866633112 l -3.315278191406117 -5.611339342507298 a27.517530107577812,27.517530107577812 0 0,0 0.40988444438734617,-0.23743152639939558 l 3.218197014553451 5.667575026296741" fill="#ff4606" stroke="none" /><path d="M 89.94658935756843 81.56283822128135 l -5.436990780299297 -9.971012044678066 a32.35702205422595,32.35702205422595 0 0,0 0.4912950838848959,-0.262432819185083 l 5.264550649886095 10.0631235903649" fill="#ff890c" stroke="none" /><path d="M 90.91171255644093 81.06846463323043 l -5.6222506912418755 -11.711539546157669 a33.99114549900757,33.99114549900757 0 0,0 0.529649687150501,-0.24867762994409792 l 5.419822792791766 11.806582158741774" fill="#ff9f0e" stroke="none" /><path d="M 92.23578459929587 80.48803036053334 l -23.29264620211241 -58.53590891839998 a84.0,84.0 0 0,0 1.3480673400012946,-0.5230291844377941 l 22.28159569711144 58.92818080672833" fill="#4dd2ff" stroke="none" /><path d="M 93.94186890950719 79.89281104454417 l -0.5104666652784559 -1.6942600846526725 a22.76948960178007,22.76948960178007 0 0,0 0.3762493156791678,-0.1098374926823158 l 0.48122713187586674 1.7027959062536873" fill="#ff0200" stroke="none" /></svg>