<?xml version="1.0" encoding="utf-8" ?>
<svg baseProfile="full" height="200mm" version="1.1" viewBox="0,0,200,200" width="200mm" xmlns="http://www.w3.org/2000/svg" xmlns:ev="http://www.w3.org/2001/xml-events" xmlns:xlink="http://www.w3.org/1999/xlink"><defs /><rect fill="#1a1a1a" height="200" width="200" x="0" y="0" /><rect fill="#1a1a1a" height="200" width="180" x="10" y="0" /><text alignment-baseline="middle" fill="#e1ed5e" style="dominant-baseline: central; font-size:9.0px; font-family:Arial;" text-anchor="middle" x="100.0" y="100.0">2026</text><line stroke="#e1ed5e" stroke-width="0.3" x1="100.0" x2="100.0" y1="15.0" y2="10.0" /><path d="M 100.0 14.0 a86.0,86.0 0 0,1 42.46469731375804,11.215312516191453" fill="none" id="id169" stroke="none" /><text fill="#e1ed5e" style="font-size:6.75px; font-family:Arial;" text-anchor="middle"><textPath startOffset="22.20632615414155" xlink:href="#id169">January</textPath></text><path d="M 100.0 79.0 l 0.0 -29.99679205086656 a50.99679205086656,50.99679205086656 0 0,0 0.8778259443766052,0.0075557250427908135 l -0.5163454651040769 29.99234770243233" fill="#abff21" stroke="none" /><path d="M 100.72285384407766 79.0124445844662 l 0.5290788547421095 -15.36143422914993 a36.3705428014444,36.3705428014444 0 0,0 0.6255026173198976,0.026935458481502035 l -0.7934223044513387 15.350051044144232" fill="#ff910d" stroke="none" /><path d="M 101.08401301168833 79.027996857942 l 0.7647741597880202 -14.795805870502361 a35.815557730746136,35.815557730746136 0 0,0 0.615410117677573,0.03712321891044375 l -1.0193463263052052 14.780449382211613" fill="#ff890c" stroke="none" /><path d="M 101.80526077348638 79.07773832637324 l 1.273604983415928 -14.760580367789297 a35.81542447747444,35.81542447747444 0 0,0 0.6137653015257176,0.058284410927402226 l -1.52749541203189 14.736470412346717" fill="#ff890c" stroke="none" /><path d="M 102.88285421437855 79.19881850522331 l 1.0170598529128343 -7.338576639072684 a28.408719041234484,28.408719041234484 0 0,0 0.4838018645444071,0.071299818637827 l -1.143230697885897 7.319982336273888" fill="#ff1a02" stroke="none" /><path d="M 103.59715602781102 79.31037775812273 l 5.0727030384696015 -29.176468521168243 a50.61416268414861,50.61416268414861 0 0,0 0.8570782472273686,0.15662557137451472 l -5.574176406799871 29.084827468442988" fill="#b0ff20" stroke="none" /><path d="M 104.307194497241 79.44645832069477 l 4.255576652348796 -20.30722600280919 a41.74833392282826,41.74833392282826 0 0,0 0.7020822799673755,0.15344799313469598 l -4.604501656469699 20.230964511578623" fill="#ffdc14" stroke="none" /><path d="M 104.66035177308747 79.52364482259891 l 2.586967807339639 -11.366453485655082 a32.657129461311314,32.657129461311314 0 0,0 0.5470478379184592,0.12946854882852568 l -2.7822393322206223 11.320239024685687" fill="#ff5b08" stroke="none" /><path d="M 105.01212808612495 79.60689891045804 l 4.124485197055635 -16.78150320992776 a38.28092092816661,38.28092092816661 0 0,0 0.6385460159089602,0.16277959727532193 l -4.41274010164962 16.70802061648357" fill="#ffac0f" stroke="none" /><path d="M 106.0581310904928 79.89281104454417 l 12.814695157673553 -42.53250599781052 a65.42105895223446,65.42105895223446 0 0,0 1.0754431658602737,0.33414542662187324 l -13.544923696244545 42.30562043630612" fill="#34ff5c" stroke="none" /><path d="M 106.74666289553966 80.11325718540242 l 2.378750625396815 -7.011703806722616 a28.404218041834948,28.404218041834948 0 0,0 0.46166051324709095,0.1610642881301094 l -2.499093142707179 6.969718665420299" fill="#ff1a02" stroke="none" /><path d="M 107.08798089147638 80.2323363322302 l 4.99667708971943 -13.93522833629575 a35.80396469610851,35.80396469610851 0 0,0 0.5783494110635576,0.2130109689861673 l -5.235808826555564 13.847154099503259" fill="#ff890c" stroke="none" /><path d="M 107.4271985657038 80.35727306442388 l 2.6178101562769798 -6.923327768072657 a28.40171584151086,28.40171584151086 0 0,0 0.45580268483260994,0.17684436039547538 l -2.7365960061092567 6.877240703786635" fill="#ff1a02" stroke="none" /><path d="M 108.09893153111575 80.62456947434976 l 2.857266111243177 -6.835563533164015 a28.408704235315405,28.408704235315405 0 0,0 0.44955589702506527,0.1924763737412447 l -2.9745057660585577 6.785367631459979" fill="#ff1a02" stroke="none" /><path d="M 108.43124777332544 80.76684994638697 l 11.890931396610494 -27.1252931922821 a50.617153479802255,50.617153479802255 0 0,0 0.7949734442833439,0.35668141153024513 l -12.356086959360617 26.916591450235323" fill="#b0ff20" stroke="none" /><path d="M 109.08828744355905 81.06846463323043 l 7.490903273066221 -15.604072948155707 a38.30897814481834,38.30897814481834 0 0,0 0.5920173399744264,0.29050033762237226 l -7.758391880051079 15.472817450398503" fill="#ffad10" stroke="none" /><path d="M 109.73455568895987 81.39251694778311 l 3.6754141557092055 -7.025508795414224 a28.92883617250541,28.92883617250541 0 0,0 0.4392429862749677,0.2346283913201544 l -3.7958021885124844 6.961201677592316" fill="#ff2203" stroke="none" /><line stroke="#e1ed5e" stroke-width="0.3" x1="143.23703022742887" x2="145.7803849466894" y1="26.81831364943548" y2="22.513508569990506" /><path d="M 143.74570117128098 25.957352633546492 a86.0,86.0 0 0,1 28.547481713284135,27.462654790039103" fill="none" id="id170" stroke="none" /><text fill="#e1ed5e" style="font-size:6.75px; font-family:Arial;" text-anchor="middle"><textPath startOffset="19.985693538727396" xlink:href="#id170">February</textPath></text><path d="M 111.2981086023043 82.29822771554956 l 3.1032223969438895 -4.862100210959515 a26.768015924588518,26.768015924588518 0 0,0 0.3862662609277053,0.25123832080244207 l -3.186455683655875 4.807962965997544" fill="#ff0000" stroke="none" /><path d="M 111.60114157652 82.49532879139004 l 8.74653968776674 -13.197434100562177 a36.8326947595272,36.8326947595272 0 0,0 0.5254715448719579,0.35480073275197865 l -8.972415927045239 13.044921455511528" fill="#ff980e" stroke="none" /><path d="M 111.90073688211348 82.69761687909136 l 8.40639846593334 -12.221993340866677 a35.833902264483065,35.833902264483065 0 0,0 0.5052048860817301,0.35392830821759613 l -8.615534491598721 12.075480189885145" fill="#ff890c" stroke="none" /><path d="M 112.77801427241765 83.33499621200491 l 22.526522144024877 -29.378944870242506 a58.02116423877012,58.02116423877012 0 0,0 0.7873401390379694,0.6145314671014818 l -23.028894838222275 28.986835013917798" fill="#5aff2a" stroke="none" /><path d="M 113.34407831869373 83.78471172551755 l 10.711894890928582 -13.016744916659489 a37.857649313581135,37.857649313581135 0 0,0 0.4996172464620884,0.41841507568918335 l -10.934369674349787 12.830428683576487" fill="#ffa60f" stroke="none" /><path d="M 114.16331599549186 84.49514656593476 l 13.830304292450416 -15.140299141191347 a41.50624233999325,41.50624233999325 0 0,0 0.5233583688062258,0.4864045661498534 l -14.088870545051488 14.899989988966855" fill="#ffd914" stroke="none" /><path d="M 114.68862486808459 84.99185889309783 l 20.725295492187264 -21.17612520044915 a50.630493612891016,50.630493612891016 0 0,0 0.6176057087371293,0.6149535135493641 l -21.086737001091716 20.816235836249668" fill="#b0ff20" stroke="none" /><path d="M 115.19652480421416 85.50635884689758 l 5.3630967821609605 -5.115037893956099 a28.411236047477647,28.411236047477647 0 0,0 0.3344850463879628,0.3568053261912624 l -5.4503491505193855 5.021963150886783" fill="#ff1a02" stroke="none" /><path d="M 115.68641384162765 86.03803664274999 l 11.064795239816679 -9.848411960407963 a35.81286305347405,35.81286305347405 0 0,0 0.40589299025233766,0.4640058535564041 l -11.232680093646865 9.656490550648611" fill="#ff890c" stroke="none" /><path d="M 115.9244219780498 86.31012108654704 l 19.09074745759661 -16.41190000001582 a46.17552581576501,46.17552581576501 0 0,0 0.5129647661652191,0.6071884857235075 l -19.370422837248945 16.080852564663203" fill="#e7ff1a" stroke="none" /><path d="M 116.38621287248628 86.86637796730983 l 32.35304809461866 -25.931111025271104 a62.46254020218304,62.46254020218304 0 0,0 0.6652139158073195,0.8447541195444812 l -32.79461609101995 25.370364511773587" fill="#30ff36" stroke="none" /><path d="M 116.82858285166822 87.43820079747576 l 11.869977460017491 -8.860417701568226 a35.81227081671095,35.81227081671095 0 0,0 0.3644962478246808,0.4971724724037424 l -12.020736320355798 8.654782785492989" fill="#ff890c" stroke="none" /><path d="M 117.04232023915458 87.72973835380427 l 9.615937811759974 -6.9233573403204 a32.84901417255476,32.84901417255476 0 0,0 0.32643689093788447,0.46172183209350065 l -9.733687322501742 6.7568090078951055" fill="#ff5d08" stroke="none" /><path d="M 117.45458315368197 88.32363383020206 l 5.837491944133751 -3.905031294807698 a28.023217326215523,28.023217326215523 0 0,0 0.2647571716960598,0.4032433364385808 l -5.903845751187735 3.803969894391443" fill="#ff1402" stroke="none" /><line stroke="#e1ed5e" stroke-width="0.3" x1="172.23445277983987" x2="176.4835382374775" y1="55.19839476539836" y2="52.563006222186495" /><path d="M 173.08426987136738 54.67131705675599 a86.0,86.0 0 0,1 12.851231095245387,41.99856678651699" fill="none" id="id171" stroke="none" /><text fill="#e1ed5e" style="font-size:6.75px; font-family:Arial;" text-anchor="middle"><textPath startOffset="22.20632615414155" xlink:href="#id171">March</textPath></text><path d="M 117.84615892207809 88.93136811851018 l 44.04716491517455 -27.319147834450035 a72.83134742089115,72.83134742089115 0 0,0 0.6516123604720389,1.0710793906820237 l -44.510893073932806 26.556900670560932" fill="#3effb5" stroke="none" /><path d="M 118.21658344932153 89.55222093294921 l 12.849281004680675 -7.369463625318615 a35.81259654693065,35.81259654693065 0 0,0 0.3020918011317031,0.5373876059042908 l -12.97423044710481 7.14719250947953" fill="#ff890c" stroke="none" /><path d="M 118.56541770881063 90.18545643968196 l 7.860203922727757 -4.155269490973198 a29.89095440599475,29.89095440599475 0 0,0 0.23655212648178026,0.4569434153331736 l -7.930565482369654 4.019353353379679" fill="#ff3104" stroke="none" /><path d="M 118.73160827565052 90.50648371742162 l 6.855812078614045 -3.4746489805269922 a28.686048711473763,28.686048711473763 0 0,0 0.21943459492519282,0.44236675328870634 l -6.914606686492646 3.3561226387393357" fill="#ff1e03" stroke="none" /><path d="M 119.04729006885535 91.15688171328212 l 33.573053648718286 -15.587019654170826 a58.01493094683852,58.01493094683852 0 0,0 0.4127283935709092,0.9093923060117499 l -33.83638435925254 15.006805339317014" fill="#5aff2a" stroke="none" /><path d="M 119.34039704204932 91.81776055985345 l 13.64080343518686 -5.770942531324884 a35.811323237889994,35.811323237889994 0 0,0 0.23529457003510384,0.5697844647378858 l -13.738119692108162 5.535283496133695" fill="#ff890c" stroke="none" /><path d="M 119.7369772167798 92.82701384747503 l 6.962489362587738 -2.5303692270812945 a28.408037968956922,28.408037968956922 0 0,0 0.1630714979712244,0.4610250842087321 l -7.005013941368772 2.410146516445948" fill="#ff1a02" stroke="none" /><path d="M 119.97218684219823 93.5106431181261 l 59.91656052659467 -19.46807064562169 a84.0,84.0 0 0,0 0.4349780649271753,1.3789993342943234 l -60.24279407529006 18.433821144900946" fill="#4dd2ff" stroke="none" /><line stroke="#e1ed5e" stroke-width="0.3" x1="184.98032266829074" x2="189.97916517819016" y1="98.17113171792111" y2="98.06355123074" /><path d="M 185.9800911702706 98.14961562048488 a86.0,86.0 0 0,1 -9.607161424134198,41.387399972396054" fill="none" id="id172" stroke="none" /><text fill="#e1ed5e" style="font-size:6.75px; font-family:Arial;" text-anchor="middle"><textPath startOffset="21.466115282336823" xlink:href="#id172">April</textPath></text><line stroke="#e1ed5e" stroke-width="0.3" x1="174.80103733775053" x2="179.2010983576182" y1="140.37084112569926" y2="142.7455964860345" /><path d="M 175.68104954172406 140.8457921977663 a86.0,86.0 0 0,1 -30.038265399797805,32.042727171017184" fill="none" id="id173" stroke="none" /><text fill="#e1ed5e" style="font-size:6.75px; font-family:Arial;" text-anchor="middle"><textPath startOffset="22.206326154141568" xlink:href="#id173">May</textPath></text><line stroke="#e1ed5e" stroke-width="0.3" x1="143.8653032363475" x2="146.44561519142675" y1="172.8068346515853" y2="177.08958963109032" /><path d="M 144.38136562736335 173.6633856474863 a86.0,86.0 0 0,1 -40.68145358897372,12.25698825130547" fill="none" id="id174" stroke="none" /><text fill="#e1ed5e" style="font-size:6.75px; font-family:Arial;" text-anchor="middle"><textPath startOffset="21.466115282336833" xlink:href="#id174">June</textPath></text><line stroke="#e1ed5e" stroke-width="0.3" x1="102.19456741930631" x2="102.32365962044197" y1="184.97166512339345" y2="189.96999836594603" /><path d="M 102.22038585953345 185.97133177190398 a86.0,86.0 0 0,1 -42.740103519485714,-10.115201625700543" fill="none" id="id175" stroke="none" /><text fill="#e1ed5e" style="font-size:6.75px; font-family:Arial;" text-anchor="middle"><textPath startOffset="22.20632615414155" xlink:href="#id175">July</textPath></text><line stroke="#e1ed5e" stroke-width="0.3" x1="58.666819895761336" x2="56.23545636021788" y1="174.27360380694188" y2="178.64263932499728" /><path d="M 58.180547188652646 175.14741091055294 a86.0,86.0 0 0,1 -31.652253787137756,-30.449443065178592" fill="none" id="id176" stroke="none" /><text fill="#e1ed5e" style="font-size:6.75px; font-family:Arial;" text-anchor="middle"><textPath startOffset="22.20632615414155" xlink:href="#id176">August</textPath></text><line stroke="#e1ed5e" stroke-width="0.3" x1="26.63291911575756" x2="22.317208475507996" y1="142.92168965132927" y2="145.44649492493687" /><path d="M 25.769776987707644 143.4266507060508 a86.0,86.0 0 0,1 -11.730757126820373,-40.83630448921669" fill="none" id="id177" stroke="none" /><text fill="#e1ed5e" style="font-size:6.75px; font-family:Arial;" text-anchor="middle"><textPath startOffset="21.46611528233685" xlink:href="#id177">September</textPath></text><line stroke="#e1ed5e" stroke-width="0.3" x1="15.007084014347285" x2="10.007500721073583" y1="101.09737516637583" y2="101.16192664675087" /><path d="M 14.007167355692545 101.11028546245083 a86.0,86.0 0 0,1 10.666146001902534,-42.60595125391555" fill="none" id="id178" stroke="none" /><text fill="#e1ed5e" style="font-size:6.75px; font-family:Arial;" text-anchor="middle"><textPath startOffset="22.20632615414155" xlink:href="#id178">October</textPath></text><line stroke="#e1ed5e" stroke-width="0.3" x1="26.266209847984243" x2="21.928928074336255" y1="57.711370442889674" y2="55.22380399835377" /><path d="M 25.398753493254645 57.213857153982495 a86.0,86.0 0 0,1 29.58750427330803,-30.492523968695096" fill="none" id="id179" stroke="none" /><text fill="#e1ed5e" style="font-size:6.75px; font-family:Arial;" text-anchor="middle"><textPath startOffset="21.46611528233685" xlink:href="#id179">November</textPath></text><line stroke="#e1ed5e" stroke-width="0.3" x1="56.762969772571076" x2="54.21961505331055" y1="26.818313649435495" y2="22.513508569990535" /><path d="M 56.25429882871897 25.957352633546506 a86.0,86.0 0 0,1 42.265352541879196,-11.944610805530505" fill="none" id="id180" stroke="none" /><text fill="#e1ed5e" style="font-size:6.75px; font-family:Arial;" text-anchor="middle"><textPath startOffset="22.20632615414155" xlink:href="#id180">December</textPath></text></svg>