<?xml version="1.0" encoding="utf-8" ?>
<svg baseProfile="full" height="200mm" version="1.1" viewBox="0,0,200,200" width="200mm" xmlns="http://www.w3.org/2000/svg" xmlns:ev="http://www.w3.org/2001/xml-events" xmlns:xlink="http://www.w3.org/1999/xlink"><defs /><rect fill="#1a1a1a" height="200" width="200" x="0" y="0" /><text alignment-baseline="middle" fill="#e1ed5e" style="dominant-baseline: central; font-size:9.0px; font-family:Arial;" text-anchor="middle" x="100.0" y="100.0">2025</text><line stroke="#e1ed5e" stroke-width="0.3" x1="100.0" x2="100.0" y1="15.0" y2="10.0" /><path d="M 100.0 14.0 a86.0,86.0 0 0,1 42.46469731375804,11.215312516191453" fill="none" id="id157" stroke="none" /><text fill="#e1ed5e" style="font-size:6.75px; font-family:Arial;" text-anchor="middle"><textPath startOffset="22.20632615414155" xlink:href="#id157">January</textPath></text><path d="M 100.0 79.0 l 0.0 -31.319399491106125 a52.319399491106125,52.319399491106125 0 0,0 0.9005924572998056,0.007751683607165447 l -0.5391119780272773 31.31475918410752" fill="#a0ff22" stroke="none" /><path d="M 100.72285384407766 79.0124445844662 l 0.25524199259113267 -7.41077260329564 a28.4151668256715,28.4151668256715 0 0,0 0.48868561896560947,0.021043830730165317 l -0.3827684439460737 7.40528104604128" fill="#ff0e01" stroke="none" /><path d="M 101.44485096284872 79.0497635885617 l 2.53135371824656 -36.70444924899258 a57.79163418929299,57.79163418929299 0 0,0 0.9918415206954255,0.07698599114979243 l -3.1627854283043266 36.655437995654324" fill="#60ff29" stroke="none" /><path d="M 102.16513564639614 79.11191278185805 l 1.5290065939520594 -14.75104949879034 a35.830081674762,35.830081674762 0 0,0 0.6129218263590732,0.0688689087558222 l -1.782695123820858 14.722544636563917" fill="#ff800b" stroke="none" /><path d="M 103.2404852339499 79.25152402106235 l 2.316233777756539 -14.830594009776162 a36.01037832954349,36.01037832954349 0 0,0 0.6116119155256059,0.10092120655483765 l -2.5711748994210204 14.7885265402817" fill="#ff830c" stroke="none" /><path d="M 103.59715602781102 79.31037775812273 l 3.915821738864197 -22.522479402410656 a43.86035297895843,43.86035297895843 0 0,0 0.742712167117454,0.135725901244015 l -4.302929027084552 22.451738019815902" fill="#fff116" stroke="none" /><path d="M 103.95276090670814 79.375362276772 l 8.928342680030102 -46.58612994576772 a68.4339836650476,68.4339836650476 0 0,0 1.155014406898615,0.23168502421246823 l -9.728923496395842 46.42554096547804" fill="#38ff7f" stroke="none" /><path d="M 104.66035177308747 79.52364482259891 l 1.6465850048563448 -7.234659749061042 a28.41967275982585,28.41967275982585 0 0,0 0.4760651286277686,0.11266923489877635 l -1.770873820446637 7.205244602021398" fill="#ff0e01" stroke="none" /><path d="M 105.01212808612495 79.60689891045804 l 4.245576060073307 -17.27419177815796 a38.78827191355157,38.78827191355157 0 0,0 0.6470088987897814,0.16493697455559095 l -4.542293847548114 17.1985518074335" fill="#ffab0f" stroke="none" /><path d="M 105.71112130821622 79.79150937346287 l 4.837826895529186 -17.118386074283237 a38.788864799624506,38.788864799624506 0 0,0 0.6409578823272915,0.1871131820737353 l -5.131774995579904 17.032574563290797" fill="#ffab0f" stroke="none" /><path d="M 106.40334571778207 80.00007090966166 l 12.656086688307655 -39.529465920356664 a62.506086375501575,62.506086375501575 0 0,0 1.0218768174813753,0.33689672037969143 l -13.334646328031447 39.30575547571774" fill="#30ff33" stroke="none" /><path d="M 107.08798089147638 80.2323363322302 l 2.677106716891141 -7.466180565733517 a28.9316298838108,28.9316298838108 0 0,0 0.46733905718071067,0.17212491879620015 l -2.8052280998444283 7.418992379130992" fill="#ff1602" stroke="none" /><path d="M 107.4271985657038 80.35727306442388 l 6.418311776618378 -16.974522022027084 a39.147427474387676,39.147427474387676 0 0,0 0.6282543859915816,0.24375294124723107 l -6.7095493276096265 16.86152637688931" fill="#ffb010" stroke="none" /><path d="M 108.43124777332544 80.76684994638697 l 17.854967485654214 -40.730302096023365 a65.47198413323937,65.47198413323937 0 0,0 1.0282776717429327,0.4613582177363654 l -18.553427275863925 40.41692354777047" fill="#34ff59" stroke="none" /><path d="M 108.76106565485865 80.91482961587045 l 3.538539711772927 -7.70838114570488 a29.481768870893177,29.481768870893177 0 0,0 0.4593846259040713,0.21568724153729021 l -3.670702548976596 7.646328921527587" fill="#ff1f03" stroke="none" /><path d="M 109.08828744355905 81.06846463323043 l 6.418187189683947 -13.369530676338965 a35.83028918488752,35.83028918488752 0 0,0 0.5537123024676845,0.27170422207476547 l -6.647370759162063 13.257071294129366" fill="#ff800b" stroke="none" /><path d="M 109.73455568895987 81.39251694778311 l 9.61916497367885 -18.386915124149073 a41.75107184155826,41.75107184155826 0 0,0 0.6339302890206284,0.33862360599861696 l -9.93424030922779 18.218612791648702" fill="#ffd413" stroke="none" /><path d="M 110.05341064243156 81.56283822128135 l 7.097384176512326 -13.016042507582915 a35.825323764026635,35.825323764026635 0 0,0 0.5388741322976753,0.2998828711970124 l -7.320382397882036 12.891944238825722" fill="#ff800b" stroke="none" /><path d="M 110.36928655335952 81.73862282372117 l 7.31890399701545 -12.889340623263212 a35.822329689358284,35.822329689358284 0 0,0 0.5335877036921691,0.3090884386816533 l -7.539688433172948 12.76144802719151" fill="#ff800b" stroke="none" /><line stroke="#e1ed5e" stroke-width="0.3" x1="143.23703022742887" x2="145.7803849466894" y1="26.81831364943548" y2="22.513508569990506" /><path d="M 143.74570117128098 25.957352633546492 a86.0,86.0 0 0,1 28.547481713284135,27.462654790039103" fill="none" id="id158" stroke="none" /><text fill="#e1ed5e" style="font-size:6.75px; font-family:Arial;" text-anchor="middle"><textPath startOffset="19.985693538727396" xlink:href="#id158">February</textPath></text><path d="M 110.99172775467656 82.1063720568725 l 21.821188722049182 -35.5230989143624 a62.68998481317619,62.68998481317619 0 0,0 0.9146195564205174,0.5727346823231686 l -22.42942743084196 35.142219890716284" fill="#30ff35" stroke="none" /><path d="M 111.60114157652 82.49532879139004 l 12.286694408884086 -18.53908466245079 a43.240964898556484,43.240964898556484 0 0,0 0.6168947663304298,0.4165300999852058 l -12.603993869621059 18.324842650166914" fill="#ffe915" stroke="none" /><path d="M 111.90073688211348 82.69761687909136 l 10.251924022334796 -14.9051877138369 a39.090510411385296,39.090510411385296 0 0,0 0.5511182319329654,0.38609354111502353 l -10.506973393851412 14.726509329957942" fill="#ffaf10" stroke="none" /><path d="M 112.19680574252982 82.90503203632743 l 8.609278007132627 -12.066711139711611 a35.823130085556755,35.823130085556755 0 0,0 0.49888772268517023,0.3624631472305188 l -8.815711046171586 11.916728757664417" fill="#ff800b" stroke="none" /><path d="M 112.48926042617603 83.11751280151076 l 12.342705964057583 -16.684380685680008 a41.75357678521644,41.75357678521644 0 0,0 0.5741193281464733,0.43241477521801663 l -12.628071445962439 16.469449320956144" fill="#ffd513" stroke="none" /><path d="M 113.06298171725822 83.55741782278167 l 29.50503045573578 -37.13844958297855 a68.43217536252513,68.43217536252513 0 0,0 0.916002472535456,0.7406769624216101 l -30.13993632683573 36.62506652329281" fill="#38ff7f" stroke="none" /><path d="M 113.6212207817346 84.01681056812373 l 4.811753817504269 -5.64612922711401 a28.41833876616173,28.41833876616173 0 0,0 0.3695821213902778,0.3204979737469488 l -4.908229737541311 5.56246625994739" fill="#ff0e01" stroke="none" /><path d="M 113.89432698308785 84.25364557470407 l 12.048831686466425 -13.654866074245248 a39.21070324052235,39.21070324052235 0 0,0 0.5022499209683248,0.45092493806852707 l -12.28209259503074 13.445442127407423" fill="#ffb110" stroke="none" /><path d="M 114.42810811169701 84.74124197986012 l 13.384825404262715 -14.15541181174611 a40.48151007141689,40.48151007141689 0 0,0 0.5021957951179405,0.4831119570142518 l -13.626504442993074 13.922916767969555" fill="#ffc312" stroke="none" /><path d="M 114.94478906791727 85.2469230424477 l 31.647716637897148 -31.24173897455838 a65.47048709590521,65.47048709590521 0 0,0 0.7848219654668475,0.8088280232120013 l -32.18080286706711 30.692346755796265" fill="#34ff59" stroke="none" /><path d="M 115.68641384162765 86.03803664274999 l 11.08728947761924 -9.868433344971667 a35.84297694684847,35.84297694684847 0 0,0 0.40623429271150246,0.4643960212673252 l -11.25551563390859 9.676121767501394" fill="#ff800b" stroke="none" /><path d="M 116.60985879189232 87.15038557335679 l 29.310573496063665 -22.675061405822902 a58.05763252591818,58.05763252591818 0 0,0 0.6046952898593038,0.7957081198697017 l -29.69654472614708 22.167168510072166" fill="#5dff2a" stroke="none" /><path d="M 116.82858285166822 87.43820079747576 l 11.884381045459461 -8.871169346535199 a35.830244718432056,35.830244718432056 0 0,0 0.3646791856721478,0.4974219994220977 l -12.035322843645236 8.665284903441608" fill="#ff800b" stroke="none" /><path d="M 117.2510076193507 88.02491185347247 l 12.211957364541526 -8.477143428884824 a35.865862349264006,35.865862349264006 0 0,0 0.34768629009538465,0.5101867284801738 l -12.356068120305643 8.265678677134243" fill="#ff800b" stroke="none" /><line stroke="#e1ed5e" stroke-width="0.3" x1="172.23445277983987" x2="176.4835382374775" y1="55.19839476539836" y2="52.563006222186495" /><path d="M 173.08426987136738 54.67131705675599 a86.0,86.0 0 0,1 12.851231095245387,41.99856678651699" fill="none" id="id159" stroke="none" /><text fill="#e1ed5e" style="font-size:6.75px; font-family:Arial;" text-anchor="middle"><textPath startOffset="22.20632615414155" xlink:href="#id159">March</textPath></text><path d="M 117.84615892207809 88.93136811851018 l 31.53955829945649 -19.561618948130505 a58.113348994622854,58.113348994622854 0 0,0 0.5199323897508945,0.8546321417334948 l -31.87160648749361 19.015819033189928" fill="#5cff2a" stroke="none" /><path d="M 118.3937258080291 89.86733742301442 l 12.989104117141297 -7.15538605772169 a35.829577721599996,35.829577721599996 0 0,0 0.2929356334867262,0.5427652396385064 l -13.110347849846487 6.9307398347507245" fill="#ff800b" stroke="none" /><path d="M 118.56541770881063 90.18545643968196 l 14.422599976258331 -7.624457361541244 a37.3139124716644,37.3139124716644 0 0,0 0.2952962030799862,0.5704182734568662 l -14.551705612498434 7.375066365824033" fill="#ff960d" stroke="none" /><path d="M 118.73160827565052 90.50648371742162 l 10.578664420068655 -5.361457566374757 a32.85973727147712,32.85973727147712 0 0,0 0.2513613223640237,0.5067290876100736 l -10.669385755386088 5.178568890265733" fill="#ff5307" stroke="none" /><path d="M 118.89224826269711 90.83032412892265 l 16.003451913208387 -7.767549146188465 a38.78890926607998,38.78890926607998 0 0,0 0.2863763119772038,0.6031815480890161 l -16.134786419027346 7.490925182458908" fill="#ffab0f" stroke="none" /><path d="M 119.196687751892 91.48605970444005 l 40.652096284228826 -18.0296478812688 a65.47090211615627,65.47090211615627 0 0,0 0.4480369937653404,1.0341311541245635 l -40.95642398783685 17.327217582557637" fill="#34ff59" stroke="none" /><path d="M 119.47837535516314 92.15188598940014 l 6.874824229172167 -2.7699642998755394 a28.411876307966672,28.411876307966672 0 0,0 0.17886825275602347,0.4552001931711083 l -6.921486031809891 2.651215101808647" fill="#ff0e01" stroke="none" /><path d="M 119.61058180528143 92.48833698450437 l 14.732965205079193 -5.643334345632344 a36.77680215603491,36.77680215603491 0 0,0 0.2213532877193499,0.5931167611570837 l -14.827923081300169 5.388894447445927" fill="#ff8e0d" stroke="none" /><path d="M 119.97218684219823 93.5106431181261 l 6.202014119252832 -2.0151565436598267 a27.52118356058672,27.52118356058672 0 0,0 0.14251322821059048,0.45180587867905914 l -6.235782831231629 1.9081004985543482" fill="#ff0000" stroke="none" /><path d="M 120.08093135843002 93.85539295169968 l 29.907030575471108 -9.151316121133348 a52.275822364744926,52.275822364744926 0 0,0 0.2558879172729507,0.8627268483466246 l -30.060124389855762 8.635159886040194" fill="#a1ff22" stroke="none" /><path d="M 120.28053869075195 94.5502522615342 l 14.319525770492865 -3.8479156975860755 a35.82751744249652,35.82751744249652 0 0,0 0.1549176192266379,0.5969607817543068 l -14.383639721589805 3.6008584902829184" fill="#ff800b" stroke="none" /><path d="M 120.37134235888165 94.90015583598534 l 16.466370370406935 -4.122257696946077 a37.97452095628759,37.97452095628759 0 0,0 0.15328541918577754,0.6354670230808968 l -16.534888589853534 3.838205442205774" fill="#ff9f0e" stroke="none" /><path d="M 120.6074358757038 95.95851677861258 l 7.275940291088345 -1.4269407792222981 a28.41454429529491,28.41454429529491 0 0,0 0.08999870686822754,0.4807766908109217 l -7.299424721866432 1.3014860109488136" fill="#ff0e01" stroke="none" /><path d="M 120.67395015179393 96.31383870115 l 30.792431610557994 -5.490284578754041 a52.27806050967028,52.27806050967028 0 0,0 0.1503321313101014,0.887268748806241 l -30.88237560338832 4.959430041631962" fill="#a1ff22" stroke="none" /><path d="M 120.83666639777658 97.38593545837742 l 15.843620903699296 -1.9876618852855459 a36.967815226584825,36.967815226584825 0 0,0 0.07377657554165337,0.6320726446454826 l -15.875487832244538 1.7146455023152105" fill="#ff910d" stroke="none" /><path d="M 120.94382443527127 98.46500227214037 l 7.391413691930574 -0.5417254741534536 a28.411238955438257,28.411238955438257 0 0,0 0.031549204822530826,0.48805223459597213 l -7.399643487757521 0.4144141753044463" fill="#ff0e01" stroke="none" /><path d="M 120.96714384426684 98.82574320788733 l 62.90143153280055 -3.5227703763380056 a84.0,84.0 0 0,0 0.0684255670660141,1.444355573508001 l -62.95275070810006 2.4395036962070047" fill="#4dd2ff" stroke="none" /><line stroke="#e1ed5e" stroke-width="0.3" x1="184.98032266829074" x2="189.97916517819016" y1="98.17113171792111" y2="98.06355123074" /><path d="M 185.9800911702706 98.14961562048488 a86.0,86.0 0 0,1 -9.607161424134198,41.387399972396054" fill="none" id="id160" stroke="none" /><text fill="#e1ed5e" style="font-size:6.75px; font-family:Arial;" text-anchor="middle"><textPath startOffset="21.466115282336823" xlink:href="#id160">April</textPath></text><path d="M 120.99513854157772 99.54816195383933 l 7.416932628555886 -0.15962039691976043 a28.418650031350026,28.418650031350026 0 0,0 0.006315697020021109,0.489157694342949 l -7.4185813326936225 0.03192644451634873" fill="#ff0e01" stroke="none" /><path d="M 120.99980553446 99.90962569577887 l 13.359926583617 -0.05749548811099567 a34.3600503012073,34.3600503012073 0 0,0 -0.0025454296850667144,0.591468214872908 l -13.35893685664243 -0.17248220496559705" fill="#ff6a09" stroke="none" /><path d="M 120.9904718944345 100.63252640178507 l 17.782912254136885 0.535869872670715 a38.79098436733527,38.79098436733527 0 0,0 -0.02585671646404823,0.6672469602002618 l -17.771053404821632 -0.8418940798849829" fill="#ffab0f" stroke="none" /><path d="M 120.95626037817324 101.35467743843564 l 32.54244230521355 2.1036440465485944 a53.61036444848067,53.61036444848067 0 0,0 -0.06745572952323362,0.9203798355178947 l -32.501410017025975 -2.6634970185632594" fill="#91ff24" stroke="none" /><line stroke="#e1ed5e" stroke-width="0.3" x1="174.80103733775053" x2="179.2010983576182" y1="140.37084112569926" y2="142.7455964860345" /><path d="M 175.68104954172406 140.8457921977663 a86.0,86.0 0 0,1 -30.038265399797805,32.042727171017184" fill="none" id="id161" stroke="none" /><text fill="#e1ed5e" style="font-size:6.75px; font-family:Arial;" text-anchor="middle"><textPath startOffset="22.206326154141568" xlink:href="#id161">May</textPath></text><line stroke="#e1ed5e" stroke-width="0.3" x1="143.8653032363475" x2="146.44561519142675" y1="172.8068346515853" y2="177.08958963109032" /><path d="M 144.38136562736335 173.6633856474863 a86.0,86.0 0 0,1 -40.68145358897372,12.25698825130547" fill="none" id="id162" stroke="none" /><text fill="#e1ed5e" style="font-size:6.75px; font-family:Arial;" text-anchor="middle"><textPath startOffset="21.466115282336833" xlink:href="#id162">June</textPath></text><line stroke="#e1ed5e" stroke-width="0.3" x1="102.19456741930631" x2="102.32365962044197" y1="184.97166512339345" y2="189.96999836594603" /><path d="M 102.22038585953345 185.97133177190398 a86.0,86.0 0 0,1 -42.740103519485714,-10.115201625700543" fill="none" id="id163" stroke="none" /><text fill="#e1ed5e" style="font-size:6.75px; font-family:Arial;" text-anchor="middle"><textPath startOffset="22.20632615414155" xlink:href="#id163">July</textPath></text><line stroke="#e1ed5e" stroke-width="0.3" x1="58.666819895761336" x2="56.23545636021788" y1="174.27360380694188" y2="178.64263932499728" /><path d="M 58.180547188652646 175.14741091055294 a86.0,86.0 0 0,1 -31.652253787137756,-30.449443065178592" fill="none" id="id164" stroke="none" /><text fill="#e1ed5e" style="font-size:6.75px; font-family:Arial;" text-anchor="middle"><textPath startOffset="22.20632615414155" xlink:href="#id164">August</textPath></text><line stroke="#e1ed5e" stroke-width="0.3" x1="26.63291911575756" x2="22.317208475507996" y1="142.92168965132927" y2="145.44649492493687" /><path d="M 25.769776987707644 143.4266507060508 a86.0,86.0 0 0,1 -11.730757126820373,-40.83630448921669" fill="none" id="id165" stroke="none" /><text fill="#e1ed5e" style="font-size:6.75px; font-family:Arial;" text-anchor="middle"><textPath startOffset="21.46611528233685" xlink:href="#id165">September</textPath></text><line stroke="#e1ed5e" stroke-width="0.3" x1="15.007084014347285" x2="10.007500721073583" y1="101.09737516637583" y2="101.16192664675087" /><path d="M 14.007167355692545 101.11028546245083 a86.0,86.0 0 0,1 10.666146001902534,-42.60595125391555" fill="none" id="id166" stroke="none" /><text fill="#e1ed5e" style="font-size:6.75px; font-family:Arial;" text-anchor="middle"><textPath startOffset="22.20632615414155" xlink:href="#id166">October</textPath></text><line stroke="#e1ed5e" stroke-width="0.3" x1="26.266209847984243" x2="21.928928074336255" y1="57.711370442889674" y2="55.22380399835377" /><path d="M 25.398753493254645 57.213857153982495 a86.0,86.0 0 0,1 29.58750427330803,-30.492523968695096" fill="none" id="id167" stroke="none" /><text fill="#e1ed5e" style="font-size:6.75px; font-family:Arial;" text-anchor="middle"><textPath startOffset="21.46611528233685" xlink:href="#id167">November</textPath></text><line stroke="#e1ed5e" stroke-width="0.3" x1="56.762969772571076" x2="54.21961505331055" y1="26.818313649435495" y2="22.513508569990535" /><path d="M 56.25429882871897 25.957352633546506 a86.0,86.0 0 0,1 42.265352541879196,-11.944610805530505" fill="none" id="id168" stroke="none" /><text fill="#e1ed5e" style="font-size:6.75px; font-family:Arial;" text-anchor="middle"><textPath startOffset="22.20632615414155" xlink:href="#id168">December</textPath></text></svg>