<?xml version="1.0" encoding="utf-8" ?>
<svg baseProfile="full" height="200mm" version="1.1" viewBox="0,0,200,200" width="200mm" xmlns="http://www.w3.org/2000/svg" xmlns:ev="http://www.w3.org/2001/xml-events" xmlns:xlink="http://www.w3.org/1999/xlink"><defs /><rect fill="#1a1a1a" height="200" width="200" x="0" y="0" /><text alignment-baseline="middle" fill="#e1ed5e" style="dominant-baseline: central; font-size:9.0px; font-family:Arial;" text-anchor="middle" x="100.0" y="100.0">2024</text><line stroke="#e1ed5e" stroke-width="0.3" x1="100.0" x2="100.0" y1="15.0" y2="10.0" /><path d="M 100.0 14.0 a86.0,86.0 0 0,1 42.35913384403234,11.155469271406648" fill="none" id="id49" stroke="none" /><text fill="#e1ed5e" style="font-size:6.75px; font-family:Arial;" text-anchor="middle"><textPath startOffset="22.145653131862478" xlink:href="#id49">January</textPath></text><path d="M 100.0 79.0 l 0.0 -18.593612190374316 a39.593612190374316,39.593612190374316 0 0,0 0.679677003039967,0.005834209622526208 l -0.3191840781911123 18.590872378946223" fill="#ffcf13" stroke="none" /><path d="M 100.72087961077811 79.0123766808444 l 0.6191196897890439 -18.02499424937187 a39.035623828417286,39.035623828417286 0 0,0 0.6695060058034318,0.028751468596240396 l -0.9284514561933119 18.011710212349797" fill="#ffc812" stroke="none" /><path d="M 101.44090949804482 79.04949213459386 l 1.2375096036918978 -17.993118041655364 a39.035623828417286,39.035623828417286 0 0,0 0.6681244529630416,0.05171705817369817 l -1.5462030514301728 17.96922321648661" fill="#ffc812" stroke="none" /><path d="M 102.15924093988457 79.11130261209362 l 0.9272204130161014 -8.970016389379097 a30.017811914208643,30.017811914208643 0 0,0 0.5121097295886107,0.05738296335908073 l -1.0810660442055087 8.952777665513045" fill="#ff4906" stroke="none" /><path d="M 102.87502721639298 79.19773525538626 l 2.4691861605393073 -17.865801033952398 a39.035623828417286,39.035623828417286 0 0,0 0.6630012860256661,0.09743835734258117 l -2.775512552172655 17.820781603310934" fill="#ffc812" stroke="none" /><path d="M 103.58742460773223 79.30868818359171 l 1.5405104937587117 -8.885255153267273 a30.017811914208643,30.017811914208643 0 0,0 0.5069654886079602,0.09238599993333828 l -1.6928107159177257 8.85750097940257" fill="#ff4906" stroke="none" /><path d="M 104.64783097203109 79.52079915486377 l 5.979641815200986 -26.347405155734876 a48.017436493467414,48.017436493467414 0 0,0 0.8022749773997505,0.18933471018483192 l -6.4310489463406215 26.240874301903816" fill="#c4ff1e" stroke="none" /><path d="M 105.3480935250658 79.69241777938227 l 2.305744231427258 -8.755286410001206 a30.053811163367165,30.053811163367165 0 0,0 0.4977749759721742,0.13567078320821307 l -2.455700608334125 8.71441513264885" fill="#ff4906" stroke="none" /><path d="M 106.38641147887787 79.99465700312896 l 1.35206634428725 -4.235328566198888 a25.44590727107692,25.44590727107692 0 0,0 0.41498307906037285,0.13641318069844952 l -1.4245721609953652 4.211494464098417" fill="#ff0400" stroke="none" /><path d="M 107.06938296918511 80.22567764915836 l 12.797336082063685 -35.79642665022491 a59.01520711139453,59.01520711139453 0 0,0 0.9510183954225979,0.3492271277765446 l -13.409943629140407 35.57146867343965" fill="#47ff2c" stroke="none" /><line stroke="#e1ed5e" stroke-width="0.3" x1="143.13028292997686" x2="145.6673583964461" y1="26.7553504044142" y2="22.446841604673864" /><path d="M 143.63769802327073 25.89364864446614 a86.0,86.0 0 0,1 29.32050498858742,28.57503671076993" fill="none" id="id50" stroke="none" /><text fill="#e1ed5e" style="font-size:6.75px; font-family:Arial;" text-anchor="middle"><textPath startOffset="20.669276256404974" xlink:href="#id50">February</textPath></text><path d="M 112.16784306229584 82.88440491214696 l 5.225110482732972 -7.349772252476765 a30.017811914208643,30.017811914208643 0 0,0 0.4174176717129275,0.3021782039872302 l -5.350509164819867 7.25899327711646" fill="#ff4906" stroke="none" /><path d="M 112.7482090630111 83.31218511350987 l 7.277254419521017 -9.526159638158196 a32.98774996978634,32.98774996978634 0 0,0 0.4470469328695627,0.3476263989385717 l -7.439711297025806 9.399832187598834" fill="#ff740a" stroke="none" /><path d="M 113.86319453409587 84.22622945171908 l 7.2958490670921945 -8.301336957810149 a32.051769491664885,32.051769491664885 0 0,0 0.4101634006955196,0.36677064209496923 l -7.43727749461109 8.174870785831793" fill="#ff6709" stroke="none" /><path d="M 114.13192950727249 84.46653392183569 l 19.424133860518477 -21.350525720130072 a49.86419797529937,49.86419797529937 0 0,0 0.6282182029319372,0.5814693898806084 l -19.78778183476438 21.013938584117092" fill="#aeff20" stroke="none" /><path d="M 115.41159269507618 85.73525988315684 l 6.604830539995673 -6.1133325434254475 a29.99981228962939,29.99981228962939 0 0,0 0.34657254456077086,0.3809439370460632 l -6.708800785398321 5.999051030821713" fill="#ff4906" stroke="none" /><path d="M 116.7966241395341 87.39550010848427 l 7.817465728086544 -5.866372022320427 a30.773796146537514,30.773796146537514 0 0,0 0.31345013549921047,0.4252553086462378 l -7.9170178831695805 5.731310404405315" fill="#ff5407" stroke="none" /><line stroke="#e1ed5e" stroke-width="0.3" x1="172.87174338648825" x2="177.1583165268699" y1="56.24261187166439" y2="53.66864786411523" /><path d="M 173.72905801456457 55.72781907015455 a86.0,86.0 0 0,1 12.242430191666344,42.057860355516425" fill="none" id="id51" stroke="none" /><text fill="#e1ed5e" style="font-size:6.75px; font-family:Arial;" text-anchor="middle"><textPath startOffset="22.145653131862474" xlink:href="#id51">March</textPath></text><path d="M 118.18653347947321 89.5 l 8.526708282888825 -4.922897322427276 a30.84579464485455,30.84579464485455 0 0,0 0.26081828372992777,0.46084091622552353 l -8.609959931640129 4.775799636102635" fill="#ff5507" stroke="none" /><path d="M 119.4528033332814 92.08871423366111 l 17.073647275311238 -6.943703709663501 a39.43161556916098,39.43161556916098 0 0,0 0.24962339152336468,0.6292140127072183 l -17.190329341800727 6.649588679742717" fill="#ffcd13" stroke="none" /><path d="M 119.71291397450082 92.76114493625339 l 8.667869100660694 -3.182961596259859 a30.233807409159752,30.233807409159752 0 0,0 0.17472236790951412,0.48872955956768455 l -8.721231638614151 3.0336970803112577" fill="#ff4c07" stroke="none" /><path d="M 119.94978838288452 93.4421083053983 l 8.566830445957963 -2.8160873264604294 a30.017811914208643,30.017811914208643 0 0,0 0.15671482575995715,0.49090695962699377 l -8.613909987495177 2.6686113331420485" fill="#ff4906" stroke="none" /><path d="M 120.16314734710363 94.1308016681162 l 21.430098209730346 -6.237989263254718 a43.31953447828088,43.31953447828088 0 0,0 0.2017071144720685,0.7157873906749374 l -21.534023816276996 5.8691939486767675" fill="#feff18" stroke="none" /><path d="M 120.43855184770803 95.1765574152323 l 17.553430129660246 -4.142561715087576 a39.035623828417286,39.035623828417286 0 0,0 0.14831518065849728,0.653504051968721 l -17.62195617187641 3.840623329179829" fill="#ffc812" stroke="none" /><path d="M 120.77682067341334 96.94652285012252 l 9.171290981766267 -1.3478639435693807 a30.269806658318267,30.269806658318267 0 0,0 0.07114194959054974,0.5147477079146833 l -9.19307744791203 1.1902279274546117" fill="#ff4d07" stroke="none" /><line stroke="#e1ed5e" stroke-width="0.3" x1="184.99686870605535" x2="189.99668451229388" y1="99.2704041080226" y2="99.22748670261217" /><path d="M 185.99683186730306 99.26182062694052 a86.0,86.0 0 0,1 -10.086455211305974,41.156179273409016" fill="none" id="id52" stroke="none" /><text fill="#e1ed5e" style="font-size:6.75px; font-family:Arial;" text-anchor="middle"><textPath startOffset="21.40746469413373" xlink:href="#id52">April</textPath></text><path d="M 120.99922638620191 100.18025310272382 l 9.395457900675837 0.08064870614570348 a30.39580403037308,30.39580403037308 0 0,0 -0.008957452969306464,0.5217267287784627 l -9.392689016107862 -0.24192235089323721" fill="#ff4f07" stroke="none" /><path d="M 119.83427380445688 106.89939002012753 l 20.41754229624872 7.1022810788573505 a42.617549119689784,42.617549119689784 0 0,0 -0.24628850068140232,0.6889127700406531 l -20.292613625523373 -7.451728805278925" fill="#fff717" stroke="none" /><line stroke="#e1ed5e" stroke-width="0.3" x1="174.33088141563837" x2="178.70328620479359" y1="141.23008692659167" y2="143.65538615756765" /><path d="M 175.20536237346943 141.71514677278685 a86.0,86.0 0 0,1 -30.301960400862466,31.631185727798858" fill="none" id="id53" stroke="none" /><text fill="#e1ed5e" style="font-size:6.75px; font-family:Arial;" text-anchor="middle"><textPath startOffset="22.145653131862474" xlink:href="#id53">May</textPath></text><path d="M 117.62189284568427 111.42229804090321 l 22.67135099299822 14.69529580616952 a48.017436493467414,48.017436493467414 0 0,0 -0.45428053032990534,0.6878386232291085 l -22.415746023747587 -15.08231430773769" fill="#c4ff1e" stroke="none" /><path d="M 117.01052211995028 112.31430620078461 l 7.319232002488268 5.298559526724619 a30.035811538787904,30.035811538787904 0 0,0 -0.3059333061098803,0.4150572859307287 l -7.227196676794559 -5.423423121924225" fill="#ff4906" stroke="none" /><path d="M 116.1254893667686 113.45245675266167 l 20.746161185369274 17.30718552362637 a48.017436493467414,48.017436493467414 0 0,0 -0.5334632847798964,0.628418408096368 l -20.446003337082264 -17.660770714172294" fill="#c4ff1e" stroke="none" /><path d="M 114.39649973595853 115.28858382429668 l 12.351939147293056 13.11733133119307 a39.01762420383803,39.01762420383803 0 0,0 -0.4915667503997674,0.454986845504556 l -12.124942625579322 -13.327435922830006" fill="#ffc712" stroke="none" /><path d="M 113.86319453409587 115.77377054828091 l 6.0363050913401235 6.868207124702857 a30.143809286263455,30.143809286263455 0 0,0 -0.39161189197179336,0.3382650251510721 l -5.917513719605474 -6.970816282318647" fill="#ff4b07" stroke="none" /><path d="M 112.45986205192187 116.90419585922612 l 13.069380415149826 17.731124580335912 a43.02728951367585,43.02728951367585 0 0,0 -0.5983231242919234,0.43313980062373175 l -12.763076280483935 -17.95286515233272" fill="#fffc17" stroke="none" /><path d="M 111.8722381534696 117.32195027204791 l 5.383099709507844 7.85410335205581 a30.52180140242789,30.52180140242789 0 0,0 -0.4347230520682034,0.2925010705048776 l -5.247480369342637 -7.945354096617808" fill="#ff5007" stroke="none" /><path d="M 111.5731344415666 117.5232005979908 l 6.913976970570546 10.468642354144826 a33.545738331743365,33.545738331743365 0 0,0 -0.48324132485234,0.31323118841323605 l -6.733250013461196 -10.585787384261957" fill="#ff7c0b" stroke="none" /><line stroke="#e1ed5e" stroke-width="0.3" x1="143.1302829299769" x2="145.66735839644613" y1="173.24464959558577" y2="177.55315839532614" /><path d="M 143.63769802327073 174.10635135553383 a86.0,86.0 0 0,1 -40.68552437913181,11.842963189579606" fill="none" id="id54" stroke="none" /><text fill="#e1ed5e" style="font-size:6.75px; font-family:Arial;" text-anchor="middle"><textPath startOffset="21.407464694133747" xlink:href="#id54">June</textPath></text><path d="M 110.65571695917076 118.09573695890943 l 4.571207233161965 7.76290924326507 a30.008812101919016,30.008812101919016 0 0,0 -0.44614176994195914,0.25758007097272717 l -4.437272995359607 -7.840236211513969" fill="#ff4906" stroke="none" /><path d="M 110.34350942703117 118.27599006163325 l 13.298520465613208 23.497211423118788 a47.99943686888816,47.99943686888816 0 0,0 -0.7205762589596014,0.39969150410063553 l -12.893200018497513 -23.722035842652566" fill="#c4ff1e" stroke="none" /><path d="M 109.71004243097381 118.62028667847754 l 8.331874916021365 15.977468750357954 a39.01942416629596,39.01942416629596 0 0,0 -0.5965749963908967,0.30461544392233303 l -8.056372697916885 -16.118142145953122" fill="#ffc712" stroke="none" /><path d="M 109.3889696526874 118.78422872680471 l 1.8654152346190531 3.732080061364433 a25.172312977472185,25.172312977472185 0 0,0 -0.3881807409581794,0.18987865238763635 l -1.8010742443988041 -3.763552463849293" fill="#ff0000" stroke="none" /><path d="M 108.73861861582097 119.09545874513695 l 3.7510362236471706 8.196691102926641 a30.014211989292797,30.014211989292797 0 0,0 -0.4703464233107719,0.21037997258192861 l -3.6097763974807715 -8.25987482641842" fill="#ff4906" stroke="none" /><path d="M 108.07796709384702 119.3841803445677 l 13.852016778189915 33.239797618008936 a57.010588922002476,57.010588922002476 0 0,0 -0.9065919921623048,0.36870307073940095 l -13.279370324837169 -33.47268794532763" fill="#5dff2a" stroke="none" /><path d="M 107.407793817531 119.65005319985036 l 6.354630687853786 16.85641287507475 a39.0144382702875,39.0144382702875 0 0,0 -0.6287099596564613,0.2308710057262027 l -6.064331576543197 -16.963014729809675" fill="#ffc712" stroke="none" /><path d="M 107.06938296918513 119.77432235084164 l 3.033477636406905 8.485176837617798 a30.01111605386516,30.01111605386516 0 0,0 -0.4866005614680033,0.16926493456122513 l -2.8873713028938797 -8.536000204747614" fill="#ff4906" stroke="none" /><path d="M 106.38641147887787 120.00534299687104 l 6.569706788750178 20.57951294439803 a42.602717429036474,42.602717429036474 0 0,0 -0.6986021338958105,0.21642872685899783 l -6.2154640219827435 -20.68925825906367" fill="#fff717" stroke="none" /><path d="M 105.69591212413111 120.21278271476187 l 9.767395383229172 34.66104045635994 a57.01096691411864,57.01096691411864 0 0,0 -0.9442606973060568,0.25736245199157687 l -9.17095328498842 -34.823603402495664" fill="#5dff2a" stroke="none" /><path d="M 104.9986988182912 120.39639698878246 l 2.5725523983346097 10.496891670863697 a31.807532585748923,31.807532585748923 0 0,0 -0.5314400215814447,0.1254183980570651 l -2.391980223013286 -10.539506212566987" fill="#ff6309" stroke="none" /><path d="M 104.64783097203109 120.47920084513623 l 4.850039272667971 21.37016792767773 a42.913624944394016,42.913624944394016 0 0,0 -0.7197995973583866,0.1568769720560763 l -4.482477258690448 -21.450276357867526" fill="#fffb17" stroke="none" /><path d="M 103.58742460773223 120.69131181640829 l 1.539108352470982 8.877167974924182 a30.009604085400504,30.009604085400504 0 0,0 -0.5083376808403519,0.08364677193710285 l -1.3864931685775579 -8.902280745356956" fill="#ff4906" stroke="none" /><path d="M 103.2317021107853 120.74984581791261 l 5.542496358688498 35.586802541395734 a57.015826812755044,57.015826812755044 0 0,0 -0.9683863812918999,0.14231944983340103 l -4.930784871788912 -35.67670306452802" fill="#5dff2a" stroke="none" /><path d="M 102.51750503828377 120.84855314841334 l 1.0839790964204317 8.976901916707545 a30.042111407390646,30.042111407390646 0 0,0 -0.5125242836846263,0.057429415010216804 l -0.929718911135006 -8.994187092224733" fill="#ff4906" stroke="none" /><path d="M 101.44090949804482 120.95050786540614 l 1.8637870312824472 27.0990543898201 a48.1630714559382,48.1630714559382 0 0,0 -0.8253215848603341,0.04964929709090982 l -1.3983210942896478 -27.127055664735703" fill="#c2ff1e" stroke="none" /><path d="M 100.72087961077811 120.9876233191556 l 0.961471252305114 27.992186453706925 a49.00869381867178,49.00869381867178 0 0,0 -0.8410514641444164,0.021662502301428996 l -0.4808064740899538 -28.0045666733584" fill="#b8ff1f" stroke="none" /><line stroke="#e1ed5e" stroke-width="0.3" x1="101.45913802915013" x2="101.54496967792366" y1="184.9874750549273" y2="189.98673829345242" /><path d="M 101.47630435890484 185.9873277026323 a86.0,86.0 0 0,1 -42.54439059252881,-10.42667462771756" fill="none" id="id55" stroke="none" /><text fill="#e1ed5e" style="font-size:6.75px; font-family:Arial;" text-anchor="middle"><textPath startOffset="22.145653131862474" xlink:href="#id55">July</textPath></text><path d="M 100.0 121.0 l 1.9863574771883647e-15 16.219839700486247 a37.21983970048625,37.21983970048625 0 0,0 -0.6389280417158911,-0.0054844287983972125 l 0.278435116867037 -16.217449669882285" fill="#ffaf10" stroke="none" /><path d="M 99.63950707515114 120.99690560180557 l -0.1867115621921224 10.875012450680982 a31.87661514488412,31.87661514488412 0 0,0 -0.5470432233670057,-0.014089892938027291 l 0.3733680996298721 -10.870204840392908" fill="#ff6409" stroke="none" /><path d="M 98.91894614982273 120.97215588758144 l -1.1120485619633604 21.57344501592784 a42.6020874421762,42.6020874421762 0 0,0 -0.7300286560483089,-0.04391671112679294 l 1.4822215701441157 -21.551176326976357" fill="#fff717" stroke="none" /><path d="M 98.19965949673042 120.92268563240118 l -2.778647246531815 32.29209292183373 a53.41141999038306,53.41141999038306 0 0,0 -0.9128277121321335,-0.08644573340230753 l 3.3325745220489633 -32.239635432926235" fill="#85ff25" stroke="none" /><path d="M 97.48249496171623 120.84855314841334 l -1.9422505915955648 16.08462111123412 a37.20146208379082,37.20146208379082 0 0,0 -0.6333498930020921,-0.08199982375572043 l 2.218078306488451 -16.048909691278002" fill="#ffaf10" stroke="none" /><path d="M 97.12497278360702 120.80226474461374 l -2.3264563577264927 16.83307928157064 a37.99308557278662,37.99308557278662 0 0,0 -0.6452942754434218,-0.09483603656138999 l 2.6150757387775996 -16.790662171710366" fill="#ffba11" stroke="none" /><path d="M 96.41257539226777 120.69131181640829 l -1.5387455176640668 8.875075240177505 a30.007480129700152,30.007480129700152 0 0,0 -0.5067909969362601,-0.09235420173813202 l 1.6908712481513841 -8.847352864508007" fill="#ff4906" stroke="none" /><path d="M 95.70440661134978 120.55596938700252 l -5.525522536189699 26.441625597342338 a48.01279259032597,48.01279259032597 0 0,0 -0.8053290492087168,-0.17551771800416746 l 5.978614002017553 -26.34287642120445" fill="#c4ff1e" stroke="none" /><path d="M 95.00130118170881 120.39639698878247 l -3.001059059407463 12.245345076297616 a33.60772903879433,33.60772903879433 0 0,0 -0.5591601253747843,-0.14213631729161036 l 3.210824478007626 -12.192023527170742" fill="#ff7d0b" stroke="none" /><path d="M 94.6519064749342 120.30758222061772 l -4.947013212395909 18.78461494481362 a40.425104847813174,40.425104847813174 0 0,0 -0.6695525397730687,-0.1824895220830401 l 5.268747153103673 -18.696924928586434" fill="#ffda14" stroke="none" /><path d="M 93.61358852112213 120.00534299687104 l -5.478529035429446 17.161414173604168 a39.014672265407036,39.014672265407036 0 0,0 -0.6362684832870051,-0.20915408835436325 l 5.772320256364194 -17.064839163847783" fill="#ffc712" stroke="none" /><path d="M 93.27111125876986 119.89276391827306 l -8.655942685150185 25.589756488426712 a48.01408856329567,48.01408856329567 0 0,0 -0.7785009531581575,-0.27080304324891685 l 9.093949410353364 -25.437395012609205" fill="#c4ff1e" stroke="none" /><path d="M 92.59220618246901 119.65005319985036 l -3.176359758455212 8.425671633543367 a30.004510191644574,30.004510191644574 0 0,0 -0.48039755127269185,-0.18582809294707595 l 3.3205295722214325 -8.36990365245825" fill="#ff4906" stroke="none" /><path d="M 92.25597844496254 119.51999308798841 l -3.3336056330322412 8.402863867616622 a30.039969452065712,30.039969452065712 0 0,0 -0.47770065640441817,-0.1942766982647299 l 3.4773607506271 -8.3443999127726" fill="#ff4906" stroke="none" /><path d="M 90.28995756902619 118.62028667847754 l -4.202973561672948 8.059755987344683 a30.08981041252568,30.08981041252568 0 0,0 -0.45594829543464943,-0.24276678592907971 l 4.34071067289416 -7.98641873369303" fill="#ff4a06" stroke="none" /><line stroke="#e1ed5e" stroke-width="0.3" x1="58.13341422392154" x2="55.67067388415222" y1="173.97424548756322" y2="178.32567169271397" /><path d="M 57.64086615596768 174.84453072859336 a86.0,86.0 0 0,1 -31.369924170532247,-30.572349798747897" fill="none" id="id56" stroke="none" /><text fill="#e1ed5e" style="font-size:6.75px; font-family:Arial;" text-anchor="middle"><textPath startOffset="22.145653131862474" xlink:href="#id56">August</textPath></text><path d="M 88.72937992617639 117.7192867562869 l -4.8351593930954895 7.601673664574809 a30.009118095536863,30.009118095536863 0 0,0 -0.4322947327236221,-0.28020822291466474 l 4.964939758076121 -7.51755159995625" fill="#ff4906" stroke="none" /><path d="M 88.1277618465304 117.32195027204791 l -5.091577893859485 7.4287643107898464 a30.006148157481284,30.006148157481284 0 0,0 -0.4223792709675591,-0.29485353476264947 l 5.218352256000809 -7.340265960222068" fill="#ff4906" stroke="none" /><path d="M 86.68645165197938 116.24036423190432 l -13.696160335736971 16.7070886450793 a42.603509412517965,42.603509412517965 0 0,0 -0.5616068981028741,-0.46851244863890384 l 13.98094156800174 -16.469514012528524" fill="#fff717" stroke="none" /><path d="M 85.86807049272751 115.53346607816431 l -13.221081045118956 14.532284061092328 a40.64648223051348,40.64648223051348 0 0,0 -0.5120880523337961,-0.47398105620944847 l 13.468598868766719 -14.303185258750503" fill="#ffdd14" stroke="none" /><path d="M 84.83555147118756 114.52719865689866 l -13.040213557372859 12.492229606398618 a39.05832135501174,39.05832135501174 0 0,0 -0.4596683936640897,-0.48815190475501546 l 13.2527377847732 -12.266536241699113" fill="#ffc812" stroke="none" /><path d="M 83.8745106332314 113.45245675266167 l -6.912963681646852 5.767040171303077 a30.00265623031291,30.00265623031291 0 0,0 -0.3265334529870454,-0.39831771904741264 l 7.010943953872527 -5.647520170557169" fill="#ff4906" stroke="none" /><path d="M 83.20337586046588 112.60449989151573 l -24.482330297927387 18.371997076362344 a51.60906358238814,51.60906358238814 0 0,0 -0.5256702129258337,-0.7131726017214414 l 24.79410253043705 -17.949018165372024" fill="#99ff23" stroke="none" /><path d="M 82.78059297857968 112.02048342749411 l -7.390735132962657 5.159307116224274 a30.01340200618673,30.01340200618673 0 0,0 -0.29128758866420806,-0.4249972970961323 l 7.47821245844219 -5.03167508405809" fill="#ff4906" stroke="none" /><path d="M 82.576782715395 111.72311816256416 l -14.943641520084695 10.054748928244479 a39.011396333733614,39.011396333733614 0 0,0 -0.3690767169090682,-0.5588291900608026 l 15.11404267591449 -9.796739859844616" fill="#ffc712" stroke="none" /><path d="M 81.99639281039703 110.81064883170644 l -15.439057122406682 9.270710201863476 a39.0086243915484,39.0086243915484 0 0,0 -0.3397953777565384,-0.5770468377957093 l 15.59592621029299 -9.00431219577421" fill="#ffc712" stroke="none" /><line stroke="#e1ed5e" stroke-width="0.3" x1="26.387840678322732" x2="22.057713659400548" y1="142.50000000000003" y2="145.00000000000006" /><path d="M 25.521815274538298 143.00000000000003 a86.0,86.0 0 0,1 -11.493303480769221,-40.785679425670985" fill="none" id="id57" stroke="none" /><text fill="#e1ed5e" style="font-size:6.75px; font-family:Arial;" text-anchor="middle"><textPath startOffset="21.40746469413373" xlink:href="#id57">September</textPath></text><path d="M 81.29705330413844 109.54985784667822 l -8.027580816485532 4.098939963675413 a30.0135100039342,30.0135100039342 0 0,0 -0.23036095939307213,-0.4608762314752047 l 8.096761689090341 -3.9605318760364554" fill="#ff4906" stroke="none" /><path d="M 80.9802524753101 108.90220220490708 l -8.163996570981007 3.821162619571939 a30.013995993797842,30.013995993797842 0 0,0 -0.21440788908798983,-0.4685199321205296 l 8.228388924924054 -3.6804537052367206" fill="#ff4906" stroke="none" /><path d="M 80.68587082218212 108.24405325689762 l -33.112042900362475 14.133562150385703 a57.00229109507144,57.00229109507144 0 0,0 -0.3764164084330687,-0.903262350657358 l 33.34978515333203 -13.563067290287064" fill="#5dff2a" stroke="none" /><path d="M 80.41425534168474 107.57618678355246 l -16.8028754343703 6.499713184890715 a39.0161842338717,39.0161842338717 0 0,0 -0.23626959377102136,-0.6267331679940014 l 16.91197571195576 -6.210311736702569" fill="#ffc712" stroke="none" /><path d="M 79.83685265289637 105.86919833188381 l -25.02848821654032 7.285428150739235 a47.067272311177504,47.067272311177504 0 0,0 -0.21915756478683512,-0.7777128826418347 l 25.14986427340173 -6.854707344194405" fill="#cfff1d" stroke="none" /><path d="M 79.48165901384964 104.47187691870673 l -17.597229155531448 3.8352341910552514 a39.010316356258855,39.010316356258855 0 0,0 -0.1369861918845797,-0.6555285177274035 l 17.660473058240395 -3.532589222042439" fill="#ffc712" stroke="none" /><path d="M 79.34024301695615 103.76489593502545 l -8.861186340562357 1.6148033328982117 a30.007120137208567,30.007120137208567 0 0,0 -0.08799971286583048,-0.5075589587964412 l 8.887600870920423 -1.4624513411811777" fill="#ff4906" stroke="none" /><path d="M 79.2786578344484 103.40968896794605 l -35.529108308475486 5.8463012517482955 a57.006898998963734,57.006898998963734 0 0,0 -0.15060274734699994,-0.9669776730890989 l 35.62423254796076 -5.235535396727746" fill="#5dff2a" stroke="none" /><path d="M 79.03789590574601 101.26102812881392 l -35.943718853713165 2.162284870111678 a57.00869896142166,57.00869896142166 0 0,0 -0.050380516184415344,-0.9773685547145938 l 35.975540959354156 -1.5449445220203535" fill="#5dff2a" stroke="none" /><line stroke="#e1ed5e" stroke-width="0.3" x1="15.003131293944662" x2="10.003315487706104" y1="100.72959589197737" y2="100.7725132973878" /><path d="M 14.003168132696942 100.73817937305945 a86.0,86.0 0 0,1 10.791469493833604,-42.45332614584628" fill="none" id="id58" stroke="none" /><text fill="#e1ed5e" style="font-size:6.75px; font-family:Arial;" text-anchor="middle"><textPath startOffset="22.145653131862435" xlink:href="#id58">October</textPath></text><path d="M 79.00077361379809 100.18025310272382 l -21.600175712615247 0.18541152992840507 a42.60097146545229,42.60097146545229 0 0,0 0.0,-0.7313292653044373 l 21.600175712615247 0.18541152992839713" fill="#fff717" stroke="none" /><path d="M 79.00077361379809 99.81974689727619 l -22.744387693848704 -0.19523321364178448 a43.74522559958035,43.74522559958035 0 0,0 0.012891443850228043,-0.7508619751903951 l 22.73768481839981 0.5856421048012319" fill="#f9ff18" stroke="none" /><path d="M 79.01933749520258 99.09900007780938 l -21.582860897772214 -0.92686091228517 a42.60275342828564,42.60275342828564 0 0,0 0.03764949468583954,-0.7303901387618958 l 21.563769813629804 1.2972228444237779" fill="#fff717" stroke="none" /><path d="M 79.06263194458094 98.37931529534042 l -50.249137776394015 -3.889601061650917 a71.39945281141279,71.39945281141279 0 0,0 0.10508087751258137,-1.2211990799406074 l 50.17496327618369 4.7516211889672055" fill="#3dffa9" stroke="none" /><path d="M 79.13060592940154 97.66154086499901 l -21.465357870996453 -2.4052381218971184 a42.599693492107164,42.599693492107164 0 0,0 0.08766999422411696,-0.7260333172356522 l 21.420905790512666 2.773365116056207" fill="#fff717" stroke="none" /><path d="M 79.17382384314186 97.30363454192245 l -22.252334855156157 -2.8810102542640768 a43.4380620061353,43.4380620061353 0 0,0 0.10209078810560307,-0.7386780862629223 l 22.199599550495346 3.262576648727066" fill="#fdff18" stroke="none" /><path d="M 79.407916724674 95.88100663000787 l -35.30552002612556 -7.062092793980961 a57.00490104063544,57.00490104063544 0 0,0 0.20017485223651865,-0.9579091320639767 l 35.179087463064675 7.667118377330347" fill="#5dff2a" stroke="none" /><path d="M 79.83685265289637 94.1308016681162 l -8.64980980158874 -2.517833569563699 a30.008812101919016,30.008812101919016 0 0,0 0.14822021064431684,-0.4933768752240123 l 8.605313270940794 2.6659480483784344" fill="#ff4906" stroke="none" /><path d="M 80.05021161711548 93.44210830539832 l -51.29889888779895 -16.862966990022112 a74.9994137265137,74.9994137265137 0 0,0 0.4125488409018101,-1.219627343001143 l 51.00186462532478 17.741096007497415" fill="#41ffd1" stroke="none" /><path d="M 80.41425534168474 92.42381321644754 l -17.209869911482226 -6.657147391874771 a39.45256713217124,39.45256713217124 0 0,0 0.2497560262161189,-0.6295483387763533 l 17.093055210299976 6.951596747864707" fill="#ffcd13" stroke="none" /><path d="M 80.68587082218212 91.75594674310238 l -16.908113440621232 -7.217068209227761 a39.38397056289969,39.38397056289969 0 0,0 0.2707481400439747,-0.6195247295122129 l 16.78173141856028 7.506255008515841" fill="#ffcc13" stroke="none" /><path d="M 80.9802524753101 91.09779779509293 l -40.758180832890574 -19.076886630989875 a66.00174339220925,66.00174339220925 0 0,0 0.48910668012550196,-1.0220448472883186 l 40.424694894805164 19.773743980343284" fill="#35ff69" stroke="none" /><path d="M 81.29705330413844 90.45014215332179 l -16.901137048084422 -8.629841002121182 a39.97689619616506,39.97689619616506 0 0,0 0.31732504872986345,-0.6085126218155296 l 16.75050393037962 8.918699867041198" fill="#ffd413" stroke="none" /><path d="M 81.63589988554816 89.8137432299009 l -16.886870243182315 -9.36686226214987 a40.31073523323656,40.31073523323656 0 0,0 0.3408496004228741,-0.6022485843693065 l 16.723587277738073 9.65536761661828" fill="#ffd914" stroke="none" /><line stroke="#e1ed5e" stroke-width="0.3" x1="26.387840678322718" x2="22.05771365940052" y1="57.49999999999999" y2="54.99999999999999" /><path d="M 25.521815274538284 56.99999999999999 a86.0,86.0 0 0,1 29.574782752854787,-30.34633250058573" fill="none" id="id59" stroke="none" /><text fill="#e1ed5e" style="font-size:6.75px; font-family:Arial;" text-anchor="middle"><textPath startOffset="21.40746469413373" xlink:href="#id59">November</textPath></text><path d="M 81.99639281039701 89.18935116829357 l -12.362618596575246 -7.423397260360106 a35.420165236553636,35.420165236553636 0 0,0 0.3174861810382294,-0.5185898167131423 l 12.233364451081622 7.634524193197792" fill="#ff960d" stroke="none" /><path d="M 82.18462484594161 88.88188828441811 l -53.44612546217515 -33.35433514674566 a84.0,84.0 0 0,0 0.7739292334964403,-1.2167453012853122 l 52.865678537052815 34.266894122709644" fill="#4dd2ff" stroke="none" /><path d="M 82.576782715395 88.27688183743585 l -14.951944754454583 -10.060335714890108 a39.02140412499968,39.02140412499968 0 0,0 0.37871250688343816,-0.5525528655033224 l 14.777042510755832 10.315523315463466" fill="#ffc812" stroke="none" /><path d="M 82.78059297857968 87.97951657250589 l -14.773500306620253 -10.313050581875395 a39.01708421510065,39.01708421510065 0 0,0 0.388099037710432,-0.5459098995137653 l 14.594286170379847 10.56513770809868" fill="#ffc712" stroke="none" /><path d="M 83.42222388311158 87.10902102172516 l -30.127296193184122 -23.427167743141904 a59.16393800929295,59.16393800929295 0 0,0 0.6303313822914519,-0.7964031102235788 l 29.720698380251108 23.940890797280165" fill="#46ff2c" stroke="none" /><path d="M 83.8745106332314 86.54754324733833 l -13.8406749675474 -11.546383318591303 a39.02451806005189,39.02451806005189 0 0,0 0.43355391523451897,-0.5107254219904498 l 13.640426488805767 11.78227552303131" fill="#ffc812" stroke="none" /><path d="M 84.34580500576568 86.00192230759919 l -13.431542458828702 -12.01056808968546 a39.01832618919662,39.01832618919662 0 0,0 0.4507588401333876,-0.4954629266330146 l 13.223385917853449 12.239368591876133" fill="#ffc712" stroke="none" /><path d="M 84.83555147118756 85.47280134310135 l -6.510312915558614 -6.236732503868999 a30.0155979603854,30.0155979603854 0 0,0 0.35963431515162,-0.36901648939950604 l 6.402291799256191 6.347571685336235" fill="#ff4906" stroke="none" /><path d="M 85.34317274990677 84.96080404539775 l -26.57245364854914 -27.265678348810038 a59.07246391718115,59.07246391718115 0 0,0 0.7322946516843575,-0.7015217111384277 l 26.10048651099948 27.717812190254033" fill="#47ff2c" stroke="none" /><path d="M 86.13680546590413 84.22622945171909 l -14.323320207426512 -16.29730910042632 a42.69699946258264,42.69699946258264 0 0,0 0.5546960764736748,-0.479133259500414 l 14.041444651189988 16.540786492391447" fill="#fff817" stroke="none" /><path d="M 86.68645165197937 83.75963576809568 l -11.42237542642235 -13.933440767970156 a39.016976217353175,39.016976217353175 0 0,0 0.5216183817185528,-0.4201788448846094 l 11.181506274348552 14.127467906648164" fill="#ffc712" stroke="none" /><path d="M 87.25179093698888 83.31218511350988 l -23.057773018892053 -30.183365046187212 a58.98284378640102,58.98284378640102 0 0,0 0.8098822243501304,-0.6077507196779491 l 22.53623780563117 30.574734793129164" fill="#48ff2c" stroke="none" /><line stroke="#e1ed5e" stroke-width="0.3" x1="56.869717070023135" x2="54.33264160355391" y1="26.7553504044142" y2="22.446841604673864" /><path d="M 56.362301976729285 25.89364864446614 a86.0,86.0 0 0,1 42.16139366436587,-11.88097634709845" fill="none" id="id60" stroke="none" /><text fill="#e1ed5e" style="font-size:6.75px; font-family:Arial;" text-anchor="middle"><textPath startOffset="22.145653131862474" xlink:href="#id60">December</textPath></text></svg>