<?xml version="1.0" encoding="utf-8" ?>
<svg baseProfile="full" height="200mm" version="1.1" viewBox="0,0,200,200" width="200mm" xmlns="http://www.w3.org/2000/svg" xmlns:ev="http://www.w3.org/2001/xml-events" xmlns:xlink="http://www.w3.org/1999/xlink"><defs /><rect fill="#1a1a1a" height="200" width="200" x="0" y="0" /><rect fill="#1a1a1a" height="200" width="180" x="10" y="0" /><text alignment-baseline="middle" fill="#e1ed5e" style="dominant-baseline: central; font-size:9.0px; font-family:Arial;" text-anchor="middle" x="100.0" y="100.0">2021</text><line stroke="#e1ed5e" stroke-width="0.3" x1="100.0" x2="100.0" y1="15.0" y2="10.0" /><path d="M 100.0 14.0 a86.0,86.0 0 0,1 42.46469731375804,11.215312516191453" fill="none" id="id109" stroke="none" /><text fill="#e1ed5e" style="font-size:6.75px; font-family:Arial;" text-anchor="middle"><textPath startOffset="22.20632615414155" xlink:href="#id109">January</textPath></text><path d="M 100.36148047927253 79.00311137660856 l 0.3049665925216329 -17.714233393511396 a38.71685833725462,38.71685833725462 0 0,0 0.6662495891436828,0.01720726125982921 l -0.6098428168601835 17.70635934010921" fill="#ffd113" stroke="none" /><path d="M 101.08401301168833 79.027996857942 l 0.681367297647948 -13.182163823764903 a34.19976153083381,34.19976153083381 0 0,0 0.587646280045711,0.03544842840473804 l -0.9081756265332709 13.16848212597986" fill="#ff950d" stroke="none" /><path d="M 101.44485096284872 79.0497635885617 l 0.266531673079216 -3.864690342273331 a24.87387023200509,24.87387023200509 0 0,0 0.4268946123877454,0.033135238004690454 l -0.3330164748293026 3.859529842080176" fill="#ff1001" stroke="none" /><path d="M 101.80526077348638 79.07773832637324 l 2.263079161339642 -26.228196555912774 a47.32564950511353,47.32564950511353 0 0,0 0.8110148619535419,0.07701563344298955 l -2.7142191503834283 26.185355377954604" fill="#c2ff1e" stroke="none" /><path d="M 105.36241919743992 79.69619591428918 l 0.9910755449044192 -3.7525234333573114 a24.8811934831445,24.8811934831445 0 0,0 0.4131487945812256,0.11292917234518011 l -1.0555222287093557 3.7349077201858374" fill="#ff1101" stroke="none" /><path d="M 106.0581310904928 79.89281104454417 l 0.9877614283098378 -3.278421246629259 a24.423991604780426,24.423991604780426 0 0,0 0.4015009123219439,0.12474828786472372 l -1.0440477133425 3.260932823882015" fill="#ff0a01" stroke="none" /><path d="M 107.76421540070413 80.48803036053334 l 1.5399943079190257 -3.8701041419255864 a25.16524771625561,25.16524771625561 0 0,0 0.4011054445921308,0.16362098200705932 l -1.606383622099544 3.8430222737349475" fill="#ff1502" stroke="none" /><path d="M 110.05341064243156 81.56283822128135 l 6.546108934375108 -12.005047215996191 a34.673796138563844,34.673796138563844 0 0,0 0.5215531876475907,0.29024378425222924 l -6.751786211094734 11.89058803418378" fill="#ff9c0e" stroke="none" /><path d="M 110.36928655335952 81.73862282372117 l 2.0026029147580253 -3.5267891356385888 a25.05569476680084,25.05569476680084 0 0,0 0.37321443778127034,0.21618989168800976 l -2.063014085004624 3.4917950865605296" fill="#ff1302" stroke="none" /><line stroke="#e1ed5e" stroke-width="0.3" x1="143.23703022742887" x2="145.7803849466894" y1="26.81831364943548" y2="22.513508569990506" /><path d="M 143.74570117128098 25.957352633546492 a86.0,86.0 0 0,1 28.547481713284135,27.462654790039103" fill="none" id="id110" stroke="none" /><text fill="#e1ed5e" style="font-size:6.75px; font-family:Arial;" text-anchor="middle"><textPath startOffset="19.985693538727396" xlink:href="#id110">February</textPath></text><path d="M 111.60114157652 82.49532879139004 l 5.6754180149725695 -8.563495727402158 a31.273452619149523,31.273452619149523 0 0,0 0.44616093306650645,0.30124985362599543 l -5.821983642445617 8.464533961477493" fill="#ff6d0a" stroke="none" /><path d="M 112.19680574252982 82.90503203632743 l 1.7417955154804237 -2.44128988892385 a23.998957808891205,23.998957808891205 0 0,0 0.3342194101827643,0.24282461518264475 l -1.7835602420169767 2.4109460389245303" fill="#ff0300" stroke="none" /><path d="M 113.06298171725822 83.55741782278167 l 4.407009935654476 -5.547173271097978 a28.08469250373939,28.08469250373939 0 0,0 0.3759291245315455,0.303975207919608 l -4.501842458750513 5.47049196591424" fill="#ff4006" stroke="none" /><path d="M 113.34407831869373 83.78471172551755 l 4.026114886539859 -4.892403353176649 a27.336024909183358,27.336024909183358 0 0,0 0.36076063205133313,0.3021266544226277 l -4.1097330555503095 4.822375541360202" fill="#ff3505" stroke="none" /><path d="M 113.6212207817346 84.01681056812373 l 17.14833757008475 -20.12192095087102 a47.437798398707145,47.437798398707145 0 0,0 0.6169312819634057,0.5349967283768626 l -17.49216265069492 19.823759229074483" fill="#c0ff1e" stroke="none" /><path d="M 113.89432698308785 84.25364557470407 l 21.85071045701944 -24.76327437230667 a54.02534337618065,54.02534337618065 0 0,0 0.6920106552164931,0.6212939989012713 l -22.27373209983192 24.383481364636104" fill="#76ff27" stroke="none" /><path d="M 114.16331599549186 84.49514656593476 l 19.562011536293525 -21.414908898612865 a50.00466546061115,50.00466546061115 0 0,0 0.6305162470212361,0.5859961354632489 l -19.92773566710961 21.075008177074977" fill="#a3ff22" stroke="none" /><path d="M 114.42810811169701 84.74124197986012 l 10.867809654974161 -11.493487326987186 a36.81801307473112,36.81801307473112 0 0,0 0.45674806394592987,0.4393912756349677 l -11.06404096253251 11.304712964589918" fill="#ffb911" stroke="none" /><path d="M 114.68862486808459 84.99185889309783 l 25.796004629399732 -26.357135603179017 a57.87997359061391,57.87997359061391 0 0,0 0.7060370057702912,0.703005058489692 l -26.245877435337345 25.909194694039208" fill="#4dff2c" stroke="none" /><path d="M 114.94478906791727 85.2469230424477 l 9.396212993060509 -9.275678148831394 a34.20329594198613,34.20329594198613 0 0,0 0.4100091375112543,0.42255045702603244 l -9.554486394274873 9.112563496255248" fill="#ff950d" stroke="none" /><path d="M 115.19652480421416 85.50635884689758 l 24.57368157392886 -23.437077037795 a54.958245039642264,54.958245039642264 0 0,0 0.6470225762359181,0.6901985719839813 l -24.97347147213524 23.010609048932963" fill="#6cff28" stroke="none" /><path d="M 115.9244219780498 86.31012108654704 l 10.97918198347316 -9.4385637437698 a35.478567697511636,35.478567697511636 0 0,0 0.39413206154801284,0.46652804522122443 l -11.14002465850829 9.248176748919468" fill="#ffa70f" stroke="none" /><path d="M 116.60985879189232 87.15038557335679 l 2.2757281108273975 -1.760534459105641 a23.877224359709967,23.877224359709967 0 0,0 0.24869159276835504,0.32724898478232234 l -2.305695643819866 1.7211006984422852" fill="#ff0200" stroke="none" /><path d="M 117.65298651832404 88.62581576622439 l 21.02877034269918 -13.549271554665257 a46.01583382156281,46.01583382156281 0 0,0 0.4232852014313304,0.6695355365033668 l -21.258883140376465 13.185288370447683" fill="#d1ff1c" stroke="none" /><line stroke="#e1ed5e" stroke-width="0.3" x1="172.23445277983987" x2="176.4835382374775" y1="55.19839476539836" y2="52.563006222186495" /><path d="M 173.08426987136738 54.67131705675599 a86.0,86.0 0 0,1 12.851231095245387,41.99856678651699" fill="none" id="id111" stroke="none" /><text fill="#e1ed5e" style="font-size:6.75px; font-family:Arial;" text-anchor="middle"><textPath startOffset="22.20632615414155" xlink:href="#id111">March</textPath></text><path d="M 119.04729006885535 91.15688171328212 l 11.98568146104145 -5.56461305118774 a34.214442042515515,34.214442042515515 0 0,0 0.24340754131160322,0.5363162523878537 l -12.0796913193164 5.3574747899578234" fill="#ff960d" stroke="none" /><path d="M 119.34039704204932 91.81776055985345 l 15.010163651421935 -6.350270512269943 a37.298188501225326,37.298188501225326 0 0,0 0.2450638634095095,0.5934415835374087 l -15.117249201717643 6.090954358279231" fill="#ffbf11" stroke="none" /><path d="M 119.47837535516314 92.15188598940014 l 12.250939149092757 -4.936077338375937 a34.20796613885734,34.20796613885734 0 0,0 0.21535779852311063,0.5480621070433268 l -12.334090497497566 4.724466226436825" fill="#ff960d" stroke="none" /><path d="M 119.61058180528143 92.48833698450437 l 5.908850364373671 -2.2633338055380885 a27.32749496592849,27.32749496592849 0 0,0 0.16447952244944267,0.44072334609082614 l -5.946934475324739 2.161287322417929" fill="#ff3505" stroke="none" /><path d="M 119.7369772167798 92.82701384747503 l 19.96654376547646 -7.256417250245651 a42.244257135714335,42.244257135714335 0 0,0 0.24249595481850392,0.6855687191283748 l -20.08849280110477 6.911650904690661" fill="#fffe18" stroke="none" /><path d="M 119.85752413597 93.16781622104841 l 31.550182752965092 -10.855162272586941 a54.365379957520204,54.365379957520204 0 0,0 0.29684198052643995,0.8875197390136225 l -31.732362027263303 10.310469430651006" fill="#72ff27" stroke="none" /><path d="M 120.08093135843002 93.85539295169968 l 12.629557638881936 -3.8645452992005196 a34.207590110365096,34.207590110365096 0 0,0 0.16744469225550404,0.5645402610701225 l -12.694208228249142 3.6465756513838676" fill="#ff960d" stroke="none" /><path d="M 120.53481517161879 95.60439243477599 l 12.889707847327166 -2.7591238028548677 a34.181704462964106,34.181704462964106 0 0,0 0.1182047354726641,0.5764082697220639 l -12.935291878714827 2.5368398769693923" fill="#ff950d" stroke="none" /><path d="M 120.73433829027371 96.67025291283417 l 26.032512476072732 -4.1805859138255155 a47.366057809231904,47.366057809231904 0 0,0 0.12234902319829796,0.8061271954051158 l -26.10061739271033 3.731859606028318" fill="#c1ff1e" stroke="none" /><path d="M 120.83666639777658 97.38593545837742 l 4.267842291796603 -0.5354222691501749 a25.301296878146125,25.301296878146125 0 0,0 0.05049373431973819,0.4325994796476296 l -4.27642637911993 0.4618790511776925" fill="#ff1702" stroke="none" /><path d="M 120.87857604477298 97.74499172005257 l 4.236312965327388 -0.4575465679640307 a25.26095017596505,25.26095017596505 0 0,0 0.04297113087064204,0.4327134236167018 l -4.243561221880259 0.3845576136428939" fill="#ff1602" stroke="none" /><path d="M 120.91429891909075 98.10471618934814 l 3.0897179790067315 -0.27999468152126983 a24.102378798837698,24.102378798837698 0 0,0 0.03388738929589282,0.41351198301941705 l -3.094079852122119 0.22676878129408404" fill="#ff0500" stroke="none" /><path d="M 120.94382443527127 98.46500227214037 l 18.65098390051612 -1.3669527262377492 a39.70100960411176,39.70100960411176 0 0,0 0.044085908595043334,0.6819894930803101 l -18.671750400115577 1.0457041689044038" fill="#ffde14" stroke="none" /><path d="M 120.96714384426684 98.82574320788733 l 2.8188826094223693 -0.15787043170343845 a23.82329988469346,23.82329988469346 0 0,0 0.019406223857069742,0.4096347139024942 l -2.8211824415129354 0.10932461117794448" fill="#ff0100" stroke="none" /><path d="M 120.98425023603335 99.18683210126433 l 13.196394460586578 -0.5113780208346703 a34.20629903642928,34.20629903642928 0 0,0 0.017735649307153135,0.5885598565699708 l -13.203241804349377 0.2841480168397004" fill="#ff960d" stroke="none" /><line stroke="#e1ed5e" stroke-width="0.3" x1="184.98032266829074" x2="189.97916517819016" y1="98.17113171792111" y2="98.06355123074" /><path d="M 185.9800911702706 98.14961562048488 a86.0,86.0 0 0,1 -9.607161424134198,41.387399972396054" fill="none" id="id112" stroke="none" /><text fill="#e1ed5e" style="font-size:6.75px; font-family:Arial;" text-anchor="middle"><textPath startOffset="21.466115282336823" xlink:href="#id112">April</textPath></text><path d="M 120.95626037817324 101.35467743843564 l 2.9822074757895614 0.1927791080699668 a23.988431898699282,23.988431898699282 0 0,0 -0.030183663000467202,0.4118321006094704 l -2.9784472541247564 -0.24408434517620745" fill="#ff0300" stroke="none" /><path d="M 120.8583938346157 102.4346265915055 l 13.232865323949914 1.5445621582824616 a34.32270231381735,34.32270231381735 0 0,0 -0.07354618108054736,0.5862354259450112 l -13.204317633622518 -1.7721153385148676" fill="#ff970d" stroke="none" /><path d="M 120.49622156327973 104.57218783832717 l 3.6916911336606075 0.823522777213886 a24.782429535488852,24.782429535488852 0 0,0 -0.09646198881413387,0.41555572316648903 l -3.6769685789159205 -0.88694715772894" fill="#ff0f01" stroke="none" /><path d="M 120.41448212921028 104.9243191809786 l 8.129685137637464 1.9610178796210038 a29.362856662726962,29.362856662726962 0 0,0 -0.1227488854744436,0.49032078035157295 l -8.09472493786796 -2.100666499369973" fill="#ff5207" stroke="none" /><path d="M 120.32669344350535 105.2749913415812 l 2.833800477634461 0.7354011130652754 a23.92766800442587,23.92766800442587 0 0,0 -0.10689050305478567,0.39777932611001937 l -2.820721898237898 -0.784071372350843" fill="#ff0200" stroke="none" /><path d="M 120.23288151984713 105.62410040840565 l 25.409110063674454 7.062928043450311 a47.37248237794234,47.37248237794234 0 0,0 -0.22514869287153086,0.7837721366193805 l -25.283768733916823 -7.499257655574274" fill="#c1ff1e" stroke="none" /><path d="M 120.02730092923936 106.31721596034902 l 12.596148368964446 3.9732058651584183 a34.207926354272836,34.207926354272836 0 0,0 -0.18196621192561044,0.5600344147655986 l -12.525889906022588 -4.189439179901812" fill="#ff960d" stroke="none" /><path d="M 119.9155931802556 106.66101706037122 l 16.186864869751265 5.413897646705846 a38.06824191416898,38.06824191416898 0 0,0 -0.2131987761417851,0.6196554396029991 l -16.09127526266625 -5.691725789398145" fill="#ffc912" stroke="none" /><path d="M 119.79798401119884 107.00284435728193 l 12.413582389607454 4.390870572556487 a34.16726137541573,34.16726137541573 0 0,0 -0.2008965641789062,0.5527810629792771 l -12.336161564423321 -4.603899432541896" fill="#ff950d" stroke="none" /><path d="M 119.67450827220406 107.3425965602758 l 14.608306514309255 5.451872020352421 a36.592483052493975,36.592483052493975 0 0,0 -0.2253151134554823,0.5882266623609309 l -14.512297121260266 -5.702522249546496" fill="#ffb610" stroke="none" /><path d="M 119.26925614724726 108.34839909993367 l 12.166233767811216 5.2710169121545185 a34.25899179354331,34.25899179354331 0 0,0 -0.2390933654981872,0.5390924203933213 l -12.073699317581754 -5.479657669040528" fill="#ff960d" stroke="none" /><path d="M 118.97047184881838 109.00673069616215 l 22.162899509515846 10.522419733104691 a45.53396485911987,45.53396485911987 0 0,0 -0.34225657459200526,0.7051499167083254 l -21.978489678309124 -10.902358605778291" fill="#d7ff1c" stroke="none" /><path d="M 118.81262510543309 109.33194174019688 l 47.256406193100375 23.441387205325878 a73.7509863452553,73.7509863452553 0 0,0 -0.57392782348173,1.132414044276175 l -46.84589969983238 -24.251355461304748" fill="#40ffc6" stroke="none" /><line stroke="#e1ed5e" stroke-width="0.3" x1="174.80103733775053" x2="179.2010983576182" y1="140.37084112569926" y2="142.7455964860345" /><path d="M 175.68104954172406 140.8457921977663 a86.0,86.0 0 0,1 -30.038265399797805,32.042727171017184" fill="none" id="id113" stroke="none" /><text fill="#e1ed5e" style="font-size:6.75px; font-family:Arial;" text-anchor="middle"><textPath startOffset="22.206326154141568" xlink:href="#id113">May</textPath></text><path d="M 118.48025628344425 109.97397251340804 l 29.48188700248726 15.911658696510576 a54.50167971463025,54.50167971463025 0 0,0 -0.4526846984166492,0.8217542187853448 l -29.2036258946191 -16.416783433693727" fill="#71ff27" stroke="none" /><path d="M 118.30583269289576 110.29060199501025 l 24.689519227647786 13.879183759746539 a49.32320782554832,49.32320782554832 0 0,0 -0.42241335575172373,0.7365132910808477 l -24.446953875743684 -14.302116896685702" fill="#abff21" stroke="none" /><path d="M 117.94076556474637 110.91462005526583 l 3.127367225628583 1.9025957904550177 a24.660641542925635,24.660641542925635 0 0,0 -0.2237487724952638,0.36075426442250935 l -3.0941538134653563 -1.9561463862428006" fill="#ff0d01" stroke="none" /><path d="M 117.55443506779139 111.5257021239791 l 13.457710664434007 8.835918888301677 a37.09917510086362,37.09917510086362 0 0,0 -0.35508661843321365,0.530806315772599 l -13.303620940590072 -9.066262118280083" fill="#ffbc11" stroke="none" /><path d="M 117.35343817320211 111.8261652097733 l 13.291103078130403 9.057731341379062 a37.084026799470585,37.084026799470585 0 0,0 -0.3640222687246617,0.5244012281615964 l -13.133219902243606 -9.285173831727677" fill="#ffbc11" stroke="none" /><path d="M 117.14729908036423 112.12312394758627 l 15.585728346312646 11.019094941437475 a40.08757138594291,40.08757138594291 0 0,0 -0.403205007204605,0.5600164897006891 l -15.393743546732438 -11.285745036589294" fill="#ffe315" stroke="none" /><path d="M 116.93607887273984 112.41649034213515 l 23.47364906834224 17.209434317223977 a50.10630224028004,50.10630224028004 0 0,0 -0.5159487298586203,0.6911976387820326 l -23.173939071788528 -17.610944835515323" fill="#a2ff22" stroke="none" /><path d="M 116.498646956653 112.99209946851258 l 2.529504162919052 1.991894837013218 a24.21963295298466,24.21963295298466 0 0,0 -0.26074405653694455,0.3253183017613325 l -2.494842194327253 -2.0351409723528007" fill="#ff0701" stroke="none" /><path d="M 116.27256486870786 113.27417163493432 l 5.1208146482938535 4.177250058646475 a27.60849156121447,27.60849156121447 0 0,0 -0.3035671970661797,0.3656662445629176 l -5.048151451334131 -4.264777560323163" fill="#ff3905" stroke="none" /><path d="M 116.0416608686014 113.55231037782055 l 12.852502077038695 10.858046352328715 a37.825099709350994,37.825099709350994 0 0,0 -0.4244651463209867,0.4937488598491304 l -12.66369442114693 -11.077672311339374" fill="#ffc612" stroke="none" /><path d="M 115.80600337817218 113.82643327865902 l 9.912903282274764 8.671394820745752 a34.170373556622835,34.170373556622835 0 0,0 -0.3910736613592731,0.43937540428056293 l -9.762170771267153 -8.84074439476718" fill="#ff950d" stroke="none" /><path d="M 115.32070863581623 114.36230785411682 l 7.848248705668279 7.357294411498115 a31.757545668203562,31.757545668203562 0 0,0 -0.3772999804047683,0.3955975210289562 l -7.720442173884547 -7.491299049109579" fill="#ff740a" stroke="none" /><path d="M 114.55890576462653 115.13401014063108 l 9.139983314873083 9.501029981839192 a34.18365904109954,34.18365904109954 0 0,0 -0.42756296569045404,0.40428747119505964 l -8.975084514791822 -9.656952089780173" fill="#ff950d" stroke="none" /><path d="M 114.0293411484842 115.62618273729858 l 2.395733314167726 2.6684194333005866 a24.586084269036256,24.586084269036256 0 0,0 -0.3173450549145393,0.2800201138852307 l -2.349445906346599 -2.7092626889581064" fill="#ff0c01" stroke="none" /><path d="M 113.20401910651253 116.32954008644616 l 14.907813296707731 18.436639091939426 a44.709756605581696,44.709756605581696 0 0,0 -0.6026076956971818,0.47874799874669616 l -14.588248108293199 -18.69052100469125" fill="#e1ff1b" stroke="none" /><path d="M 112.92097659922987 116.55440617244103 l 10.085592114334945 12.921700389134697 a37.39175125614402,37.39175125614402 0 0,0 -0.5107913917478589,0.39165305792993566 l -9.861671994093593 -13.093392788892004" fill="#ffc011" stroke="none" /><path d="M 112.63410532772338 116.77436683061366 l 15.864692400835324 21.063633956138208 a47.36977702619612,47.36977702619612 0 0,0 -0.6555413881778095,0.48495384719274354 l -15.49976604223895 -21.33359775207072" fill="#c1ff1e" stroke="none" /><path d="M 112.34349029814194 116.9893568818739 l 15.4812332173735 21.308089506990658 a47.338247101290435,47.338247101290435 0 0,0 -0.6633501175926919,0.47328269586438954 l -15.112155771931924 -21.571416464699265" fill="#c2ff1e" stroke="none" /><path d="M 111.7513745106137 117.40417183066458 l 31.235238471349582 46.2604146464874 a76.81815193668653,76.81815193668653 0 0,0 -1.1022501321219655,0.7305112837078129 l -30.43431364048765 -46.79122395128653" fill="#44ffe6" stroke="none" /><path d="M 111.45004920935366 117.60387380957326 l 4.449801131615209 6.841345060304087 a29.161172240865348,29.161172240865348 0 0,0 -0.4231399931159792,0.27006796378247555 l -4.3313793364523 -6.916927452910372" fill="#ff4f07" stroke="none" /><line stroke="#e1ed5e" stroke-width="0.3" x1="143.8653032363475" x2="146.44561519142675" y1="172.8068346515853" y2="177.08958963109032" /><path d="M 144.38136562736335 173.6633856474863 a86.0,86.0 0 0,1 -40.68145358897372,12.25698825130547" fill="none" id="id114" stroke="none" /><text fill="#e1ed5e" style="font-size:6.75px; font-family:Arial;" text-anchor="middle"><textPath startOffset="21.466115282336833" xlink:href="#id114">June</textPath></text><path d="M 110.8373102113329 117.98757091392108 l 6.818919561346661 11.317919001504793 a34.21336272523915,34.21336272523915 0 0,0 -0.5070617962025893,0.29958104688327564 l -6.62308989411569 -11.433618620681818" fill="#ff960d" stroke="none" /><path d="M 110.21172684928248 118.3499491758327 l 10.250851800748048 18.42025470608201 a42.080458867819644,42.080458867819644 0 0,0 -0.6359703671783612,0.34678175168165015 l -9.93225862170104 -18.59397710952343" fill="#fffc17" stroke="none" /><path d="M 109.57404056367764 118.69057910512821 l 12.016318567969442 23.458429202725483 a47.35696895673345,47.35696895673345 0 0,0 -0.7287247363027254,0.365397710859556 l -11.610739923983957 -23.66179475449434" fill="#c1ff1e" stroke="none" /><path d="M 109.2508944713604 118.85261126421891 l 10.68657322734226 21.778414122593016 a45.259063647191894,45.259063647191894 0 0,0 -0.7023502619424297,0.33717080748749506 l -10.310110297399596 -21.95913920658007" fill="#daff1b" stroke="none" /><path d="M 108.59647513512805 119.15986991738527 l 2.150145757565305 4.792256404026163 a26.252508754938525,26.252508754938525 0 0,0 -0.4138887089107838,0.1814366469185355 l -2.0673363739967674 -4.828557604239153" fill="#ff2503" stroke="none" /><path d="M 108.2653958097858 119.30500536409082 l 5.201363819716594 12.14852364617962 a34.21517356552089,34.21517356552089 0 0,0 -0.5434160429690111,0.22714795003339266 l -4.991476317250122 -12.236256639232986" fill="#ff960d" stroke="none" /><path d="M 107.59598834532513 119.57807347666477 l 4.776155094525585 12.310170990996474 a34.20424050502466,34.20424050502466 0 0,0 -0.5507367757631645,0.20824152392100276 l -4.563548098002146 -12.390560765024109" fill="#ff950d" stroke="none" /><path d="M 107.2578585660854 119.70592522655815 l 9.103221687145487 24.71629947790865 a47.33940213761473,47.33940213761473 0 0,0 -0.7670796456625338,0.2750474695480257 l -8.676422480853219 -24.869334488496634" fill="#c2ff1e" stroke="none" /><path d="M 106.91757812671514 119.82793768551818 l 0.9304526756708115 2.6669677356119914 a23.824616626103147,23.824616626103147 0 0,0 -0.38837558915628917,0.13175808634537794 l -0.8844073535772954 -2.6825888088554923" fill="#ff0100" stroke="none" /><path d="M 106.57524785965236 119.94407469862006 l 4.139668580583476 12.556463446087093 a34.22125675682881,34.22125675682881 0 0,0 -0.561030868835171,0.17962436743012009 l -3.9229163666573643 -12.62586066017692" fill="#ff960d" stroke="none" /><path d="M 102.34483914955558 120.86867818915974 l 2.8692237444097355 25.53561381220158 a46.69630357972494,46.69630357972494 0 0,0 -0.7995461250608665,0.08287622500942753 l -2.4292450227432663 -25.581219405666765" fill="#c9ff1d" stroke="none" /><path d="M 101.62511606390274 120.93702456842531 l 1.023439989557973 13.185389451031076 a34.22504912609356,34.22504912609356 0 0,0 -0.5877536775733269,0.040534934798924505 l -0.796323551205716 -13.201052730346285" fill="#ff960d" stroke="none" /><path d="M 101.26447882468166 120.96189622390904 l 0.7091673519106447 11.756220939388013 a32.77759097221164,32.77759097221164 0 0,0 -0.5634810204586199,0.02912553244814171 l -0.5066982630385451 -11.766686278598359" fill="#ff820c" stroke="none" /><path d="M 100.90346689309514 120.98055641714683 l 1.1884901218483797 27.599444144806935 a48.62502173523215,48.62502173523215 0 0,0 -0.8365347977293839,0.028811949856526888 l -0.7132349724443435 -27.615812893089554" fill="#b3ff20" stroke="none" /><line stroke="#e1ed5e" stroke-width="0.3" x1="102.19456741930631" x2="102.32365962044197" y1="184.97166512339345" y2="189.96999836594603" /><path d="M 102.22038585953345 185.97133177190398 a86.0,86.0 0 0,1 -42.740103519485714,-10.115201625700543" fill="none" id="id115" stroke="none" /><text fill="#e1ed5e" style="font-size:6.75px; font-family:Arial;" text-anchor="middle"><textPath startOffset="22.20632615414155" xlink:href="#id115">July</textPath></text><path d="M 99.09653310690486 120.98055641714683 l -0.5689772737089882 13.212946575418982 a34.22519158057355,34.22519158057355 0 0,0 -0.5883667867343454,-0.03041184230924587 l 0.7963321288568226 -13.201194926347535" fill="#ff960d" stroke="none" /><path d="M 94.81253420990036 120.34920634021253 l -3.2547585107452894 12.767650949934566 a34.17597676616933,34.17597676616933 0 0,0 -0.5688014526680321,-0.15022563340558256 l 3.4740504062248108 -12.709733967225402" fill="#ff950d" stroke="none" /><path d="M 93.76903079525671 120.05430185196036 l -3.912056899711151 12.590909592223516 a34.1846575058332,34.1846575058332 0 0,0 -0.5604308526016735,-0.17943226118004232 l 4.128209097403765 -12.521704484383767" fill="#ff950d" stroke="none" /><path d="M 93.42475214034765 119.94407469862007 l -8.23837346685789 24.988675609687302 a47.31168383257919,47.31168383257919 0 0,0 -0.7712486362664939,-0.2616494116731481 l 8.66729183606161 -24.843163211116032" fill="#c2ff1e" stroke="none" /><path d="M 92.7421414339146 119.70592522655815 l -4.564925319976778 12.394300081932178 a34.20822538034346,34.20822538034346 0 0,0 -0.5508009379065724,-0.20826578455350445 l 4.777596478643633 -12.313886047272039" fill="#ff960d" stroke="none" /><path d="M 92.40401165467489 119.57807347666478 l -9.527914820879829 24.557464804088585 a47.34103715570044,47.34103715570044 0 0,0 -0.7571836485199561,-0.30129900023566736 l 9.949219545441643 -24.389818959446853" fill="#c2ff1e" stroke="none" /><line stroke="#e1ed5e" stroke-width="0.3" x1="58.666819895761336" x2="56.23545636021788" y1="174.27360380694188" y2="178.64263932499728" /><path d="M 58.180547188652646 175.14741091055294 a86.0,86.0 0 0,1 -31.652253787137756,-30.449443065178592" fill="none" id="id116" stroke="none" /><text fill="#e1ed5e" style="font-size:6.75px; font-family:Arial;" text-anchor="middle"><textPath startOffset="22.20632615414155" xlink:href="#id116">August</textPath></text><path d="M 89.1626897886671 117.98757091392108 l -6.81346418885878 11.308864273202845 a34.202791576124525,34.202791576124525 0 0,0 -0.5016748202774461,-0.3081696491841883 l 7.007118209068534 -11.189906157190277" fill="#ff950d" stroke="none" /><path d="M 87.65650970185807 116.9893568818739 l -9.308370784428027 12.811873256728816 a36.83634626442843,36.83634626442843 0 0,0 -0.5097712313956607,-0.3771165700775796 l 9.527526986242252 -12.64974673791147" fill="#ffb911" stroke="none" /><path d="M 87.36589467227662 116.77436683061367 l -7.919524566729565 10.514793628866855 a34.16357680954125,34.16357680954125 0 0,0 -0.4666927961220727,-0.35784013526466674 l 8.099346091345124 -10.376914151774821" fill="#ff950d" stroke="none" /><path d="M 85.70375840098266 115.38237550388516 l -2.0007462219595404 2.1527496902596166 a23.938931212804793,23.938931212804793 0 0,0 -0.2994237805993809,-0.28312387364678276 l 2.0375058369497383 -2.117991179866903" fill="#ff0200" stroke="none" /><path d="M 85.44109423537348 115.13401014063109 l -5.47413630867716 5.690375069808155 a28.895982317677248,28.895982317677248 0 0,0 -0.3554894479961964,-0.3479212454750447 l 5.57127570904915 -5.5953037214105406" fill="#ff4b07" stroke="none" /><path d="M 85.18274418774928 114.88116024355367 l -3.0478589070516655 3.0610038302827056 a25.319628267142853,25.319628267142853 0 0,0 -0.30619795088332624,-0.3101769076475414 l 3.100097482990525 -3.0080864286544995" fill="#ff1702" stroke="none" /><path d="M 83.95833913139862 113.55231037782056 l -12.635251587221518 10.674508868781828 a37.5406989653426,37.5406989653426 0 0,0 -0.412776074185247,-0.497215372251958 l 12.8171236613003 -10.455432239416108" fill="#ffc212" stroke="none" /><path d="M 83.06392112726016 112.41649034213515 l -2.2808455441905933 1.67217553036602 a23.82814911219493,23.82814911219493 0 0,0 -0.23966602870394274,-0.33287515208653756 l 2.3092913652701434 -1.6326667728283442" fill="#ff0100" stroke="none" /><path d="M 82.6465618267979 111.8261652097733 l -10.909948939134303 7.435002637323805 a34.202509233911925,34.202509233911925 0 0,0 -0.3273618163417674,-0.4893614983964325 l 11.036313860886802 -7.2461042247215515" fill="#ff950d" stroke="none" /><path d="M 82.44556493220864 111.52570212397912 l -13.228144121884734 8.68519255750058 a36.824549493436365,36.824549493436365 0 0,0 -0.34333655710219607,-0.5328659611275659 l 13.375685542363977 -8.456204996451564" fill="#ffb911" stroke="none" /><path d="M 82.05923443525364 110.91462005526583 l -11.29149262458063 6.8694031706375664 a34.21690226988625,34.21690226988625 0 0,0 -0.30179165117845297,-0.5058201663984313 l 11.408065151457317 -6.674020910353025" fill="#ff960d" stroke="none" /><line stroke="#e1ed5e" stroke-width="0.3" x1="26.63291911575756" x2="22.317208475507996" y1="142.92168965132927" y2="145.44649492493687" /><path d="M 25.769776987707644 143.4266507060508 a86.0,86.0 0 0,1 -11.730757126820373,-40.83630448921669" fill="none" id="id117" stroke="none" /><text fill="#e1ed5e" style="font-size:6.75px; font-family:Arial;" text-anchor="middle"><textPath startOffset="21.46611528233685" xlink:href="#id117">September</textPath></text><path d="M 80.58989483394504 108.01547362559985 l -9.831438111279937 4.059928177024819 a31.636737852298875,31.636737852298875 0 0,0 -0.20352574177475818,-0.5051342000603457 l 9.899866467312084 -3.890094609121668" fill="#ff720a" stroke="none" /><path d="M 79.58551787078972 104.9243191809786 l -5.019860162942412 1.2108753741461644 a26.163837258009767,26.163837258009767 0 0,0 -0.10183891669308447,-0.43871938774173225 l 5.039959645566051 -1.124287329055858" fill="#ff2403" stroke="none" /><path d="M 79.50377843672027 104.57218783832718 l -12.84961486836053 2.8664235818743258 a34.1654466850129,34.1654466850129 0 0,0 -0.12310292218239859,-0.5750958693631381 l 12.897051829267369 -2.644813893095024" fill="#ff950d" stroke="none" /><path d="M 79.35854240842038 103.8639653848113 l -25.855893063530566 4.840078533582816 a47.3050102893722,47.3050102893722 0 0,0 -0.14293672371628333,-0.8016650551599981 l 25.93537622958604 -4.394294727689604" fill="#c2ff1e" stroke="none" /><path d="M 79.29508885075956 103.50808413554451 l -13.031625740898575 2.2079804734480524 a34.217354017426416,34.217354017426416 0 0,0 -0.09339422393702485,-0.5815659216076117 l 13.06770171919689 -1.9833353221472267" fill="#ff960d" stroke="none" /><path d="M 79.1416061653843 102.43462659150553 l -13.118283318532399 1.5311879550955299 a34.207342419242224,34.207342419242224 0 0,0 -0.06323096688002015,-0.5854402230486844 l 13.142696586913472 -1.3051514101620634" fill="#ff960d" stroke="none" /><line stroke="#e1ed5e" stroke-width="0.3" x1="15.007084014347285" x2="10.007500721073583" y1="101.09737516637583" y2="101.16192664675087" /><path d="M 14.007167355692545 101.11028546245083 a86.0,86.0 0 0,1 10.666146001902534,-42.60595125391555" fill="none" id="id118" stroke="none" /><text fill="#e1ed5e" style="font-size:6.75px; font-family:Arial;" text-anchor="middle"><textPath startOffset="22.20632615414155" xlink:href="#id118">October</textPath></text><path d="M 79.00175016825051 100.2711162175752 l -15.584260081063425 0.2012141812170324 a36.58555900251736,36.58555900251736 0 0,0 -0.002710297776441128,-0.6297777530490581 l 15.58541467612937 0.06707305003570109" fill="#ffb610" stroke="none" /><path d="M 79.00019446554 99.90962569577889 l -31.90457478300795 -0.1373038308737456 a52.9048702305231,52.9048702305231 0 0,0 0.01175745965733494,-0.9106282076357153 l 31.897484316232898 0.6864682965699328" fill="#82ff25" stroke="none" /><path d="M 79.00486145842228 99.54816195383935 l -25.856703571503722 -0.5564641737784579 a46.86269073320315,46.86269073320315 0 0,0 0.024297871206367935,-0.8063280539950655 l 25.84329400584171 1.0014623751985179" fill="#c7ff1e" stroke="none" /><path d="M 79.01574976396665 99.18683210126434 l -26.287333685199645 -1.0186695095472456 a47.30706368728204,47.30706368728204 0 0,0 0.03853586498845091,-0.8134312036074048 l 26.2659042119777 1.4710118197776596" fill="#c2ff1e" stroke="none" /><path d="M 79.05617556472873 98.46500227214037 l -12.464499638562453 -0.9135379588017813 a33.497931942601355,33.497931942601355 0 0,0 0.047097320551650564,-0.5747066038685846 l 12.446927834191305 1.1279584798781443" fill="#ff8c0c" stroke="none" /><path d="M 79.16333360222342 97.38593545837743 l -2.9404133887696244 -0.3688896405288281 a23.963462580115557,23.963462580115557 0 0,0 0.05486948367999236,-0.40884138586072843 l 2.9336279060317985 0.41944936845421593" fill="#ff0300" stroke="none" /><path d="M 79.21141760316559 97.0276538004421 l -13.064486955436363 -1.8679570068749975 a34.19735135503713,34.19735135503713 0 0,0 0.08833356052363127,-0.5820077965776078 l 13.03039750147343 2.0925639158446976" fill="#ff950d" stroke="none" /><path d="M 79.32604984820605 96.31383870115002 l -2.729849218272409 -0.48673158570126795 a23.772901799743682,23.772901799743682 0 0,0 0.0752970168462809,-0.40223967484659007 l 2.721066477516266 0.5336493380104307" fill="#ff0000" stroke="none" /><path d="M 79.54389044137918 95.25157060432595 l -4.853305583897615 -1.1265865992126702 a25.98234607953094,25.98234607953094 0 0,0 0.10487860570553503,-0.4347895299277974 l 4.833194177931266 1.2099613607998645" fill="#ff2103" stroke="none" /><path d="M 79.71946130924805 94.55025226153421 l -16.18924746055 -4.3503437497854796 a37.763568357608776,37.763568357608776 0 0,0 0.17409585750657605,-0.6263154286438678 l 16.111964832477064 4.62837048184829" fill="#ffc512" stroke="none" /><path d="M 79.81627453868168 94.20196356495316 l -3.341324711610299 -0.9598387798311608 a24.476455279690136,24.476455279690136 0 0,0 0.11981120296957959,-0.403943815073958 l 3.3243076115290124 1.017211981651658" fill="#ff0b01" stroke="none" /><path d="M 80.02781315780177 93.51064311812611 l -12.586159285418955 -4.089491051757297 a34.23387103686373,34.23387103686373 0 0,0 0.1869213475121398,-0.5588710372631133 l 12.513900644135042 4.305535191942733" fill="#ff960d" stroke="none" /><path d="M 80.14247586403 93.16781622104843 l -2.8033341353154415 -0.9645157107773448 a23.964620183187233,23.964620183187233 0 0,0 0.13756481584029898,-0.3889142590578548 l 2.786316238665333 1.0126275962618108" fill="#ff0300" stroke="none" /><path d="M 80.2630227832202 92.82701384747504 l -15.245967491346716 -5.540823830120335 a37.2215983634052,37.2215983634052 0 0,0 0.22403044008427359,-0.6002901984986606 l 15.148332462760816 5.802437165648336" fill="#ffbe11" stroke="none" /><path d="M 80.52162464483688 92.15188598940014 l -18.763503825735846 -7.560082120692257 a41.229283662305356,41.229283662305356 0 0,0 0.27089271479120275,-0.6559881958842882 l 18.630589424058442 7.881944887029856" fill="#fff216" stroke="none" /><path d="M 80.65960295795068 91.81776055985345 l -12.352012039599716 -5.225700375015081 a34.41194042023186,34.41194042023186 0 0,0 0.23549121574892776,-0.5435461939917089 l 12.260230114008108 5.437545713593389" fill="#ff980e" stroke="none" /><path d="M 80.95270993114464 91.15688171328213 l -19.24188544677328 -8.933463419214727 a42.21454510964572,42.21454510964572 0 0,0 0.3116675866642061,-0.6564514226590329 l 19.085259666267326 9.263357257514292" fill="#fffe18" stroke="none" /><path d="M 81.43458229118936 90.18545643968196 l -35.512539378861284 -18.773580543029567 a61.16948816627854,61.16948816627854 0 0,0 0.500109794909598,-0.926627496452975 l 35.18412148473321 19.382089022815013" fill="#30ff34" stroke="none" /><path d="M 81.6062741919709 89.86733742301443 l -14.295621431632188 -7.875115123865889 a37.32122024637505,37.32122024637505 0 0,0 0.31481757068036037,-0.5600253299518362 l 14.157946219659397 8.12002396375251" fill="#ffbf11" stroke="none" /><line stroke="#e1ed5e" stroke-width="0.3" x1="26.266209847984243" x2="21.928928074336255" y1="57.711370442889674" y2="55.22380399835377" /><path d="M 25.398753493254645 57.213857153982495 a86.0,86.0 0 0,1 29.58750427330803,-30.492523968695096" fill="none" id="id119" stroke="none" /><text fill="#e1ed5e" style="font-size:6.75px; font-family:Arial;" text-anchor="middle"><textPath startOffset="21.46611528233685" xlink:href="#id119">November</textPath></text><path d="M 81.78341655067845 89.55222093294921 l -11.484552514719457 -6.586749249195806 a34.23934334229347,34.23934334229347 0 0,0 0.29762194664878866,-0.508732382394251 l 11.369470893600344 6.78346104394395" fill="#ff960d" stroke="none" /><path d="M 81.96595687620814 89.24020034530311 l -11.342717050200621 -6.767498678045291 a34.20818944588003,34.20818944588003 0 0,0 0.30605611267204896,-0.5030757771964468 l 11.224545139242355 6.961742228448812" fill="#ff960d" stroke="none" /><path d="M 82.15384107792192 88.93136811851018 l -11.219902314988401 -6.958862633305574 a34.202726124066146,34.202726124066146 0 0,0 0.31462013430127933,-0.49765349627594585 l 11.098454584441159 7.150963777295735" fill="#ff950d" stroke="none" /><path d="M 82.7489923806493 88.02491185347247 l -10.826857617299748 -7.515652255096928 a34.17975245157606,34.17975245157606 0 0,0 0.33966109499387515,-0.4804265309011865 l 10.695883902501993 7.7009052863299" fill="#ff950d" stroke="none" /><path d="M 82.95767976084542 87.72973835380427 l -26.08264326510834 -18.779183397338894 a53.139726333088,53.139726333088 0 0,0 0.5408545846749861,-0.7377250456720801 l 25.75552606791972 19.225370886682473" fill="#80ff26" stroke="none" /><path d="M 83.39014120810768 87.1503855733568 l -10.4540707031767 -8.087412386085878 a34.21717947860407,34.21717947860407 0 0,0 0.36440631257016737,-0.4627590109236784 l 10.313310310012561 8.266163790962604" fill="#ff960d" stroke="none" /><path d="M 83.6137871275137 86.86637796730984 l -12.433772923392649 -9.96572394652153 a36.93469054888625,36.93469054888625 0 0,0 0.40188726119582485,-0.4926662625414186 l 12.260387170120431 10.17827437867103" fill="#ffba11" stroke="none" /><path d="M 85.83668400450813 84.49514656593479 l -17.769046252648103 -19.452115443736993 a47.34622933106783,47.34622933106783 0 0,0 0.6064578794675518,-0.544483872118568 l 17.431577385584582 19.75509832462484" fill="#c2ff1e" stroke="none" /><path d="M 86.10567301691215 84.25364557470407 l -17.413440526311717 -19.73454393472025 a47.3188171328956,47.3188171328956 0 0,0 0.615383923794909,-0.5336548746210601 l 17.071162803870035 20.031363802760993" fill="#c2ff1e" stroke="none" /><path d="M 86.65592168130627 83.78471172551755 l -8.402777725087537 -10.210781131868556 a34.22371826757324,34.22371826757324 0 0,0 0.4581033758809933,-0.3704210710080696 l 8.225770950642042 10.35390830014076" fill="#ff960d" stroke="none" /><path d="M 86.93701828274178 83.55741782278169 l -16.381752903856214 -20.61997208284203 a47.33524400684729,47.33524400684729 0 0,0 0.6423335016922087,-0.5013514865959435 l 16.02438684700458 20.898901958661195" fill="#c2ff1e" stroke="none" /><path d="M 87.22198572758235 83.33499621200491 l -12.085307931880253 -15.761580647050371 a40.861573258476795,40.861573258476795 0 0,0 0.561854116279452,-0.4231768719242816 l 11.812207661842411 15.967274108480508" fill="#ffed16" stroke="none" /><path d="M 88.09926311788651 82.69761687909137 l -35.70221064634046 -51.907149362725875 a84.0,84.0 0 0,0 1.198381222373842,-0.8091523508053382 l 34.80342472956008 52.51401362582988" fill="#4dd2ff" stroke="none" /><path d="M 88.39885842347998 82.49532879139004 l -4.582800188821582 -6.914872126243029 a29.295632229851797,29.295632229851797 0 0,0 0.4227401221972231,-0.27496193475859 l 4.4630930408400715 6.992732985161154" fill="#ff5107" stroke="none" /><line stroke="#e1ed5e" stroke-width="0.3" x1="56.762969772571076" x2="54.21961505331055" y1="26.818313649435495" y2="22.513508569990535" /><path d="M 56.25429882871897 25.957352633546506 a86.0,86.0 0 0,1 42.265352541879196,-11.944610805530505" fill="none" id="id120" stroke="none" /><text fill="#e1ed5e" style="font-size:6.75px; font-family:Arial;" text-anchor="middle"><textPath startOffset="22.20632615414155" xlink:href="#id120">December</textPath></text><path d="M 89.3179101791058 81.91981866633112 l -6.7357267075773954 -11.400686787788235 a34.241815340519615,34.241815340519615 0 0,0 0.5100453202301743,-0.29545117062475523 l 6.538484654881901 11.514942115803036" fill="#ff960d" stroke="none" /><path d="M 89.94658935756843 81.56283822128135 l -1.5471506634069105 -2.837352227202555 a24.23175538005149,24.23175538005149 0 0,0 0.3679245349639907,-0.1965325445442121 l 1.4980810819146144 2.8635634982485163" fill="#ff0701" stroke="none" /><path d="M 90.26544431104013 81.39251694778311 l -12.210435363146198 -23.340096491266703 a47.34112442511161,47.34112442511161 0 0,0 0.7253100137873846,-0.37153196025567253 l 11.80686486177005 23.54682097683488" fill="#c2ff1e" stroke="none" /><path d="M 90.58718382345135 81.22770947309562 l -5.919021590599275 -11.80450046507664 a34.20534163965382,34.20534163965382 0 0,0 0.5286007706567796,-0.2593821024733388 l 5.71494955293207 11.904637727684808" fill="#ff960d" stroke="none" /><path d="M 90.91171255644093 81.06846463323043 l -11.400909889620657 -23.748888900039287 a47.34369887274107,47.34369887274107 0 0,0 0.7377090394681449,-0.34636428562856325 l 10.990422638852904 23.941618168307855" fill="#c2ff1e" stroke="none" /><path d="M 91.23893434514133 80.91482961587045 l -5.494589166853949 -11.96945378237685 a34.17035815613851,34.17035815613851 0 0,0 0.5366664351566277,-0.24078658600367653 l 5.287740613230547 12.062260698897054" fill="#ff950d" stroke="none" /><path d="M 91.56875222667455 80.76684994638697 l -10.592095241644541 -24.162420870755536 a47.38209741365519,47.38209741365519 0 0,0 0.749801931453307,-0.3210260564822909 l 10.174609552400927 24.341166455200614" fill="#c1ff1e" stroke="none" /><path d="M 92.57280143429618 80.3572730644239 l -9.306431607975885 -24.612738329658757 a47.31342922080256,47.31342922080256 0 0,0 0.7642643533335617,-0.2814850112249491 l 8.881384928869755 24.76928660869003" fill="#c2ff1e" stroke="none" /><path d="M 92.91201910852362 80.23233633223022 l -13.318045898632354 -37.14268648109298 a60.45819947223701,60.45819947223701 0 0,0 0.9826414991336228,-0.3428243243761114 l 12.676722395435446 37.3664316586413" fill="#33ff2f" stroke="none" /><path d="M 93.94186890950719 79.89281104454417 l -0.9283165287069318 -3.081121153432272 a24.217930878623452,24.217930878623452 0 0,0 0.40018375816096935,-0.11682461276838095 l 0.8751425528225412 3.096644095119352" fill="#ff0701" stroke="none" /><path d="M 95.33964822691252 79.52364482259891 l -8.761508927708093 -38.49575685031743 a60.48021446457795,60.48021446457795 0 0,0 1.0170965610914842,-0.22229791375868785 l 8.097569642463087 38.640868262171985" fill="#33ff2f" stroke="none" /><path d="M 96.75951476605007 79.25152402106235 l -2.029770348023694 -12.996399695793333 a34.15394894009146,34.15394894009146 0 0,0 0.5816434086587038,-0.08571911889654515 l 1.8057579589363415 13.029413298850846" fill="#ff950d" stroke="none" /><path d="M 97.47563105711357 79.15227682838746 l -0.3430614314386651 -2.833203036206187 a23.853897438610698,23.853897438610698 0 0,0 0.408053057667296,-0.04584951552950732 l 0.29424167026165116 2.8386885052062927" fill="#ff0100" stroke="none" /><path d="M 97.83486435360386 79.11191278185805 l -2.7176356013054663 -26.218315495236165 a47.35878621388367,47.35878621388367 0 0,0 0.8115827223753358,-0.07706955863244994 l 2.2659277518398944 26.261210598383798" fill="#c1ff1e" stroke="none" /><path d="M 98.19473922651362 79.07773832637324 l -0.7184780161772525 -8.326877358653316 a29.357816533388565,29.357816533388565 0 0,0 0.5038497665492337,-0.03910843905908452 l 0.5750380602656846 8.338011059900865" fill="#ff5207" stroke="none" /><path d="M 98.91598698831166 79.02799685794201 l -0.9523034258803296 -18.42386597246573 a39.448461160387446,39.448461160387446 0 0,0 0.6784368283908384,-0.02921491696029136 l 0.6350257651001671 18.437528615950214" fill="#ffdb14" stroke="none" /><path d="M 99.63851952072746 79.00311137660856 l -0.16069723452129556 -9.334230003570116 a30.33561317540157,30.33561317540157 0 0,0 0.522177713793829,-0.004494548440011175 l 2.286565758666678e-15 9.33561317540157" fill="#ff6008" stroke="none" /></svg>