<?xml version="1.0" encoding="utf-8" ?>
<svg baseProfile="full" height="200mm" version="1.1" viewBox="0,0,200,200" width="200mm" xmlns="http://www.w3.org/2000/svg" xmlns:ev="http://www.w3.org/2001/xml-events" xmlns:xlink="http://www.w3.org/1999/xlink"><defs /><rect fill="#1a1a1a" height="200" width="200" x="0" y="0" /><rect fill="#1a1a1a" height="200" width="180" x="10" y="0" /><text alignment-baseline="middle" fill="#e1ed5e" style="dominant-baseline: central; font-size:9.0px; font-family:Arial;" text-anchor="middle" x="100.0" y="100.0">2023</text><line stroke="#e1ed5e" stroke-width="0.3" x1="100.0" x2="100.0" y1="15.0" y2="10.0" /><path d="M 100.0 14.0 a86.0,86.0 0 0,1 42.46469731375804,11.215312516191453" fill="none" id="id133" stroke="none" /><text fill="#e1ed5e" style="font-size:6.75px; font-family:Arial;" text-anchor="middle"><textPath startOffset="22.20632615414155" xlink:href="#id133">January</textPath></text><path d="M 102.16513564639614 79.11191278185805 l 0.444683795095068 -4.290074809816653 a25.31305988266376,25.31305988266376 0 0,0 0.43301399742404906,0.0486541679478718 l -0.5184644960288423 4.28178468839818" fill="#ff3405" stroke="none" /><path d="M 104.307194497241 79.44645832069477 l 0.41414379782093597 -1.976256659686682 a23.019184357662645,23.019184357662645 0 0,0 0.38711392571237435,0.08460811034543975 l -0.44810044768683827 1.9688350512453716" fill="#ff1402" stroke="none" /><path d="M 104.66035177308747 79.52364482259891 l 1.0038874177154988 -4.410816248243913 a25.523614696591654,25.523614696591654 0 0,0 0.42755252730267435,0.10118786954441228 l -1.0796636319806967 4.392882466558632" fill="#ff3705" stroke="none" /><path d="M 105.01212808612495 79.60689891045804 l 0.3704805566254079 -1.5073931298537382 a22.55225316581018,22.55225316581018 0 0,0 0.376183515433729,0.09589755415942922 l -0.396372960744162 1.5007925795254413" fill="#ff0d01" stroke="none" /><path d="M 105.36241919743992 79.69619591428918 l 1.5329219276451311 -5.804124099894301 a27.003141361256546,27.003141361256546 0 0,0 0.4483834471552703,0.12256013389037847 l -1.6326032640241124 5.776877425177629" fill="#ff4c07" stroke="none" /><path d="M 105.71112130821622 79.79150937346287 l 0.22606195774444432 -0.7999078828045585 a21.831238010266688,21.831238010266688 0 0,0 0.3607453880366993,0.10531147105778733 l -0.23979756350457074 0.7958980828280677" fill="#ff0300" stroke="none" /><path d="M 106.0581310904928 79.89281104454417 l 0.5385008683309735 -1.7873067701027838 a22.86666780002454,22.86666780002454 0 0,0 0.37590039056825203,0.11679408113889725 l -0.5691866316099438 1.777772554081366" fill="#ff1202" stroke="none" /><path d="M 106.40334571778207 80.00007090966166 l 1.1212308245528184 -3.502003167295043 a24.677116362813653,24.677116362813653 0 0,0 0.40343228308936396,0.13300528081563523 l -1.1813459298845999 3.4821841622201717" fill="#ff2c04" stroke="none" /><path d="M 107.08798089147638 80.2323363322302 l 1.216528276756965 -3.392774639979909 a24.604283674440744,24.604283674440744 0 0,0 0.39743847067026455,0.14637994286908668 l -1.274749073199806 3.3713314293044974" fill="#ff2a04" stroke="none" /><path d="M 108.09893153111575 80.62456947434976 l 2.3151919455440835 -5.53873563717541 a27.003141361256546,27.003141361256546 0 0,0 0.42731345071569937,0.18295331901747944 l -2.4101891540500984 5.4980627901951395" fill="#ff4c07" stroke="none" /><path d="M 108.76106565485865 80.91482961587045 l 2.036603743851959 -4.436552696624883 a25.881675392670157,25.881675392670157 0 0,0 0.403288005550129,0.1893491261075566 l -2.112669960701686 4.400838587877323" fill="#ff3c05" stroke="none" /><path d="M 109.41281617654863 81.2277094730956 l 0.8091168974225048 -1.6136485812274806 a22.805140409328892,22.805140409328892 0 0,0 0.3493959407508307,0.17897417146454012 l -0.8367733257620911 1.5994818844504397" fill="#ff1101" stroke="none" /><line stroke="#e1ed5e" stroke-width="0.3" x1="143.23703022742887" x2="145.7803849466894" y1="26.81831364943548" y2="22.513508569990506" /><path d="M 143.74570117128098 25.957352633546492 a86.0,86.0 0 0,1 28.547481713284135,27.462654790039103" fill="none" id="id134" stroke="none" /><text fill="#e1ed5e" style="font-size:6.75px; font-family:Arial;" text-anchor="middle"><textPath startOffset="19.985693538727396" xlink:href="#id134">February</textPath></text><path d="M 110.68208982089419 81.91981866633111 l 3.081078739391661 -5.21494045131049 a27.0571156592099,27.0571156592099 0 0,0 0.39894806603943606,0.24036174592838186 l -3.1703888716487345 5.161132095923493" fill="#ff4d07" stroke="none" /><path d="M 111.2981086023043 82.29822771554956 l 1.813289967014283 -2.841045984919891 a24.370395049976203,24.370395049976203 0 0,0 0.3516682521336355,0.22873481347655344 l -1.8619252449321988 2.809412247283809" fill="#ff2703" stroke="none" /><path d="M 111.90073688211348 82.69761687909136 l 2.2239512558418792 -3.2333843737555545 a24.924376854585613,24.924376854585613 0 0,0 0.35139675485356137,0.2461758830621333 l -2.2792791502790912 3.194623647929486" fill="#ff2f04" stroke="none" /><path d="M 112.19680574252982 82.90503203632743 l 0.4847415961918808 -0.6794108418620204 a21.834609793327584,21.834609793327584 0 0,0 0.3040778047450517,0.22092545696978905 l -0.4963647172907212 0.6709661500755565" fill="#ff0300" stroke="none" /><path d="M 112.77801427241765 83.33499621200491 l 2.922947957793395 -3.81208987173272 a25.803712517848645,25.803712517848645 0 0,0 0.3501532392196167,0.2733001572495596 l -2.988133752172442 3.7612113252599366" fill="#ff3b05" stroke="none" /><path d="M 113.06298171725822 83.55741782278167 l 2.245763444204506 -2.8267780496959807 a24.61028081865778,24.61028081865778 0 0,0 0.32942220469039024,0.26636984641421224 l -2.294089047459387 2.7877021060176386" fill="#ff2b04" stroke="none" /><path d="M 113.6212207817346 84.01681056812373 l 12.447760067077796 -14.606246410853135 a40.190861494526416,40.190861494526416 0 0,0 0.5226844529468639,0.45326680697739263 l -12.697338318671424 14.389814610456071" fill="#fff717" stroke="none" /><path d="M 114.94478906791727 85.2469230424477 l 1.5590665720638297 -1.5390668289178069 a23.19075678248453,23.19075678248453 0 0,0 0.2779972492343267,0.28650060198407223 l -1.5853280850012654 1.5120020313836204" fill="#ff1602" stroke="none" /><path d="M 115.68641384162765 86.03803664274999 l 18.904331198001536 -16.82612623539126 a46.30794859590671,46.30794859590671 0 0,0 0.5248413593735504,0.5999844017666554 l -19.191164420952937 16.498226277421658" fill="#bfff1e" stroke="none" /><path d="M 117.04232023915458 87.72973835380427 l 0.6202158243455836 -0.4465477901504805 a21.7642464246936,21.7642464246936 0 0,0 0.21628207468152455,0.305915656419908 l -0.627810518830991 0.43580563339877937" fill="#ff0200" stroke="none" /><path d="M 117.2510076193507 88.02491185347247 l 1.6501557965551266 -1.1454844583736121 a23.008767979951884,23.008767979951884 0 0,0 0.22304867789632585,0.3272964120516097 l -1.6696289401201858 1.116910023051596" fill="#ff1402" stroke="none" /><path d="M 117.45458315368197 88.32363383020206 l 0.6104275426815442 -0.40834979820048806 a21.734419051056417,21.734419051056417 0 0,0 0.2053419937271624,0.312749944150893 l -0.6173661717666314 0.39778179007192105" fill="#ff0100" stroke="none" /><path d="M 117.65298651832404 88.62581576622439 l 2.933391960812971 -1.8900450956289891 a24.48956427928665,24.48956427928665 0 0,0 0.22527180946280867,0.3563259034281041 l -2.965491366521735 1.8392715444866787" fill="#ff2904" stroke="none" /><line stroke="#e1ed5e" stroke-width="0.3" x1="172.23445277983987" x2="176.4835382374775" y1="55.19839476539836" y2="52.563006222186495" /><path d="M 173.08426987136738 54.67131705675599 a86.0,86.0 0 0,1 12.851231095245387,41.99856678651699" fill="none" id="id135" stroke="none" /><text fill="#e1ed5e" style="font-size:6.75px; font-family:Arial;" text-anchor="middle"><textPath startOffset="22.20632615414155" xlink:href="#id135">March</textPath></text><path d="M 117.84615892207809 88.93136811851018 l 1.2535446309026828 -0.7774795756925912 a22.47507580560596,22.47507580560596 0 0,0 0.20108150839013708,0.3305251289707113 l -1.2667419375790439 0.7557866735147984" fill="#ff0c01" stroke="none" /><path d="M 118.03404312379186 89.2402003453031 l 4.1992496500675145 -2.5054328984704273 a25.889876443462562,25.889876443462562 0 0,0 0.2250450701863172,0.3846749743797253 l -4.241754394724159 2.4327785117368066" fill="#ff3d05" stroke="none" /><path d="M 118.21658344932153 89.55222093294921 l 0.6668055012717078 -0.3824337630248843 a21.768690548678457,21.768690548678457 0 0,0 0.1836265328460963,0.3266511123340562 l -0.6732896754102371 0.37089914075603414" fill="#ff0200" stroke="none" /><path d="M 118.3937258080291 89.86733742301442 l 2.3007478069252953 -1.2674268087728755 a23.626749167063302,23.626749167063302 0 0,0 0.1931676892276977,0.3579103910512775 l -2.3222235953714576 1.2276354343891391" fill="#ff1d02" stroke="none" /><path d="M 118.89224826269711 90.83032412892265 l 3.7167031652938385 -1.8039654603758735 a25.131364641511855,25.131364641511855 0 0,0 0.1855434364400678,0.3908017966185166 l -3.7472047955756627 1.7397212481168165" fill="#ff3204" stroke="none" /><path d="M 119.04729006885535 91.15688171328212 l 0.6248982373066821 -0.2901225848762736 a21.68896220596219,21.68896220596219 0 0,0 0.1542990810019184,0.3399775718694789 l -0.6297996352719475 0.27932300416473194" fill="#ff0100" stroke="none" /><path d="M 119.196687751892 91.48605970444005 l 4.237336844657364 -1.8793050850156947 a25.63538683797336,25.63538683797336 0 0,0 0.1754306307330208,0.4049180830004337 l -4.269058185233065 1.8060878574286583" fill="#ff3905" stroke="none" /><path d="M 119.34039704204932 91.81776055985345 l 0.8049500273374747 -0.3405459488090135 a21.87402293434488,21.87402293434488 0 0,0 0.1437209897854065,0.3480317766120134 l -0.8106927040090786 0.326639601743697" fill="#ff0300" stroke="none" /><path d="M 119.47837535516314 92.15188598940014 l 10.098068982657695 -4.068655378991485 a31.88691663289059,31.88691663289059 0 0,0 0.20074552634536316,0.5108754681876764 l -10.166608058884758 3.894230905908024" fill="#ff8e0d" stroke="none" /><path d="M 119.61058180528143 92.48833698450437 l 5.622757962637567 -2.1537485961611464 a27.02113279390766,27.02113279390766 0 0,0 0.16263558088753272,0.435782499454974 l -5.658998132026725 2.0566429596768394" fill="#ff4c07" stroke="none" /><path d="M 119.7369772167798 92.82701384747503 l 1.474877998181247 -0.5360131564940772 a22.569259447463633,22.569259447463633 0 0,0 0.12955498546646863,0.36626938997567426 l -1.4838860644575251 0.5105461400917884" fill="#ff0d01" stroke="none" /><path d="M 119.85752413597 93.16781622104841 l 2.8354389532560678 -0.9755617009450142 a23.998572108519753,23.998572108519753 0 0,0 0.1310352963607711,0.3917788576313775 l -2.851811543388609 0.9266097403913227" fill="#ff2203" stroke="none" /><path d="M 120.08093135843002 93.85539295169968 l 2.873073758374139 -0.8791379717844244 a24.004569252736793,24.004569252736793 0 0,0 0.11750134102643303,0.39615610889554204 l -2.8877809965122743 0.8295524761423525" fill="#ff2203" stroke="none" /><path d="M 120.18372546131832 94.20196356495316 l 0.9717131805554579 -0.27913719080619165 a22.011011412673653,22.011011412673653 0 0,0 0.10147414752197975,0.36505649882622293 l -0.9763740986438008 0.2623693885610168" fill="#ff0500" stroke="none" /><path d="M 120.28053869075195 94.5502522615342 l 12.22624003127388 -3.2854119398099852 a33.659971442170395,33.659971442170395 0 0,0 0.14554518457571095,0.5608449677875732 l -12.280981547719895 3.0744705464735618" fill="#ffa50f" stroke="none" /><path d="M 120.53481517161879 95.60439243477599 l 3.7883362020558975 -0.8109174166020127 a24.87415516420752,24.87415516420752 0 0,0 0.08601803150211265,0.4194544702864033 l -3.8017335294730072 0.7455872901521976" fill="#ff2e04" stroke="none" /><path d="M 120.67395015179393 96.31383870115 l 5.909935488418582 -1.053740350351883 a27.003141361256546,27.003141361256546 0 0,0 0.0776509257101216,0.45830015910801164 l -5.9271982756489265 0.9518544029280334" fill="#ff4c07" stroke="none" /><path d="M 120.83666639777658 97.38593545837742 l 19.04159899273252 -2.388864312191979 a40.190861494526416,40.190861494526416 0 0,0 0.08020880084367872,0.6871800229394418 l -19.07989814657979 2.0607405509276844" fill="#fff717" stroke="none" /><path d="M 120.91429891909075 98.10471618934814 l 4.864130513335869 -0.4407944942590504 a25.88406239077002,25.88406239077002 0 0,0 0.036392395377899414,0.44407940216763075 l -4.870997392533263 0.35700117488365085" fill="#ff3d05" stroke="none" /><path d="M 120.98425023603335 99.18683210126433 l 1.4323782667771658 -0.05550658290329279 a22.433453340671107,22.433453340671107 0 0,0 0.011631537828012238,0.38599411373013587 l -1.4331214990608232 0.03084232174815784" fill="#ff0b01" stroke="none" /><line stroke="#e1ed5e" stroke-width="0.3" x1="184.98032266829074" x2="189.97916517819016" y1="98.17113171792111" y2="98.06355123074" /><path d="M 185.9800911702706 98.14961562048488 a86.0,86.0 0 0,1 -9.607161424134198,41.387399972396054" fill="none" id="id136" stroke="none" /><text fill="#e1ed5e" style="font-size:6.75px; font-family:Arial;" text-anchor="middle"><textPath startOffset="21.466115282336823" xlink:href="#id136">April</textPath></text><path d="M 120.99513854157772 99.54816195383933 l 0.6690437253885329 -0.014398543218800405 a21.669198643549574,21.669198643549574 0 0,0 0.004815714087345414,0.37298236316802735 l -0.6691924465935938 0.002879921990310324" fill="#ff0000" stroke="none" /><path d="M 120.99980553446 99.90962569577887 l 25.988109351295194 -0.11184185952540737 a46.98835001027227,46.98835001027227 0 0,0 -0.0034809477844172233,0.8088496744552962 l -25.986184106221273 -0.33551729313357354" fill="#b7ff1f" stroke="none" /><path d="M 120.64145759157962 103.86396538481128 l 2.9591656480646273 0.5539392545955057 a24.01056639695383,24.01056639695383 0 0,0 -0.07954365302515928,0.40559137307824017 l -2.949192062063804 -0.6047943547416909" fill="#ff2203" stroke="none" /><path d="M 120.5718875245553 104.21870165774334 l 5.880759470370258 1.2059744005905038 a27.003141361256546,27.003141361256546 0 0,0 -0.09729612612186796,0.45453510969313554 l -5.859129305523946 -1.3070233296998084" fill="#ff4c07" stroke="none" /><path d="M 120.49622156327973 104.57218783832717 l 0.7717757369236201 0.1721636169566032 a21.790745280800067,21.790745280800067 0 0,0 -0.08481729462876543,0.3653906853858834 l -0.7686978763643019 -0.18542295969105146" fill="#ff0200" stroke="none" /><path d="M 120.41448212921028 104.9243191809786 l 12.411927402119574 2.9939673116525785 a33.76792003807711,33.76792003807711 0 0,0 -0.1411638723396318,0.5638794989908794 l -12.358552215484881 -3.207174650040854" fill="#ffa70f" stroke="none" /><path d="M 120.23288151984713 105.62410040840565 l 2.894813986133293 0.8046666267333372 a24.004569252736793,24.004569252736793 0 0,0 -0.1140872742762226,0.3971527685998077 l -2.880534074970971 -0.854376870837727" fill="#ff2203" stroke="none" /><path d="M 119.9155931802556 106.66101706037122 l 2.456983223380414 0.8217685016888244 a23.590766301761064,23.590766301761064 0 0,0 -0.13211859153155006,0.38399847033252416 l -2.442473800905633 -0.863939675110649" fill="#ff1c02" stroke="none" /><path d="M 119.79798401119884 107.00284435728193 l 11.94098302664977 4.223705078318731 a33.665968586387436,33.665968586387436 0 0,0 -0.1979490642942386,0.5446708091975008 l -11.866509701350305 -4.428623684522363" fill="#ffa50f" stroke="none" /><path d="M 119.54520255179757 107.68017299344265 l 0.5974577167904908 0.23476751438404628 a21.641927962595936,21.641927962595936 0 0,0 -0.13922704238935943,0.345550101283748 l -0.593328060143739 -0.2450169835106078" fill="#ff0000" stroke="none" /><path d="M 118.97047184881838 109.00673069616215 l 0.5828232414233723 0.27671067018249107 a21.645175732445114,21.645175732445114 0 0,0 -0.1626962142556513,0.33520239039350286 l -0.5779737705530067 -0.2867020165412693" fill="#ff0000" stroke="none" /><path d="M 118.81262510543309 109.33194174019688 l 2.69698366575747 1.337830010541313 a24.01056639695383,24.01056639695383 0 0,0 -0.1868494618940621,0.36867171473002747 l -2.673555534077139 -1.3840559369740348" fill="#ff2203" stroke="none" /><line stroke="#e1ed5e" stroke-width="0.3" x1="174.80103733775053" x2="179.2010983576182" y1="140.37084112569926" y2="142.7455964860345" /><path d="M 175.68104954172406 140.8457921977663 a86.0,86.0 0 0,1 -30.038265399797805,32.042727171017184" fill="none" id="id137" stroke="none" /><text fill="#e1ed5e" style="font-size:6.75px; font-family:Arial;" text-anchor="middle"><textPath startOffset="22.206326154141568" xlink:href="#id137">May</textPath></text><path d="M 118.30583269289576 110.29060199501025 l 1.7617512472648857 0.9903663604907532 a23.021037601142314,23.021037601142314 0 0,0 -0.19715655519364086,0.3437590723556062 l -1.7444426959188652 -1.0205452787046745" fill="#ff1402" stroke="none" /><path d="M 118.12598468904814 110.60418214915192 l 1.7651482472057343 1.032658575781287 a23.04502617801047,23.04502617801047 0 0,0 -0.20325616991440615,0.34066903204959464 l -1.747111201593101 -1.0628897017169856" fill="#ff1402" stroke="none" /><path d="M 117.35343817320211 111.8261652097733 l 3.310451223141078 2.2560338010838348 a25.00609233698239,25.00609233698239 0 0,0 -0.24546348522692418,0.35360845800119683 l -3.2711268307520176 -2.312683521272051" fill="#ff3004" stroke="none" /><path d="M 116.93607887273984 112.41649034213515 l 2.42312484966473 1.7764859575658376 a24.004569252736793,24.004569252736793 0 0,0 -0.24717703089246404,0.3311340259735503 l -2.3921865520771743 -1.8179328630487028" fill="#ff2203" stroke="none" /><path d="M 116.0416608686014 113.55231037782055 l 2.3272242897428392 1.9660848182578314 a24.046549262256068,24.046549262256068 0 0,0 -0.26984521202980505,0.3138909447107073 l -2.2930365681422553 -2.005852862130067" fill="#ff2303" stroke="none" /><path d="M 115.32070863581623 114.36230785411682 l 3.6577189203833527 3.4289070060090423 a26.013612565445026,26.013612565445026 0 0,0 -0.3090583766687801,0.32404647233810896 l -3.5981539923356083 -3.4913605949296587" fill="#ff3e05" stroke="none" /><path d="M 113.48314897796784 116.09983520530334 l 1.5555998630458836 1.857496455861745 a23.422846263683958,23.422846263683958 0 0,0 -0.311334098414265,0.25620676747743365 l -1.5233956360869274 -1.883998342196357" fill="#ff1a02" stroke="none" /><path d="M 112.34349029814194 116.9893568818739 l 1.4135382035854127 1.9455684273102622 a23.404854831032843,23.404854831032843 0 0,0 -0.3279718653541418,0.23399921773706625 l -1.3798390103823863 -1.9696119068915479" fill="#ff1902" stroke="none" /><path d="M 112.04921762599082 117.19931262002967 l 0.5746461714061308 0.820262315338874 a22.001523084245598,22.001523084245598 0 0,0 -0.3120477227834885,0.21462926913353395 l -0.5604415639997591 -0.8300323738375021" fill="#ff0500" stroke="none" /><path d="M 111.7513745106137 117.40417183066458 l 1.5605109416759761 2.3111679870325657 a23.78867206092337,23.78867206092337 0 0,0 -0.34133946549209204,0.22622118505600294 l -1.52049677744392 -2.337687193179887" fill="#ff1f03" stroke="none" /><path d="M 111.1453310114006 117.79835938074945 l 1.1140026237002028 1.7789888005508736 a23.099000475963827,23.099000475963827 0 0,0 -0.3388082193985886,0.20812368070424472 l -1.0832152043693055 -1.7979009480834964" fill="#ff1502" stroke="none" /><line stroke="#e1ed5e" stroke-width="0.3" x1="143.8653032363475" x2="146.44561519142675" y1="172.8068346515853" y2="177.08958963109032" /><path d="M 144.38136562736335 173.6633856474863 a86.0,86.0 0 0,1 -40.68145358897372,12.25698825130547" fill="none" id="id138" stroke="none" /><text fill="#e1ed5e" style="font-size:6.75px; font-family:Arial;" text-anchor="middle"><textPath startOffset="21.466115282336833" xlink:href="#id138">June</textPath></text><path d="M 109.89434966115114 118.52300852407294 l 1.4156313698914964 2.6501743752195734 a24.004569252736793,24.004569252736793 0 0,0 -0.3661372339325884,0.19154569607918526 l -1.3698032334324124 -2.6741494902434755" fill="#ff2203" stroke="none" /><path d="M 109.2508944713604 118.85261126421891 l 0.5310127906930342 1.0821632167847706 a22.205425987624942,22.205425987624942 0 0,0 -0.34459366814406617,0.1654259016318788 l -0.5123064545487354 -1.0911433949162093" fill="#ff0801" stroke="none" /><path d="M 107.93186726928326 119.44442032107085 l 1.1348497387656116 2.7820051159038073 a24.004569252736793,24.004569252736793 0 0,0 -0.3839347090803684,0.15277554425244405 l -1.0867939536433768 -2.80112750456232" fill="#ff2203" stroke="none" /><path d="M 107.59598834532513 119.57807347666477 l 0.7614065423729048 1.9624665750526438 a23.104997620180868,23.104997620180868 0 0,0 -0.37202322593553017,0.14066735128677393 l -0.7275130956770999 -1.9752821764460486" fill="#ff1502" stroke="none" /><path d="M 106.91757812671514 119.82793768551818 l 0.9897305972825186 2.836876757861385 a24.004569252736793,24.004569252736793 0 0,0 -0.39130907633410555,0.13275328446714313 l -0.9407517880111861 -2.8534930292266507" fill="#ff2203" stroke="none" /><path d="M 105.53697534728816 120.25689768951611 l 0.8016886723679478 2.932959674988484 a24.04055211803903,24.04055211803903 0 0,0 -0.4001144154925209,0.10567385371490712 l -0.7510838140639295 -2.9463248780069753" fill="#ff2203" stroke="none" /><path d="M 105.18746579009965 120.34920634021253 l 1.481427641151734 5.811291672597581 a26.997144217039505,26.997144217039505 0 0,0 -0.45129803803359675,0.11091807772194437 l -1.381176318374926 -5.835931008633555" fill="#ff4c07" stroke="none" /><line stroke="#e1ed5e" stroke-width="0.3" x1="102.19456741930631" x2="102.32365962044197" y1="184.97166512339345" y2="189.96999836594603" /><path d="M 102.22038585953345 185.97133177190398 a86.0,86.0 0 0,1 -42.740103519485714,-10.115201625700543" fill="none" id="id139" stroke="none" /><text fill="#e1ed5e" style="font-size:6.75px; font-family:Arial;" text-anchor="middle"><textPath startOffset="22.20632615414155" xlink:href="#id139">July</textPath></text><path d="M 98.37488393609728 120.93702456842531 l -0.1861032484412157 2.3976430800395687 a23.404854831032843,23.404854831032843 0 0,0 -0.4013995933252765,-0.03463444591350869 l 0.22734715950803394 -2.3940843818473967" fill="#ff1902" stroke="none" /><path d="M 96.22490169976321 120.6578951692458 l -0.4808264184404407 2.631153140071478 a23.674726320799618,23.674726320799618 0 0,0 -0.40025212190646503,-0.07670927177145091 l 0.5260461549186009 -2.6224866699515585" fill="#ff1d03" stroke="none" /><path d="M 94.11515582081647 120.15858648285463 l -0.8419724703772357 2.884184244048599 a24.004569252736793,24.004569252736793 0 0,0 -0.3956467688644958,-0.11920512591893835 l 0.8914942136819773 -2.869263749023935" fill="#ff2203" stroke="none" /><path d="M 93.42475214034765 119.94407469862007 l -0.5689576681983806 1.7257652452209085 a22.81713469776297,22.81713469776297 0 0,0 -0.3719521816520233,-0.12618637482578046 l 0.5985795827876297 -1.715715883497005" fill="#ff1101" stroke="none" /><path d="M 92.06813273071674 119.44442032107085 l -1.1325845696263577 2.7764522114808448 a23.998572108519753,23.998572108519753 0 0,0 -0.38115279664283347,-0.15932189990911202 l 1.1802088257666534 -2.7565452685517595" fill="#ff2203" stroke="none" /><line stroke="#e1ed5e" stroke-width="0.3" x1="58.666819895761336" x2="56.23545636021788" y1="174.27360380694188" y2="178.64263932499728" /><path d="M 58.180547188652646 175.14741091055294 a86.0,86.0 0 0,1 -31.652253787137756,-30.449443065178592" fill="none" id="id140" stroke="none" /><text fill="#e1ed5e" style="font-size:6.75px; font-family:Arial;" text-anchor="middle"><textPath startOffset="22.20632615414155" xlink:href="#id140">August</textPath></text><path d="M 87.36589467227662 116.77436683061367 l -1.8040131358005762 2.3951975483979533 a23.998572108519753,23.998572108519753 0 0,0 -0.32783337595770506,-0.2513686531520668 l 1.844975240251768 -2.3637895534185196" fill="#ff2203" stroke="none" /><path d="M 86.24171649860922 115.8653595955263 l -27.65041722399452 31.88506852476633 a63.204302712993815,63.204302712993815 0 0,0 -0.8158099799792323,-0.7198574547317649 l 28.19516955688034 -31.404387928262274" fill="#33ff56" stroke="none" /><path d="M 83.06392112726016 112.41649034213515 l -2.427961426210965 1.780031837720659 a24.01056639695383,24.01056639695383 0 0,0 -0.24150080093065956,-0.33542349023573337 l 2.458242019517232 -1.7379747420337874" fill="#ff2203" stroke="none" /><path d="M 82.6465618267979 111.8261652097733 l -2.482838417355808 1.6920253508128769 a24.004569252736793,24.004569252736793 0 0,0 -0.22975447027395998,-0.3434517595636843 l 2.5115959930404985 -1.6490366770433718" fill="#ff2203" stroke="none" /><path d="M 82.05923443525364 110.91462005526583 l -2.563796027205831 1.5597360901442237 a24.00097096620657,24.00097096620657 0 0,0 -0.21168756308347345,-0.3548005319737813 l 2.5902644659875365 -1.5153734642843313" fill="#ff2203" stroke="none" /><line stroke="#e1ed5e" stroke-width="0.3" x1="26.63291911575756" x2="22.317208475507996" y1="142.92168965132927" y2="145.44649492493687" /><path d="M 25.769776987707644 143.4266507060508 a86.0,86.0 0 0,1 -11.730757126820373,-40.83630448921669" fill="none" id="id141" stroke="none" /><text fill="#e1ed5e" style="font-size:6.75px; font-family:Arial;" text-anchor="middle"><textPath startOffset="21.46611528233685" xlink:href="#id141">September</textPath></text><path d="M 81.69416730710424 110.29060199501025 l -2.6191020026104077 1.4723250641123664 a24.004569252736793,24.004569252736793 0 0,0 -0.19937919803009893,-0.3619311580275057 l 2.6440576100920232 -1.4270233876870382" fill="#ff2203" stroke="none" /><path d="M 79.76711848015287 105.62410040840567 l -2.8948139861332924 0.8046666267333392 a24.004569252736793,24.004569252736793 0 0,0 -0.10723403896125341,-0.3990577510164806 l 2.9082361014363207 -0.7547179425413197" fill="#ff2203" stroke="none" /><path d="M 79.50377843672027 104.57218783832718 l -2.9324912907767207 0.6541645236559496 a24.004569252736793,24.004569252736793 0 0,0 -0.08649184797686012,-0.40406111912905335 l 2.9433171774780216 -0.6035895851107325" fill="#ff2203" stroke="none" /><path d="M 79.18660465613746 102.79330883721812 l -5.949797831282174 0.7985060864508355 a27.003141361256546,27.003141361256546 0 0,0 -0.057861933659550266,-0.46121654213095525 l 5.962661274188573 -0.6959717900324717" fill="#ff4c07" stroke="none" /><path d="M 79.07016306316243 101.71520430193888 l -3.257523407113702 0.2669546914488406 a24.26844359828653,24.26844359828653 0 0,0 -0.030535990272724314,-0.41663932631407197 l 3.2616359560507613 -0.21084222863800797" fill="#ff2603" stroke="none" /><path d="M 79.0235259727143 100.99374915477108 l -2.276361769738762 0.10784141232165916 a23.27891480247501,23.27891480247501 0 0,0 -0.015516912227298044,-0.40042255673698307 l 2.277880814817261 -0.06864160857067929" fill="#ff1802" stroke="none" /><path d="M 79.0095281055655 100.63252640178507 l -4.813521827100687 0.14505055705856706 a25.815706806282723,25.815706806282723 0 0,0 -0.009561569013404448,-0.4442885405888888 l 4.8153054587990995 -0.06217220067954948" fill="#ff3c05" stroke="none" /><line stroke="#e1ed5e" stroke-width="0.3" x1="15.007084014347285" x2="10.007500721073583" y1="101.09737516637583" y2="101.16192664675087" /><path d="M 14.007167355692545 101.11028546245083 a86.0,86.0 0 0,1 10.666146001902534,-42.60595125391555" fill="none" id="id142" stroke="none" /><text fill="#e1ed5e" style="font-size:6.75px; font-family:Arial;" text-anchor="middle"><textPath startOffset="22.20632615414155" xlink:href="#id142">October</textPath></text><path d="M 79.00019446554 99.90962569577889 l -3.664221184642091 -0.015769262221543397 a24.664255116611137,24.664255116611137 0 0,0 0.005481328717908189,-0.4245349498381625 l 3.663406848806467 0.07884047012017784" fill="#ff2b04" stroke="none" /><path d="M 79.00486145842228 99.54816195383935 l -62.98541562473312 -1.3555141384819447 a84.0,84.0 0 0,0 0.04355322217741975,-1.4453194103000224 l 62.95275070810006 2.4395036962069616" fill="#4dd2ff" stroke="none" /><path d="M 79.01574976396665 99.18683210126434 l -2.34911739910283 -0.09103145634584761 a23.350880533079486,23.350880533079486 0 0,0 0.01902139573769638,-0.4015116005270472 l 2.3472023951316348 0.13145416349590391" fill="#ff1902" stroke="none" /><path d="M 79.03285615573316 98.82574320788736 l -3.0178316508835277 -0.16901249592330486 a24.02256068538791,24.02256068538791 0 0,0 0.02667580560685072,-0.4126629057469355 l 3.014475254272264 0.2209344659232521" fill="#ff2203" stroke="none" /><path d="M 79.05617556472873 98.46500227214037 l -2.661590254268172 -0.19507110582509382 a23.66872917658258,23.66872917658258 0 0,0 0.03327768791786336,-0.4060720818905192 l 2.6578380825308114 0.24085710492339138" fill="#ff1d03" stroke="none" /><path d="M 79.08570108090925 98.10471618934814 l -6.050314556412833 -0.5482881961514503 a27.075107091861017,27.075107091861017 0 0,0 0.04605717370394049,-0.46378945379716285 l 6.039980257026665 0.6523531806530434" fill="#ff4d07" stroke="none" /><path d="M 79.16333360222342 97.38593545837743 l -4.421221266125081 -0.5546644324870719 a25.45587815326035,25.45587815326035 0 0,0 0.058286689005001766,-0.4343035347119112 l 4.4110185780622455 0.6306863092636424" fill="#ff3705" stroke="none" /><path d="M 79.26566170972629 96.67025291283419 l -4.938345016874331 -0.7930535185234517 a26.001618277010948,26.001618277010948 0 0,0 0.07477092024811606,-0.44130220384350555 l 4.923962235105992 0.8779415106827853" fill="#ff3e05" stroke="none" /><path d="M 79.3925641242962 95.95851677861259 l -2.942518211666416 -0.5770799459382309 a23.998572108519753,23.998572108519753 0 0,0 0.08299015255026085,-0.40468945718784893 l 2.9321487632011607 0.6276450592894823" fill="#ff2203" stroke="none" /><path d="M 79.46518482838121 95.60439243477599 l -7.723279842271857 -1.6532170861684965 a28.89823893384103,28.89823893384103 0 0,0 0.10830731475474009,-0.48552045511525843 l 7.69367814051508 1.7859157108337143" fill="#ff6609" stroke="none" /><path d="M 79.71946130924805 94.55025226153421 l -3.4779048502036796 -0.9345759686669318 a24.601285102332223,24.601285102332223 0 0,0 0.11341570757021241,-0.4080166439290608 l 3.4613023720671063 0.9943039160149352" fill="#ff2a04" stroke="none" /><path d="M 79.81627453868168 94.20196356495316 l -3.5564089318324803 -1.0216245065465694 a24.700237981913375,24.700237981913375 0 0,0 0.12090660973705368,-0.4076369821380068 l 3.5382964249837197 1.0826908754311155" fill="#ff2c04" stroke="none" /><path d="M 80.02781315780177 93.51064311812611 l -2.8569448041667105 -0.928277637924027 a24.00396953831509,24.00396953831509 0 0,0 0.131064767023007,-0.39186697116036484 l 2.8405427433719312 0.9773177120067139" fill="#ff2203" stroke="none" /><path d="M 80.14247586403 93.16781622104843 l -11.97122326064712 -4.118821501389842 a33.659971442170395,33.659971442170395 0 0,0 0.19321932654206822,-0.5462570553287694 l 11.898550853295243 4.324276183145223" fill="#ffa50f" stroke="none" /><path d="M 80.38941819471856 92.48833698450439 l -2.9569882512675676 -1.1326486641166167 a24.16649214659686,24.16649214659686 0 0,0 0.15214124469112197,-0.38718287290005865 l 2.9370534566947546 1.1833805419124388" fill="#ff2403" stroke="none" /><path d="M 80.65960295795068 91.81776055985345 l -2.938341140324675 -1.2431084385029867 a24.190480723465015,24.190480723465015 0 0,0 0.165542705396832,-0.38209538803974885 l 2.9165077250851623 1.2935029711293349" fill="#ff2503" stroke="none" /><path d="M 81.10775173730289 90.83032412892265 l -2.438637662467137 -1.1836345055859943 a23.710709186101855,23.710709186101855 0 0,0 0.18137561983432374,-0.36564218189565134 l 2.4179020296794005 1.225436275980607" fill="#ff1e03" stroke="none" /><path d="M 81.43458229118936 90.18545643968196 l -2.65624205771941 -1.4042131338560708 a24.004569252736793,24.004569252736793 0 0,0 0.19625667249734322,-0.36363380791467564 l 2.631677286003595 1.4497279251032194" fill="#ff2203" stroke="none" /><line stroke="#e1ed5e" stroke-width="0.3" x1="26.266209847984243" x2="21.928928074336255" y1="57.711370442889674" y2="55.22380399835377" /><path d="M 25.398753493254645 57.213857153982495 a86.0,86.0 0 0,1 29.58750427330803,-30.492523968695096" fill="none" id="id143" stroke="none" /><text fill="#e1ed5e" style="font-size:6.75px; font-family:Arial;" text-anchor="middle"><textPath startOffset="21.46611528233685" xlink:href="#id143">November</textPath></text><path d="M 82.15384107792192 88.93136811851018 l -2.497273071437867 -1.5488709058343686 a23.93860066634936,23.93860066634936 0 0,0 0.22020366824889073,-0.3483093211444331 l 2.470241806943014 1.5916278746930173" fill="#ff2103" stroke="none" /><path d="M 82.34701348167596 88.62581576622439 l -3.866684624337328 -2.491384856917436 a25.5998096144693,25.5998096144693 0 0,0 0.2418613505574939,-0.3683714300525461 l 3.823226638421914 2.5575743509476494" fill="#ff3905" stroke="none" /><path d="M 82.54541684631803 88.32363383020206 l -9.9742848806809 -6.67236802639667 a33.00028557829605,33.00028557829605 0 0,0 0.3199071795088467,-0.4694243114566375 l 9.857953235503313 6.843070361123724" fill="#ff9d0e" stroke="none" /><path d="M 83.39014120810768 87.1503855733568 l -2.3811944160485328 -1.8421246384126286 a24.01056639695383,24.01056639695383 0 0,0 0.25570786653839256,-0.32472302296334543 l 2.349132468916169 1.8828400553290219" fill="#ff2203" stroke="none" /><path d="M 83.84228863543731 86.58626213691792 l -11.535729198878645 -9.576681006484112 a35.99286054259876,35.99286054259876 0 0,0 0.3998453502298266,-0.47329077695647487 l 11.369173235161695 9.773830733069701" fill="#ffc312" stroke="none" /><path d="M 84.80347519578584 85.50635884689758 l -2.1785784250496443 -2.0778128107160616 a24.01056639695383,24.01056639695383 0 0,0 0.28782464813534936,-0.2966286004043279 l 2.1424895132111765 2.115005606670513" fill="#ff2203" stroke="none" /><path d="M 85.31137513191541 84.99185889309783 l -4.203141966060188 -4.294571362907943 a27.009138505473583,27.009138505473583 0 0,0 0.33506348363184113,-0.3223308057833775 l 4.128595238815919 4.366285255453635" fill="#ff4c07" stroke="none" /><path d="M 85.83668400450813 84.49514656593479 l -12.134206945209602 -13.283548872592762 a38.991432651118515,38.991432651118515 0 0,0 0.49944128385916975,-0.44840331594052524 l 11.90375467375446 13.490451197302566" fill="#ffe915" stroke="none" /><path d="M 86.37877921826538 84.01681056812374 l -1.95274236052283 -2.2913549057025833 a24.01056639695383,24.01056639695383 0 0,0 0.3168736909646954,-0.2653726033834288 l 1.9130111325990242 2.3246286664798244" fill="#ff2203" stroke="none" /><path d="M 87.22198572758235 83.33499621200491 l -3.6527726663560425 -4.76392254881954 a27.003141361256546,27.003141361256546 0 0,0 0.37129813946041584,-0.2796540608238857 l 3.5702283731372364 4.82609319914928" fill="#ff4c07" stroke="none" /><path d="M 87.80319425747018 82.90503203632743 l -15.405941494300645 -21.59287290908818 a47.52536887196573,47.52536887196573 0 0,0 0.6700372287042419,-0.4694038979657334 l 15.031973126012742 21.854861649817856" fill="#b1ff20" stroke="none" /><line stroke="#e1ed5e" stroke-width="0.3" x1="56.762969772571076" x2="54.21961505331055" y1="26.818313649435495" y2="22.513508569990535" /><path d="M 56.25429882871897 25.957352633546506 a86.0,86.0 0 0,1 42.265352541879196,-11.944610805530505" fill="none" id="id144" stroke="none" /><text fill="#e1ed5e" style="font-size:6.75px; font-family:Arial;" text-anchor="middle"><textPath startOffset="22.20632615414155" xlink:href="#id144">December</textPath></text><path d="M 94.28887869178378 79.79150937346287 l -0.8171171181579242 -2.891324265748244 a24.004569252736793,24.004569252736793 0 0,0 0.39859256984307856,-0.10895040625967047 l 0.7672266590911231 2.9049612128342104" fill="#ff2203" stroke="none" /><path d="M 95.33964822691252 79.52364482259891 l -0.6694403451298442 -2.9413441182958824 a24.01656354117087,24.01656354117087 0 0,0 0.4038868645425606,-0.08827402511910894 l 0.6187107564337626 2.95243164151086" fill="#ff2203" stroke="none" /><path d="M 97.11714578562143 79.19881850522333 l -0.41246357774497766 -2.976123349514456 a24.004569252736793,24.004569252736793 0 0,0 0.40977545360091805,-0.053200614511665544 l 0.3611733956362018 2.982782287190258" fill="#ff2203" stroke="none" /><path d="M 98.19473922651362 79.07773832637324 l -0.2588027343998561 -2.999421806804559 a24.01056639695383,24.01056639695383 0 0,0 0.4120782708775825,-0.031985204745776354 l 0.20713427415993943 3.0034322737387975" fill="#ff2203" stroke="none" /></svg>