<?xml version="1.0" encoding="utf-8" ?>
<svg baseProfile="full" height="200mm" version="1.1" viewBox="0,0,200,200" width="200mm" xmlns="http://www.w3.org/2000/svg" xmlns:ev="http://www.w3.org/2001/xml-events" xmlns:xlink="http://www.w3.org/1999/xlink"><defs /><rect fill="#1a1a1a" height="200" width="200" x="0" y="0" /><text alignment-baseline="middle" fill="#e1ed5e" style="dominant-baseline: central; font-size:9.0px; font-family:Arial;" text-anchor="middle" x="100.0" y="100.0">2022</text><line stroke="#e1ed5e" stroke-width="0.3" x1="100.0" x2="100.0" y1="15.0" y2="10.0" /><path d="M 100.0 14.0 a86.0,86.0 0 0,1 42.46469731375804,11.215312516191453" fill="none" id="id121" stroke="none" /><text fill="#e1ed5e" style="font-size:6.75px; font-family:Arial;" text-anchor="middle"><textPath startOffset="22.20632615414155" xlink:href="#id121">January</textPath></text><path d="M 100.0 79.0 l 0.0 -40.38085700998557 a61.38085700998557,61.38085700998557 0 0,0 1.0565705528632436,0.00909423631972218 l -0.6950900735907153 40.37487415027441" fill="#30ff3a" stroke="none" /><path d="M 102.88285421437855 79.19881850522331 l 1.9256526886054899 -13.894511512862637 a35.0273157966236,35.0273157966236 0 0,0 0.5965168886282832,0.08791108321512797 l -2.164538557662429 13.85930594548654" fill="#ffa80f" stroke="none" /><path d="M 103.95276090670814 79.375362276772 l 3.0119629342307896 -15.715760659562669 a37.00178283272954,37.00178283272954 0 0,0 0.624508321215334,0.1252704941665399 l -3.2820376649132488 15.661586209318921" fill="#ffc212" stroke="none" /><path d="M 105.36241919743992 79.69619591428918 l 4.457518167614197 -16.87756444459679 a38.45627823438113,38.45627823438113 0 0,0 0.6385612091870937,0.17454290026025612 l -4.747377266025 16.79833500351024" fill="#ffd513" stroke="none" /><path d="M 107.08798089147638 80.2323363322302 l 4.7419769577623745 -13.224895362526274 a35.04934883963375,35.04934883963375 0 0,0 0.5661599331698194,0.2085214814066679 l -4.96891921670477 13.141310613313282" fill="#ffa90f" stroke="none" /><path d="M 110.36928655335952 81.73862282372117 l 19.930860343296047 -35.100289330778224 a61.364210696213476,61.364210696213476 0 0,0 0.914044076926744,0.5294733268188065 l -20.532101152688117 34.75201184656937" fill="#30ff3a" stroke="none" /><line stroke="#e1ed5e" stroke-width="0.3" x1="143.23703022742887" x2="145.7803849466894" y1="26.81831364943548" y2="22.513508569990506" /><path d="M 143.74570117128098 25.957352633546492 a86.0,86.0 0 0,1 28.547481713284135,27.462654790039103" fill="none" id="id122" stroke="none" /><text fill="#e1ed5e" style="font-size:6.75px; font-family:Arial;" text-anchor="middle"><textPath startOffset="19.985693538727396" xlink:href="#id122">February</textPath></text><path d="M 110.99172775467656 82.1063720568725 l 5.292307636614006 -8.615441168459874 a31.111100169999116,31.111100169999116 0 0,0 0.4538973924150359,0.2842305054896687 l -5.439824181401304 8.52306632164726" fill="#ff730a" stroke="none" /><path d="M 111.60114157652 82.49532879139004 l 11.163497251929735 -16.844320676919878 a41.207790823362,41.207790823362 0 0,0 0.587888604026497,0.39694500971687185 l -11.451790550362773 16.649663754904335" fill="#fff817" stroke="none" /><path d="M 112.19680574252982 82.90503203632743 l 11.617376590425277 -16.28284362542017 a41.00236074501326,41.00236074501326 0 0,0 0.5710158304966994,0.4148672850201501 l -11.895937737275764 16.080457105583346" fill="#fff517" stroke="none" /><path d="M 112.48926042617603 83.11751280151076 l 11.88232904322241 -16.062061412379418 a40.97947847934111,40.97947847934111 0 0,0 0.5634753346612056,0.4243979399980399 l -12.157050531641998 15.855146882875529" fill="#fff517" stroke="none" /><path d="M 113.06298171725822 83.55741782278167 l 8.709072748304587 -10.962247934725495 a35.000672409482874,35.000672409482874 0 0,0 0.46850333629824853,0.37883044906338775 l -8.896479483167328 10.81071138839798" fill="#ffa80f" stroke="none" /><path d="M 113.6212207817346 84.01681056812373 l 10.389318676742075 -12.19086388359328 a37.01733763130442,37.01733763130442 0 0,0 0.48141259355693994,0.41747625721410225 l -10.59762506894578 12.010222632959504" fill="#ffc212" stroke="none" /><path d="M 114.42810811169701 84.74124197986012 l 6.91368572531864 -7.311717980849282 a31.062816213165647,31.062816213165647 0 0,0 0.3853516249579762,0.3707079578958808 l -7.038520593889034 7.191626936191098" fill="#ff730a" stroke="none" /><path d="M 115.19652480421416 85.50635884689758 l 7.634103694647415 -7.281004104643033 a31.54952889907687,31.54952889907687 0 0,0 0.37143212001376413,0.39621788827505733 l -7.758303136631642 7.14851679948992" fill="#ff790b" stroke="none" /><path d="M 115.68641384162765 86.03803664274999 l 14.92872048610818 -13.287565309831352 a40.98564703019093,40.98564703019093 0 0,0 0.4645198795100924,0.5310265226605622 l -15.155232229196118 13.028623230967844" fill="#fff517" stroke="none" /><path d="M 115.92442197804982 86.31012108654704 l 15.175431633432954 -13.045988219066459 a41.012284574056466,41.012284574056466 0 0,0 0.4556062241796811,0.5392940638280924 l -15.397748471099755 12.78283520560926" fill="#fff517" stroke="none" /><path d="M 116.60985879189232 87.15038557335679 l 7.971486914908872 -6.166851539617511 a31.078425548975705,31.078425548975705 0 0,0 0.32369520988165107,0.4259449530782407 l -8.076458065014634 6.0287218106582365" fill="#ff730a" stroke="none" /><path d="M 117.2510076193507 88.02491185347247 l 16.409700247651845 -11.391079944994061 a40.97585954423566,40.97585954423566 0 0,0 0.39722297625717645,0.5828757029165837 l -16.603347689577756 11.106926218807072" fill="#fff517" stroke="none" /><path d="M 117.45458315368197 88.32363383020206 l 8.332891470829324 -5.574346359916635 a31.025488397326882,31.025488397326882 0 0,0 0.29312196608063407,0.4464448642829738 l -8.427610072267882 5.430083431655987" fill="#ff720a" stroke="none" /><line stroke="#e1ed5e" stroke-width="0.3" x1="172.23445277983987" x2="176.4835382374775" y1="55.19839476539836" y2="52.563006222186495" /><path d="M 173.08426987136738 54.67131705675599 a86.0,86.0 0 0,1 12.851231095245387,41.99856678651699" fill="none" id="id123" stroke="none" /><text fill="#e1ed5e" style="font-size:6.75px; font-family:Arial;" text-anchor="middle"><textPath startOffset="22.20632615414155" xlink:href="#id123">March</textPath></text><path d="M 118.03404312379186 89.2402003453031 l 13.736819167670255 -8.195911539211979 a36.996035971573114,36.996035971573114 0 0,0 0.3215842118837351,0.5496916611631748 l -13.875863054024318 7.958240465694909" fill="#ffc212" stroke="none" /><path d="M 118.73160827565052 90.50648371742162 l 21.399712004236058 -10.845759283723218 a44.991210230097046,44.991210230097046 0 0,0 0.3441613061225372,0.6938081921354706 l -21.583233323312005 10.475791503088798" fill="#d8ff1c" stroke="none" /><path d="M 119.196687751892 91.48605970444005 l 9.162162509840146 -4.063518956769427 a31.022844315300162,31.022844315300162 0 0,0 0.21229861596251492,0.49001447603531956 l -9.230751835645341 3.905205336147505" fill="#ff720a" stroke="none" /><path d="M 119.7369772167798 92.82701384747503 l 28.169507727464044 -10.237610685427532 a50.97215104316066,50.97215104316066 0 0,0 0.29259694155952715,0.8272109553166793 l -28.34155774983338 9.751202103684237" fill="#93ff23" stroke="none" /><path d="M 120.18372546131832 94.20196356495316 l 9.614705932930972 -2.761948750156738 a31.003545925082285,31.003545925082285 0 0,0 0.14293111451910903,0.5141992666494083 l -9.660823818016445 2.5960381800883776" fill="#ff720a" stroke="none" /><path d="M 120.37134235888165 94.90015583598534 l 19.412307217546463 -4.859755431399007 a41.0113691276089,41.0113691276089 0 0,0 0.16554375801987536,0.6862857514909174 l -19.493083775827156 4.524884448248684" fill="#fff517" stroke="none" /><path d="M 120.6074358757038 95.95851677861258 l 9.832325386039978 -1.928293180897506 a31.01962759230412,31.01962759230412 0 0,0 0.09824990828037443,0.524854938690135 l -9.864061018230212 1.7587601647448081" fill="#ff720a" stroke="none" /><path d="M 120.83666639777658 97.38593545837742 l 19.8328872470414 -2.4881354013529577 a40.988352466607225,40.988352466607225 0 0,0 0.08180035156380878,0.700815457565871 l -19.872777951608793 2.1463762054622344" fill="#fff517" stroke="none" /><path d="M 120.96714384426684 98.82574320788733 l 19.97930132554244 -1.1189330534210487 a41.01060950183327,41.01060950183327 0 0,0 0.033406835843878664,0.7051655048444413 l -19.995601769619814 0.7748564419536076" fill="#fff517" stroke="none" /><line stroke="#e1ed5e" stroke-width="0.3" x1="184.98032266829074" x2="189.97916517819016" y1="98.17113171792111" y2="98.06355123074" /><path d="M 185.9800911702706 98.14961562048488 a86.0,86.0 0 0,1 -9.607161424134198,41.387399972396054" fill="none" id="id124" stroke="none" /><text fill="#e1ed5e" style="font-size:6.75px; font-family:Arial;" text-anchor="middle"><textPath startOffset="21.466115282336823" xlink:href="#id124">April</textPath></text><path d="M 120.9764740272857 100.99374915477107 l 9.999183646107298 0.47370593760392593 a31.010398139130174,31.010398139130174 0 0,0 -0.029849205086780555,0.5329776083862588 l -9.989548090132988 -0.6457552623256081" fill="#ff720a" stroke="none" /><path d="M 120.89721153311464 102.0752229133903 l 9.951417528021244 0.9882375762018969 a31.000366209495823,31.000366209495823 0 0,0 -0.05730299375605657,0.5305545542195822 l -9.932932232764136 -1.1593884523062705" fill="#ff720a" stroke="none" /><path d="M 120.8583938346157 102.4346265915055 l 20.23954103195518 2.3623930580162424 a41.376945849286656,41.376945849286656 0 0,0 -0.08866191024727578,0.7067226599024281 l -20.195877612461057 -2.7104334722060655" fill="#fffa17" stroke="none" /><path d="M 120.81339534386255 102.79330883721812 l 11.899067688329083 1.5969413149242508 a33.00575001467002,33.00575001467002 0 0,0 -0.08041764387663884,0.5624408139729685 l -11.869815993435843 -1.8015276008776286" fill="#ff8d0d" stroke="none" /><path d="M 120.70491114924044 103.5080841355445 l 9.867524118373723 1.6718789357393344 a31.008157243092057,31.008157243092057 0 0,0 -0.09369418540857358,0.5254867493872574 l -9.83728349062596 -1.8414844358598101" fill="#ff720a" stroke="none" /><path d="M 120.5718875245553 104.21870165774334 l 9.80365371285122 2.010447029762337 a31.007673225129892,31.007673225129892 0 0,0 -0.11172501911894292,0.5219420941496516 l -9.767594655007835 -2.1789029433281577" fill="#ff720a" stroke="none" /><path d="M 120.41448212921028 104.9243191809786 l 9.746909267003243 2.3511197567968316 a31.02646519816401,31.02646519816401 0 0,0 -0.12970345722937393,0.5181008374715084 l -9.704994495478807 -2.5185484336657358" fill="#ff720a" stroke="none" /><path d="M 120.23288151984713 105.62410040840565 l 9.775849883588597 2.7173767250537653 a31.146495809506014,31.146495809506014 0 0,0 -0.14803093414214047,0.5153151015828918 l -9.727626312560357 -2.885249302141239" fill="#ff740a" stroke="none" /><path d="M 120.02730092923936 106.31721596034902 l 9.581916643766707 3.0224260856021368 a31.047297448121146,31.047297448121146 0 0,0 -0.16515350999803013,0.5082902388276496 l -9.52847088275243 -3.1869152244075813" fill="#ff720a" stroke="none" /><path d="M 119.41010516605496 108.01547362559984 l 16.701577988029463 6.896977462186403 a39.06961553005867,39.06961553005867 0 0,0 -0.26204366726678535,0.6193938229707338 l -16.580383339570368 -7.183445810823299" fill="#ffdd14" stroke="none" /><line stroke="#e1ed5e" stroke-width="0.3" x1="174.80103733775053" x2="179.2010983576182" y1="140.37084112569926" y2="142.7455964860345" /><path d="M 175.68104954172406 140.8457921977663 a86.0,86.0 0 0,1 -30.038265399797805,32.042727171017184" fill="none" id="id125" stroke="none" /><text fill="#e1ed5e" style="font-size:6.75px; font-family:Arial;" text-anchor="middle"><textPath startOffset="22.206326154141568" xlink:href="#id125">May</textPath></text><path d="M 117.14729908036423 112.12312394758627 l 16.340427645165075 11.552666619418034 a41.011838537383085,41.011838537383085 0 0,0 -0.41250138337734804,0.5729283431205918 l -16.139146469412125 -11.832228567989757" fill="#fff517" stroke="none" /><path d="M 116.93607887273984 112.41649034213515 l 11.328472094445983 8.305338290449322 a35.046811884318984,35.046811884318984 0 0,0 -0.36087991467812053,0.4834576198641469 l -11.183830913072772 -8.499108789822785" fill="#ffa90f" stroke="none" /><path d="M 115.80600337817218 113.82643327865902 l 7.657481383634397 6.698445704472458 a31.17379948674402,31.17379948674402 0 0,0 -0.3567784204512428,0.4008443375590383 l -7.541044113534816 -6.8292642117723625" fill="#ff740a" stroke="none" /><path d="M 115.32070863581623 114.36230785411682 l 14.5761737673043 13.664348037513136 a40.979470688307515,40.979470688307515 0 0,0 -0.4868623554614515,0.5104732332512855 l -14.338804860463885 -13.91322838734693" fill="#fff517" stroke="none" /><path d="M 115.07121518719521 114.62390073753431 l 7.188553828101558 6.975197177059451 a31.016420608100066,31.016420608100066 0 0,0 -0.37509099003084273,0.37996519257751216 l -7.067422213015179 -7.0979028636176285" fill="#ff720a" stroke="none" /><path d="M 114.81725581225074 114.88116024355365 l 7.065843822111534 7.096317665368928 a31.014183607578744,31.014183607578744 0 0,0 -0.3815483720020872,0.37342538729127334 l -6.942645497733652 -7.216893155582773" fill="#ff720a" stroke="none" /><path d="M 114.29624159901734 115.38237550388516 l 6.826342285985031 7.344962634675197 a31.027333898409992,31.027333898409992 0 0,0 -0.394343304587032,0.36022325895074625 l -6.698899431931134 -7.461378660212525" fill="#ff720a" stroke="none" /><path d="M 114.0293411484842 115.62618273729858 l 10.688180194307591 11.90472560883381 a36.998740190640405,36.998740190640405 0 0,0 -0.4775614981664503,0.4213924970086057 l -10.481676343234554 -12.086941247614703" fill="#ffc212" stroke="none" /><path d="M 113.48314897796784 116.09983520530334 l 6.443308105278229 7.693766407349284 a31.03545020765887,31.03545020765887 0 0,0 -0.4125200584295933,0.3394759238649638 l -6.309917918303944 -7.803537450071426" fill="#ff720a" stroke="none" /><path d="M 112.92097659922987 116.55440617244103 l 6.149295083166391 7.878501110124941 a30.99422882278039,30.99422882278039 0 0,0 -0.4233978015121245,0.32464337959103945 l -6.012768553160773 -7.983183831543353" fill="#ff720a" stroke="none" /><path d="M 112.04921762599082 117.19931262002967 l 5.745253440569494 8.200898437796303 a31.013125000888856,31.013125000888856 0 0,0 -0.4398593222783182,0.3025392527144611 l -5.603237233668293 -8.298578479875859" fill="#ff720a" stroke="none" /><path d="M 111.7513745106137 117.40417183066458 l 5.605201858964596 8.301488154502335 a31.01663583540316,31.01663583540316 0 0,0 -0.44505224462741344,0.2949563597819019 l -5.461474915597219 -8.396742535375555" fill="#ff720a" stroke="none" /><path d="M 111.1453310114006 117.79835938074945 l 5.314700482214957 8.487226542374088 a31.013943059416462,31.013943059416462 0 0,0 -0.45490188354358474,0.2794378912366462 l -5.167819398739064 -8.577452900439113" fill="#ff720a" stroke="none" /><line stroke="#e1ed5e" stroke-width="0.3" x1="143.8653032363475" x2="146.44561519142675" y1="172.8068346515853" y2="177.08958963109032" /><path d="M 144.38136562736335 173.6633856474863 a86.0,86.0 0 0,1 -40.68145358897372,12.25698825130547" fill="none" id="id126" stroke="none" /><text fill="#e1ed5e" style="font-size:6.75px; font-family:Arial;" text-anchor="middle"><textPath startOffset="21.466115282336833" xlink:href="#id126">June</textPath></text><path d="M 110.8373102113329 117.98757091392108 l 5.185070540589424 8.606086032768847 a31.047371462940312,31.047371462940312 0 0,0 -0.46013997711350324,0.27185880910151256 l -5.036162692447539 -8.694063414164109" fill="#ff720a" stroke="none" /><path d="M 109.89434966115114 118.52300852407294 l 6.057596521894572 11.340301874614912 a33.856785065850005,33.856785065850005 0 0,0 -0.5164112508474684,0.2701619593403962 l -5.861494368520608 -11.442893252900024" fill="#ff990e" stroke="none" /><path d="M 107.2578585660854 119.70592522655815 l 2.8153380915011095 7.643968453428382 a29.14594268863128,29.14594268863128 0 0,0 -0.4722759135213343,0.16934133981658564 l -2.68334261735004 -7.691297334284928" fill="#ff5808" stroke="none" /><path d="M 106.91757812671514 119.82793768551818 l 3.304977092983876 9.473095735438719 a31.03306615137842,31.03306615137842 0 0,0 -0.5058837058751465,0.1716232195340024 l -3.141423654171503 -9.528581941870844" fill="#ff720a" stroke="none" /><path d="M 106.57524785965236 119.94407469862006 l 6.25271367059936 18.9657623830031 a40.969891612500945,40.969891612500945 0 0,0 -0.6716694845772281,0.2150473583383973 l -5.925322840931192 -19.070582588001205" fill="#fff517" stroke="none" /><path d="M 103.06178313531738 120.77559828337769 l 2.9205733742180895 19.81742549953471 a41.03147778532079,41.03147778532079 0 0,0 -0.6996285264893374,0.09696213874176995 l -2.5790162565419217 -19.864762203769086" fill="#fff517" stroke="none" /><path d="M 102.34483914955558 120.86867818915974 l 2.235474831135383 19.895353956271265 a41.02055086070207,41.02055086070207 0 0,0 -0.7023644266090693,0.07280294461290711 l -1.8926778079207112 -19.930886269339933" fill="#fff517" stroke="none" /><path d="M 101.62511606390274 120.93702456842531 l 1.546422457464336 19.92318315243319 a40.98310910099696,40.98310910099696 0 0,0 -0.7038112057561637,0.048538941438642604 l -1.2032484909292418 -19.946850438388115" fill="#fff517" stroke="none" /><path d="M 100.90346689309514 120.98055641714683 l 0.43206251164376686 10.033474353687911 a31.04277280536013,31.04277280536013 0 0,0 -0.5340534305792465,0.01839387997286049 l -0.25928872938986813 -10.039425032086866" fill="#ff720a" stroke="none" /><line stroke="#e1ed5e" stroke-width="0.3" x1="102.19456741930631" x2="102.32365962044197" y1="184.97166512339345" y2="189.96999836594603" /><path d="M 102.22038585953345 185.97133177190398 a86.0,86.0 0 0,1 -42.740103519485714,-10.115201625700543" fill="none" id="id127" stroke="none" /><text fill="#e1ed5e" style="font-size:6.75px; font-family:Arial;" text-anchor="middle"><textPath startOffset="22.20632615414155" xlink:href="#id127">July</textPath></text><path d="M 99.09653310690486 120.98055641714683 l -0.1780623495961703 4.135012804590704 a25.138844898576508,25.138844898576508 0 0,0 -0.43216299784232454,-0.022337890646784417 l 0.24921341585198373 -4.131335107181718" fill="#ff1f03" stroke="none" /><path d="M 97.2962882734958 120.8252237178851 l -1.2867196874308822 9.91090325580009 a30.99408079314206,30.99408079314206 0 0,0 -0.5284806749747409,-0.07324260602461827 l 1.457128953592454 -9.887286084282866" fill="#ff720a" stroke="none" /><path d="M 96.93821686468263 120.77559828337769 l -0.8755838863503327 5.941236946661676 a27.005409527951787,27.005409527951787 0 0,0 -0.4593030367594868,-0.07173368829779753 l 0.9777227867183367 -5.925284951016773" fill="#ff3a05" stroke="none" /><path d="M 96.58105272829116 120.7198165907248 l -1.3034709030272238 7.899413443884915 a29.00623314377419,29.00623314377419 0 0,0 -0.49193332227984243,-0.0855289137149334 l 1.439253196779116 -7.875805951648975" fill="#ff5608" stroke="none" /><path d="M 95.86986931433489 120.58985236759428 l -1.970313684988643 9.82256276600938 a31.018227154015193,31.018227154015193 0 0,0 -0.5225958865911156,-0.10951504913980124 l 2.1391010330091453 -9.787191736143038" fill="#ff720a" stroke="none" /><path d="M 95.16358092515715 120.4354850818985 l -4.608871287485048 19.474019720437763 a41.011974880471016,41.011974880471016 0 0,0 -0.6855770984753957,-0.16849817079731672 l 4.943401670703654 -19.391800291326415" fill="#fff517" stroke="none" /><path d="M 94.46302465271185 120.25689768951611 l -2.644422223408221 9.674558232176164 a31.029458902823364,31.029458902823364 0 0,0 -0.5140086487081453,-0.14526397841853933 l 2.8105620402209803 -9.627605460419103" fill="#ff720a" stroke="none" /><path d="M 94.11515582081647 120.15858648285463 l -2.878731070805117 9.86111908569802 a31.272719318677822,31.272719318677822 0 0,0 -0.51544146540478,-0.1552982852956458 l 3.048047510650143 -9.810105431296648" fill="#ff760a" stroke="none" /><path d="M 93.76903079525671 120.05430185196036 l -2.9706596119232875 9.56103338010181 a31.011901808614247,31.011901808614247 0 0,0 -0.508415992421026,-0.16277874552534505 l 3.134796949435254 -9.508481787916757" fill="#ff720a" stroke="none" /><path d="M 93.08242187328487 119.8279376855182 l -3.299356605695218 9.456985664879307 a31.016003787802667,31.016003787802667 0 0,0 -0.5025780664963597,-0.180206613774466 l 3.4616542328213042 -9.398791510064884" fill="#ff720a" stroke="none" /><path d="M 91.07499286063937 119.00905698771935 l -4.273834888932613 9.102689744811027 a31.056074047467305,31.056074047467305 0 0,0 -0.48194195779600213,-0.23136142730662793 l 4.429889514728857 -9.027774041004836" fill="#ff730a" stroke="none" /><line stroke="#e1ed5e" stroke-width="0.3" x1="58.666819895761336" x2="56.23545636021788" y1="174.27360380694188" y2="178.64263932499728" /><path d="M 58.180547188652646 175.14741091055294 a86.0,86.0 0 0,1 -31.652253787137756,-30.449443065178592" fill="none" id="id128" stroke="none" /><text fill="#e1ed5e" style="font-size:6.75px; font-family:Arial;" text-anchor="middle"><textPath startOffset="22.20632615414155" xlink:href="#id128">August</textPath></text><path d="M 89.7882731507175 118.34994917583269 l -1.979653647028735 3.5573360260102858 a25.071077027537655,25.071077027537655 0 0,0 -0.37529161801046934,-0.21310037521592243 l 2.0405940319604117 -3.5227324849997306" fill="#ff1e03" stroke="none" /><path d="M 89.4739219176387 118.17145234162733 l -3.0449839813325896 5.256637929612561 a27.07488022677102,27.07488022677102 0 0,0 -0.401265362601405,-0.2370746490987803 l 3.1350172149623767 -5.203444708220031" fill="#ff3b05" stroke="none" /><path d="M 89.1626897886671 117.98757091392108 l -5.208258688664931 8.644573300341438 a31.0923043014482,31.0923043014482 0 0,0 -0.45605125937524726,-0.2801439317483632 l 5.356289147972487 -8.553640901764696" fill="#ff730a" stroke="none" /><path d="M 88.8546689885994 117.79835938074946 l -10.658185285124354 17.020419748611854 a41.08212145145472,41.08212145145472 0 0,0 -0.59611761984651,-0.3804704693150484 l 10.949584707017786 -16.834434850473002" fill="#fff617" stroke="none" /><path d="M 87.65650970185807 116.9893568818739 l -5.8970742295502445 8.116626353229433 a31.0327019205578,31.0327019205578 0 0,0 -0.4294556946016562,-0.31770105603067567 l 6.035914894570465 -8.013915348458989" fill="#ff720a" stroke="none" /><path d="M 87.36589467227662 116.77436683061367 l -6.0386464030795635 8.017541986400024 a31.037242145386003,31.037242145386003 0 0,0 -0.42398538658582974,-0.32509391476964267 l 6.175760518158881 -7.912408729803015" fill="#ff720a" stroke="none" /><path d="M 87.07902340077011 116.55440617244103 l -12.309504229614268 15.770985361165419 a41.00619588130101,41.00619588130101 0 0,0 -0.5526903093507897,-0.43909060806509953 l 12.579152031682415 -15.556760839095189" fill="#fff517" stroke="none" /><path d="M 84.67929136418377 114.36230785411682 l -7.314662460317594 6.857087136194068 a31.026162321732958,31.026162321732958 0 0,0 -0.3619033288960029,-0.39277458674107596 l 7.431612197209326 -6.730161294651651" fill="#ff720a" stroke="none" /><path d="M 84.19399662182784 113.82643327865904 l -7.5370469385794925 6.593094669225723 a31.013789186502937,31.013789186502937 0 0,0 -0.34803008230439053,-0.40483761227604514 l 7.6494195304546615 -6.462379957788147" fill="#ff720a" stroke="none" /><path d="M 83.28015986056508 112.70617746262583 l -7.999081304065368 6.0788707152592485 a31.046789083178993,31.046789083178993 0 0,0 -0.3196913497395946,-0.428278806189907 l 8.102533920500047 -5.940279029560036" fill="#ff720a" stroke="none" /><path d="M 82.64656182679789 111.8261652097733 l -16.558859531308443 11.284669155942149 a41.038452708147815,41.038452708147815 0 0,0 -0.39279055014696274,-0.587168577948023 l 16.75065318686614 -10.997963663788303" fill="#fff617" stroke="none" /><path d="M 82.44556493220864 111.52570212397912 l -8.391960903327437 5.5099034081305875 a31.039125627757894,31.039125627757894 0 0,0 -0.2893957068068524,-0.4491485636000115 l 8.485561473511336 -5.364633244609128" fill="#ff720a" stroke="none" /><path d="M 82.05923443525364 110.91462005526583 l -17.082171925985104 10.392277610339075 a40.99500016602322,40.99500016602322 0 0,0 -0.3615741919762695,-0.606019143460894 l 17.258526993659604 -10.09669637299207" fill="#fff517" stroke="none" /><line stroke="#e1ed5e" stroke-width="0.3" x1="26.63291911575756" x2="22.317208475507996" y1="142.92168965132927" y2="145.44649492493687" /><path d="M 25.769776987707644 143.4266507060508 a86.0,86.0 0 0,1 -11.730757126820373,-40.83630448921669" fill="none" id="id129" stroke="none" /><text fill="#e1ed5e" style="font-size:6.75px; font-family:Arial;" text-anchor="middle"><textPath startOffset="21.46611528233685" xlink:href="#id129">September</textPath></text><path d="M 81.51974371655577 109.97397251340807 l -17.578182581384535 9.487114638094294 a40.97493046347931,40.97493046347931 0 0,0 -0.3296481774983112,-0.6235701206675269 l 17.738883267107735 -9.183129502340641" fill="#fff517" stroke="none" /><path d="M 81.02952815118164 109.00673069616217 l -9.041914885960038 4.292887019599068 a31.009250909433128,31.009250909433128 0 0,0 -0.22478071910468622,-0.48415767151994776 l 9.11447022190455 -4.136609280800293" fill="#ff720a" stroke="none" /><path d="M 80.32549172779595 107.34259656027581 l -9.38503065402844 3.5025268659806006 a31.017309759809237,31.017309759809237 0 0,0 -0.1823754878201135,-0.5018190153256596 l 9.443930402853775 -3.340460053648824" fill="#ff720a" stroke="none" /><path d="M 80.20201598880116 107.00284435728193 l -9.429460587883254 3.335341862722924 a31.00196142362465,31.00196142362465 0 0,0 -0.17362452010298007,-0.5046341272555956 l 9.485475938929463 -3.1725350323780313" fill="#ff720a" stroke="none" /><path d="M 79.86692584326677 105.97154293290107 l -9.595942609931742 2.8461914375703103 a31.009141834962783,31.009141834962783 0 0,0 -0.14737812757011579,-0.5130425962655006 l 9.643513374387961 -2.6805913658002134" fill="#ff720a" stroke="none" /><path d="M 79.35854240842038 103.8639653848113 l -9.884446325797908 1.850313054756784 a31.056139297373676,31.056139297373676 0 0,0 -0.09383916788705181,-0.5262998881215561 l 9.914831936024148 -1.6798944159020144" fill="#ff730a" stroke="none" /><path d="M 79.23777060512086 103.15116336523772 l -9.90196589456384 1.5028594269591722 a31.015363949168574,31.015363949168574 0 0,0 -0.07556812045356064,-0.5285232584469437 l 9.926368066034 -1.3321906965318278" fill="#ff720a" stroke="none" /><path d="M 79.10278846688536 102.07522291339032 l -19.88524179018966 1.974728031819738 a40.98305261600339,40.98305261600339 0 0,0 -0.06367088749499877,-0.7026029378978378 l 19.916287273961736 -1.632143705373334" fill="#fff517" stroke="none" /><path d="M 79.0095281055655 100.63252640178507 l -31.98400041949763 0.9638051398644942 a52.99851876543747,52.99851876543747 0 0,0 -0.019629483654525177,-0.9121049728508128 l 31.99585196583716 -0.41311035122355255" fill="#7dff26" stroke="none" /><line stroke="#e1ed5e" stroke-width="0.3" x1="15.007084014347285" x2="10.007500721073583" y1="101.09737516637583" y2="101.16192664675087" /><path d="M 14.007167355692545 101.11028546245083 a86.0,86.0 0 0,1 10.666146001902534,-42.60595125391555" fill="none" id="id130" stroke="none" /><text fill="#e1ed5e" style="font-size:6.75px; font-family:Arial;" text-anchor="middle"><textPath startOffset="22.20632615414155" xlink:href="#id130">October</textPath></text><path d="M 79.00019446554 99.90962569577889 l -10.050585684765158 -0.04325348093271092 a31.050678756701913,31.050678756701913 0 0,0 0.0069006331784585125,-0.5344616444361755 l 10.048352044468984 0.21625138342935837" fill="#ff720a" stroke="none" /><path d="M 79.00486145842228 99.54816195383935 l -19.962147088213417 -0.42960695494567713 a40.96676935578726,40.96676935578726 0 0,0 0.021240890567187063,-0.7048817491333745 l 19.951794503190584 0.7731588515040461" fill="#fff517" stroke="none" /><path d="M 79.03285615573316 98.82574320788736 l -19.948812146837614 -1.1172255187445819 a40.98007254565283,40.98007254565283 0 0,0 0.045506241540995106,-0.7039614150999173 l 19.926625314292206 1.4604459980975109" fill="#fff517" stroke="none" /><path d="M 79.05617556472873 98.46500227214037 l -9.977304831059712 -0.7312485020666778 a31.004065976574836,31.004065976574836 0 0,0 0.043591002459654304,-0.5319206419681782 l 9.96323934478056 0.9028830612426344" fill="#ff720a" stroke="none" /><path d="M 79.08570108090925 98.10471618934814 l -39.801583461953186 -3.6068766667999776 a60.96467947285867,60.96467947285867 0 0,0 0.10370636107772113,-1.0443089032927904 l 39.733599975193236 4.291461100797198" fill="#30ff35" stroke="none" /><path d="M 79.16333360222342 97.38593545837743 l -2.053134861818362 -0.2575760891397301 a23.069228890797348,23.069228890797348 0 0,0 0.05282194398667362,-0.39358483687070156 l 2.048396918773854 0.292879268075091" fill="#ff0000" stroke="none" /><path d="M 79.26566170972629 96.67025291283419 l -19.72529228974586 -3.1677034311765566 a40.97802545157542,40.97802545157542 0 0,0 0.11783746074274104,-0.6954833636998662 l 19.667842967482898 3.5067725831922507" fill="#fff517" stroke="none" /><path d="M 79.3925641242962 95.95851677861259 l -9.844141338878464 -1.930610498560377 a31.031668634727097,31.031668634727097 0 0,0 0.10731150596126005,-0.5232890139727361 l 9.80945053700221 2.0997751686965156" fill="#ff720a" stroke="none" /><path d="M 79.62865764111835 94.90015583598534 l -38.73140785912387 -9.696177151934519 a60.92665533339224,60.92665533339224 0 0,0 0.2634458948164532,-1.0151644990717297 l 38.55876563243711 10.361438076555112" fill="#30ff34" stroke="none" /><path d="M 80.02781315780177 93.51064311812611 l -7.530639790946621 -2.4468531933138116 a28.918183264525933,28.918183264525933 0 0,0 0.15789700725306596,-0.47209195417624084 l 7.487405489921782 2.5761182504123745" fill="#ff5507" stroke="none" /><path d="M 80.2630227832202 92.82701384747504 l -9.560190880654927 -3.474448799795573 a31.171973463244903,31.171973463244903 0 0,0 0.18761878157634213,-0.5027250564350666 l 9.498967510576957 3.6384969932599813" fill="#ff740a" stroke="none" /><path d="M 80.38941819471856 92.48833698450439 l -12.665290014102608 -4.851329324346641 a34.562631284326535,34.562631284326535 0 0,0 0.2175906089928009,-0.5537443661444039 l 12.579905855228114 5.068622695386808" fill="#ffa20f" stroke="none" /><path d="M 80.803312248108 91.48605970444005 l -12.76262734604209 -5.660364363012236 a34.96153220445379,34.96153220445379 0 0,0 0.24872247175031242,-0.5480269970888257 l 12.663302557328425 5.879213368943133" fill="#ffa70f" stroke="none" /><path d="M 81.10775173730289 90.83032412892265 l -9.34839630274209 -4.53740406216136 a31.39136896931489,31.39136896931489 0 0,0 0.24012900498120876,-0.4840854211716126 l 9.268907284807469 4.6976490718319335" fill="#ff770b" stroke="none" /><path d="M 81.26839172434947 90.50648371742162 l -17.808399600944867 -9.02561750653314 a40.964991052368916,40.964991052368916 0 0,0 0.32419024207543085,-0.6262323600081765 l 17.650399925709323 9.330822588801652" fill="#fff517" stroke="none" /><line stroke="#e1ed5e" stroke-width="0.3" x1="26.266209847984257" x2="21.92892807433627" y1="57.711370442889674" y2="55.22380399835377" /><path d="M 25.39875349325466 57.213857153982495 a86.0,86.0 0 0,1 29.58750427330802,-30.492523968695096" fill="none" id="id131" stroke="none" /><text fill="#e1ed5e" style="font-size:6.75px; font-family:Arial;" text-anchor="middle"><textPath startOffset="21.46611528233685" xlink:href="#id131">November</textPath></text><path d="M 81.78341655067847 89.55222093294921 l -17.31875836049696 -9.932848361466485 a40.964991052368916,40.964991052368916 0 0,0 0.3560839429533165,-0.6086628848132244 l 17.14521474307332 10.229490658633601" fill="#fff517" stroke="none" /><path d="M 82.15384107792192 88.93136811851018 l -25.44141112225215 -15.779396310848213 a50.937514055550196,50.937514055550196 0 0,0 0.4685581919697949,-0.7411465352030272 l 25.16602533403639 16.214990493765455" fill="#94ff23" stroke="none" /><path d="M 82.54541684631803 88.32363383020206 l -16.577736382003216 -11.08979335446453 a40.94504600636255,40.94504600636255 0 0,0 0.3969242675696793,-0.5824373847763995 l 16.384387648764797 11.373508762511348" fill="#fff417" stroke="none" /><path d="M 82.95767976084542 87.72973835380427 l -34.16903414505667 -24.601285697846954 a63.103992119431354,63.103992119431354 0 0,0 0.6422705912175082,-0.8760563646224712 l 33.74050094132553 25.185804506140926" fill="#33ff4f" stroke="none" /><path d="M 83.17141714833178 87.43820079747576 l -15.983183771352689 -11.930745857954014 a40.94504600636255,40.94504600636255 0 0,0 0.42646031858200767,-0.5611717901372817 l 15.77544751254657 12.204102423972321" fill="#fff417" stroke="none" /><path d="M 84.07557802195018 86.31012108654704 l -8.53018654966624 -7.333215681866594 a32.24900594758848,32.24900594758848 0 0,0 0.36550122890726544,-0.4178310879170317 l 8.402693457181131 7.478962325986567" fill="#ff830c" stroke="none" /><path d="M 84.5562425177563 85.77008943001954 l -46.331272446731106 -42.68973170994139 a84.0,84.0 0 0,0 0.9889307121181763,-1.0549223324877994 l 45.58957441264248 43.480923459307235" fill="#4dd2ff" stroke="none" /><path d="M 84.80347519578584 85.50635884689758 l -21.90850946004305 -20.895176917367177 a51.275257309705395,51.275257309705395 0 0,0 0.614657840603369,-0.6334589346913249 l 21.54558735573656 21.269200047608628" fill="#90ff24" stroke="none" /><path d="M 85.31137513191541 84.99185889309783 l -8.454141478622562 -8.638041299874752 a33.086697879855706,33.086697879855706 0 0,0 0.41045901005883706,-0.39486124247035326 l 8.304199224951297 8.782285629107417" fill="#ff8e0d" stroke="none" /><path d="M 85.83668400450813 84.49514656593479 l -15.213995986148785 -16.65505295417941 a43.55784703319605,43.55784703319605 0 0,0 0.5579324883764358,-0.500917296875856 l 14.925052510176377 16.914469259824546" fill="#eaff1a" stroke="none" /><path d="M 86.37877921826538 84.01681056812374 l -20.712051243923067 -24.303595386858802 a52.93201865618645,52.93201865618645 0 0,0 0.6985576201953254,-0.585021917471905 l 20.290636086768632 24.65651846172452" fill="#7eff26" stroke="none" /><path d="M 87.22198572758235 83.33499621200491 l -12.148235267421942 -15.843650072143623 a40.964991052368916,40.964991052368916 0 0,0 0.5632761298868888,-0.4242479030919692 l 11.873712983776663 16.050414564741445" fill="#fff517" stroke="none" /><path d="M 88.09926311788651 82.69761687909137 l -33.90867780333844 -49.29954676660477 a80.83513801908765,80.83513801908765 0 0,0 1.1532298989294343,-0.7786659756645088 l 33.05504321000247 49.875924654567946" fill="#49f0ff" stroke="none" /><line stroke="#e1ed5e" stroke-width="0.3" x1="56.762969772571076" x2="54.21961505331055" y1="26.818313649435495" y2="22.513508569990535" /><path d="M 56.25429882871897 25.957352633546506 a86.0,86.0 0 0,1 42.265352541879196,-11.944610805530505" fill="none" id="id132" stroke="none" /><text fill="#e1ed5e" style="font-size:6.75px; font-family:Arial;" text-anchor="middle"><textPath startOffset="22.20632615414155" xlink:href="#id132">December</textPath></text><path d="M 89.3179101791058 81.91981866633112 l -5.093023619369509 -8.620297349938497 a31.012413095194002,31.012413095194002 0 0,0 0.4619421023958068,-0.26758668200721963 l 4.943884784508381 8.706688189335763" fill="#ff720a" stroke="none" /><path d="M 89.94658935756843 81.56283822128135 l -9.624755413639322 -17.651041915358043 a41.10460637441345,41.10460637441345 0 0,0 0.6241146358564726,-0.33338042401591955 l 9.319495731254545 17.814101065875715" fill="#fff617" stroke="none" /><path d="M 90.91171255644093 81.06846463323043 l -2.3219351289354284 -4.836752499937588 a26.365217375711527,26.365217375711527 0 0,0 0.4108225518645223,-0.19288669662940067 l 2.2383343657712973 4.876004179206996" fill="#ff3004" stroke="none" /><path d="M 91.56875222667455 80.76684994638697 l -11.210774982001196 -25.573737511105747 a48.92306440890758,48.92306440890758 0 0,0 0.7741870915119466,-0.3314665094098279 l 10.76890413269894 25.762923548478362" fill="#aaff21" stroke="none" /><path d="M 92.23578459929587 80.48803036053334 l -7.381547190653477 -18.5502999650498 a40.964991052368916,40.964991052368916 0 0,0 0.6574234109659953,-0.25507006976931007 l 7.061140614687805 18.674612738709662" fill="#fff517" stroke="none" /><path d="M 93.25333710446033 80.11325718540243 l -3.8830893388390697 -11.445954867353914 a33.086697879855706,33.086697879855706 0 0,0 0.5409157970204819,-0.17833143378956412 l 3.6854907195761784 11.51110002540271" fill="#ff8e0d" stroke="none" /><path d="M 93.94186890950719 79.89281104454417 l -6.0357313702268875 -20.032843352627413 a41.92235326067432,41.92235326067432 0 0,0 0.6927365084527817,-0.2022287829031878 l 5.690004644050685 20.133770464449302" fill="#feff18" stroke="none" /><path d="M 94.98787191387505 79.60689891045804 l -14.285778234661883 -58.125274269971115 a80.85508306509402,80.85508306509402 0 0,0 1.3544239529036586,-0.320548389969453 l 13.283130594795692 58.362568572081436" fill="#49f0ff" stroke="none" /></svg>