<?xml version="1.0" encoding="utf-8" ?>
<svg baseProfile="full" height="200mm" version="1.1" viewBox="0,0,200,200" width="200mm" xmlns="http://www.w3.org/2000/svg" xmlns:ev="http://www.w3.org/2001/xml-events" xmlns:xlink="http://www.w3.org/1999/xlink"><defs /><rect fill="#1a1a1a" height="200" width="200" x="0" y="0" /><rect fill="#1a1a1a" height="200" width="180" x="10" y="0" /><text alignment-baseline="middle" fill="#e1ed5e" style="dominant-baseline: central; font-size:9.0px; font-family:Arial;" text-anchor="middle" x="100.0" y="100.0">2026</text><line stroke="#e1ed5e" stroke-width="0.3" x1="100.0" x2="100.0" y1="15.0" y2="10.0" /><path d="M 100.0 14.0 a86.0,86.0 0 0,1 42.46469731375804,11.215312516191453" fill="none" id="id169" stroke="none" /><text fill="#e1ed5e" style="font-size:6.75px; font-family:Arial;" text-anchor="middle"><textPath startOffset="22.20632615414155" xlink:href="#id169">January</textPath></text><path d="M 100.0 79.0 l 0.0 -36.46052038467537 a57.46052038467537,57.46052038467537 0 0,0 0.9890884022810161,0.008513396144785667 l -0.6276079230084878 36.45511836513914" fill="#67ff29" stroke="none" /><path d="M 100.72285384407766 79.0124445844662 l 0.6430851117584124 -18.671526105192005 a39.6825973985908,39.6825973985908 0 0,0 0.6824635164335396,0.029388314617769595 l -0.9643894605812836 18.657690064050037" fill="#ffb210" stroke="none" /><path d="M 101.08401301168833 79.027996857942 l 0.929568195003658 -17.984015778566125 a39.008023782549756,39.008023782549756 0 0,0 0.670265494310045,0.04043224503245011 l -1.2389957381533148 17.96535026415337" fill="#ffa80f" stroke="none" /><path d="M 101.80526077348638 79.07773832637324 l 1.5480422166849384 -17.941199861532322 a39.00786181577608,39.00786181577608 0 0,0 0.6684737768301777,0.06347963986577711 l -1.8566411206053601 17.911894677151366" fill="#ffa80f" stroke="none" /><path d="M 102.88285421437855 79.19881850522331 l 1.2362165739816862 -8.919897924074268 a30.00515465684468,30.00515465684468 0 0,0 0.5109892405868205,0.07530653114375731 l -1.3895747949971624 8.897296908769542" fill="#ff2003" stroke="none" /><path d="M 103.59715602781102 79.31037775812273 l 6.165772400791859 -35.46343300526908 a56.99544179222662,56.99544179222662 0 0,0 0.9651360560100671,0.17637244524142132 l -6.775303577904827 35.352045078676916" fill="#6cff28" stroke="none" /><path d="M 104.307194497241 79.44645832069477 l 5.172571087548328 -24.683040318981213 a46.219198461572745,46.219198461572745 0 0,0 0.7772688676426897,0.16988086905054867 l -5.596682679344546 24.590345951834795" fill="#f2ff19" stroke="none" /><path d="M 104.66035177308747 79.52364482259891 l 3.14440931930523 -13.815704303061276 a35.16901532771277,35.16901532771277 0 0,0 0.5891250735781569,0.13942687104821602 l -3.3817580798459104 13.759531519872192" fill="#ff700a" stroke="none" /><path d="M 105.01212808612495 79.60689891045804 l 5.013231959888677 -20.39759247700591 a42.00462505120378,42.00462505120378 0 0,0 0.7006593709311909,0.17861367448202922 l -5.363600219504893 20.308275806355017" fill="#ffd313" stroke="none" /><path d="M 106.0581310904928 79.89281104454417 l 15.576014036016222 -51.697438156547776 a74.99293773448761,74.99293773448761 0 0,0 1.2327932880637835,0.38303487553165116 l -16.463592696790723 51.421663146133604" fill="#41ffcc" stroke="none" /><path d="M 106.74666289553966 80.11325718540242 l 2.891325363067761 -8.522590320418297 a29.999683779156165,29.999683779156165 0 0,0 0.48759199743986187,0.17011127378692775 l -3.0375993645708963 8.471558193459163" fill="#ff2003" stroke="none" /><path d="M 107.08798089147638 80.2323363322302 l 6.073364330973278 -16.938000435481214 a38.993932673240174,38.993932673240174 0 0,0 0.6298776738284415,0.23198926302737202 l -6.364024330574296 16.830947904647516" fill="#ffa80f" stroke="none" /><path d="M 107.4271985657038 80.35727306442388 l 3.18189759772628 -8.415170955265864 a29.99664240307274,29.99664240307274 0 0,0 0.4813987373009694,0.18677523109466485 l -3.3262795000269163 8.359153020280653" fill="#ff2003" stroke="none" /><path d="M 108.09893153111575 80.62456947434976 l 3.4729516781916847 -8.308495225724325 a30.005136660536493,30.005136660536493 0 0,0 0.4748187743817875,0.20329261940962393 l -3.6154542103637874 8.24748307835191" fill="#ff2003" stroke="none" /><path d="M 108.43124777332544 80.76684994638697 l 14.453197056662223 -32.9702690774538 a56.999077046480174,56.999077046480174 0 0,0 0.8952054686104222,0.4016525991524241 l -15.018584643739425 32.71659614778484" fill="#6cff28" stroke="none" /><path d="M 109.08828744355905 81.06846463323043 l 9.105048000603528 -18.96644877377003 a42.0387280552161,42.0387280552161 0 0,0 0.6496559596310616,0.31878335796610635 l -9.430175227245021 18.80691025566909" fill="#ffd313" stroke="none" /><path d="M 109.73455568895987 81.39251694778311 l 4.467394797387631 -8.539370017085428 a30.63734696710789,30.63734696710789 0 0,0 0.46518427817586544,0.24848533104978274 l -4.613724122091807 8.461205959533892" fill="#ff2a04" stroke="none" /><line stroke="#e1ed5e" stroke-width="0.3" x1="143.23703022742887" x2="145.7803849466894" y1="26.81831364943548" y2="22.513508569990506" /><path d="M 143.74570117128098 25.957352633546492 a86.0,86.0 0 0,1 28.547481713284135,27.462654790039103" fill="none" id="id170" stroke="none" /><text fill="#e1ed5e" style="font-size:6.75px; font-family:Arial;" text-anchor="middle"><textPath startOffset="19.985693538727396" xlink:href="#id170">February</textPath></text><path d="M 111.2981086023043 82.29822771554956 l 3.7719067849018644 -5.909788738522881 a28.010911761530064,28.010911761530064 0 0,0 0.404201423885264,0.26290384968905267 l -3.8730752345714086 5.8439859646743" fill="#ff0000" stroke="none" /><path d="M 111.60114157652 82.49532879139004 l 10.63124976965591 -16.041225816180447 a40.24433416230613,40.24433416230613 0 0,0 0.5741435043695883,0.38766425707172425 l -10.905797968432038 15.855849646810052" fill="#ffba11" stroke="none" /><path d="M 111.90073688211348 82.69761687909136 l 10.217814695288794 -14.855596444792603 a39.03032120839211,39.03032120839211 0 0,0 0.5502696534215576,0.38549905763870235 l -10.472015488294003 14.677512544389966" fill="#ffa90f" stroke="none" /><path d="M 112.77801427241765 83.33499621200491 l 27.380551841520447 -35.7095390902237 a65.99850887732174,65.99850887732174 0 0,0 0.8955917351456205,0.6990235549218689 l -27.991176131825497 35.232937146078605" fill="#34ff5e" stroke="none" /><path d="M 113.34407831869373 83.78471172551755 l 13.0201009950302 -15.821601608971807 a41.49014659278468,41.49014659278468 0 0,0 0.54755625803103,0.45856261922600444 l -13.290514790020348 15.595137832351984" fill="#ffcc13" stroke="none" /><path d="M 114.16331599549186 84.49514656593476 l 16.810467290170937 -18.402740684117365 a45.92494082642475,45.92494082642475 0 0,0 0.5790743937154975,0.5381865391512686 l -17.12474956768128 18.110649558891456" fill="#f6ff19" stroke="none" /><path d="M 114.68862486808459 84.99185889309783 l 25.191195694857136 -25.73917048296868 a57.01529172015569,57.01529172015569 0 0,0 0.6954893610343029,0.6925027086922305 l -25.630520856058762 25.30173192362633" fill="#6cff28" stroke="none" /><path d="M 115.19652480421416 85.50635884689758 l 6.5187403779504365 -6.217229598575882 a30.008214029236285,30.008214029236285 0 0,0 0.3532862436824577,0.3768611325894582 l -6.624793943603358 6.104099049108369" fill="#ff2003" stroke="none" /><path d="M 115.68641384162765 86.03803664274999 l 13.449044541479248 -11.970554198936819 a39.004748454459914,39.004748454459914 0 0,0 0.44206892815527665,0.5053612042226504 l -13.653105333212373 11.73727743851122" fill="#ffa80f" stroke="none" /><path d="M 115.9244219780498 86.31012108654704 l 23.20443418269731 -19.94834692613553 a51.60036455378583,51.60036455378583 0 0,0 0.5732293995520856,0.6785228032096875 l -23.544374195736513 19.54596517329674" fill="#adff20" stroke="none" /><path d="M 116.38621287248628 86.86637796730983 l 39.32450401896057 -31.518763757502015 a71.39691543277692,71.39691543277692 0 0,0 0.760363275938971,0.9655841443428734 l -39.8612213754935 30.837187219206104" fill="#3cffa1" stroke="none" /><path d="M 116.82858285166822 87.43820079747576 l 14.427727952132884 -10.769666292213879 a39.00402860213248,39.00402860213248 0 0,0 0.3969818654696947,0.5414828183634699 l -14.610972430116204 10.519721030178914" fill="#ffa80f" stroke="none" /><path d="M 117.04232023915458 87.72973835380427 l 11.687986368972977 -8.415206899760856 a35.402247481802306,35.402247481802306 0 0,0 0.35180963238247176,0.4976097754915976 l -11.831108621159332 8.212770623937464" fill="#ff730a" stroke="none" /><path d="M 117.45458315368197 88.32363383020206 l 7.0953585191226605 -4.746489987519124 a29.536584780607864,29.536584780607864 0 0,0 0.27905513335754795,0.42502011297579306 l -7.1760102878381336 4.623651810565657" fill="#ff1902" stroke="none" /><line stroke="#e1ed5e" stroke-width="0.3" x1="172.23445277983987" x2="176.4835382374775" y1="55.19839476539836" y2="52.563006222186495" /><path d="M 173.08426987136738 54.67131705675599 a86.0,86.0 0 0,1 12.851231095245387,41.99856678651699" fill="none" id="id171" stroke="none" /><text fill="#e1ed5e" style="font-size:6.75px; font-family:Arial;" text-anchor="middle"><textPath startOffset="22.20632615414155" xlink:href="#id171">March</textPath></text><path d="M 117.84615892207809 88.93136811851018 l 53.538476766234254 -33.20589564446945 a84.0,84.0 0 0,0 0.7515368068551043,1.2353289071716742 l -54.10212937137558 32.279398964090696" fill="#4dd2ff" stroke="none" /><path d="M 118.21658344932153 89.55222093294921 l 15.618052463914982 -8.9574404582803 a39.004424520912565,39.004424520912565 0 0,0 0.3290159885555103,0.5852827310496774 l -15.769926093762924 8.68727421729583" fill="#ffa80f" stroke="none" /><line stroke="#e1ed5e" stroke-width="0.3" x1="184.98032266829074" x2="189.97916517819016" y1="98.17113171792111" y2="98.06355123074" /><path d="M 185.9800911702706 98.14961562048488 a86.0,86.0 0 0,1 -9.607161424134198,41.387399972396054" fill="none" id="id172" stroke="none" /><text fill="#e1ed5e" style="font-size:6.75px; font-family:Arial;" text-anchor="middle"><textPath startOffset="21.466115282336823" xlink:href="#id172">April</textPath></text><line stroke="#e1ed5e" stroke-width="0.3" x1="174.80103733775053" x2="179.2010983576182" y1="140.37084112569926" y2="142.7455964860345" /><path d="M 175.68104954172406 140.8457921977663 a86.0,86.0 0 0,1 -30.038265399797805,32.042727171017184" fill="none" id="id173" stroke="none" /><text fill="#e1ed5e" style="font-size:6.75px; font-family:Arial;" text-anchor="middle"><textPath startOffset="22.206326154141568" xlink:href="#id173">May</textPath></text><line stroke="#e1ed5e" stroke-width="0.3" x1="143.8653032363475" x2="146.44561519142675" y1="172.8068346515853" y2="177.08958963109032" /><path d="M 144.38136562736335 173.6633856474863 a86.0,86.0 0 0,1 -40.68145358897372,12.25698825130547" fill="none" id="id174" stroke="none" /><text fill="#e1ed5e" style="font-size:6.75px; font-family:Arial;" text-anchor="middle"><textPath startOffset="21.466115282336833" xlink:href="#id174">June</textPath></text><line stroke="#e1ed5e" stroke-width="0.3" x1="102.19456741930631" x2="102.32365962044197" y1="184.97166512339345" y2="189.96999836594603" /><path d="M 102.22038585953345 185.97133177190398 a86.0,86.0 0 0,1 -42.740103519485714,-10.115201625700543" fill="none" id="id175" stroke="none" /><text fill="#e1ed5e" style="font-size:6.75px; font-family:Arial;" text-anchor="middle"><textPath startOffset="22.20632615414155" xlink:href="#id175">July</textPath></text><line stroke="#e1ed5e" stroke-width="0.3" x1="58.666819895761336" x2="56.23545636021788" y1="174.27360380694188" y2="178.64263932499728" /><path d="M 58.180547188652646 175.14741091055294 a86.0,86.0 0 0,1 -31.652253787137756,-30.449443065178592" fill="none" id="id176" stroke="none" /><text fill="#e1ed5e" style="font-size:6.75px; font-family:Arial;" text-anchor="middle"><textPath startOffset="22.20632615414155" xlink:href="#id176">August</textPath></text><line stroke="#e1ed5e" stroke-width="0.3" x1="26.63291911575756" x2="22.317208475507996" y1="142.92168965132927" y2="145.44649492493687" /><path d="M 25.769776987707644 143.4266507060508 a86.0,86.0 0 0,1 -11.730757126820373,-40.83630448921669" fill="none" id="id177" stroke="none" /><text fill="#e1ed5e" style="font-size:6.75px; font-family:Arial;" text-anchor="middle"><textPath startOffset="21.46611528233685" xlink:href="#id177">September</textPath></text><line stroke="#e1ed5e" stroke-width="0.3" x1="15.007084014347285" x2="10.007500721073583" y1="101.09737516637583" y2="101.16192664675087" /><path d="M 14.007167355692545 101.11028546245083 a86.0,86.0 0 0,1 10.666146001902534,-42.60595125391555" fill="none" id="id178" stroke="none" /><text fill="#e1ed5e" style="font-size:6.75px; font-family:Arial;" text-anchor="middle"><textPath startOffset="22.20632615414155" xlink:href="#id178">October</textPath></text><line stroke="#e1ed5e" stroke-width="0.3" x1="26.266209847984243" x2="21.928928074336255" y1="57.711370442889674" y2="55.22380399835377" /><path d="M 25.398753493254645 57.213857153982495 a86.0,86.0 0 0,1 29.58750427330803,-30.492523968695096" fill="none" id="id179" stroke="none" /><text fill="#e1ed5e" style="font-size:6.75px; font-family:Arial;" text-anchor="middle"><textPath startOffset="21.46611528233685" xlink:href="#id179">November</textPath></text><line stroke="#e1ed5e" stroke-width="0.3" x1="56.762969772571076" x2="54.21961505331055" y1="26.818313649435495" y2="22.513508569990535" /><path d="M 56.25429882871897 25.957352633546506 a86.0,86.0 0 0,1 42.265352541879196,-11.944610805530505" fill="none" id="id180" stroke="none" /><text fill="#e1ed5e" style="font-size:6.75px; font-family:Arial;" text-anchor="middle"><textPath startOffset="22.20632615414155" xlink:href="#id180">December</textPath></text></svg>