<?xml version="1.0" encoding="utf-8" ?>
<svg baseProfile="full" height="200mm" version="1.1" viewBox="0,0,200,200" width="200mm" xmlns="http://www.w3.org/2000/svg" xmlns:ev="http://www.w3.org/2001/xml-events" xmlns:xlink="http://www.w3.org/1999/xlink"><defs /><rect fill="#1a1a1a" height="200" width="200" x="0" y="0" /><text alignment-baseline="middle" fill="#e1ed5e" style="dominant-baseline: central; font-size:9.0px; font-family:Arial;" text-anchor="middle" x="100.0" y="100.0">2026</text><line stroke="#e1ed5e" stroke-width="0.3" x1="100.0" x2="100.0" y1="15.0" y2="10.0" /><path d="M 100.0 14.0 a86.0,86.0 0 0,1 42.46469731375804,11.215312516191453" fill="none" id="id169" stroke="none" /><text fill="#e1ed5e" style="font-size:6.75px; font-family:Arial;" text-anchor="middle"><textPath startOffset="22.20632615414155" xlink:href="#id169">January</textPath></text><path d="M 100.0 79.0 l 0.0 -42.54283764906808 a63.54283764906808,63.54283764906808 0 0,0 1.09378549560579,0.009414557081084013 l -0.7323050163332616 42.536534468595555" fill="#30ff38" stroke="none" /><path d="M 100.72285384407766 79.0124445844662 l 0.7503640983569179 -21.78629639327329 a42.799214591715355,42.799214591715355 0 0,0 0.7360632722063949,0.03169643285143005 l -1.1252682029526442 21.77015223389766" fill="#ffd213" stroke="none" /><path d="M 101.08401301168833 79.027996857942 l 1.0846380793950363 -20.9840960982935 a42.01210909989024,42.01210909989024 0 0,0 0.721883970072909,0.043546012454408874 l -1.4456840983075572 20.962316816458788" fill="#ffc612" stroke="none" /><path d="M 101.80526077348638 79.07773832637324 l 1.8062854836820004 -20.9341376613884 a42.011920113938196,42.011920113938196 0 0,0 0.719954019604682,0.06836830922693667 l -2.1663646303769264 20.899943807646284" fill="#ffc612" stroke="none" /><path d="M 102.88285421437855 79.19881850522331 l 1.442441316007517 -10.40790875243921 a31.50738795082899,31.50738795082899 0 0,0 0.5365723465183265,0.0790768159375673 l -1.6213826429544993 10.381537452340673" fill="#ff2603" stroke="none" /><path d="M 103.59715602781102 79.31037775812273 l 7.1943420296942175 -41.37941688445811 a63.00017498699263,63.00017498699263 0 0,0 1.066817599845027,0.19495409744518852 l -7.905554750642145 41.24944730566218" fill="#30ff31" stroke="none" /><path d="M 104.307194497241 79.44645832069477 l 6.035455601953592 -28.800646998367547 a50.4262466489991,50.4262466489991 0 0,0 0.8480188522725148,0.18534407538052716 l -6.530317178379634 28.69248942489115" fill="#c4ff1e" stroke="none" /><path d="M 104.66035177308747 79.52364482259891 l 3.6689573753216242 -16.12042996017432 a37.53268007078141,37.53268007078141 0 0,0 0.6287194197006979,0.14879757353340495 l -3.9459004819848458 16.054886474500048" fill="#ff840c" stroke="none" /><path d="M 105.01212808612495 79.60689891045804 l 5.849535637903439 -23.80030389105049 a45.50860119397791,45.50860119397791 0 0,0 0.7591075469823104,0.1935134159603862 l -6.258352073570774 23.696087478921235" fill="#fff817" stroke="none" /><path d="M 106.0581310904928 79.89281104454417 l 18.174393271478365 -60.321566866367476 a84.0,84.0 0 0,0 1.380858509157127,0.4290394604699177 l -19.21003715334621 59.99978727101504" fill="#4dd2ff" stroke="none" /><path d="M 106.74666289553966 80.11325718540242 l 3.373654139158271 -9.94432258579249 a31.50100442533772,31.50100442533772 0 0,0 0.511993319069058,0.1786244157708444 l -3.5443294622906025 9.884777316849437" fill="#ff2603" stroke="none" /><path d="M 107.08798089147638 80.2323363322302 l 7.086518513455869 -19.76358524299591 a41.99566732206239,41.99566732206239 0 0,0 0.6783653617437436,0.249847687691009 l -7.42566620097219 19.638674287498574" fill="#ffc612" stroke="none" /><path d="M 107.4271985657038 80.35727306442388 l 3.712699420848766 -9.818983600944465 a31.497455689127108,31.497455689127108 0 0,0 0.5054844203291833,0.19612010191607496 l -3.8811670061776162 9.753620795137843" fill="#ff2603" stroke="none" /><path d="M 108.09893153111575 80.62456947434976 l 4.052306929510187 -9.694512304454442 a31.507366952389873,31.507366952389873 0 0,0 0.49859094226380046,0.2134706210778855 l -4.218581629564302 9.623322155413765" fill="#ff2603" stroke="none" /><path d="M 108.43124777332544 80.76684994638697 l 16.8642687872883 -38.47034517910366 a63.00441667169407,63.00441667169407 0 0,0 0.9895230111378291,0.44397013119409695 l -17.52397391689291 38.17435471739303" fill="#30ff31" stroke="none" /><path d="M 109.08828744355905 81.06846463323043 l 10.623945428915379 -22.13041784507841 a45.54839323610278,45.54839323610278 0 0,0 0.7038934450772882,0.34539745652375664 l -11.003310141003098 21.94426522841982" fill="#fff817" stroke="none" /><path d="M 109.73455568895987 81.39251694778311 l 5.2126423203612635 -9.963901459148627 a32.245042118535856,32.245042118535856 0 0,0 0.48959482878087607,0.26152460179207637 l -5.3833821956704515 9.872698130854795" fill="#ff3204" stroke="none" /><line stroke="#e1ed5e" stroke-width="0.3" x1="143.23703022742887" x2="145.7803849466894" y1="26.81831364943548" y2="22.513508569990506" /><path d="M 143.74570117128098 25.957352633546492 a86.0,86.0 0 0,1 28.547481713284135,27.462654790039103" fill="none" id="id170" stroke="none" /><text fill="#e1ed5e" style="font-size:6.75px; font-family:Arial;" text-anchor="middle"><textPath startOffset="19.985693538727396" xlink:href="#id170">February</textPath></text><path d="M 111.2981086023043 82.29822771554956 l 4.401133507818614 -6.895655360666304 a29.180466918625715,29.180466918625715 0 0,0 0.4210782704454558,0.27388102015183 l -4.519178804048349 6.818875416354945" fill="#ff0000" stroke="none" /><path d="M 111.60114157652 82.49532879139004 l 12.404747057512155 -18.717211339546285 a43.454659870282974,43.454659870282974 0 0,0 0.6199434334903433,0.4185885736605363 l -12.72509518540904 18.50091085358708" fill="#ffdb14" stroke="none" /><path d="M 111.90073688211348 82.69761687909136 l 11.92234304732081 -17.333796146160285 a42.03812616595499,42.03812616595499 0 0,0 0.5926752432377619,0.4152068832676699 l -12.218949430142224 17.12600442012868" fill="#ffc712" stroke="none" /><path d="M 112.77801427241765 83.33499621200491 l 31.94815541429546 -41.666578205969934 a73.50512711888416,73.50512711888416 0 0,0 0.9974556313214136,0.7785299416254233 l -32.660643600776304 41.11046987512128" fill="#3effb8" stroke="none" /><path d="M 113.34407831869373 83.78471172551755 l 15.19210469192461 -18.460949583199838 a44.90829781652897,44.90829781652897 0 0,0 0.5926664889450634,0.49634114031571636 l -15.50762871782879 18.1967072854903" fill="#ffef16" stroke="none" /><line stroke="#e1ed5e" stroke-width="0.3" x1="172.23445277983987" x2="176.4835382374775" y1="55.19839476539836" y2="52.563006222186495" /><path d="M 173.08426987136738 54.67131705675599 a86.0,86.0 0 0,1 12.851231095245387,41.99856678651699" fill="none" id="id171" stroke="none" /><text fill="#e1ed5e" style="font-size:6.75px; font-family:Arial;" text-anchor="middle"><textPath startOffset="22.20632615414155" xlink:href="#id171">March</textPath></text><line stroke="#e1ed5e" stroke-width="0.3" x1="184.98032266829074" x2="189.97916517819016" y1="98.17113171792111" y2="98.06355123074" /><path d="M 185.9800911702706 98.14961562048488 a86.0,86.0 0 0,1 -9.607161424134198,41.387399972396054" fill="none" id="id172" stroke="none" /><text fill="#e1ed5e" style="font-size:6.75px; font-family:Arial;" text-anchor="middle"><textPath startOffset="21.466115282336823" xlink:href="#id172">April</textPath></text><line stroke="#e1ed5e" stroke-width="0.3" x1="174.80103733775053" x2="179.2010983576182" y1="140.37084112569926" y2="142.7455964860345" /><path d="M 175.68104954172406 140.8457921977663 a86.0,86.0 0 0,1 -30.038265399797805,32.042727171017184" fill="none" id="id173" stroke="none" /><text fill="#e1ed5e" style="font-size:6.75px; font-family:Arial;" text-anchor="middle"><textPath startOffset="22.206326154141568" xlink:href="#id173">May</textPath></text><line stroke="#e1ed5e" stroke-width="0.3" x1="143.8653032363475" x2="146.44561519142675" y1="172.8068346515853" y2="177.08958963109032" /><path d="M 144.38136562736335 173.6633856474863 a86.0,86.0 0 0,1 -40.68145358897372,12.25698825130547" fill="none" id="id174" stroke="none" /><text fill="#e1ed5e" style="font-size:6.75px; font-family:Arial;" text-anchor="middle"><textPath startOffset="21.466115282336833" xlink:href="#id174">June</textPath></text><line stroke="#e1ed5e" stroke-width="0.3" x1="102.19456741930631" x2="102.32365962044197" y1="184.97166512339345" y2="189.96999836594603" /><path d="M 102.22038585953345 185.97133177190398 a86.0,86.0 0 0,1 -42.740103519485714,-10.115201625700543" fill="none" id="id175" stroke="none" /><text fill="#e1ed5e" style="font-size:6.75px; font-family:Arial;" text-anchor="middle"><textPath startOffset="22.20632615414155" xlink:href="#id175">July</textPath></text><line stroke="#e1ed5e" stroke-width="0.3" x1="58.666819895761336" x2="56.23545636021788" y1="174.27360380694188" y2="178.64263932499728" /><path d="M 58.180547188652646 175.14741091055294 a86.0,86.0 0 0,1 -31.652253787137756,-30.449443065178592" fill="none" id="id176" stroke="none" /><text fill="#e1ed5e" style="font-size:6.75px; font-family:Arial;" text-anchor="middle"><textPath startOffset="22.20632615414155" xlink:href="#id176">August</textPath></text><line stroke="#e1ed5e" stroke-width="0.3" x1="26.63291911575756" x2="22.317208475507996" y1="142.92168965132927" y2="145.44649492493687" /><path d="M 25.769776987707644 143.4266507060508 a86.0,86.0 0 0,1 -11.730757126820373,-40.83630448921669" fill="none" id="id177" stroke="none" /><text fill="#e1ed5e" style="font-size:6.75px; font-family:Arial;" text-anchor="middle"><textPath startOffset="21.46611528233685" xlink:href="#id177">September</textPath></text><line stroke="#e1ed5e" stroke-width="0.3" x1="15.007084014347285" x2="10.007500721073583" y1="101.09737516637583" y2="101.16192664675087" /><path d="M 14.007167355692545 101.11028546245083 a86.0,86.0 0 0,1 10.666146001902534,-42.60595125391555" fill="none" id="id178" stroke="none" /><text fill="#e1ed5e" style="font-size:6.75px; font-family:Arial;" text-anchor="middle"><textPath startOffset="22.20632615414155" xlink:href="#id178">October</textPath></text><line stroke="#e1ed5e" stroke-width="0.3" x1="26.266209847984243" x2="21.928928074336255" y1="57.711370442889674" y2="55.22380399835377" /><path d="M 25.398753493254645 57.213857153982495 a86.0,86.0 0 0,1 29.58750427330803,-30.492523968695096" fill="none" id="id179" stroke="none" /><text fill="#e1ed5e" style="font-size:6.75px; font-family:Arial;" text-anchor="middle"><textPath startOffset="21.46611528233685" xlink:href="#id179">November</textPath></text><line stroke="#e1ed5e" stroke-width="0.3" x1="56.762969772571076" x2="54.21961505331055" y1="26.818313649435495" y2="22.513508569990535" /><path d="M 56.25429882871897 25.957352633546506 a86.0,86.0 0 0,1 42.265352541879196,-11.944610805530505" fill="none" id="id180" stroke="none" /><text fill="#e1ed5e" style="font-size:6.75px; font-family:Arial;" text-anchor="middle"><textPath startOffset="22.20632615414155" xlink:href="#id180">December</textPath></text></svg>