<?xml version="1.0" encoding="utf-8" ?>
<svg baseProfile="full" height="300mm" version="1.1" viewBox="0,0,200,300" width="200mm" xmlns="http://www.w3.org/2000/svg" xmlns:ev="http://www.w3.org/2001/xml-events" xmlns:xlink="http://www.w3.org/1999/xlink"><defs /><rect fill="#222222" height="300" width="200" x="0" y="0" /><text fill="#555555" style="font-size:6px; font-family:Arial;" x="11" y="19">Running for 5040 Days</text><text fill="#555555" style="font-size:6px; font-family:Arial;" x="11" y="39">Races</text><text fill="#555555" style="font-size:8px; font-family:Arial;" x="11" y="59">1</text><text fill="#FFFFFF" style="font-size:10px; font-family:Arial; font-weight:bold;" x="23" y="59">Half</text><text fill="#555555" style="font-size:6px; font-family:Arial;" x="49" y="59">1x</text><text fill="#555555" style="font-size:8px; font-family:Arial;" x="11" y="77">2</text><text fill="#FFFFFF" style="font-size:10px; font-family:Arial; font-weight:bold;" x="23" y="77">10K</text><text fill="#555555" style="font-size:6px; font-family:Arial;" x="49" y="77">33x</text><text fill="#555555" style="font-size:6px; font-family:Arial;" x="11" y="115">Stats</text><text fill="#555555" style="font-size:5px; font-family:Arial;" x="11" y="121">Distance</text><text fill="#FFFFFF" style="font-size:10px; font-family:Arial; font-weight:bold;" x="11" y="132">980</text><text fill="#555555" style="font-size:6px; font-family:Arial;" x="29" y="132">km</text><text fill="#555555" style="font-size:5px; font-family:Arial;" x="53" y="121">Runs</text><text fill="#FFFFFF" style="font-size:10px; font-family:Arial; font-weight:bold;" x="53" y="132">209</text><text fill="#555555" style="font-size:5px; font-family:Arial;" x="11" y="149">Avg Pace</text><text fill="#FFFFFF" style="font-size:10px; font-family:Arial; font-weight:bold;" x="11" y="160">9'53"</text><text fill="#555555" style="font-size:5px; font-family:Arial;" x="53" y="149">Streak</text><text fill="#FFFFFF" style="font-size:10px; font-family:Arial; font-weight:bold;" x="53" y="160">9</text><text fill="#555555" style="font-size:6px; font-family:Arial;" x="59" y="160">d</text><text fill="#555555" style="font-size:5px; font-family:Arial;" x="11" y="177">Time</text><text fill="#FFFFFF" style="font-size:10px; font-family:Arial; font-weight:bold;" x="11" y="188">161</text><text fill="#555555" style="font-size:6px; font-family:Arial;" x="29" y="188">h</text><text fill="#555555" style="font-size:5px; font-family:Arial;" x="53" y="177">Longest</text><text fill="#FFFFFF" style="font-size:10px; font-family:Arial; font-weight:bold;" x="53" y="188">21.2</text><text fill="#555555" style="font-size:5px; font-family:Arial;" x="11" y="252.0645161290322">Runner</text><text fill="#FFFFFF" style="font-size:8px; font-family:Arial; font-weight:bold;" x="11" y="262.0645161290322">è€æ½˜</text><text fill="#555555" style="font-size:7px; font-family:Arial;" x="11" y="285.5806451612903">running_page/2021</text><circle cx="85.41666666666667" cy="17.419354838709676" fill="#555555" r="3.3125"><title>2021-01-01</title></circle><circle cx="85.41666666666667" cy="26.25806451612903" fill="#4fa9c7" r="3.3125"><title>2021-01-02: 6 km</title></circle><circle cx="85.41666666666667" cy="35.096774193548384" fill="#555555" r="3.3125"><title>2021-01-03</title></circle><circle cx="85.41666666666667" cy="43.935483870967744" fill="#5093aa" r="3.3125"><title>2021-01-04: 5 km</title></circle><circle cx="85.41666666666667" cy="52.774193548387096" fill="#53676e" r="3.3125"><title>2021-01-05: 1 km</title></circle><circle cx="85.41666666666667" cy="61.61290322580645" fill="#FFFF00" r="3.3125"><title>2021-01-06: 10 km</title></circle><circle cx="85.41666666666667" cy="70.45161290322581" fill="#555555" r="3.3125"><title>2021-01-07</title></circle><circle cx="85.41666666666667" cy="79.29032258064517" fill="#555555" r="3.3125"><title>2021-01-08</title></circle><circle cx="85.41666666666667" cy="88.12903225806451" fill="#555555" r="3.3125"><title>2021-01-09</title></circle><circle cx="85.41666666666667" cy="96.96774193548387" fill="#555555" r="3.3125"><title>2021-01-10</title></circle><circle cx="85.41666666666667" cy="105.80645161290322" fill="#555555" r="3.3125"><title>2021-01-11</title></circle><circle cx="85.41666666666667" cy="114.64516129032258" fill="#555555" r="3.3125"><title>2021-01-12</title></circle><circle cx="85.41666666666667" cy="123.48387096774194" fill="#555555" r="3.3125"><title>2021-01-13</title></circle><circle cx="85.41666666666667" cy="132.32258064516128" fill="#555555" r="3.3125"><title>2021-01-14</title></circle><circle cx="85.41666666666667" cy="141.16129032258064" fill="#555555" r="3.3125"><title>2021-01-15</title></circle><circle cx="85.41666666666667" cy="149.99999999999997" fill="#53676e" r="3.3125"><title>2021-01-16: 1 km</title></circle><circle cx="85.41666666666667" cy="158.83870967741933" fill="#555555" r="3.3125"><title>2021-01-17</title></circle><circle cx="85.41666666666667" cy="167.6774193548387" fill="#53656b" r="3.3125"><title>2021-01-18: 1 km</title></circle><circle cx="85.41666666666667" cy="176.51612903225805" fill="#555555" r="3.3125"><title>2021-01-19</title></circle><circle cx="85.41666666666667" cy="185.35483870967738" fill="#555555" r="3.3125"><title>2021-01-20</title></circle><circle cx="85.41666666666667" cy="194.19354838709674" fill="#555555" r="3.3125"><title>2021-01-21</title></circle><circle cx="85.41666666666667" cy="203.0322580645161" fill="#555555" r="3.3125"><title>2021-01-22</title></circle><circle cx="85.41666666666667" cy="211.87096774193546" fill="#53686f" r="3.3125"><title>2021-01-23: 1 km</title></circle><circle cx="85.41666666666667" cy="220.70967741935482" fill="#555555" r="3.3125"><title>2021-01-24</title></circle><circle cx="85.41666666666667" cy="229.54838709677418" fill="#555555" r="3.3125"><title>2021-01-25</title></circle><circle cx="85.41666666666667" cy="238.3870967741935" fill="#555555" r="3.3125"><title>2021-01-26</title></circle><circle cx="85.41666666666667" cy="247.22580645161287" fill="#555555" r="3.3125"><title>2021-01-27</title></circle><circle cx="85.41666666666667" cy="256.06451612903226" fill="#555555" r="3.3125"><title>2021-01-28</title></circle><circle cx="85.41666666666667" cy="264.90322580645164" fill="#555555" r="3.3125"><title>2021-01-29</title></circle><circle cx="85.41666666666667" cy="273.741935483871" fill="#5096ad" r="3.3125"><title>2021-01-30: 5 km</title></circle><circle cx="85.41666666666667" cy="282.5806451612903" fill="#53686f" r="3.3125"><title>2021-01-31: 1 km</title></circle><circle cx="94.25" cy="17.419354838709676" fill="#555555" r="3.3125"><title>2021-02-01</title></circle><circle cx="94.25" cy="26.25806451612903" fill="#555555" r="3.3125"><title>2021-02-02</title></circle><circle cx="94.25" cy="35.096774193548384" fill="#555555" r="3.3125"><title>2021-02-03</title></circle><circle cx="94.25" cy="43.935483870967744" fill="#518597" r="3.3125"><title>2021-02-04: 3 km</title></circle><circle cx="94.25" cy="52.774193548387096" fill="#555555" r="3.3125"><title>2021-02-05</title></circle><circle cx="94.25" cy="61.61290322580645" fill="#546368" r="3.3125"><title>2021-02-06: 1 km</title></circle><circle cx="94.25" cy="70.45161290322581" fill="#555555" r="3.3125"><title>2021-02-07</title></circle><circle cx="94.25" cy="79.29032258064517" fill="#555555" r="3.3125"><title>2021-02-08</title></circle><circle cx="94.25" cy="88.12903225806451" fill="#527682" r="3.3125"><title>2021-02-09: 2 km</title></circle><circle cx="94.25" cy="96.96774193548387" fill="#53737d" r="3.3125"><title>2021-02-10: 2 km</title></circle><circle cx="94.25" cy="105.80645161290322" fill="#FFFF00" r="3.3125"><title>2021-02-11: 10 km</title></circle><circle cx="94.25" cy="114.64516129032258" fill="#FFFF00" r="3.3125"><title>2021-02-12: 12 km</title></circle><circle cx="94.25" cy="123.48387096774194" fill="#FFFF00" r="3.3125"><title>2021-02-13: 11 km</title></circle><circle cx="94.25" cy="132.32258064516128" fill="#50a0bb" r="3.3125"><title>2021-02-14: 6 km</title></circle><circle cx="94.25" cy="141.16129032258064" fill="#FFFF00" r="3.3125"><title>2021-02-15: 14 km</title></circle><circle cx="94.25" cy="149.99999999999997" fill="#5093aa" r="3.3125"><title>2021-02-16: 5 km</title></circle><circle cx="94.25" cy="158.83870967741933" fill="#FFFF00" r="3.3125"><title>2021-02-17: 12 km</title></circle><circle cx="94.25" cy="167.6774193548387" fill="#555555" r="3.3125"><title>2021-02-18</title></circle><circle cx="94.25" cy="176.51612903225805" fill="#555555" r="3.3125"><title>2021-02-19</title></circle><circle cx="94.25" cy="185.35483870967738" fill="#5099b2" r="3.3125"><title>2021-02-20: 5 km</title></circle><circle cx="94.25" cy="194.19354838709674" fill="#555555" r="3.3125"><title>2021-02-21</title></circle><circle cx="94.25" cy="203.0322580645161" fill="#555555" r="3.3125"><title>2021-02-22</title></circle><circle cx="94.25" cy="211.87096774193546" fill="#546267" r="3.3125"><title>2021-02-23: 1 km</title></circle><circle cx="94.25" cy="220.70967741935482" fill="#555555" r="3.3125"><title>2021-02-24</title></circle><circle cx="94.25" cy="229.54838709677418" fill="#555555" r="3.3125"><title>2021-02-25</title></circle><circle cx="94.25" cy="238.3870967741935" fill="#555555" r="3.3125"><title>2021-02-26</title></circle><circle cx="94.25" cy="247.22580645161287" fill="#555555" r="3.3125"><title>2021-02-27</title></circle><circle cx="94.25" cy="256.06451612903226" fill="#4dcbf6" r="3.3125"><title>2021-02-28: 9 km</title></circle><circle cx="103.08333333333334" cy="17.419354838709676" fill="#555555" r="3.3125"><title>2021-03-01</title></circle><circle cx="103.08333333333334" cy="26.25806451612903" fill="#555555" r="3.3125"><title>2021-03-02</title></circle><circle cx="103.08333333333334" cy="35.096774193548384" fill="#555555" r="3.3125"><title>2021-03-03</title></circle><circle cx="103.08333333333334" cy="43.935483870967744" fill="#555555" r="3.3125"><title>2021-03-04</title></circle><circle cx="103.08333333333334" cy="52.774193548387096" fill="#555555" r="3.3125"><title>2021-03-05</title></circle><circle cx="103.08333333333334" cy="61.61290322580645" fill="#555555" r="3.3125"><title>2021-03-06</title></circle><circle cx="103.08333333333334" cy="70.45161290322581" fill="#555555" r="3.3125"><title>2021-03-07</title></circle><circle cx="103.08333333333334" cy="79.29032258064517" fill="#5093aa" r="3.3125"><title>2021-03-08: 5 km</title></circle><circle cx="103.08333333333334" cy="88.12903225806451" fill="#555555" r="3.3125"><title>2021-03-09</title></circle><circle cx="103.08333333333334" cy="96.96774193548387" fill="#50a2be" r="3.3125"><title>2021-03-10: 6 km</title></circle><circle cx="103.08333333333334" cy="105.80645161290322" fill="#5093aa" r="3.3125"><title>2021-03-11: 5 km</title></circle><circle cx="103.08333333333334" cy="114.64516129032258" fill="#53737d" r="3.3125"><title>2021-03-12: 2 km</title></circle><circle cx="103.08333333333334" cy="123.48387096774194" fill="#4ebade" r="3.3125"><title>2021-03-13: 8 km</title></circle><circle cx="103.08333333333334" cy="132.32258064516128" fill="#FFFF00" r="3.3125"><title>2021-03-14: 12 km</title></circle><circle cx="103.08333333333334" cy="141.16129032258064" fill="#555555" r="3.3125"><title>2021-03-15</title></circle><circle cx="103.08333333333334" cy="149.99999999999997" fill="#5093aa" r="3.3125"><title>2021-03-16: 5 km</title></circle><circle cx="103.08333333333334" cy="158.83870967741933" fill="#555555" r="3.3125"><title>2021-03-17</title></circle><circle cx="103.08333333333334" cy="167.6774193548387" fill="#555555" r="3.3125"><title>2021-03-18</title></circle><circle cx="103.08333333333334" cy="176.51612903225805" fill="#555555" r="3.3125"><title>2021-03-19</title></circle><circle cx="103.08333333333334" cy="185.35483870967738" fill="#555555" r="3.3125"><title>2021-03-20</title></circle><circle cx="103.08333333333334" cy="194.19354838709674" fill="#5093aa" r="3.3125"><title>2021-03-21: 5 km</title></circle><circle cx="103.08333333333334" cy="203.0322580645161" fill="#555555" r="3.3125"><title>2021-03-22</title></circle><circle cx="103.08333333333334" cy="211.87096774193546" fill="#555555" r="3.3125"><title>2021-03-23</title></circle><circle cx="103.08333333333334" cy="220.70967741935482" fill="#FFFF00" r="3.3125"><title>2021-03-24: 10 km</title></circle><circle cx="103.08333333333334" cy="229.54838709677418" fill="#555555" r="3.3125"><title>2021-03-25</title></circle><circle cx="103.08333333333334" cy="238.3870967741935" fill="#536970" r="3.3125"><title>2021-03-26: 1 km</title></circle><circle cx="103.08333333333334" cy="247.22580645161287" fill="#536970" r="3.3125"><title>2021-03-27: 1 km</title></circle><circle cx="103.08333333333334" cy="256.06451612903226" fill="#546369" r="3.3125"><title>2021-03-28: 1 km</title></circle><circle cx="103.08333333333334" cy="264.90322580645164" fill="#4fadcd" r="3.3125"><title>2021-03-29: 7 km</title></circle><circle cx="103.08333333333334" cy="273.741935483871" fill="#546267" r="3.3125"><title>2021-03-30: 1 km</title></circle><circle cx="103.08333333333334" cy="282.5806451612903" fill="#5093aa" r="3.3125"><title>2021-03-31: 5 km</title></circle><circle cx="111.91666666666667" cy="17.419354838709676" fill="#555555" r="3.3125"><title>2021-04-01</title></circle><circle cx="111.91666666666667" cy="26.25806451612903" fill="#555555" r="3.3125"><title>2021-04-02</title></circle><circle cx="111.91666666666667" cy="35.096774193548384" fill="#555555" r="3.3125"><title>2021-04-03</title></circle><circle cx="111.91666666666667" cy="43.935483870967744" fill="#555555" r="3.3125"><title>2021-04-04</title></circle><circle cx="111.91666666666667" cy="52.774193548387096" fill="#555555" r="3.3125"><title>2021-04-05</title></circle><circle cx="111.91666666666667" cy="61.61290322580645" fill="#546368" r="3.3125"><title>2021-04-06: 1 km</title></circle><circle cx="111.91666666666667" cy="70.45161290322581" fill="#555555" r="3.3125"><title>2021-04-07</title></circle><circle cx="111.91666666666667" cy="79.29032258064517" fill="#555555" r="3.3125"><title>2021-04-08</title></circle><circle cx="111.91666666666667" cy="88.12903225806451" fill="#5094ab" r="3.3125"><title>2021-04-09: 5 km</title></circle><circle cx="111.91666666666667" cy="96.96774193548387" fill="#555555" r="3.3125"><title>2021-04-10</title></circle><circle cx="111.91666666666667" cy="105.80645161290322" fill="#555555" r="3.3125"><title>2021-04-11</title></circle><circle cx="111.91666666666667" cy="114.64516129032258" fill="#555555" r="3.3125"><title>2021-04-12</title></circle><circle cx="111.91666666666667" cy="123.48387096774194" fill="#555555" r="3.3125"><title>2021-04-13</title></circle><circle cx="111.91666666666667" cy="132.32258064516128" fill="#555555" r="3.3125"><title>2021-04-14</title></circle><circle cx="111.91666666666667" cy="141.16129032258064" fill="#53666d" r="3.3125"><title>2021-04-15: 1 km</title></circle><circle cx="111.91666666666667" cy="149.99999999999997" fill="#527c8b" r="3.3125"><title>2021-04-16: 3 km</title></circle><circle cx="111.91666666666667" cy="158.83870967741933" fill="#546267" r="3.3125"><title>2021-04-17: 1 km</title></circle><circle cx="111.91666666666667" cy="167.6774193548387" fill="#FFFF00" r="3.3125"><title>2021-04-18: 10 km</title></circle><circle cx="111.91666666666667" cy="176.51612903225805" fill="#555555" r="3.3125"><title>2021-04-19</title></circle><circle cx="111.91666666666667" cy="185.35483870967738" fill="#5093aa" r="3.3125"><title>2021-04-20: 5 km</title></circle><circle cx="111.91666666666667" cy="194.19354838709674" fill="#4fa6c3" r="3.3125"><title>2021-04-21: 6 km</title></circle><circle cx="111.91666666666667" cy="203.0322580645161" fill="#5093aa" r="3.3125"><title>2021-04-22: 5 km</title></circle><circle cx="111.91666666666667" cy="211.87096774193546" fill="#509fb9" r="3.3125"><title>2021-04-23: 5 km</title></circle><circle cx="111.91666666666667" cy="220.70967741935482" fill="#555555" r="3.3125"><title>2021-04-24</title></circle><circle cx="111.91666666666667" cy="229.54838709677418" fill="#555555" r="3.3125"><title>2021-04-25</title></circle><circle cx="111.91666666666667" cy="238.3870967741935" fill="#5094aa" r="3.3125"><title>2021-04-26: 5 km</title></circle><circle cx="111.91666666666667" cy="247.22580645161287" fill="#555555" r="3.3125"><title>2021-04-27</title></circle><circle cx="111.91666666666667" cy="256.06451612903226" fill="#4dc9f3" r="3.3125"><title>2021-04-28: 9 km</title></circle><circle cx="111.91666666666667" cy="264.90322580645164" fill="#FFFF00" r="3.3125"><title>2021-04-29: 20 km</title></circle><circle cx="111.91666666666667" cy="273.741935483871" fill="#555555" r="3.3125"><title>2021-04-30</title></circle><circle cx="120.75000000000001" cy="17.419354838709676" fill="#FFFF00" r="3.3125"><title>2021-05-01: 12 km</title></circle><circle cx="120.75000000000001" cy="26.25806451612903" fill="#FFFF00" r="3.3125"><title>2021-05-02: 10 km</title></circle><circle cx="120.75000000000001" cy="35.096774193548384" fill="#555555" r="3.3125"><title>2021-05-03</title></circle><circle cx="120.75000000000001" cy="43.935483870967744" fill="#53666c" r="3.3125"><title>2021-05-04: 1 km</title></circle><circle cx="120.75000000000001" cy="52.774193548387096" fill="#555555" r="3.3125"><title>2021-05-05</title></circle><circle cx="120.75000000000001" cy="61.61290322580645" fill="#50a1bd" r="3.3125"><title>2021-05-06: 6 km</title></circle><circle cx="120.75000000000001" cy="70.45161290322581" fill="#50a1bd" r="3.3125"><title>2021-05-07: 6 km</title></circle><circle cx="120.75000000000001" cy="79.29032258064517" fill="#4fafd0" r="3.3125"><title>2021-05-08: 7 km</title></circle><circle cx="120.75000000000001" cy="88.12903225806451" fill="#FFFF00" r="3.3125"><title>2021-05-09: 11 km</title></circle><circle cx="120.75000000000001" cy="96.96774193548387" fill="#555555" r="3.3125"><title>2021-05-10</title></circle><circle cx="120.75000000000001" cy="105.80645161290322" fill="#546469" r="3.3125"><title>2021-05-11: 1 km</title></circle><circle cx="120.75000000000001" cy="114.64516129032258" fill="#52747f" r="3.3125"><title>2021-05-12: 2 km</title></circle><circle cx="120.75000000000001" cy="123.48387096774194" fill="#4fa5c1" r="3.3125"><title>2021-05-13: 6 km</title></circle><circle cx="120.75000000000001" cy="132.32258064516128" fill="#5093aa" r="3.3125"><title>2021-05-14: 5 km</title></circle><circle cx="120.75000000000001" cy="141.16129032258064" fill="#555555" r="3.3125"><title>2021-05-15</title></circle><circle cx="120.75000000000001" cy="149.99999999999997" fill="#51889a" r="3.3125"><title>2021-05-16: 4 km</title></circle><circle cx="120.75000000000001" cy="158.83870967741933" fill="#555555" r="3.3125"><title>2021-05-17</title></circle><circle cx="120.75000000000001" cy="167.6774193548387" fill="#555555" r="3.3125"><title>2021-05-18</title></circle><circle cx="120.75000000000001" cy="176.51612903225805" fill="#5093aa" r="3.3125"><title>2021-05-19: 5 km</title></circle><circle cx="120.75000000000001" cy="185.35483870967738" fill="#555555" r="3.3125"><title>2021-05-20</title></circle><circle cx="120.75000000000001" cy="194.19354838709674" fill="#53666c" r="3.3125"><title>2021-05-21: 1 km</title></circle><circle cx="120.75000000000001" cy="203.0322580645161" fill="#555555" r="3.3125"><title>2021-05-22</title></circle><circle cx="120.75000000000001" cy="211.87096774193546" fill="#555555" r="3.3125"><title>2021-05-23</title></circle><circle cx="120.75000000000001" cy="220.70967741935482" fill="#4dc5ee" r="3.3125"><title>2021-05-24: 9 km</title></circle><circle cx="120.75000000000001" cy="229.54838709677418" fill="#50a2bf" r="3.3125"><title>2021-05-25: 6 km</title></circle><circle cx="120.75000000000001" cy="238.3870967741935" fill="#FFFF00" r="3.3125"><title>2021-05-26: 10 km</title></circle><circle cx="120.75000000000001" cy="247.22580645161287" fill="#FFFF00" r="3.3125"><title>2021-05-27: 10 km</title></circle><circle cx="120.75000000000001" cy="256.06451612903226" fill="#555555" r="3.3125"><title>2021-05-28</title></circle><circle cx="120.75000000000001" cy="264.90322580645164" fill="#FFFF00" r="3.3125"><title>2021-05-29: 21 km</title></circle><circle cx="120.75000000000001" cy="273.741935483871" fill="#527b89" r="3.3125"><title>2021-05-30: 3 km</title></circle><circle cx="120.75000000000001" cy="282.5806451612903" fill="#555555" r="3.3125"><title>2021-05-31</title></circle><circle cx="129.58333333333334" cy="17.419354838709676" fill="#5093aa" r="3.3125"><title>2021-06-01: 5 km</title></circle><circle cx="129.58333333333334" cy="26.25806451612903" fill="#555555" r="3.3125"><title>2021-06-02</title></circle><circle cx="129.58333333333334" cy="35.096774193548384" fill="#4eb9dd" r="3.3125"><title>2021-06-03: 8 km</title></circle><circle cx="129.58333333333334" cy="43.935483870967744" fill="#555555" r="3.3125"><title>2021-06-04</title></circle><circle cx="129.58333333333334" cy="52.774193548387096" fill="#FFFF00" r="3.3125"><title>2021-06-05: 10 km</title></circle><circle cx="129.58333333333334" cy="61.61290322580645" fill="#4dc8f1" r="3.3125"><title>2021-06-06: 9 km</title></circle><circle cx="129.58333333333334" cy="70.45161290322581" fill="#555555" r="3.3125"><title>2021-06-07</title></circle><circle cx="129.58333333333334" cy="79.29032258064517" fill="#536d76" r="3.3125"><title>2021-06-08: 1 km</title></circle><circle cx="129.58333333333334" cy="88.12903225806451" fill="#5093aa" r="3.3125"><title>2021-06-09: 5 km</title></circle><circle cx="129.58333333333334" cy="96.96774193548387" fill="#555555" r="3.3125"><title>2021-06-10</title></circle><circle cx="129.58333333333334" cy="105.80645161290322" fill="#5093aa" r="3.3125"><title>2021-06-11: 5 km</title></circle><circle cx="129.58333333333334" cy="114.64516129032258" fill="#FFFF00" r="3.3125"><title>2021-06-12: 10 km</title></circle><circle cx="129.58333333333334" cy="123.48387096774194" fill="#546267" r="3.3125"><title>2021-06-13: 1 km</title></circle><circle cx="129.58333333333334" cy="132.32258064516128" fill="#5093aa" r="3.3125"><title>2021-06-14: 5 km</title></circle><circle cx="129.58333333333334" cy="141.16129032258064" fill="#555555" r="3.3125"><title>2021-06-15</title></circle><circle cx="129.58333333333334" cy="149.99999999999997" fill="#555555" r="3.3125"><title>2021-06-16</title></circle><circle cx="129.58333333333334" cy="158.83870967741933" fill="#555555" r="3.3125"><title>2021-06-17</title></circle><circle cx="129.58333333333334" cy="167.6774193548387" fill="#555555" r="3.3125"><title>2021-06-18</title></circle><circle cx="129.58333333333334" cy="176.51612903225805" fill="#555555" r="3.3125"><title>2021-06-19</title></circle><circle cx="129.58333333333334" cy="185.35483870967738" fill="#555555" r="3.3125"><title>2021-06-20</title></circle><circle cx="129.58333333333334" cy="194.19354838709674" fill="#555555" r="3.3125"><title>2021-06-21</title></circle><circle cx="129.58333333333334" cy="203.0322580645161" fill="#555555" r="3.3125"><title>2021-06-22</title></circle><circle cx="129.58333333333334" cy="211.87096774193546" fill="#555555" r="3.3125"><title>2021-06-23</title></circle><circle cx="129.58333333333334" cy="220.70967741935482" fill="#555555" r="3.3125"><title>2021-06-24</title></circle><circle cx="129.58333333333334" cy="229.54838709677418" fill="#555555" r="3.3125"><title>2021-06-25</title></circle><circle cx="129.58333333333334" cy="238.3870967741935" fill="#4dcffb" r="3.3125"><title>2021-06-26: 9 km</title></circle><circle cx="129.58333333333334" cy="247.22580645161287" fill="#555555" r="3.3125"><title>2021-06-27</title></circle><circle cx="129.58333333333334" cy="256.06451612903226" fill="#5093aa" r="3.3125"><title>2021-06-28: 5 km</title></circle><circle cx="129.58333333333334" cy="264.90322580645164" fill="#518da1" r="3.3125"><title>2021-06-29: 4 km</title></circle><circle cx="129.58333333333334" cy="273.741935483871" fill="#FFFF00" r="3.3125"><title>2021-06-30: 10 km</title></circle><circle cx="138.41666666666666" cy="17.419354838709676" fill="#555555" r="3.3125"><title>2021-07-01</title></circle><circle cx="138.41666666666666" cy="26.25806451612903" fill="#555555" r="3.3125"><title>2021-07-02</title></circle><circle cx="138.41666666666666" cy="35.096774193548384" fill="#555555" r="3.3125"><title>2021-07-03</title></circle><circle cx="138.41666666666666" cy="43.935483870967744" fill="#555555" r="3.3125"><title>2021-07-04</title></circle><circle cx="138.41666666666666" cy="52.774193548387096" fill="#5093aa" r="3.3125"><title>2021-07-05: 5 km</title></circle><circle cx="138.41666666666666" cy="61.61290322580645" fill="#555555" r="3.3125"><title>2021-07-06</title></circle><circle cx="138.41666666666666" cy="70.45161290322581" fill="#555555" r="3.3125"><title>2021-07-07</title></circle><circle cx="138.41666666666666" cy="79.29032258064517" fill="#555555" r="3.3125"><title>2021-07-08</title></circle><circle cx="138.41666666666666" cy="88.12903225806451" fill="#555555" r="3.3125"><title>2021-07-09</title></circle><circle cx="138.41666666666666" cy="96.96774193548387" fill="#555555" r="3.3125"><title>2021-07-10</title></circle><circle cx="138.41666666666666" cy="105.80645161290322" fill="#555555" r="3.3125"><title>2021-07-11</title></circle><circle cx="138.41666666666666" cy="114.64516129032258" fill="#555555" r="3.3125"><title>2021-07-12</title></circle><circle cx="138.41666666666666" cy="123.48387096774194" fill="#555555" r="3.3125"><title>2021-07-13</title></circle><circle cx="138.41666666666666" cy="132.32258064516128" fill="#555555" r="3.3125"><title>2021-07-14</title></circle><circle cx="138.41666666666666" cy="141.16129032258064" fill="#555555" r="3.3125"><title>2021-07-15</title></circle><circle cx="138.41666666666666" cy="149.99999999999997" fill="#555555" r="3.3125"><title>2021-07-16</title></circle><circle cx="138.41666666666666" cy="158.83870967741933" fill="#5093aa" r="3.3125"><title>2021-07-17: 5 km</title></circle><circle cx="138.41666666666666" cy="167.6774193548387" fill="#555555" r="3.3125"><title>2021-07-18</title></circle><circle cx="138.41666666666666" cy="176.51612903225805" fill="#555555" r="3.3125"><title>2021-07-19</title></circle><circle cx="138.41666666666666" cy="185.35483870967738" fill="#5093aa" r="3.3125"><title>2021-07-20: 5 km</title></circle><circle cx="138.41666666666666" cy="194.19354838709674" fill="#FFFF00" r="3.3125"><title>2021-07-21: 10 km</title></circle><circle cx="138.41666666666666" cy="203.0322580645161" fill="#555555" r="3.3125"><title>2021-07-22</title></circle><circle cx="138.41666666666666" cy="211.87096774193546" fill="#5093aa" r="3.3125"><title>2021-07-23: 5 km</title></circle><circle cx="138.41666666666666" cy="220.70967741935482" fill="#FFFF00" r="3.3125"><title>2021-07-24: 10 km</title></circle><circle cx="138.41666666666666" cy="229.54838709677418" fill="#555555" r="3.3125"><title>2021-07-25</title></circle><circle cx="138.41666666666666" cy="238.3870967741935" fill="#555555" r="3.3125"><title>2021-07-26</title></circle><circle cx="138.41666666666666" cy="247.22580645161287" fill="#555555" r="3.3125"><title>2021-07-27</title></circle><circle cx="138.41666666666666" cy="256.06451612903226" fill="#555555" r="3.3125"><title>2021-07-28</title></circle><circle cx="138.41666666666666" cy="264.90322580645164" fill="#555555" r="3.3125"><title>2021-07-29</title></circle><circle cx="138.41666666666666" cy="273.741935483871" fill="#555555" r="3.3125"><title>2021-07-30</title></circle><circle cx="138.41666666666666" cy="282.5806451612903" fill="#555555" r="3.3125"><title>2021-07-31</title></circle><circle cx="147.25" cy="17.419354838709676" fill="#555555" r="3.3125"><title>2021-08-01</title></circle><circle cx="147.25" cy="26.25806451612903" fill="#555555" r="3.3125"><title>2021-08-02</title></circle><circle cx="147.25" cy="35.096774193548384" fill="#5093aa" r="3.3125"><title>2021-08-03: 5 km</title></circle><circle cx="147.25" cy="43.935483870967744" fill="#555555" r="3.3125"><title>2021-08-04</title></circle><circle cx="147.25" cy="52.774193548387096" fill="#555555" r="3.3125"><title>2021-08-05</title></circle><circle cx="147.25" cy="61.61290322580645" fill="#555555" r="3.3125"><title>2021-08-06</title></circle><circle cx="147.25" cy="70.45161290322581" fill="#555555" r="3.3125"><title>2021-08-07</title></circle><circle cx="147.25" cy="79.29032258064517" fill="#50a0bb" r="3.3125"><title>2021-08-08: 6 km</title></circle><circle cx="147.25" cy="88.12903225806451" fill="#5093aa" r="3.3125"><title>2021-08-09: 5 km</title></circle><circle cx="147.25" cy="96.96774193548387" fill="#555555" r="3.3125"><title>2021-08-10</title></circle><circle cx="147.25" cy="105.80645161290322" fill="#555555" r="3.3125"><title>2021-08-11</title></circle><circle cx="147.25" cy="114.64516129032258" fill="#555555" r="3.3125"><title>2021-08-12</title></circle><circle cx="147.25" cy="123.48387096774194" fill="#555555" r="3.3125"><title>2021-08-13</title></circle><circle cx="147.25" cy="132.32258064516128" fill="#555555" r="3.3125"><title>2021-08-14</title></circle><circle cx="147.25" cy="141.16129032258064" fill="#546268" r="3.3125"><title>2021-08-15: 1 km</title></circle><circle cx="147.25" cy="149.99999999999997" fill="#527a88" r="3.3125"><title>2021-08-16: 3 km</title></circle><circle cx="147.25" cy="158.83870967741933" fill="#536970" r="3.3125"><title>2021-08-17: 1 km</title></circle><circle cx="147.25" cy="167.6774193548387" fill="#555555" r="3.3125"><title>2021-08-18</title></circle><circle cx="147.25" cy="176.51612903225805" fill="#555555" r="3.3125"><title>2021-08-19</title></circle><circle cx="147.25" cy="185.35483870967738" fill="#555555" r="3.3125"><title>2021-08-20</title></circle><circle cx="147.25" cy="194.19354838709674" fill="#555555" r="3.3125"><title>2021-08-21</title></circle><circle cx="147.25" cy="203.0322580645161" fill="#4fa3bf" r="3.3125"><title>2021-08-22: 6 km</title></circle><circle cx="147.25" cy="211.87096774193546" fill="#555555" r="3.3125"><title>2021-08-23</title></circle><circle cx="147.25" cy="220.70967741935482" fill="#555555" r="3.3125"><title>2021-08-24</title></circle><circle cx="147.25" cy="229.54838709677418" fill="#555555" r="3.3125"><title>2021-08-25</title></circle><circle cx="147.25" cy="238.3870967741935" fill="#546267" r="3.3125"><title>2021-08-26: 1 km</title></circle><circle cx="147.25" cy="247.22580645161287" fill="#555555" r="3.3125"><title>2021-08-27</title></circle><circle cx="147.25" cy="256.06451612903226" fill="#5093aa" r="3.3125"><title>2021-08-28: 5 km</title></circle><circle cx="147.25" cy="264.90322580645164" fill="#50a0bb" r="3.3125"><title>2021-08-29: 6 km</title></circle><circle cx="147.25" cy="273.741935483871" fill="#555555" r="3.3125"><title>2021-08-30</title></circle><circle cx="147.25" cy="282.5806451612903" fill="#5093aa" r="3.3125"><title>2021-08-31: 5 km</title></circle><circle cx="156.08333333333334" cy="17.419354838709676" fill="#555555" r="3.3125"><title>2021-09-01</title></circle><circle cx="156.08333333333334" cy="26.25806451612903" fill="#555555" r="3.3125"><title>2021-09-02</title></circle><circle cx="156.08333333333334" cy="35.096774193548384" fill="#555555" r="3.3125"><title>2021-09-03</title></circle><circle cx="156.08333333333334" cy="43.935483870967744" fill="#555555" r="3.3125"><title>2021-09-04</title></circle><circle cx="156.08333333333334" cy="52.774193548387096" fill="#555555" r="3.3125"><title>2021-09-05</title></circle><circle cx="156.08333333333334" cy="61.61290322580645" fill="#555555" r="3.3125"><title>2021-09-06</title></circle><circle cx="156.08333333333334" cy="70.45161290322581" fill="#555555" r="3.3125"><title>2021-09-07</title></circle><circle cx="156.08333333333334" cy="79.29032258064517" fill="#555555" r="3.3125"><title>2021-09-08</title></circle><circle cx="156.08333333333334" cy="88.12903225806451" fill="#518799" r="3.3125"><title>2021-09-09: 4 km</title></circle><circle cx="156.08333333333334" cy="96.96774193548387" fill="#555555" r="3.3125"><title>2021-09-10</title></circle><circle cx="156.08333333333334" cy="105.80645161290322" fill="#555555" r="3.3125"><title>2021-09-11</title></circle><circle cx="156.08333333333334" cy="114.64516129032258" fill="#555555" r="3.3125"><title>2021-09-12</title></circle><circle cx="156.08333333333334" cy="123.48387096774194" fill="#555555" r="3.3125"><title>2021-09-13</title></circle><circle cx="156.08333333333334" cy="132.32258064516128" fill="#555555" r="3.3125"><title>2021-09-14</title></circle><circle cx="156.08333333333334" cy="141.16129032258064" fill="#555555" r="3.3125"><title>2021-09-15</title></circle><circle cx="156.08333333333334" cy="149.99999999999997" fill="#555555" r="3.3125"><title>2021-09-16</title></circle><circle cx="156.08333333333334" cy="158.83870967741933" fill="#555555" r="3.3125"><title>2021-09-17</title></circle><circle cx="156.08333333333334" cy="167.6774193548387" fill="#536d76" r="3.3125"><title>2021-09-18: 1 km</title></circle><circle cx="156.08333333333334" cy="176.51612903225805" fill="#5093aa" r="3.3125"><title>2021-09-19: 5 km</title></circle><circle cx="156.08333333333334" cy="185.35483870967738" fill="#555555" r="3.3125"><title>2021-09-20</title></circle><circle cx="156.08333333333334" cy="194.19354838709674" fill="#FFFF00" r="3.3125"><title>2021-09-21: 10 km</title></circle><circle cx="156.08333333333334" cy="203.0322580645161" fill="#5093aa" r="3.3125"><title>2021-09-22: 5 km</title></circle><circle cx="156.08333333333334" cy="211.87096774193546" fill="#555555" r="3.3125"><title>2021-09-23</title></circle><circle cx="156.08333333333334" cy="220.70967741935482" fill="#555555" r="3.3125"><title>2021-09-24</title></circle><circle cx="156.08333333333334" cy="229.54838709677418" fill="#5093aa" r="3.3125"><title>2021-09-25: 5 km</title></circle><circle cx="156.08333333333334" cy="238.3870967741935" fill="#555555" r="3.3125"><title>2021-09-26</title></circle><circle cx="156.08333333333334" cy="247.22580645161287" fill="#555555" r="3.3125"><title>2021-09-27</title></circle><circle cx="156.08333333333334" cy="256.06451612903226" fill="#555555" r="3.3125"><title>2021-09-28</title></circle><circle cx="156.08333333333334" cy="264.90322580645164" fill="#555555" r="3.3125"><title>2021-09-29</title></circle><circle cx="156.08333333333334" cy="273.741935483871" fill="#555555" r="3.3125"><title>2021-09-30</title></circle><circle cx="164.91666666666666" cy="17.419354838709676" fill="#509fb9" r="3.3125"><title>2021-10-01: 5 km</title></circle><circle cx="164.91666666666666" cy="26.25806451612903" fill="#FFFF00" r="3.3125"><title>2021-10-02: 12 km</title></circle><circle cx="164.91666666666666" cy="35.096774193548384" fill="#4dcffc" r="3.3125"><title>2021-10-03: 9 km</title></circle><circle cx="164.91666666666666" cy="43.935483870967744" fill="#FFFF00" r="3.3125"><title>2021-10-04: 10 km</title></circle><circle cx="164.91666666666666" cy="52.774193548387096" fill="#555555" r="3.3125"><title>2021-10-05</title></circle><circle cx="164.91666666666666" cy="61.61290322580645" fill="#5190a5" r="3.3125"><title>2021-10-06: 4 km</title></circle><circle cx="164.91666666666666" cy="70.45161290322581" fill="#555555" r="3.3125"><title>2021-10-07</title></circle><circle cx="164.91666666666666" cy="79.29032258064517" fill="#555555" r="3.3125"><title>2021-10-08</title></circle><circle cx="164.91666666666666" cy="88.12903225806451" fill="#546368" r="3.3125"><title>2021-10-09: 1 km</title></circle><circle cx="164.91666666666666" cy="96.96774193548387" fill="#5093aa" r="3.3125"><title>2021-10-10: 5 km</title></circle><circle cx="164.91666666666666" cy="105.80645161290322" fill="#555555" r="3.3125"><title>2021-10-11</title></circle><circle cx="164.91666666666666" cy="114.64516129032258" fill="#546266" r="3.3125"><title>2021-10-12: 1 km</title></circle><circle cx="164.91666666666666" cy="123.48387096774194" fill="#555555" r="3.3125"><title>2021-10-13</title></circle><circle cx="164.91666666666666" cy="132.32258064516128" fill="#555555" r="3.3125"><title>2021-10-14</title></circle><circle cx="164.91666666666666" cy="141.16129032258064" fill="#536c75" r="3.3125"><title>2021-10-15: 1 km</title></circle><circle cx="164.91666666666666" cy="149.99999999999997" fill="#555555" r="3.3125"><title>2021-10-16</title></circle><circle cx="164.91666666666666" cy="158.83870967741933" fill="#4fa4c1" r="3.3125"><title>2021-10-17: 6 km</title></circle><circle cx="164.91666666666666" cy="167.6774193548387" fill="#53656b" r="3.3125"><title>2021-10-18: 1 km</title></circle><circle cx="164.91666666666666" cy="176.51612903225805" fill="#555555" r="3.3125"><title>2021-10-19</title></circle><circle cx="164.91666666666666" cy="185.35483870967738" fill="#5093aa" r="3.3125"><title>2021-10-20: 5 km</title></circle><circle cx="164.91666666666666" cy="194.19354838709674" fill="#546368" r="3.3125"><title>2021-10-21: 1 km</title></circle><circle cx="164.91666666666666" cy="203.0322580645161" fill="#50a2bd" r="3.3125"><title>2021-10-22: 6 km</title></circle><circle cx="164.91666666666666" cy="211.87096774193546" fill="#555555" r="3.3125"><title>2021-10-23</title></circle><circle cx="164.91666666666666" cy="220.70967741935482" fill="#4eb5d7" r="3.3125"><title>2021-10-24: 7 km</title></circle><circle cx="164.91666666666666" cy="229.54838709677418" fill="#5094ab" r="3.3125"><title>2021-10-25: 5 km</title></circle><circle cx="164.91666666666666" cy="238.3870967741935" fill="#555555" r="3.3125"><title>2021-10-26</title></circle><circle cx="164.91666666666666" cy="247.22580645161287" fill="#4eb9de" r="3.3125"><title>2021-10-27: 8 km</title></circle><circle cx="164.91666666666666" cy="256.06451612903226" fill="#555555" r="3.3125"><title>2021-10-28</title></circle><circle cx="164.91666666666666" cy="264.90322580645164" fill="#555555" r="3.3125"><title>2021-10-29</title></circle><circle cx="164.91666666666666" cy="273.741935483871" fill="#FFFF00" r="3.3125"><title>2021-10-30: 15 km</title></circle><circle cx="164.91666666666666" cy="282.5806451612903" fill="#50a2be" r="3.3125"><title>2021-10-31: 6 km</title></circle><circle cx="173.75" cy="17.419354838709676" fill="#5093aa" r="3.3125"><title>2021-11-01: 5 km</title></circle><circle cx="173.75" cy="26.25806451612903" fill="#5093aa" r="3.3125"><title>2021-11-02: 5 km</title></circle><circle cx="173.75" cy="35.096774193548384" fill="#5093aa" r="3.3125"><title>2021-11-03: 5 km</title></circle><circle cx="173.75" cy="43.935483870967744" fill="#555555" r="3.3125"><title>2021-11-04</title></circle><circle cx="173.75" cy="52.774193548387096" fill="#555555" r="3.3125"><title>2021-11-05</title></circle><circle cx="173.75" cy="61.61290322580645" fill="#5093aa" r="3.3125"><title>2021-11-06: 5 km</title></circle><circle cx="173.75" cy="70.45161290322581" fill="#FFFF00" r="3.3125"><title>2021-11-07: 12 km</title></circle><circle cx="173.75" cy="79.29032258064517" fill="#555555" r="3.3125"><title>2021-11-08</title></circle><circle cx="173.75" cy="88.12903225806451" fill="#5093aa" r="3.3125"><title>2021-11-09: 5 km</title></circle><circle cx="173.75" cy="96.96774193548387" fill="#50a0bc" r="3.3125"><title>2021-11-10: 6 km</title></circle><circle cx="173.75" cy="105.80645161290322" fill="#555555" r="3.3125"><title>2021-11-11</title></circle><circle cx="173.75" cy="114.64516129032258" fill="#555555" r="3.3125"><title>2021-11-12</title></circle><circle cx="173.75" cy="123.48387096774194" fill="#555555" r="3.3125"><title>2021-11-13</title></circle><circle cx="173.75" cy="132.32258064516128" fill="#555555" r="3.3125"><title>2021-11-14</title></circle><circle cx="173.75" cy="141.16129032258064" fill="#555555" r="3.3125"><title>2021-11-15</title></circle><circle cx="173.75" cy="149.99999999999997" fill="#555555" r="3.3125"><title>2021-11-16</title></circle><circle cx="173.75" cy="158.83870967741933" fill="#555555" r="3.3125"><title>2021-11-17</title></circle><circle cx="173.75" cy="167.6774193548387" fill="#555555" r="3.3125"><title>2021-11-18</title></circle><circle cx="173.75" cy="176.51612903225805" fill="#FFFF00" r="3.3125"><title>2021-11-19: 10 km</title></circle><circle cx="173.75" cy="185.35483870967738" fill="#FFFF00" r="3.3125"><title>2021-11-20: 10 km</title></circle><circle cx="173.75" cy="194.19354838709674" fill="#555555" r="3.3125"><title>2021-11-21</title></circle><circle cx="173.75" cy="203.0322580645161" fill="#5093aa" r="3.3125"><title>2021-11-22: 5 km</title></circle><circle cx="173.75" cy="211.87096774193546" fill="#FFFF00" r="3.3125"><title>2021-11-23: 10 km</title></circle><circle cx="173.75" cy="220.70967741935482" fill="#4eb3d5" r="3.3125"><title>2021-11-24: 7 km</title></circle><circle cx="173.75" cy="229.54838709677418" fill="#555555" r="3.3125"><title>2021-11-25</title></circle><circle cx="173.75" cy="238.3870967741935" fill="#555555" r="3.3125"><title>2021-11-26</title></circle><circle cx="173.75" cy="247.22580645161287" fill="#FFFF00" r="3.3125"><title>2021-11-27: 23 km</title></circle><circle cx="173.75" cy="256.06451612903226" fill="#527c8a" r="3.3125"><title>2021-11-28: 3 km</title></circle><circle cx="173.75" cy="264.90322580645164" fill="#555555" r="3.3125"><title>2021-11-29</title></circle><circle cx="173.75" cy="273.741935483871" fill="#555555" r="3.3125"><title>2021-11-30</title></circle><circle cx="182.58333333333334" cy="17.419354838709676" fill="#5093aa" r="3.3125"><title>2021-12-01: 5 km</title></circle><circle cx="182.58333333333334" cy="26.25806451612903" fill="#555555" r="3.3125"><title>2021-12-02</title></circle><circle cx="182.58333333333334" cy="35.096774193548384" fill="#546469" r="3.3125"><title>2021-12-03: 1 km</title></circle><circle cx="182.58333333333334" cy="43.935483870967744" fill="#FFFF00" r="3.3125"><title>2021-12-04: 10 km</title></circle><circle cx="182.58333333333334" cy="52.774193548387096" fill="#5093aa" r="3.3125"><title>2021-12-05: 5 km</title></circle><circle cx="182.58333333333334" cy="61.61290322580645" fill="#FFFF00" r="3.3125"><title>2021-12-06: 10 km</title></circle><circle cx="182.58333333333334" cy="70.45161290322581" fill="#5093aa" r="3.3125"><title>2021-12-07: 5 km</title></circle><circle cx="182.58333333333334" cy="79.29032258064517" fill="#FFFF00" r="3.3125"><title>2021-12-08: 10 km</title></circle><circle cx="182.58333333333334" cy="88.12903225806451" fill="#555555" r="3.3125"><title>2021-12-09</title></circle><circle cx="182.58333333333334" cy="96.96774193548387" fill="#555555" r="3.3125"><title>2021-12-10</title></circle><circle cx="182.58333333333334" cy="105.80645161290322" fill="#FFFF00" r="3.3125"><title>2021-12-11: 10 km</title></circle><circle cx="182.58333333333334" cy="114.64516129032258" fill="#FFFF00" r="3.3125"><title>2021-12-12: 15 km</title></circle><circle cx="182.58333333333334" cy="123.48387096774194" fill="#555555" r="3.3125"><title>2021-12-13</title></circle><circle cx="182.58333333333334" cy="132.32258064516128" fill="#555555" r="3.3125"><title>2021-12-14</title></circle><circle cx="182.58333333333334" cy="141.16129032258064" fill="#546469" r="3.3125"><title>2021-12-15: 1 km</title></circle><circle cx="182.58333333333334" cy="149.99999999999997" fill="#555555" r="3.3125"><title>2021-12-16</title></circle><circle cx="182.58333333333334" cy="158.83870967741933" fill="#555555" r="3.3125"><title>2021-12-17</title></circle><circle cx="182.58333333333334" cy="167.6774193548387" fill="#555555" r="3.3125"><title>2021-12-18</title></circle><circle cx="182.58333333333334" cy="176.51612903225805" fill="#FFFF00" r="3.3125"><title>2021-12-19: 15 km</title></circle><circle cx="182.58333333333334" cy="185.35483870967738" fill="#555555" r="3.3125"><title>2021-12-20</title></circle><circle cx="182.58333333333334" cy="194.19354838709674" fill="#555555" r="3.3125"><title>2021-12-21</title></circle><circle cx="182.58333333333334" cy="203.0322580645161" fill="#555555" r="3.3125"><title>2021-12-22</title></circle><circle cx="182.58333333333334" cy="211.87096774193546" fill="#5093aa" r="3.3125"><title>2021-12-23: 5 km</title></circle><circle cx="182.58333333333334" cy="220.70967741935482" fill="#555555" r="3.3125"><title>2021-12-24</title></circle><circle cx="182.58333333333334" cy="229.54838709677418" fill="#546267" r="3.3125"><title>2021-12-25: 1 km</title></circle><circle cx="182.58333333333334" cy="238.3870967741935" fill="#FFFF00" r="3.3125"><title>2021-12-26: 10 km</title></circle><circle cx="182.58333333333334" cy="247.22580645161287" fill="#527c8b" r="3.3125"><title>2021-12-27: 3 km</title></circle><circle cx="182.58333333333334" cy="256.06451612903226" fill="#555555" r="3.3125"><title>2021-12-28</title></circle><circle cx="182.58333333333334" cy="264.90322580645164" fill="#4faccc" r="3.3125"><title>2021-12-29: 7 km</title></circle><circle cx="182.58333333333334" cy="273.741935483871" fill="#555555" r="3.3125"><title>2021-12-30</title></circle><circle cx="182.58333333333334" cy="282.5806451612903" fill="#528191" r="3.3125"><title>2021-12-31: 3 km</title></circle></svg>