<?xml version="1.0" encoding="utf-8" ?>
<svg baseProfile="full" height="200mm" version="1.1" viewBox="0,0,200,200" width="200mm" xmlns="http://www.w3.org/2000/svg" xmlns:ev="http://www.w3.org/2001/xml-events" xmlns:xlink="http://www.w3.org/1999/xlink"><defs /><rect fill="#1a1a1a" height="200" width="200" x="0" y="0" /><text alignment-baseline="middle" fill="#e1ed5e" style="dominant-baseline: central; font-size:9.0px; font-family:Arial;" text-anchor="middle" x="100.0" y="100.0">2021</text><line stroke="#e1ed5e" stroke-width="0.3" x1="100.0" x2="100.0" y1="15.0" y2="10.0" /><path d="M 100.0 14.0 a86.0,86.0 0 0,1 42.46469731375804,11.215312516191453" fill="none" id="id109" stroke="none" /><text fill="#e1ed5e" style="font-size:6.75px; font-family:Arial;" text-anchor="middle"><textPath startOffset="22.20632615414155" xlink:href="#id109">January</textPath></text><path d="M 100.36148047927253 79.00311137660856 l 0.2567187503782097 -14.911718110132393 a35.9139277694659,35.9139277694659 0 0,0 0.6180160438771604,0.015961531088414638 l -0.5133614294502379 14.905089786901618" fill="#ffa10e" stroke="none" /><path d="M 101.08401301168833 79.027996857942 l 0.7690354886795789 -14.878248241525124 a35.89811015932202,35.89811015932202 0 0,0 0.6168285962104606,0.03720878540924437 l -1.0250261337296513 14.862806186735575" fill="#ffa00e" stroke="none" /><path d="M 101.44485096284872 79.0497635885617 l 0.30082499727036593 -4.361941109039033 a25.37230213019496,25.37230213019496 0 0,0 0.4354488860088111,0.03379921427463176 l -0.3758640726415182 4.356116632575937" fill="#ff0801" stroke="none" /><path d="M 101.80526077348638 79.07773832637324 l 2.554258466423547 -29.602850071008515 a50.712841813598125,50.712841813598125 0 0,0 0.8690608334552941,0.08252779786036277 l -3.063444426969085 29.554496728632973" fill="#a2ff22" stroke="none" /><path d="M 106.0581310904928 79.89281104454417 l 1.1148518505970053 -3.7002396419702026 a24.864539824712296,24.864539824712296 0 0,0 0.4087429927765504,0.12699843751461126 l -1.1783802160842738 3.680501069573071" fill="#ff0000" stroke="none" /><path d="M 110.05341064243156 81.56283822128135 l 7.388364690637104 -13.54967780849565 a36.433136476941186,36.433136476941186 0 0,0 0.5480166748865077,0.30497068624927687 l -7.620505454595647 13.420491724686194" fill="#ffa80f" stroke="none" /><line stroke="#e1ed5e" stroke-width="0.3" x1="143.23703022742887" x2="145.7803849466894" y1="26.81831364943548" y2="22.513508569990506" /><path d="M 143.74570117128098 25.957352633546492 a86.0,86.0 0 0,1 28.547481713284135,27.462654790039103" fill="none" id="id110" stroke="none" /><text fill="#e1ed5e" style="font-size:6.75px; font-family:Arial;" text-anchor="middle"><textPath startOffset="19.985693538727396" xlink:href="#id110">February</textPath></text><path d="M 113.6212207817346 84.01681056812373 l 19.354730126872603 -22.710909908711784 a50.83942035572563,50.83942035572563 0 0,0 0.6611695701120286,0.573359735928018 l -19.742793495631396 22.374385179364097" fill="#a0ff22" stroke="none" /><path d="M 113.89432698308785 84.25364557470407 l 19.683462283193343 -22.307145485014793 a50.749746673602296,50.749746673602296 0 0,0 0.6500535351183796,0.5836244822086669 l -20.064526805907715 21.965021994036828" fill="#a1ff22" stroke="none" /><path d="M 114.16331599549186 84.49514656593476 l 20.05210219779128 -21.951420537437098 a50.731324662081256,50.731324662081256 0 0,0 0.639678800722056,0.594511730556985 l -20.426988882308184 21.60300422080547" fill="#a1ff22" stroke="none" /><path d="M 114.42810811169701 84.74124197986012 l 12.266117463723676 -12.9722980155544 a38.85323929818406,38.85323929818406 0 0,0 0.48199618462444926,0.46367994772364357 l -12.487596891960543 12.759234981068456" fill="#ffc812" stroke="none" /><path d="M 114.68862486808459 84.99185889309783 l 29.11505012734133 -29.74837907359869 a62.62513905591335,62.62513905591335 0 0,0 0.7639199350318191,0.7606394200578366 l -29.62280586254047 29.242803802890737" fill="#31ff41" stroke="none" /><path d="M 114.94478906791727 85.2469230424477 l 10.605177671132195 -10.469134199197697 a35.90209932583633,35.90209932583633 0 0,0 0.43037340039969146,0.44353762000181174 l -10.783815335234996 10.28503238364577" fill="#ffa00e" stroke="none" /><path d="M 115.19652480421416 85.50635884689758 l 27.735456754525774 -26.45261088285208 a59.32748601071761,59.32748601071761 0 0,0 0.6984615831995052,0.7450701181316952 l -28.186685659695744 25.971271347842332" fill="#43ff2d" stroke="none" /><path d="M 115.9244219780498 86.31012108654704 l 12.391819523931531 -10.65297748538816 a37.34145404845841,37.34145404845841 0 0,0 0.4148269003078031,0.49102420682465503 l -12.573357037726451 10.438094328934397" fill="#ffb410" stroke="none" /><path d="M 117.65298651832404 88.62581576622439 l 17.504383501551196 -11.2784362373267 a41.82322179031914,41.82322179031914 0 0,0 0.38471868028449874,0.6085325618191658 l -17.695929778081652 10.975456027793328" fill="#ffef16" stroke="none" /><line stroke="#e1ed5e" stroke-width="0.3" x1="172.23445277983987" x2="176.4835382374775" y1="55.19839476539836" y2="52.563006222186495" /><path d="M 173.08426987136738 54.67131705675599 a86.0,86.0 0 0,1 12.851231095245387,41.99856678651699" fill="none" id="id111" stroke="none" /><text fill="#e1ed5e" style="font-size:6.75px; font-family:Arial;" text-anchor="middle"><textPath startOffset="22.20632615414155" xlink:href="#id111">March</textPath></text><path d="M 119.04729006885535 91.15688171328212 l 13.527820356756067 -6.280584542148102 a35.91467954049746,35.91467954049746 0 0,0 0.25550332906448603,0.5629677173439058 l -13.6339260027839 6.046794815962134" fill="#ffa10e" stroke="none" /><path d="M 119.34039704204932 91.81776055985345 l 13.976134992879986 -5.912809479088007 a36.17542965702116,36.17542965702116 0 0,0 0.23768689334489554,0.5755776653899292 l -14.07584357311108 5.671357243244774" fill="#ffa40f" stroke="none" /><path d="M 119.47837535516314 92.15188598940014 l 13.827207451588363 -5.571178219415335 a35.907370414051854,35.907370414051854 0 0,0 0.22605647502498344,0.5752890717801628 l -13.921057476495047 5.332340142739389" fill="#ffa10e" stroke="none" /><path d="M 119.7369772167798 92.82701384747503 l 22.535541102324924 -8.19006489652358 a44.97765159025887,44.97765159025887 0 0,0 0.258186539600737,0.729928115224618 l -22.67318072273547 7.800939154872347" fill="#e7ff1a" stroke="none" /><path d="M 120.08093135843002 93.85539295169968 l 14.254540926974196 -4.361777403984855 a35.906946003816316,35.906946003816316 0 0,0 0.17576296675813546,0.5925853474572313 l -14.327509790844033 4.115762669781094" fill="#ffa10e" stroke="none" /><path d="M 120.53481517161879 95.60439243477599 l 14.54816338782957 -3.1141267410111104 a35.877729777021266,35.877729777021266 0 0,0 0.12406980939898883,0.6050084531254323 l -14.599612493143555 2.863242631722266" fill="#ffa00e" stroke="none" /><path d="M 120.73433829027371 96.67025291283417 l 29.381988279598684 -4.718481415682678 a50.75844925617962,50.75844925617962 0 0,0 0.1311117490622903,0.8638626103695263 l -29.458855922100273 4.21201969292107" fill="#a1ff22" stroke="none" /><path d="M 120.94382443527127 98.46500227214037 l 21.050714596665774 -1.5428318345376286 a42.10717686238357,42.10717686238357 0 0,0 0.046757832328730216,0.7233229706190091 l -21.07415301999892 1.180249799665584" fill="#fff316" stroke="none" /><path d="M 120.98425023603335 99.18683210126433 l 14.894309864646987 -0.5771745246802 a35.905488813724304,35.905488813724304 0 0,0 0.018616663472535645,0.617796427604588 l -14.902038222575168 0.320707949650613" fill="#ffa10e" stroke="none" /><line stroke="#e1ed5e" stroke-width="0.3" x1="184.98032266829074" x2="189.97916517819016" y1="98.17113171792111" y2="98.06355123074" /><path d="M 185.9800911702706 98.14961562048488 a86.0,86.0 0 0,1 -9.607161424134198,41.387399972396054" fill="none" id="id112" stroke="none" /><text fill="#e1ed5e" style="font-size:6.75px; font-family:Arial;" text-anchor="middle"><textPath startOffset="21.466115282336823" xlink:href="#id112">April</textPath></text><path d="M 120.8583938346157 102.4346265915055 l 14.935473255267588 1.7432934017982002 a36.03686913035977,36.03686913035977 0 0,0 -0.07721927249214468,0.6155135784823188 l -14.903252473528594 -2.000124734567914" fill="#ffa20f" stroke="none" /><path d="M 120.23288151984713 105.62410040840565 l 28.678375733887037 7.971680381716764 a50.76570044266133,50.76570044266133 0 0,0 -0.24127574751486683,0.8399125295036386 l -28.53690734948607 -8.464150386724985" fill="#a1ff22" stroke="none" /><path d="M 120.02730092923936 106.31721596034902 l 14.216833050024245 4.484418792454907 a35.90732551057984,35.90732551057984 0 0,0 -0.19100602403875067,0.5878560956853678 l -14.137534774969248 -4.72847378811807" fill="#ffa10e" stroke="none" /><path d="M 119.9155931802556 106.66101706037122 l 14.26192201710047 4.770076643450043 a36.038485655352495,36.038485655352495 0 0,0 -0.20183125485668113,0.5866161017297222 l -14.177699931300559 -5.014865448269065" fill="#ffa20f" stroke="none" /><path d="M 119.79798401119884 107.00284435728193 l 14.010777200799133 4.955822370916705 a35.861428368178856,35.861428368178856 0 0,0 -0.21085792234138143,0.5801904424093138 l -13.923395017452524 -5.19626061033215" fill="#ffa00e" stroke="none" /><path d="M 119.67450827220406 107.3425965602758 l 8.38463062499869 3.12917401210361 a29.949511758508983,29.949511758508983 0 0,0 -0.18441158065508306,0.4814404454536324 l -8.3295247647501 -3.2730380243903863" fill="#ff4c07" stroke="none" /><path d="M 119.26925614724726 108.34839909993367 l 13.731603444010505 5.949212826723462 a35.96496128966634,35.96496128966634 0 0,0 -0.2509993197283457,0.5659372041022064 l -13.627163039550885 -6.184698367318357" fill="#ffa10e" stroke="none" /><line stroke="#e1ed5e" stroke-width="0.3" x1="174.80103733775053" x2="179.2010983576182" y1="140.37084112569926" y2="142.7455964860345" /><path d="M 175.68104954172406 140.8457921977663 a86.0,86.0 0 0,1 -30.038265399797805,32.042727171017184" fill="none" id="id113" stroke="none" /><text fill="#e1ed5e" style="font-size:6.75px; font-family:Arial;" text-anchor="middle"><textPath startOffset="22.206326154141568" xlink:href="#id113">May</textPath></text><path d="M 117.55443506779139 111.5257021239791 l 12.495870021396996 8.204403906499653 a35.94854544939523,35.94854544939523 0 0,0 -0.34407361906333317,0.5143433759780043 l -12.352793296922943 -8.418284196683464" fill="#ffa10e" stroke="none" /><path d="M 117.35343817320211 111.8261652097733 l 12.348432723150955 8.41531251664391 a35.94326856718332,35.94326856718332 0 0,0 -0.3528244179079464,0.5082698888849396 l -12.201747398080872 -8.62662366771587" fill="#ffa10e" stroke="none" /><path d="M 117.14729908036423 112.12312394758627 l 12.146935000238138 8.587871355191455 a35.876140773511395,35.876140773511395 0 0,0 -0.3608459953782466,0.5011835270977478 l -11.997309212484287 -8.795688487740334" fill="#ffa00e" stroke="none" /><path d="M 116.93607887273984 112.41649034213515 l 24.014103758680506 17.605662422523366 a50.77644251196782,50.77644251196782 0 0,0 -0.5228492195484477,0.700441972383465 l -23.707493272436967 -18.016417274416145" fill="#a1ff22" stroke="none" /><path d="M 116.0416608686014 113.55231037782055 l 11.232254441638952 9.489229306280443 a35.70404749274463,35.70404749274463 0 0,0 -0.4006631538240918,0.46606176525646337 l -11.067248778244082 -9.681168170698434" fill="#ff9e0e" stroke="none" /><path d="M 115.80600337817218 113.82643327865902 l 11.188347967730701 9.787100696680852 a35.86494097849011,35.86494097849011 0 0,0 -0.4104676748602269,0.4611647840434101 l -11.018221443222135 -9.97823965046513" fill="#ffa00e" stroke="none" /><path d="M 114.55890576462653 115.13401014063108 l 10.31598017594966 10.723480948183486 a35.87993584114665,35.87993584114665 0 0,0 -0.44877968618219716,0.42434920470092474 l -10.129864655376656 -10.899464789630333" fill="#ffa00e" stroke="none" /><path d="M 113.20401910651253 116.32954008644616 l 9.380269517273481 11.600671421963982 a35.91861366404606,35.91861366404606 0 0,0 -0.48411878426611477,0.38461324138076375 l -9.179193240290015 -11.760418577349872" fill="#ffa10e" stroke="none" /><path d="M 112.92097659922987 116.55440617244103 l 9.191113564425581 11.775690943639823 a35.93798733947411,35.93798733947411 0 0,0 -0.49093219635522206,0.3764258737423961 l -8.987052639576866 -11.93215615920959" fill="#ffa10e" stroke="none" /><path d="M 112.63410532772338 116.77436683061366 l 17.905924624418084 23.7737885113414 a50.76264700656395,50.76264700656395 0 0,0 -0.702494674354503,0.5196887658117235 l -17.494044979645018 -24.078487225892893" fill="#a1ff22" stroke="none" /><path d="M 112.34349029814194 116.9893568818739 l 17.473127627027406 24.049696959925893 a50.72706028073844,50.72706028073844 0 0,0 -0.7108375037706481,0.5071636850340583 l -17.056562795407874 -24.34690490680417" fill="#a1ff22" stroke="none" /><path d="M 111.7513745106137 117.40417183066458 l 35.25412353184112 52.21251549199374 a84.0,84.0 0 0,0 -1.2053012050401435,0.7988079156347263 l -34.35014762806101 -52.81162142871979" fill="#4dd2ff" stroke="none" /><line stroke="#e1ed5e" stroke-width="0.3" x1="143.8653032363475" x2="146.44561519142675" y1="172.8068346515853" y2="177.08958963109032" /><path d="M 144.38136562736335 173.6633856474863 a86.0,86.0 0 0,1 -40.68145358897372,12.25698825130547" fill="none" id="id114" stroke="none" /><text fill="#e1ed5e" style="font-size:6.75px; font-family:Arial;" text-anchor="middle"><textPath startOffset="21.466115282336833" xlink:href="#id114">June</textPath></text><path d="M 110.8373102113329 117.98757091392108 l 7.6962765240260484 12.774140174034732 a35.91346135275653,35.91346135275653 0 0,0 -0.5322582397884921,0.31446754987705333 l -7.475250413209174 -12.904726296205535" fill="#ffa10e" stroke="none" /><path d="M 110.21172684928248 118.3499491758327 l 11.569778665901552 20.79029860751163 a44.79277820195554,44.79277820195554 0 0,0 -0.6769621902060922,0.36913376197617076 l -11.21019366382681 -20.986373021247573" fill="#e9ff1a" stroke="none" /><path d="M 109.57404056367764 118.69057910512821 l 13.562399390090116 26.47671032620424 a50.74819098557166,50.74819098557166 0 0,0 -0.7809085528169735,0.3915637597780604 l -13.104636929590383 -26.706241926891604" fill="#a1ff22" stroke="none" /><path d="M 109.2508944713604 118.85261126421891 l 9.525748154871081 19.412741926805918 a42.62393181238782,42.62393181238782 0 0,0 -0.6614571151275749,0.3175396119439253 l -9.190178371743272 -19.573835815249403" fill="#fffa17" stroke="none" /><path d="M 108.2653958097858 119.30500536409082 l 5.870597812228419 13.711614647820051 a35.91550518498299,35.91550518498299 0 0,0 -0.570421239321845,0.2384361242990635 l -5.633705113409113 -13.810635815139086" fill="#ffa10e" stroke="none" /><path d="M 107.59598834532513 119.57807347666477 l 5.390679564175011 13.894060364314088 a35.903165421172034,35.903165421172034 0 0,0 -0.5780918760889636,0.21858488218133074 l -5.150717467325773 -13.98479349660205" fill="#ffa00e" stroke="none" /><path d="M 107.2578585660854 119.70592522655815 l 10.274488609738981 27.896424605287255 a50.72836392992612,50.72836392992612 0 0,0 -0.8219938079338082,0.29473773438619416 l -9.792775241175438 -28.06914988071341" fill="#a1ff22" stroke="none" /><path d="M 106.57524785965236 119.94407469862006 l 4.672299449694762 14.172042062603012 a35.922371070704784,35.922371070704784 0 0,0 -0.5889193139698267,0.18855336687416652 l -4.427658790633996 -14.250368276136886" fill="#ffa10e" stroke="none" /><path d="M 101.62511606390274 120.93702456842531 l 1.155120997472059 14.881888894443902 a35.92665138553767,35.92665138553767 0 0,0 -0.6169756366732438,0.04255025218783901 l -0.898782600019885 -14.899567491148026" fill="#ffa10e" stroke="none" /><path d="M 101.26447882468166 120.96189622390904 l 0.8004124396853465 13.268836274291935 a34.292955884511485,34.292955884511485 0 0,0 -0.5895317258894678,0.030472056357155716 l -0.5718926453823991 -13.280648137411294" fill="#ff8a0c" stroke="none" /><path d="M 100.90346689309514 120.98055641714683 l 1.3414073214279303 31.150529367132844 a52.17939790077073,52.17939790077073 0 0,0 -0.8976835487342303,0.030918036480207096 l -0.8050034210190478 -31.169004202039147" fill="#91ff24" stroke="none" /><line stroke="#e1ed5e" stroke-width="0.3" x1="102.19456741930631" x2="102.32365962044197" y1="184.97166512339345" y2="189.96999836594603" /><path d="M 102.22038585953345 185.97133177190398 a86.0,86.0 0 0,1 -42.740103519485714,-10.115201625700543" fill="none" id="id115" stroke="none" /><text fill="#e1ed5e" style="font-size:6.75px; font-family:Arial;" text-anchor="middle"><textPath startOffset="22.20632615414155" xlink:href="#id115">July</textPath></text><path d="M 99.09653310690486 120.98055641714683 l -0.6421847911468875 14.912991658978418 a35.92681216893749,35.92681216893749 0 0,0 -0.6176194217549473,-0.031923869404307144 l 0.8987922813153237 -14.89972798281191" fill="#ffa10e" stroke="none" /><path d="M 94.81253420990036 120.34920634021253 l -3.673532337823318 14.410402027610127 a35.87126512554946,35.87126512554946 0 0,0 -0.597016666182022,-0.15767752773871233 l 3.9210394468168293 -14.345033150567833" fill="#ffa00e" stroke="none" /><path d="M 93.76903079525671 120.05430185196036 l -4.415402089294481 14.210920225553583 a35.88106277344444,35.88106277344444 0 0,0 -0.5882420965880468,-0.18833654325434068 l 4.659365530973469 -14.132810835639535" fill="#ffa00e" stroke="none" /><path d="M 93.42475214034765 119.94407469862007 l -9.298364607283288 28.203846039116158 a50.69707924641995,50.69707924641995 0 0,0 -0.8264354608442652,-0.2803717788889699 l 9.78246980106478 -28.039611273329065" fill="#a2ff22" stroke="none" /><path d="M 92.7421414339146 119.70592522655815 l -5.152271889702569 13.989013933091519 a35.90766301086954,35.90766301086954 0 0,0 -0.5781642936609273,-0.21861226431052336 l 5.392306404123779 -13.898253418674361" fill="#ffa10e" stroke="none" /><path d="M 92.40401165467489 119.57807347666478 l -10.753824927709738 27.7171534523832 a50.73020931777624,50.73020931777624 0 0,0 -0.8113908627536185,-0.3228691694886457 l 11.229336866505214 -27.52793743848849" fill="#a1ff22" stroke="none" /><line stroke="#e1ed5e" stroke-width="0.3" x1="58.666819895761336" x2="56.23545636021788" y1="174.27360380694188" y2="178.64263932499728" /><path d="M 58.180547188652646 175.14741091055294 a86.0,86.0 0 0,1 -31.652253787137756,-30.449443065178592" fill="none" id="id116" stroke="none" /><text fill="#e1ed5e" style="font-size:6.75px; font-family:Arial;" text-anchor="middle"><textPath startOffset="22.20632615414155" xlink:href="#id116">August</textPath></text><path d="M 89.1626897886671 117.98757091392108 l -7.690119235495134 12.76392041821641 a35.90153006569104,35.90153006569104 0 0,0 -0.5265913340232584,-0.32347540699697525 l 7.908689769450701 -12.629656544391057" fill="#ffa00e" stroke="none" /><path d="M 87.65650970185807 116.9893568818739 l -10.506033236000702 14.460314201900628 a38.87393132955479,38.87393132955479 0 0,0 -0.537968985870727,-0.3979765947251321 l 10.753387192289994 -14.27732765843573" fill="#ffc912" stroke="none" /><path d="M 87.36589467227662 116.77436683061367 l -8.938490981748902 11.867680595552427 a35.85726972727015,35.85726972727015 0 0,0 -0.4898295504482854,-0.3755804118801895 l 9.141449260690674 -11.71206084184487" fill="#ffa00e" stroke="none" /><path d="M 83.95833913139862 113.55231037782056 l -14.260967487742462 12.047945612675468 a39.66890964069497,39.66890964069497 0 0,0 -0.4361766626618251,-0.5254028885300334 l 14.466240150297825 -11.800681467031673" fill="#ffd313" stroke="none" /><path d="M 82.6465618267979 111.8261652097733 l -12.313678603065947 8.391627990168908 a35.90121139588961,35.90121139588961 0 0,0 -0.3436205715507957,-0.5136661314170544 l 12.456302280027472 -8.178424944546034" fill="#ffa00e" stroke="none" /><path d="M 82.44556493220864 111.52570212397912 l -14.930144599269736 9.802673720605755 a38.860616725851266,38.860616725851266 0 0,0 -0.36231998862334824,-0.5623286684151185 l 15.096669451270131 -9.54422345226919" fill="#ffc912" stroke="none" /><path d="M 82.05923443525364 110.91462005526583 l -12.744313644698707 7.7532556119208715 a35.91745631326722,35.91745631326722 0 0,0 -0.31679046692811275,-0.5309590443251312 l 12.875884987325053 -7.5327344737096285" fill="#ffa10e" stroke="none" /><line stroke="#e1ed5e" stroke-width="0.3" x1="26.63291911575756" x2="22.317208475507996" y1="142.92168965132927" y2="145.44649492493687" /><path d="M 25.769776987707644 143.4266507060508 a86.0,86.0 0 0,1 -11.730757126820373,-40.83630448921669" fill="none" id="id117" stroke="none" /><text fill="#e1ed5e" style="font-size:6.75px; font-family:Arial;" text-anchor="middle"><textPath startOffset="21.46611528233685" xlink:href="#id117">September</textPath></text><path d="M 80.58989483394504 108.01547362559985 l -11.096401072417938 4.582299239191666 a33.00531478460496,33.00531478460496 0 0,0 -0.21233008300057707,-0.5269858529440593 l 11.173633769675902 -4.3906140184048015" fill="#ff780b" stroke="none" /><path d="M 79.58551787078972 104.9243191809786 l -5.66574096942675 1.3666727744361218 a26.828242891732096,26.828242891732096 0 0,0 -0.10442501862132322,-0.44986024716400913 l 5.688426553978629 -1.2689438699235385" fill="#ff1e03" stroke="none" /><path d="M 79.50377843672027 104.57218783832718 l -14.502911841741785 3.2352322567561225 a35.8593801904551,35.8593801904551 0 0,0 -0.12920640346935866,-0.603609301982269 l 14.556452283935585 -2.98510913535769" fill="#ffa00e" stroke="none" /><path d="M 79.35854240842038 103.8639653848113 l -29.182644112798293 5.462827718868013 a50.68954705111335,50.68954705111335 0 0,0 -0.15316343317182038,-0.8590218728246555 l 29.272353988309302 -4.9596870953101435" fill="#a2ff22" stroke="none" /><path d="M 79.29508885075956 103.50808413554451 l -14.708341161273951 2.4920705003814683 a35.91796618494951,35.91796618494951 0 0,0 -0.09803594326818041,-0.6104699123135849 l 14.749058858903423 -2.23852135837467" fill="#ffa10e" stroke="none" /><path d="M 79.1416061653843 102.43462659150553 l -14.806148544741673 1.728198405429771 a35.90666644349051,35.90666644349051 0 0,0 -0.0663721024812244,-0.6145232375546076 l 14.83370294872395 -1.4730788459903814" fill="#ffa10e" stroke="none" /><line stroke="#e1ed5e" stroke-width="0.3" x1="15.007084014347285" x2="10.007500721073583" y1="101.09737516637583" y2="101.16192664675087" /><path d="M 14.007167355692545 101.11028546245083 a86.0,86.0 0 0,1 10.666146001902534,-42.60595125391555" fill="none" id="id118" stroke="none" /><text fill="#e1ed5e" style="font-size:6.75px; font-family:Arial;" text-anchor="middle"><textPath startOffset="22.20632615414155" xlink:href="#id118">October</textPath></text><path d="M 79.00175016825051 100.2711162175752 l -8.974518867095792 0.11587335274606547 a29.975266877911483,29.975266877911483 0 0,0 -0.0022206001871351165,-0.5159892792704909 l 8.97518376457243 0.03862540472810078" fill="#ff4c07" stroke="none" /><path d="M 79.00019446554 99.90962569577889 l -14.947633530565577 -0.06432830903411929 a35.94777195087721,35.94777195087721 0 0,0 0.007988952182320404,-0.6187531506548992 l 14.94431157126554 0.3216177177494905" fill="#ffa10e" stroke="none" /><path d="M 79.00486145842228 99.54816195383935 l -14.972201757364951 -0.32221794466246173 a35.9756685949945,35.9756685949945 0 0,0 0.018653051039274022,-0.6190039537960296 l 14.964437011870032 0.5798920458834858" fill="#ffa10e" stroke="none" /><path d="M 79.01574976396665 99.18683210126434 l -29.669596084909138 -1.1497367231769031 a50.69186464966923,50.69186464966923 0 0,0 0.041293090289128316,-0.8716318718840603 l 29.64540938638651 1.6602797016839725" fill="#a2ff22" stroke="none" /><path d="M 79.05617556472873 98.46500227214037 l -14.06824572264851 -1.0310784110121274 a35.105979597407384,35.105979597407384 0 0,0 0.04935819850645986,-0.6022950415111219 l 14.048413040322552 1.2730873697310277" fill="#ff950d" stroke="none" /><path d="M 79.21141760316559 97.0276538004421 l -14.745430467244335 -2.1082978807074895 a35.89538987801706,35.89538987801706 0 0,0 0.09271968350385476,-0.6109068668302482 l 14.706954890301178 2.3618038599298297" fill="#ffa00e" stroke="none" /><path d="M 79.71946130924805 94.55025226153421 l -14.375237413068408 -3.862886424092004 a35.88520548086307,35.88520548086307 0 0,0 0.16543631578533738,-0.5951624496892008 l 14.30661432671671 4.109760177200147" fill="#ffa00e" stroke="none" /><path d="M 80.02781315780177 93.51064311812611 l -14.20555872005217 -4.615665824138062 a35.93660836833337,35.93660836833337 0 0,0 0.1962185127703369,-0.5866683780195924 l 14.124002913510061 4.859507305079976" fill="#ffa10e" stroke="none" /><path d="M 80.2630227832202 92.82701384747504 l -14.13534872125525 -5.137192971600239 a36.039908081466166,36.039908081466166 0 0,0 0.21691804820573493,-0.5812325243229451 l 14.044826084547887 5.379748632952526" fill="#ffa20f" stroke="none" /><path d="M 80.52162464483688 92.15188598940014 l -15.030050793805419 -6.05582088157187 a37.204178270250324,37.204178270250324 0 0,0 0.2444461789768687,-0.5919458116894749 l 14.92358292794235 6.313641263714656" fill="#ffb210" stroke="none" /><path d="M 80.65960295795068 91.81776055985345 l -13.941284895591904 -5.898065632831718 a36.13758906660006,36.13758906660006 0 0,0 0.2473003463218093,-0.5708032955223427 l 13.837693839427414 6.13716807294066" fill="#ffa40f" stroke="none" /><path d="M 80.95270993114464 91.15688171328213 l -13.50689401195456 -6.270869031872385 a35.89160784687369,35.89160784687369 0 0,0 0.26498570030966,-0.5581274646310662 l 13.396950117803149 6.502438912143983" fill="#ffa00e" stroke="none" /><path d="M 81.43458229118936 90.18545643968196 l -18.48967278845341 -9.774501271370996 a41.91432224405342,41.91432224405342 0 0,0 0.34268331695481047,-0.6349401417411495 l 18.31868137228013 10.09132239644462" fill="#fff116" stroke="none" /><path d="M 81.6062741919709 89.86733742301443 l -13.041437542195249 -7.184215286943857 a35.889326460795246,35.889326460795246 0 0,0 0.3027390448424405,-0.5385389802443075 l 12.915840856060377 7.407637777122949" fill="#ffa00e" stroke="none" /><line stroke="#e1ed5e" stroke-width="0.3" x1="26.266209847984243" x2="21.928928074336255" y1="57.711370442889674" y2="55.22380399835377" /><path d="M 25.398753493254645 57.213857153982495 a86.0,86.0 0 0,1 29.58750427330803,-30.492523968695096" fill="none" id="id119" stroke="none" /><text fill="#e1ed5e" style="font-size:6.75px; font-family:Arial;" text-anchor="middle"><textPath startOffset="21.46611528233685" xlink:href="#id119">November</textPath></text><path d="M 81.78341655067845 89.55222093294921 l -12.962213604778752 -7.43423399560098 a35.94278476848478,35.94278476848478 0 0,0 0.3124289348610598,-0.5340423250047718 l 12.832324995447367 7.656255732959644" fill="#ffa10e" stroke="none" /><path d="M 81.96595687620814 89.24020034530311 l -12.802128866129186 -7.638239567667108 a35.90762245289481,35.90762245289481 0 0,0 0.3212607133334312,-0.5280681429031979 l 12.668752354509538 7.857475483777381" fill="#ffa10e" stroke="none" /><path d="M 82.15384107792192 88.93136811851018 l -12.66351216081178 -7.85422538523901 a35.90145619223708,35.90145619223708 0 0,0 0.3302462186154621,-0.5223702090487182 l 12.526438345950357 8.071043242001943" fill="#ffa00e" stroke="none" /><path d="M 82.7489923806493 88.02491185347247 l -12.219896328054146 -8.482654399023687 a35.87552660989409,35.87552660989409 0 0,0 0.35651284101785957,-0.5042621305658366 l 12.072070867232409 8.691743029921309" fill="#ffa00e" stroke="none" /><path d="M 82.95767976084542 87.72973835380427 l -24.15972199164627 -17.394703654011057 a50.77025162682543,50.77025162682543 0 0,0 0.516738140225863,-0.7048302425460811 l 23.856721238906772 17.80799634022864" fill="#a1ff22" stroke="none" /><path d="M 83.39014120810768 87.1503855733568 l -11.799144748596783 -9.127980104058883 a35.91776918907227,35.91776918907227 0 0,0 0.38251726253826696,-0.4857580781873999 l 11.640273405464544 9.329730576199331" fill="#ffa10e" stroke="none" /><path d="M 83.6137871275137 86.86637796730984 l -11.644346854705486 -9.33299546376769 a35.92298957981938,35.92298957981938 0 0,0 0.3908789184815603,-0.47917133601482453 l 11.481969444147532 9.532050969390596" fill="#ffa10e" stroke="none" /><path d="M 85.83668400450813 84.49514656593479 l -20.055302353732554 -21.954923809471033 a50.73606954490302,50.73606954490302 0 0,0 0.649878344768837,-0.5834671945830898 l 19.674413021367748 22.296890012823404" fill="#a1ff22" stroke="none" /><path d="M 86.10567301691215 84.25364557470407 l -19.653942581295016 -22.273690990300086 a50.70513035353012,50.70513035353012 0 0,0 0.6594231209510855,-0.5718452324254409 l 19.267625661697156 22.608701216145207" fill="#a2ff22" stroke="none" /><path d="M 86.65592168130627 83.78471172551755 l -9.483921955728214 -11.524552300430484 a35.92514929197364,35.92514929197364 0 0,0 0.48087797009698724,-0.3888365423305386 l 9.284140587066727 11.686094940025155" fill="#ffa10e" stroke="none" /><path d="M 86.93701828274178 83.55741782278169 l -18.489512768419434 -23.273042839048937 a50.72367079285047,50.72367079285047 0 0,0 0.6883140408939556,-0.5372400267741344 l 18.086166172366053 23.587861255046292" fill="#a2ff22" stroke="none" /><path d="M 87.22198572758235 83.33499621200491 l -9.042767552788439 -11.793519110905311 a35.861316833748354,35.861316833748354 0 0,0 0.4930996746206588,-0.37139245189593856 l 8.83842172440939 11.947428152307104" fill="#ffa00e" stroke="none" /><path d="M 88.09926311788651 82.69761687909137 l -33.212991445210015 -48.28809411291077 a79.60753222749548,79.60753222749548 0 0,0 1.1357163307256077,-0.7668407362344011 l 32.376870420077864 48.852646761443836" fill="#47fdff" stroke="none" /><line stroke="#e1ed5e" stroke-width="0.3" x1="56.762969772571076" x2="54.21961505331055" y1="26.818313649435495" y2="22.513508569990535" /><path d="M 56.25429882871897 25.957352633546506 a86.0,86.0 0 0,1 42.265352541879196,-11.944610805530505" fill="none" id="id120" stroke="none" /><text fill="#e1ed5e" style="font-size:6.75px; font-family:Arial;" text-anchor="middle"><textPath startOffset="22.20632615414155" xlink:href="#id120">December</textPath></text><path d="M 89.3179101791058 81.91981866633112 l -7.602379653463072 -12.867557285761604 a35.94557482660824,35.94557482660824 0 0,0 0.5354234885321614,-0.3101518437526851 l 7.37975943246559 12.996513286904337" fill="#ffa10e" stroke="none" /><path d="M 90.26544431104013 81.39251694778311 l -13.781492241999782 -26.343152324671706 a50.730307815714866,50.730307815714866 0 0,0 0.7772354524333347,-0.398130186725107 l 13.325996301977682 26.57647503670932" fill="#a1ff22" stroke="none" /><path d="M 90.58718382345135 81.22770947309562 l -6.680593091486186 -13.323327689948858 a35.904408233397625,35.904408233397625 0 0,0 0.5548577196535696,-0.27226627331338615 l 6.45026410482219 13.436349123397074" fill="#ffa00e" stroke="none" /><path d="M 90.91171255644093 81.06846463323043 l -12.867809093013456 -26.8045420493241 a50.7332135049043,50.7332135049043 0 0,0 0.7905244223616021,-0.3711618160740083 l 12.404506459352245 27.022068848038113" fill="#a1ff22" stroke="none" /><path d="M 91.23893434514133 80.91482961587045 l -6.201551027781081 -13.509504742204207 a35.864923596500944,35.864923596500944 0 0,0 0.5632806248547112,-0.25272759713619775 l 5.968088284459595 13.614252669856935" fill="#ffa00e" stroke="none" /><path d="M 91.56875222667455 80.76684994638697 l -11.954928228016474 -27.271281152128406 a50.776552597899226,50.776552597899226 0 0,0 0.803517769128411,-0.3440243748595961 l 11.483726701097755 27.47302505495079" fill="#a1ff22" stroke="none" /><path d="M 92.57280143429618 80.3572730644239 l -10.503844555217732 -27.779538751611142 a50.69904920519245,50.69904920519245 0 0,0 0.8189530265203545,-0.3016273110963435 l 10.024109202924807 27.95622933051381" fill="#a2ff22" stroke="none" /><path d="M 92.91201910852362 80.23233633223022 l -15.031613597052477 -41.92165392654101 a65.53509262668895,65.53509262668895 0 0,0 1.0651574513746875,-0.37161251986982496 l 14.307774141614505 42.174187299583046" fill="#35ff65" stroke="none" /><path d="M 95.33964822691252 79.52364482259891 l -9.888809344166473 -43.44881722922129 a65.55994018020615,65.55994018020615 0 0,0 1.1025223751761777,-0.24096868797877374 l 9.139444244836776 43.61259941529593" fill="#35ff65" stroke="none" /><path d="M 96.75951476605007 79.25152402106235 l -2.2909309514678933 -14.668582753576267 a35.846403087041274,35.846403087041274 0 0,0 0.6104659849516287,-0.0899668174131593 l 2.0380959860876158 14.705844055150395" fill="#ffa00e" stroke="none" /><path d="M 97.83486435360386 79.11191278185805 l -3.0673004558883608 -29.59169766267847 a50.750242060293616,50.750242060293616 0 0,0 0.8697017576946623,-0.08258866133968172 l 2.557473571103462 29.64011186853333" fill="#a1ff22" stroke="none" /><path d="M 98.19473922651362 79.07773832637324 l -0.8109210614946394 -9.398255861107605 a30.43317582783333,30.43317582783333 0 0,0 0.5223054827243905,-0.040540957836003214 l 0.6490253894079148 9.41082208113207" fill="#ff5307" stroke="none" /><path d="M 98.91598698831166 79.02799685794201 l -1.0748316407628846 -20.794374517843323 a41.82213424806201,41.82213424806201 0 0,0 0.719259390130096,-0.03097282234132371 l 0.7167314182434646 20.809795066708837" fill="#ffef16" stroke="none" /></svg>