<?xml version="1.0" encoding="utf-8" ?>
<svg baseProfile="full" height="200mm" version="1.1" viewBox="0,0,200,200" width="200mm" xmlns="http://www.w3.org/2000/svg" xmlns:ev="http://www.w3.org/2001/xml-events" xmlns:xlink="http://www.w3.org/1999/xlink"><defs /><rect fill="#1a1a1a" height="200" width="200" x="0" y="0" /><text alignment-baseline="middle" fill="#e1ed5e" style="dominant-baseline: central; font-size:9.0px; font-family:Arial;" text-anchor="middle" x="100.0" y="100.0">2025</text><line stroke="#e1ed5e" stroke-width="0.3" x1="100.0" x2="100.0" y1="15.0" y2="10.0" /><path d="M 100.0 14.0 a86.0,86.0 0 0,1 42.46469731375804,11.215312516191453" fill="none" id="id157" stroke="none" /><text fill="#e1ed5e" style="font-size:6.75px; font-family:Arial;" text-anchor="middle"><textPath startOffset="22.20632615414155" xlink:href="#id157">January</textPath></text><path d="M 100.0 79.0 l 0.0 -41.597226618636476 a62.597226618636476,62.597226618636476 0 0,0 1.077508356154085,0.009274454602946862 l -0.7160278768815566 41.59106354064209" fill="#35ff2f" stroke="none" /><path d="M 100.72285384407766 79.0124445844662 l 0.3390026367338468 -9.842704279371992 a30.84854051719747,30.84854051719747 0 0,0 0.5305349150092866,0.02284594945013873 l -0.5083783841324649 9.835410603397658" fill="#ff1402" stroke="none" /><path d="M 101.44485096284872 79.0497635885617 l 3.3620470373236837 -48.74944341624933 a69.86523911407036,69.86523911407036 0 0,0 1.1990532190122312,0.09306960696935007 l -4.200690445698256 48.68434854709152" fill="#39ff8a" stroke="none" /><path d="M 102.16513564639614 79.11191278185805 l 2.0307679848100113 -19.591778860196612 a40.69674636875279,40.69674636875279 0 0,0 0.6961726835464611,0.07822311257254737 l -2.3677073718661976 19.553919794153465" fill="#ffae10" stroke="none" /><path d="M 103.2404852339499 79.25152402106235 l 3.0763329731925326 -19.69742683249204 a40.93620947881841,40.93620947881841 0 0,0 0.6952738253559746,0.11472613851975348 l -3.4149360046873825 19.641554431032663" fill="#ffb110" stroke="none" /><path d="M 103.59715602781102 79.31037775812273 l 5.200844426023328 -29.91349434977816 a51.3622450908675,51.3622450908675 0 0,0 0.8697459497819554,0.15894051304644846 l -5.7149854969081835 29.819538355380974" fill="#bcff1f" stroke="none" /><path d="M 103.95276090670814 79.375362276772 l 11.858282720124386 -61.87391316968404 a84.0,84.0 0 0,0 1.4177343621314986,0.2843841756911667 l -12.921583491723009 61.66062503791566" fill="#4dd2ff" stroke="none" /><path d="M 104.66035177308747 79.52364482259891 l 2.186931125972205 -9.60879793291948 a30.854525126327687,30.854525126327687 0 0,0 0.5168519566410349,0.1223221593199553 l -2.352006769575764 9.569729861458656" fill="#ff1402" stroke="none" /><path d="M 105.01212808612495 79.60689891045804 l 5.63881148320478 -22.94291977896559 a44.62570132138245,44.62570132138245 0 0,0 0.7443803099560574,0.18975911532678322 l -6.032900681845862 22.842457667469937" fill="#ffe715" stroke="none" /><path d="M 105.71112130821622 79.79150937346287 l 6.4254163548764405 -22.73598461169352 a44.62648876995222,44.62648876995222 0 0,0 0.7374203881823354,0.21527323270889867 l -6.815826960782203 22.62201305006592" fill="#ffe715" stroke="none" /><path d="M 106.40334571778207 80.00007090966166 l 16.80932950927562 -52.50152233824553 a76.12679390627301,76.12679390627301 0 0,0 1.2445540969349895,0.4103099183969387 l -17.710566428453028 52.204398695589354" fill="#42ffd6" stroke="none" /><path d="M 107.08798089147638 80.2323363322302 l 3.555630586608724 -9.916295012510401 a31.53448696632001,31.53448696632001 0 0,0 0.5093835869842893,0.1876102739512413 l -3.7257964993655897 9.853621470752836" fill="#ff1f03" stroke="none" /><path d="M 107.4271985657038 80.35727306442388 l 8.524555828628651 -22.544909888639715 a45.10271797873202,45.10271797873202 0 0,0 0.7238273934811847,0.2808337833374391 l -8.911366387109505 22.39483340141173" fill="#ffed16" stroke="none" /><path d="M 108.43124777332544 80.76684994638697 l 23.714283825271178 -54.096426945061175 a80.0659856903096,80.0659856903096 0 0,0 1.2574854182498574,0.5641970523485788 l -24.641951361987815 53.68020956219606" fill="#47fcff" stroke="none" /><path d="M 108.76106565485865 80.91482961587045 l 4.699752890583422 -10.237976544593895 a32.26516049420522,32.26516049420522 0 0,0 0.5027554061723514,0.23605040441191955 l -4.875286508055372 10.155561157541971" fill="#ff2b04" stroke="none" /><path d="M 109.08828744355905 81.06846463323043 l 8.524390357035026 -17.756898483523344 a40.69702197575221,40.69702197575221 0 0,0 0.6289215703923561,0.30860908321513736 l -8.828783194437815 17.607534240173376" fill="#ffae10" stroke="none" /><path d="M 109.73455568895987 81.39251694778311 l 12.775806426486428 -24.420796300837722 a48.560778686642024,48.560778686642024 0 0,0 0.7373259442227725,0.3938539841893022 l -13.194277417237512 24.197263590146665" fill="#e1ff1b" stroke="none" /><path d="M 110.05341064243156 81.56283822128135 l 9.42647377622121 -17.28740903922771 a40.69042709398042,40.69042709398042 0 0,0 0.6120536059218575,0.34060716903913485 l -9.722651471215102 17.122586472628395" fill="#ffae10" stroke="none" /><path d="M 110.36928655335952 81.73862282372117 l 9.720687915818774 -17.119128450177733 a40.68645047870311,40.68645047870311 0 0,0 0.606040697815521,0.35105788939507776 l -10.013925346099622 16.949266403392606" fill="#ffae10" stroke="none" /><line stroke="#e1ed5e" stroke-width="0.3" x1="143.23703022742887" x2="145.7803849466894" y1="26.81831364943548" y2="22.513508569990506" /><path d="M 143.74570117128098 25.957352633546492 a86.0,86.0 0 0,1 28.547481713284135,27.462654790039103" fill="none" id="id158" stroke="none" /><text fill="#e1ed5e" style="font-size:6.75px; font-family:Arial;" text-anchor="middle"><textPath startOffset="19.985693538727396" xlink:href="#id158">February</textPath></text><path d="M 110.99172775467656 82.1063720568725 l 28.98206693320787 -47.180419157033604 a76.37104076639994,76.37104076639994 0 0,0 1.1142202002010502,0.69772458714714 l -29.789906285781182 46.67455022856352" fill="#42ffd9" stroke="none" /><path d="M 111.60114157652 82.49532879139004 l 16.318716834447027 -24.62290205229019 a50.539597570033706,50.539597570033706 0 0,0 0.7210202942173639,0.4868361212208046 l -16.740141823070932 24.338354018770715" fill="#c7ff1e" stroke="none" /><path d="M 111.90073688211348 82.69761687909136 l 13.616212755139335 -19.79649933268539 a45.02712291603454,45.02712291603454 0 0,0 0.634815665217963,0.4447289418817573 l -13.95495955994095 19.559185548039697" fill="#ffec16" stroke="none" /><path d="M 112.19680574252982 82.90503203632743 l 11.434513244330754 -16.026543483464526 a40.68751353427229,40.68751353427229 0 0,0 0.5666311380484068,0.41168161948424165 l -11.708689698732949 15.827342629163608" fill="#ffae10" stroke="none" /><path d="M 112.48926042617603 83.11751280151076 l 16.39310923633441 -22.159555280455386 a48.564105656849286,48.564105656849286 0 0,0 0.6677653475095001,0.5029470155166644 l -16.772120737602293 21.874091675432876" fill="#e1ff1b" stroke="none" /><path d="M 113.06298171725822 83.55741782278167 l 39.18745117081637 -49.32586603413843 a83.99759828186221,83.99759828186221 0 0,0 1.1243542574179335,0.9091496159011572 l -40.030708826798794 48.644010320973145" fill="#4dd2ff" stroke="none" /><path d="M 113.6212207817346 84.01681056812373 l 6.390787091452797 -7.49897254719278 a30.852753367045715,30.852753367045715 0 0,0 0.40124182254105295,0.3479529546050253 l -6.518922712640614 7.387854599168084" fill="#ff1402" stroke="none" /><path d="M 113.89432698308785 84.25364557470407 l 16.002796678591448 -18.13587002837678 a45.18675842734021,45.18675842734021 0 0,0 0.5787972153861342,0.5196498547954744 l -16.31260488157357 17.857721164812006" fill="#ffef16" stroke="none" /><path d="M 114.42810811169701 84.74124197986012 l 17.77721235524031 -18.800675701989032 a46.87459537798938,46.87459537798938 0 0,0 0.581505597374006,0.5594079239475127 l -18.098201196226732 18.491884691279218" fill="#f8ff18" stroke="none" /><path d="M 114.94478906791727 85.2469230424477 l 42.033284875811184 -41.494080895581526 a80.06399738267095,80.06399738267095 0 0,0 0.9597604443809057,0.9891175032593704 l -42.7413095838952 40.76439919677204" fill="#47fcff" stroke="none" /><path d="M 115.68641384162765 86.03803664274999 l 14.725713151617732 -13.106875128249703 a40.713873375145184,40.713873375145184 0 0,0 0.4614396727878937,0.5275053139095234 l -14.949144687983475 12.851454258137231" fill="#ffae10" stroke="none" /><path d="M 116.60985879189232 87.15038557335679 l 38.929180886248844 -30.116147921589693 a70.21852791489556,70.21852791489556 0 0,0 0.7313562617634463,0.9623791118633127 l -39.4418130882364 29.441584033845345" fill="#39ff8e" stroke="none" /><path d="M 116.82858285166822 87.43820079747576 l 15.7843796369911 -11.782347288775972 a40.696962917109474,40.696962917109474 0 0,0 0.4142125015491812,0.5649853866117113 l -15.984854751053907 11.508899458492765" fill="#ffae10" stroke="none" /><path d="M 117.2510076193507 88.02491185347247 l 16.219453955182455 -11.259017159321445 a40.74426888993813,40.74426888993813 0 0,0 0.39497791953361705,0.5795813592002095 l -16.410856340384807 10.978157776850828" fill="#ffae10" stroke="none" /><line stroke="#e1ed5e" stroke-width="0.3" x1="172.23445277983987" x2="176.4835382374775" y1="55.19839476539836" y2="52.563006222186495" /><path d="M 173.08426987136738 54.67131705675599 a86.0,86.0 0 0,1 12.851231095245387,41.99856678651699" fill="none" id="id159" stroke="none" /><text fill="#e1ed5e" style="font-size:6.75px; font-family:Arial;" text-anchor="middle"><textPath startOffset="22.20632615414155" xlink:href="#id159">March</textPath></text><path d="M 117.84615892207809 88.93136811851018 l 41.889633114030474 -25.980992919224693 a70.29252839423924,70.29252839423924 0 0,0 0.6288978849425989,1.0337427652808266 l -42.3306467972593 25.256082380736785" fill="#3aff8f" stroke="none" /><path d="M 118.3937258080291 89.86733742301442 l 17.251630501000644 -9.503509652903912 a40.69607703746849,40.69607703746849 0 0,0 0.3327231819483215,0.6164855242564754 l -17.41266178216743 9.205143145314977" fill="#ffae10" stroke="none" /><path d="M 118.56541770881063 90.18545643968196 l 19.15554478663379 -10.126512189425158 a42.667513590518624,42.667513590518624 0 0,0 0.3376637271074633,0.6522588445659017 l -19.327017946901368 9.795280622598911" fill="#ffcb12" stroke="none" /><path d="M 118.73160827565052 90.50648371742162 l 14.050176834618522 -7.120882552618103 a36.751648720442944,36.751648720442944 0 0,0 0.28113258925680235,0.566746144998585 l -14.170669436828732 6.877976819120568" fill="#ff720a" stroke="none" /><path d="M 118.89224826269711 90.83032412892265 l 21.25517176991919 -10.316561216224848 a44.626547828594944,44.626547828594944 0 0,0 0.32947526561679114,0.6939589360575169 l -21.42960522937774 9.949159864526791" fill="#ffe715" stroke="none" /><path d="M 119.196687751892 91.48605970444005 l 53.99255698174862 -23.946287635059306 a80.06454859666978,80.06454859666978 0 0,0 0.5479056878854098,1.2646418694191848 l -54.39675337947671 23.01334662105352" fill="#47fcff" stroke="none" /><path d="M 119.47837535516314 92.15188598940014 l 9.130878180003942 -3.6789604711346957 a30.844170177635274,30.844170177635274 0 0,0 0.19418086885856575,0.49416913092519804 l -9.192852598744206 3.5212423353137132" fill="#ff1402" stroke="none" /><path d="M 119.61058180528143 92.48833698450437 l 19.567759994063692 -7.4952604926753175 a41.954144244954,41.954144244954 0 0,0 0.25251482504300626,0.676614188642851 l -19.69387940760832 7.157323167003133" fill="#ffc011" stroke="none" /><path d="M 119.97218684219823 93.5106431181261 l 8.23727756605948 -2.676453724550181 a29.661186191276883,29.661186191276883 0 0,0 0.1535948258681699,0.4869375715732238 l -8.282127875695858 2.534265986550538" fill="#ff0000" stroke="none" /><path d="M 120.08093135843002 93.85539295169968 l 39.72137233000392 -12.154427502917645 a62.539349148758724,62.539349148758724 0 0,0 0.30612744242688944,1.032109551759914 l -39.92470566954251 11.468888564411202" fill="#35ff2f" stroke="none" /><line stroke="#e1ed5e" stroke-width="0.3" x1="184.98032266829074" x2="189.97916517819016" y1="98.17113171792111" y2="98.06355123074" /><path d="M 185.9800911702706 98.14961562048488 a86.0,86.0 0 0,1 -9.607161424134198,41.387399972396054" fill="none" id="id160" stroke="none" /><text fill="#e1ed5e" style="font-size:6.75px; font-family:Arial;" text-anchor="middle"><textPath startOffset="21.466115282336823" xlink:href="#id160">April</textPath></text><line stroke="#e1ed5e" stroke-width="0.3" x1="174.80103733775053" x2="179.2010983576182" y1="140.37084112569926" y2="142.7455964860345" /><path d="M 175.68104954172406 140.8457921977663 a86.0,86.0 0 0,1 -30.038265399797805,32.042727171017184" fill="none" id="id161" stroke="none" /><text fill="#e1ed5e" style="font-size:6.75px; font-family:Arial;" text-anchor="middle"><textPath startOffset="22.206326154141568" xlink:href="#id161">May</textPath></text><line stroke="#e1ed5e" stroke-width="0.3" x1="143.8653032363475" x2="146.44561519142675" y1="172.8068346515853" y2="177.08958963109032" /><path d="M 144.38136562736335 173.6633856474863 a86.0,86.0 0 0,1 -40.68145358897372,12.25698825130547" fill="none" id="id162" stroke="none" /><text fill="#e1ed5e" style="font-size:6.75px; font-family:Arial;" text-anchor="middle"><textPath startOffset="21.466115282336833" xlink:href="#id162">June</textPath></text><line stroke="#e1ed5e" stroke-width="0.3" x1="102.19456741930631" x2="102.32365962044197" y1="184.97166512339345" y2="189.96999836594603" /><path d="M 102.22038585953345 185.97133177190398 a86.0,86.0 0 0,1 -42.740103519485714,-10.115201625700543" fill="none" id="id163" stroke="none" /><text fill="#e1ed5e" style="font-size:6.75px; font-family:Arial;" text-anchor="middle"><textPath startOffset="22.20632615414155" xlink:href="#id163">July</textPath></text><line stroke="#e1ed5e" stroke-width="0.3" x1="58.666819895761336" x2="56.23545636021788" y1="174.27360380694188" y2="178.64263932499728" /><path d="M 58.180547188652646 175.14741091055294 a86.0,86.0 0 0,1 -31.652253787137756,-30.449443065178592" fill="none" id="id164" stroke="none" /><text fill="#e1ed5e" style="font-size:6.75px; font-family:Arial;" text-anchor="middle"><textPath startOffset="22.20632615414155" xlink:href="#id164">August</textPath></text><line stroke="#e1ed5e" stroke-width="0.3" x1="26.63291911575756" x2="22.317208475507996" y1="142.92168965132927" y2="145.44649492493687" /><path d="M 25.769776987707644 143.4266507060508 a86.0,86.0 0 0,1 -11.730757126820373,-40.83630448921669" fill="none" id="id165" stroke="none" /><text fill="#e1ed5e" style="font-size:6.75px; font-family:Arial;" text-anchor="middle"><textPath startOffset="21.46611528233685" xlink:href="#id165">September</textPath></text><line stroke="#e1ed5e" stroke-width="0.3" x1="15.007084014347285" x2="10.007500721073583" y1="101.09737516637583" y2="101.16192664675087" /><path d="M 14.007167355692545 101.11028546245083 a86.0,86.0 0 0,1 10.666146001902534,-42.60595125391555" fill="none" id="id166" stroke="none" /><text fill="#e1ed5e" style="font-size:6.75px; font-family:Arial;" text-anchor="middle"><textPath startOffset="22.20632615414155" xlink:href="#id166">October</textPath></text><line stroke="#e1ed5e" stroke-width="0.3" x1="26.266209847984243" x2="21.928928074336255" y1="57.711370442889674" y2="55.22380399835377" /><path d="M 25.398753493254645 57.213857153982495 a86.0,86.0 0 0,1 29.58750427330803,-30.492523968695096" fill="none" id="id167" stroke="none" /><text fill="#e1ed5e" style="font-size:6.75px; font-family:Arial;" text-anchor="middle"><textPath startOffset="21.46611528233685" xlink:href="#id167">November</textPath></text><line stroke="#e1ed5e" stroke-width="0.3" x1="56.762969772571076" x2="54.21961505331055" y1="26.818313649435495" y2="22.513508569990535" /><path d="M 56.25429882871897 25.957352633546506 a86.0,86.0 0 0,1 42.265352541879196,-11.944610805530505" fill="none" id="id168" stroke="none" /><text fill="#e1ed5e" style="font-size:6.75px; font-family:Arial;" text-anchor="middle"><textPath startOffset="22.20632615414155" xlink:href="#id168">December</textPath></text></svg>