<?xml version="1.0" encoding="utf-8" ?>
<svg baseProfile="full" height="200mm" version="1.1" viewBox="0,0,200,200" width="200mm" xmlns="http://www.w3.org/2000/svg" xmlns:ev="http://www.w3.org/2001/xml-events" xmlns:xlink="http://www.w3.org/1999/xlink"><defs /><rect fill="#1a1a1a" height="200" width="200" x="0" y="0" /><text alignment-baseline="middle" fill="#e1ed5e" style="dominant-baseline: central; font-size:9.0px; font-family:Arial;" text-anchor="middle" x="100.0" y="100.0">2020</text><line stroke="#e1ed5e" stroke-width="0.3" x1="100.0" x2="100.0" y1="15.0" y2="10.0" /><path d="M 100.0 14.0 a86.0,86.0 0 0,1 42.35913384403234,11.155469271406648" fill="none" id="id97" stroke="none" /><text fill="#e1ed5e" style="font-size:6.75px; font-family:Arial;" text-anchor="middle"><textPath startOffset="22.145653131862478" xlink:href="#id97">January</textPath></text><path d="M 102.87502721639298 79.19773525538626 l 1.3592948913888927 -9.83518070209729 a30.928668694475753,30.928668694475753 0 0,0 0.5253085542998633,0.07720226748851784 l -1.5279285512964382 9.810397361309889" fill="#ff5e08" stroke="none" /><path d="M 103.94208987418118 79.37332000966035 l 1.9995826076342607 -10.46266114632607 a31.652023698227232,31.652023698227232 0 0,0 0.5328143627324173,0.10657779488300609 l -2.1788934558976347 10.426793954780205" fill="#ff6909" stroke="none" /><path d="M 104.64783097203109 79.52079915486377 l 1.4747176397561454 -6.497878024431176 a27.66312321193249,27.66312321193249 0 0,0 0.4621952601047118,0.10907682289226515 l -1.5860450536007422 6.471605057892684" fill="#ff2f04" stroke="none" /><path d="M 105.3480935250658 79.69241777938227 l 2.596575760092659 -9.8596210954437 a31.195799812845443,31.195799812845443 0 0,0 0.5166894946488416,0.14082601938266734 l -2.7654466556761936 9.81359458191689" fill="#ff6209" stroke="none" /><path d="M 106.04205211174951 79.88797359093562 l 3.1511414766953005 -10.48912512269664 a31.95223440425447,31.95223440425447 0 0,0 0.5239548198945903,0.16232254254512973 l -3.3307369294615206 10.433485992344863" fill="#ff6d0a" stroke="none" /><path d="M 107.40779381753099 80.34994680014964 l 5.7902764148950014 -15.35939611673049 a37.41457736378019,37.41457736378019 0 0,0 0.5990389855611787,0.2317211484381559 l -6.053087662949706 15.257735080154296" fill="#ffb811" stroke="none" /><path d="M 108.4095320186766 80.7573450057729 l 4.8790500819986855 -11.164221411958062 a33.183799466417454,33.183799466417454 0 0,0 0.5200163641297346,0.23259670533410876 l -5.069979848984052 11.0788209557141" fill="#ff7e0b" stroke="none" /><line stroke="#e1ed5e" stroke-width="0.3" x1="143.13028292997686" x2="145.6673583964461" y1="26.7553504044142" y2="22.446841604673864" /><path d="M 143.63769802327073 25.89364864446614 a86.0,86.0 0 0,1 29.32050498858742,28.57503671076993" fill="none" id="id98" stroke="none" /><text fill="#e1ed5e" style="font-size:6.75px; font-family:Arial;" text-anchor="middle"><textPath startOffset="20.669276256404974" xlink:href="#id98">February</textPath></text><path d="M 117.42321728460499 88.27688183743584 l 7.430220370127178 -4.9993838652209 a29.95555770348692,29.95555770348692 0 0,0 0.2834017730563277,0.4291064053706801 l -7.51494658210423 4.871097581511162" fill="#ff5007" stroke="none" /><line stroke="#e1ed5e" stroke-width="0.3" x1="172.87174338648825" x2="177.1583165268699" y1="56.24261187166439" y2="53.66864786411523" /><path d="M 173.72905801456457 55.72781907015455 a86.0,86.0 0 0,1 12.242430191666344,42.057860355516425" fill="none" id="id99" stroke="none" /><text fill="#e1ed5e" style="font-size:6.75px; font-family:Arial;" text-anchor="middle"><textPath startOffset="22.145653131862474" xlink:href="#id99">March</textPath></text><path d="M 118.36410011445183 89.81374322990088 l 10.989043663979016 -6.09543727824871 a33.56636129760327,33.56636129760327 0 0,0 0.27517167589876335,0.5062848904219514 l -11.092060689493122 5.905897554352155" fill="#ff840c" stroke="none" /><path d="M 119.58574465831526 92.42381321644754 l 10.892021390527548 -4.213267861125257 a32.678516859657336,32.678516859657336 0 0,0 0.19789069728575698,0.524928585379639 l -10.962742771627745 4.025670995551461" fill="#ff770b" stroke="none" /><path d="M 120.93736805541906 98.37931529534042 l 10.403733929401257 -0.8053148039475977 a31.434855610272336,31.434855610272336 0 0,0 0.0370273242450589,0.5383691681425461 l -10.41602521481138 0.6266022116507175" fill="#ff6509" stroke="none" /><line stroke="#e1ed5e" stroke-width="0.3" x1="184.99686870605535" x2="189.99668451229388" y1="99.2704041080226" y2="99.22748670261217" /><path d="M 185.99683186730306 99.26182062694052 a86.0,86.0 0 0,1 -10.086455211305974,41.156179273409016" fill="none" id="id100" stroke="none" /><text fill="#e1ed5e" style="font-size:6.75px; font-family:Arial;" text-anchor="middle"><textPath startOffset="21.40746469413373" xlink:href="#id100">April</textPath></text><path d="M 120.9064616781168 101.97986365728391 l 8.343687844385189 0.790155913762821 a29.38101862619309,29.38101862619309 0 0,0 -0.05186114604402783,0.5017095433368477 l -8.328894305859494 -0.9332699793826001" fill="#ff4806" stroke="none" /><path d="M 120.86939407059847 102.33845913500097 l 12.450339127762883 1.3950864681881177 a33.52825648883455,33.52825648883455 0 0,0 -0.06900101413325352,0.5714273809089353 l -12.424556027369967 -1.6086075260204615" fill="#ff830c" stroke="none" /><path d="M 120.51834098615036 104.47187691870673 l 12.231373614254716 2.665770950321182 a33.518499720456234,33.518499720456234 0 0,0 -0.12735296259880383,0.5611406514089081 l -12.183809790098248 -2.875345935669107" fill="#ff830c" stroke="none" /><path d="M 120.16314734710363 105.8691983318838 l 14.67159914315121 4.270688684394319 a36.28053020206855,36.28053020206855 0 0,0 -0.17919762403704795,0.5964906095507295 l -14.596125199110533 -4.521916897535772" fill="#ffa90f" stroke="none" /><line stroke="#e1ed5e" stroke-width="0.3" x1="174.33088141563837" x2="178.70328620479359" y1="141.23008692659167" y2="143.65538615756765" /><path d="M 175.20536237346943 141.71514677278685 a86.0,86.0 0 0,1 -30.301960400862466,31.631185727798858" fill="none" id="id101" stroke="none" /><text fill="#e1ed5e" style="font-size:6.75px; font-family:Arial;" text-anchor="middle"><textPath startOffset="22.145653131862474" xlink:href="#id101">May</textPath></text><path d="M 118.36410011445183 110.18625677009912 l 10.626446374431193 5.894310674034137 a33.15171843282647,33.15171843282647 0 0,0 -0.2803161469464639,0.4952917722799727 l -10.523696862463352 -6.075859216413233" fill="#ff7e0b" stroke="none" /><path d="M 118.18653347947321 110.5 l 11.269476103621747 6.506435062052067 a34.01287012410414,34.01287012410414 0 0,0 -0.2962784828400246,0.5031456365255327 l -11.156123910651957 -6.698931866871149" fill="#ff8a0c" stroke="none" /><path d="M 115.6541949942343 113.99807769240083 l 5.694385437012897 5.091954571100017 a28.638980747417218,28.638980747417218 0 0,0 -0.33085155118421694,0.3636638114125446 l -5.606136184986799 -5.188955958070234" fill="#ff3d05" stroke="none" /><line stroke="#e1ed5e" stroke-width="0.3" x1="143.1302829299769" x2="145.66735839644613" y1="173.24464959558577" y2="177.55315839532614" /><path d="M 143.63769802327073 174.10635135553383 a86.0,86.0 0 0,1 -40.68552437913181,11.842963189579606" fill="none" id="id102" stroke="none" /><text fill="#e1ed5e" style="font-size:6.75px; font-family:Arial;" text-anchor="middle"><textPath startOffset="21.407464694133747" xlink:href="#id102">June</textPath></text><path d="M 110.65571695917076 118.09573695890943 l 10.548113980294849 17.913003576520005 a41.78793894722875,41.78793894722875 0 0,0 -0.6212623472340297,0.3586859834129472 l -10.23905916520042 -18.091436457209124" fill="#fff216" stroke="none" /><path d="M 110.34350942703117 118.27599006163325 l 12.84698929406964 22.69939910788252 a47.08271177966121,47.08271177966121 0 0,0 -0.70681421551951,0.39205793059099703 l -12.455430890394036 -22.916589953906662" fill="#cbff1d" stroke="none" /><path d="M 110.02825361518725 118.45085714620011 l 11.925433843741724 21.94145508287786 a45.97285373191072,45.97285373191072 0 0,0 -0.6966226775096601,0.3709123383455431 l -11.54702235044551 -22.14293788894597" fill="#d8ff1c" stroke="none" /><path d="M 109.71004243097381 118.62028667847754 l 14.440323678082166 27.691224680769107 a52.23022369834415,52.23022369834415 0 0,0 -0.798557287302307,0.40774904084250047 l -13.962839169066276 -27.935031673284442" fill="#8eff24" stroke="none" /><path d="M 109.3889696526874 118.78422872680471 l 9.296703030580428 18.59963367563093 a41.793630277237966,41.793630277237966 0 0,0 -0.6444970862578082,0.3152558210495431 l -8.976045695060549 -18.756483246777698" fill="#fff216" stroke="none" /><path d="M 109.06512990194946 118.94263497670748 l 27.19538970584838 56.82790493012245 a84.0,84.0 0 0,0 -1.3060451445139751,0.6112950737178657 l -26.2158558474629 -57.28637623541085" fill="#4dd2ff" stroke="none" /><path d="M 108.73861861582097 119.09545874513695 l 8.766487640965295 19.15635759463557 a42.06697277381706,42.06697277381706 0 0,0 -0.6592227105857353,0.2948619334706344 l -8.436351527523932 -19.304023279016054" fill="#fff517" stroke="none" /><path d="M 107.74402155503746 119.51999308798841 l 3.461758225002236 8.725892114850103 a30.3874897181501,30.3874897181501 0 0,0 -0.4865293769730832,0.18820001485460686 l -3.3114565855356237 -8.784032017842751" fill="#ff5608" stroke="none" /><path d="M 106.72888874123015 119.89276391827305 l 7.325489443389371 21.65650788520923 a43.861914385443285,43.861914385443285 0 0,0 -0.71531944572648,0.23513970985984395 l -6.952647260015157 -21.779068516471092" fill="#f2ff19" stroke="none" /><path d="M 105.69591212413111 120.21278271476187 l 4.509339955366615 16.002056688808803 a37.62528090303789,37.62528090303789 0 0,0 -0.6231796425301528,0.16985038272837336 l -4.233978911901767 -16.07710756568132" fill="#ffbb11" stroke="none" /><path d="M 104.64783097203109 120.47920084513623 l 1.163105073863461 5.124855562730982 a26.255183912262407,26.255183912262407 0 0,0 -0.4403839301178787,0.09597962787502048 l -1.0749587271264465 -5.144066648739721" fill="#ff1a02" stroke="none" /><path d="M 102.51750503828377 120.84855314841334 l 2.5016573136276996 20.717311254256632 a41.867804746081354,41.867804746081354 0 0,0 -0.7142729199670769,0.08003577051305105 l -2.1456484920598236 -20.757202785276654" fill="#fff316" stroke="none" /><path d="M 101.80034050326958 120.92268563240118 l 0.8970556016294916 10.425145861903632 a31.463669289230296,31.463669289230296 0 0,0 -0.5385246800327422,0.041685216102644765 l -0.7179619268215136 -10.439008845001329" fill="#ff6609" stroke="none" /><path d="M 101.44090949804482 120.95050786540614 l 0.715497000264141 10.40316935383415 a31.42774513315036,31.42774513315036 0 0,0 -0.5385453136145518,0.032397548741065485 l -0.536807334517124 -10.413918880399907" fill="#ff6509" stroke="none" /><line stroke="#e1ed5e" stroke-width="0.3" x1="101.45913802915013" x2="101.54496967792366" y1="184.9874750549273" y2="189.98673829345242" /><path d="M 101.47630435890484 185.9873277026323 a86.0,86.0 0 0,1 -42.54439059252881,-10.42667462771756" fill="none" id="id103" stroke="none" /><text fill="#e1ed5e" style="font-size:6.75px; font-family:Arial;" text-anchor="middle"><textPath startOffset="22.145653131862474" xlink:href="#id103">July</textPath></text><path d="M 96.41257539226777 120.69131181640829 l -3.559319753214214 20.52921048412284 a41.83548032100628,41.83548032100628 0 0,0 -0.7065519892890094,-0.12875730893357334 l 3.911206476054281 -20.4650850012579" fill="#fff216" stroke="none" /><path d="M 94.30408787586889 120.21278271476187 l -2.8362146338123835 10.06472517067189 a31.456711060855024,31.456711060855024 0 0,0 -0.5184964560533205,-0.15092676170880653 l 3.008571102247311 -10.014554714660568" fill="#ff6609" stroke="none" /><path d="M 93.27111125876986 119.89276391827306 l -3.3420038639511644 9.880040588601428 a31.42996605263297,31.42996605263297 0 0,0 -0.5096058107496398,-0.1772673544566591 l 3.5111154467458263 -9.821214801576179" fill="#ff6509" stroke="none" /><path d="M 92.93061703081489 119.77432235084164 l -3.5092879237114007 9.816102894392223 a31.42453729259971,31.42453729259971 0 0,0 -0.5064002059078784,-0.18595716998310458 l 3.677277281273398 -9.7544148754004" fill="#ff6509" stroke="none" /><line stroke="#e1ed5e" stroke-width="0.3" x1="58.13341422392154" x2="55.67067388415222" y1="173.97424548756322" y2="178.32567169271397" /><path d="M 57.64086615596768 174.84453072859336 a86.0,86.0 0 0,1 -31.369924170532247,-30.572349798747897" fill="none" id="id104" stroke="none" /><text fill="#e1ed5e" style="font-size:6.75px; font-family:Arial;" text-anchor="middle"><textPath startOffset="22.145653131862474" xlink:href="#id104">August</textPath></text><path d="M 89.03521579738668 117.91015095944536 l -5.462049244972756 8.921846952726249 a31.461038906455617,31.461038906455617 0 0,0 -0.4581863925303144,-0.28594219625798656 l 5.614399766292783 -8.826768959626715" fill="#ff6609" stroke="none" /><path d="M 88.72937992617639 117.7192867562869 l -5.616951184833765 8.830780213352496 a31.465792840933904,31.465792840933904 0 0,0 -0.4532787822289063,-0.29380983028189633 l 5.767715599319681 -8.733056541366704" fill="#ff6609" stroke="none" /><path d="M 88.1277618465304 117.32195027204791 l -5.89313316008949 8.598257398988773 a31.423965116106803,31.423965116106803 0 0,0 -0.4423370639574061,-0.3087856242698771 l 6.039865315220661 -8.495826958913767" fill="#ff6509" stroke="none" /><path d="M 87.83215693770417 117.11559508785305 l -6.070978101177391 8.53959098872284 a31.47766144517238,31.47766144517238 0 0,0 -0.43771785195285645,-0.31687396897567816 l 6.216676963504201 -8.434116248374096" fill="#ff6609" stroke="none" /><path d="M 87.2517909369889 116.68781488649013 l -6.347277722922208 8.30879028965734 a31.45580846082256,31.45580846082256 0 0,0 -0.4262862034004355,-0.33148273013322804 l 6.488973870957873 -8.198606507903317" fill="#ff6609" stroke="none" /><path d="M 86.68645165197938 116.24036423190432 l -6.628265472117185 8.085406135092642 a31.455032067777438,31.455032067777438 0 0,0 -0.41464572362483365,-0.3459122100340291 l 6.766085529903911 -7.970431741146742" fill="#ff6609" stroke="none" /><path d="M 86.40962598614128 116.0094264158162 l -6.77859463925671 7.98516744051063 a31.474361285364893,31.474361285364893 0 0,0 -0.408897696190708,-0.3531960911343534 l 6.91467181521028 -7.867627216911554" fill="#ff6609" stroke="none" /><path d="M 84.3458050057657 113.99807769240083 l -7.760545441481027 6.939527587670249 a31.41072085349177,31.41072085349177 0 0,0 -0.35597162077219796,-0.40503035962962525 l 7.878528126211817 -6.805284950229324" fill="#ff6509" stroke="none" /><path d="M 83.8745106332314 113.45245675266167 l -8.016658813724414 6.68778190475981 a31.439983014416168,31.439983014416168 0 0,0 -0.3421765771918221,-0.41739978704082353 l 8.130282210154867 -6.549179836020492" fill="#ff6509" stroke="none" /><path d="M 83.64595745247003 113.17365903436017 l -8.115477389619533 6.537254120575485 a31.420972348989658,31.420972348989658 0 0,0 -0.3347583950643929,-0.4229562964698889 l 8.226502215325487 -6.396977880190915" fill="#ff6509" stroke="none" /><path d="M 81.99639281039703 110.81064883170644 l -8.941212630974304 5.368941282994795 a31.429324705489815,31.429324705489815 0 0,0 -0.2737737981667624,-0.4649277619563238 l 9.032060139270836 -5.214662352744912" fill="#ff6509" stroke="none" /><line stroke="#e1ed5e" stroke-width="0.3" x1="26.387840678322732" x2="22.057713659400548" y1="142.50000000000003" y2="145.00000000000006" /><path d="M 25.521815274538298 143.00000000000003 a86.0,86.0 0 0,1 -11.493303480769221,-40.785679425670985" fill="none" id="id105" stroke="none" /><text fill="#e1ed5e" style="font-size:6.75px; font-family:Arial;" text-anchor="middle"><textPath startOffset="21.40746469413373" xlink:href="#id105">September</textPath></text><path d="M 81.81346652052679 110.50000000000001 l -9.04248186066347 5.220679336396368 a31.441358672792727,31.441358672792727 0 0,0 -0.265854107556367,-0.4697387344035232 l 9.130769333241215 -5.064683831893723" fill="#ff6609" stroke="none" /><path d="M 81.63589988554817 110.18625677009913 l -9.162544692637326 5.082309088113943 a31.477694923584195,31.477694923584195 0 0,0 -0.258049122118331,-0.47478132001937257 l 9.248439164370987 -4.924272934619983" fill="#ff6609" stroke="none" /><path d="M 80.41425534168474 107.57618678355246 l -5.854531431605623 2.2646585274046123 a27.277277796099565,27.277277796099565 0 0,0 -0.16518251260636432,-0.4381662395514443 l 5.892544628026423 -2.1638240076590227" fill="#ff2904" stroke="none" /><path d="M 79.94057633289273 106.21446072829308 l -10.027609622316199 3.106579093731478 a31.497799217130126,31.497799217130126 0 0,0 -0.15557464983750138,-0.5178574113964086 l 10.079460592157329 -2.933984078744346" fill="#ff6609" stroke="none" /><path d="M 79.56144815229197 104.8234425847677 l -20.283646015400862 4.786885230129926 a41.84083889589196,41.84083889589196 0 0,0 -0.1589735470098905,-0.7004667807135312 l 20.362830423968422 -4.437984115477368" fill="#fff216" stroke="none" /><path d="M 79.34024301695615 103.76489593502545 l -8.756949833007033 1.5958079689208724 a29.901166971328717,29.901166971328717 0 0,0 -0.08768899167259306,-0.5057668015247915 l 8.78305364217186 -1.4452481344754882" fill="#ff4f07" stroke="none" /><path d="M 79.2786578344484 103.40968896794605 l -10.304997453650458 1.6956834094867481 a31.443577679365966,31.443577679365966 0 0,0 -0.08306870340408097,-0.533360665321268 l 10.332587649192806 -1.51853456223403" fill="#ff6609" stroke="none" /><path d="M 79.06263194458094 101.62068470465958 l -16.64682574889226 1.2885695948483853 a37.69662298534497,37.69662298534497 0 0,0 -0.04440310143387408,-0.6456113497073261 l 16.6664928114912 -1.0026148209867158" fill="#ffbc11" stroke="none" /><path d="M 79.00696218219943 100.54070618675478 l -10.462399647684244 0.26947430223781094 a31.465869423389055,31.465869423389055 0 0,0 -0.00927279453495649,-0.5400937940655086 l 10.465483873817867 -0.08983359220324995" fill="#ff6609" stroke="none" /><line stroke="#e1ed5e" stroke-width="0.3" x1="15.003131293944662" x2="10.003315487706104" y1="100.72959589197737" y2="100.7725132973878" /><path d="M 14.003168132696942 100.73817937305945 a86.0,86.0 0 0,1 10.791469493833604,-42.45332614584628" fill="none" id="id106" stroke="none" /><text fill="#e1ed5e" style="font-size:6.75px; font-family:Arial;" text-anchor="middle"><textPath startOffset="22.145653131862435" xlink:href="#id106">October</textPath></text><path d="M 79.00696218219943 99.45929381324524 l -10.531363114107561 -0.271250556502615 a31.534855761024367,31.534855761024367 0 0,0 0.018583510026278567,-0.5410386180271698 l 10.525154917084432 0.4519954390939233" fill="#ff6709" stroke="none" /><path d="M 79.0935383218832 98.0201363427161 l -10.873776264402803 -1.0297579176614975 a31.922427002149124,31.922427002149124 0 0,0 0.05634704738801921,-0.54510656955831 l 10.85449682453312 1.2162690095027202" fill="#ff6c0a" stroke="none" /><path d="M 79.2786578344484 96.59031103205396 l -20.613759683983123 -3.39198631154388 a41.89097076362678,41.89097076362678 0 0,0 0.1228506228526396,-0.7085697463314282 l 20.552494243638247 3.745349090795901" fill="#fff316" stroke="none" /><path d="M 79.64726062577567 94.8264132398404 l -10.109782960418713 -2.569867294539692 a31.43129567303685,31.43129567303685 0 0,0 0.1374154083200807,-0.5217886878306659 l 10.064178071293906 2.7430364867431427" fill="#ff6509" stroke="none" /><path d="M 79.73907114497095 94.47779374421319 l -18.073085143591523 -4.925899723325675 a39.73234888346276,39.73234888346276 0 0,0 0.1850042374877993,-0.6565147727277401 l 17.985862414029143 5.2354224199564285" fill="#ffd714" stroke="none" /><path d="M 80.28708602549916 92.7611449362534 l -9.895996001484425 -3.633946805572442 a31.542120576389074,31.542120576389074 0 0,0 0.19100904308295275,-0.5066741800169988 l 9.832156274587037 3.8032892657835857" fill="#ff6709" stroke="none" /><path d="M 80.5471966667186 92.08871423366112 l -9.705282657361435 -3.9470539659502735 a31.47720127082631,31.47720127082631 0 0,0 0.20786068107557729,-0.49878996555738725 l 9.63609613174938 4.113076440948924" fill="#ff6609" stroke="none" /><path d="M 80.9802524753101 91.09779779509293 l -11.356797582867989 -5.315554707109029 a33.53921740709942,33.53921740709942 0 0,0 0.24854275715889923,-0.5193587710147493 l 11.263875567749183 5.509725980188865" fill="#ff830c" stroke="none" /><line stroke="#e1ed5e" stroke-width="0.3" x1="26.387840678322718" x2="22.05771365940052" y1="57.49999999999999" y2="54.99999999999999" /><path d="M 25.521815274538284 56.99999999999999 a86.0,86.0 0 0,1 29.574782752854787,-30.34633250058573" fill="none" id="id107" stroke="none" /><text fill="#e1ed5e" style="font-size:6.75px; font-family:Arial;" text-anchor="middle"><textPath startOffset="21.40746469413373" xlink:href="#id107">November</textPath></text><path d="M 83.64595745247003 86.82634096563983 l -6.7794732877440165 -5.461063786872766 a29.70542794717915,29.70542794717915 0 0,0 0.3232985734859758,-0.3943716920401605 l 6.68472789501941 5.57663776061142" fill="#ff4d07" stroke="none" /><path d="M 86.40962598614128 83.9905735841838 l -12.16593050887003 -14.331435548651767 a39.7989337472053,39.7989337472053 0 0,0 0.5246364921055322,-0.4376704210578712 l 11.918119682602589 14.53816815362152" fill="#ffd814" stroke="none" /><path d="M 88.72937992617638 82.28071324371311 l -1.9137859161742545 -3.0087893316175256 a24.565864520001057,24.565864520001057 0 0,0 0.35776774178613124,-0.22327353126232305 l 1.8618540455984247 3.0411986597213847" fill="#ff0000" stroke="none" /><line stroke="#e1ed5e" stroke-width="0.3" x1="56.869717070023135" x2="54.33264160355391" y1="26.7553504044142" y2="22.446841604673864" /><path d="M 56.362301976729285 25.89364864446614 a86.0,86.0 0 0,1 42.16139366436587,-11.88097634709845" fill="none" id="id108" stroke="none" /><text fill="#e1ed5e" style="font-size:6.75px; font-family:Arial;" text-anchor="middle"><textPath startOffset="22.145653131862474" xlink:href="#id108">December</textPath></text><path d="M 89.34428304082924 81.90426304109057 l -8.475764844313069 -14.393701684827517 a37.70380908319716,37.70380908319716 0 0,0 0.5605434850536967,-0.32362993198824097 l 8.227428891398972 14.537078514091933" fill="#ffbc11" stroke="none" /><path d="M 90.61103034731259 81.2157712731953 l -4.675238397405656 -9.35360861285464 a31.456952144628218,31.456952144628218 0 0,0 0.48509578769009176,-0.2372846582191406 l 4.513982360453512 9.432487021170994" fill="#ff6609" stroke="none" /><path d="M 94.30408787586887 79.78721728523814 l -5.7759456453532 -20.496793447214266 a42.2950719584565,42.2950719584565 0 0,0 0.7005244131408257,-0.19093104389522517 l 5.423239831277697 20.59292498525363" fill="#fff817" stroke="none" /><path d="M 95.00130118170881 79.60360301121753 l -5.4595648284474425 -22.276887581131586 a43.93614109693248,43.93614109693248 0 0,0 0.7340847237933479,-0.1732419960061559 l 5.076347950914189 22.367325720783974" fill="#f1ff19" stroke="none" /><path d="M 96.05791012581881 79.37332000966035 l -1.9673592886191522 -10.294055124960442 a31.480366095048417,31.480366095048417 0 0,0 0.5316663061433905,-0.09688731171582098 l 1.7903582489247232 10.326310610607624" fill="#ff6609" stroke="none" /><path d="M 98.5590905019552 79.04949213459386 l -0.6002427936641849 -8.72739848469219 a29.74801553050481,29.74801553050481 0 0,0 0.5097614953096544,-0.03066598570836729 l 0.4503369462220467 8.73641644822525" fill="#ff4d07" stroke="none" /><path d="M 98.9189461498227 79.02784411241856 l -0.25688153969494104 -4.983433243626775 a25.990049600867764,25.990049600867764 0 0,0 0.4457593498542622,-0.01914282446717824 l 0.17129642923985874 4.987108636519782" fill="#ff1602" stroke="none" /></svg>