<?xml version="1.0" encoding="utf-8" ?>
<svg baseProfile="full" height="200mm" version="1.1" viewBox="0,0,200,200" width="200mm" xmlns="http://www.w3.org/2000/svg" xmlns:ev="http://www.w3.org/2001/xml-events" xmlns:xlink="http://www.w3.org/1999/xlink"><defs /><rect fill="#1a1a1a" height="200" width="200" x="0" y="0" /><rect fill="#1a1a1a" height="200" width="180" x="10" y="0" /><text alignment-baseline="middle" fill="#e1ed5e" style="dominant-baseline: central; font-size:9.0px; font-family:Arial;" text-anchor="middle" x="100.0" y="100.0">2020</text><line stroke="#e1ed5e" stroke-width="0.3" x1="100.0" x2="100.0" y1="15.0" y2="10.0" /><path d="M 100.0 14.0 a86.0,86.0 0 0,1 42.35913384403234,11.155469271406648" fill="none" id="id97" stroke="none" /><text fill="#e1ed5e" style="font-size:6.75px; font-family:Arial;" text-anchor="middle"><textPath startOffset="22.145653131862478" xlink:href="#id97">January</textPath></text><path d="M 102.87502721639298 79.19773525538626 l 0.8843115347482776 -6.398437746140245 a27.45925788939574,27.45925788939574 0 0,0 0.4663822813234119,0.06854213459863429 l -0.9940189216793716 6.382314538242729" fill="#ff4906" stroke="none" /><path d="M 103.94208987418118 79.37332000966035 l 1.3008611860567352 -6.806655417063376 a27.929848323883224,27.929848323883224 0 0,0 0.470157121003811,0.09404459171888643 l -1.417514792591503 6.783321428681631" fill="#ff5007" stroke="none" /><path d="M 104.64783097203109 79.52079915486377 l 0.9594016924470368 -4.227300878413934 a25.334803839173055,25.334803839173055 0 0,0 0.4232937170701497,0.09989616465951859 l -1.0318275632570715 4.210208570108189" fill="#ff2b04" stroke="none" /><path d="M 105.3480935250658 79.69241777938227 l 1.6892448504323698 -6.41433784396812 a27.633044409716693,27.633044409716693 0 0,0 0.45768032354747995,0.12474280739686287 l -1.7991065749145425 6.384394542427115" fill="#ff4c07" stroke="none" /><path d="M 106.04205211174951 79.88797359093562 l 2.050026652140293 -6.823871989941016 a28.125155311260738,28.125155311260738 0 0,0 0.46119812777965985,0.14288035890825282 l -2.1668654127915827 6.787675043226116" fill="#ff5307" stroke="none" /><path d="M 107.40779381753099 80.34994680014964 l 3.766959072317745 -9.992306480983265 a31.678771907968496,31.678771907968496 0 0,0 0.507203895504757,0.19619736276190258 l -3.937935230316028 9.926169230083323" fill="#ff830c" stroke="none" /><path d="M 108.4095320186766 80.7573450057729 l 3.1741458703765306 -7.263066928023689 a28.926370115467726,28.926370115467726 0 0,0 0.45329908138275354,0.2027549133709611 l -3.298358354614916 7.207508263742876" fill="#ff5e08" stroke="none" /><line stroke="#e1ed5e" stroke-width="0.3" x1="143.13028292997686" x2="145.6673583964461" y1="26.7553504044142" y2="22.446841604673864" /><path d="M 143.63769802327073 25.89364864446614 a86.0,86.0 0 0,1 29.32050498858742,28.57503671076993" fill="none" id="id98" stroke="none" /><text fill="#e1ed5e" style="font-size:6.75px; font-family:Arial;" text-anchor="middle"><textPath startOffset="20.669276256404974" xlink:href="#id98">February</textPath></text><path d="M 115.8921839302757 86.27271002978787 l 1.1010625178504836 -0.9510715785934925 a22.454948733056792,22.454948733056792 0 0,0 0.24946960074243968,0.29387456239220733 l -1.1172266821000356 0.9320302337517331" fill="#ff0100" stroke="none" /><path d="M 116.35404254752997 86.82634096563983 l 2.0754657456712806 -1.6718482902013148 a23.665076878235205,23.665076878235205 0 0,0 0.2521272437671175,0.3185545361525228 l -2.1038594200799574 1.6359738101341137" fill="#ff1302" stroke="none" /><path d="M 116.57777611688842 87.10902102172516 l 6.493977328387999 -5.049756049025225 a29.22628577769361,29.22628577769361 0 0,0 0.30457689770124735,0.39870093614069835 l -6.579706203443553 4.937534199643645" fill="#ff6209" stroke="none" /><path d="M 116.7966241395341 87.39550010848427 l 2.1675622748228673 -1.6265791405996324 a23.70999740145062,23.70999740145062 0 0,0 0.24150097904014417,0.3276424596739209 l -2.195165273446837 1.5891303716568363" fill="#ff1402" stroke="none" /><path d="M 117.01052211995028 87.68569379921539 l 1.1312493075572294 -0.8189372592124763 a22.39656121612164,22.39656121612164 0 0,0 0.2227763563284416,0.3133628442233916 l -1.1451407624156318 0.7993971882795807" fill="#ff0000" stroke="none" /><path d="M 117.21940702142032 87.97951657250589 l 2.08446215720516 -1.4551164732185138 a23.542114559860014,23.542114559860014 0 0,0 0.22848212211280183,0.3333622444335256 l -2.1091340161332863 1.4191194937149394" fill="#ff1101" stroke="none" /><path d="M 117.42321728460499 88.27688183743584 l 7.159594034182998 -4.817294388728022 a29.62937494619276,29.62937494619276 0 0,0 0.2803158424696704,0.42443391314530243 l -7.241234315573393 4.69368059724366" fill="#ff6709" stroke="none" /><path d="M 117.62189284568427 88.57770195909679 l 3.756567195081267 -2.434961470294418 a25.47669905767398,25.47669905767398 0 0,0 0.23472812111577507,0.36903159369862804 l -3.797813007822932 2.370116201917118" fill="#ff2d04" stroke="none" /><path d="M 117.81537515405839 88.88188828441811 l 1.322339636354475 -0.8252377329018445 a22.558717238526302,22.558717238526302 0 0,0 0.2022034888134672,0.3302842027946675 l -1.3363110896233448 0.8024164139826223" fill="#ff0300" stroke="none" /><line stroke="#e1ed5e" stroke-width="0.3" x1="172.87174338648825" x2="177.1583165268699" y1="56.24261187166439" y2="53.66864786411523" /><path d="M 173.72905801456457 55.72781907015455 a86.0,86.0 0 0,1 12.242430191666344,42.057860355516425" fill="none" id="id99" stroke="none" /><text fill="#e1ed5e" style="font-size:6.75px; font-family:Arial;" text-anchor="middle"><textPath startOffset="22.145653131862474" xlink:href="#id99">March</textPath></text><path d="M 118.00360718960297 89.18935116829356 l 7.013408222533273 -4.211350126045585 a29.18067019137439,29.18067019137439 0 0,0 0.25418627304928565,0.43166386206483315 l -7.084668205712326 4.0903350956871956" fill="#ff6109" stroke="none" /><path d="M 118.18653347947321 89.5 l 2.358848859307922 -1.361882023899071 a23.72376404779814,23.72376404779814 0 0,0 0.2005975690949703,0.3544366837029814 l -2.3818797934242686 1.3211885700969717" fill="#ff1402" stroke="none" /><path d="M 118.36410011445183 89.81374322990088 l 8.687255851786862 -4.818674380031746 a30.93418527183681,30.93418527183681 0 0,0 0.2535935166860631,0.4665835078693059 l -8.768694718088266 4.668836038687838" fill="#ff790b" stroke="none" /><path d="M 118.70294669586156 90.45014215332178 l 1.8325757497779938 -0.9357262354558309 a23.05764852839223,23.05764852839223 0 0,0 0.1769730376637869,0.3540646248656797 l -1.8483687006535177 0.9041297544264008" fill="#ff0a01" stroke="none" /><path d="M 118.8641267826498 90.77261029715802 l 2.4679331122116226 -1.2071897548880577 a23.747362544451903,23.747362544451903 0 0,0 0.1759801038410761,0.3677307337325329 l -2.488292474012611 1.1646465190904212" fill="#ff1402" stroke="none" /><path d="M 119.0197475246899 91.09779779509293 l 2.1681114470518903 -1.0147856315849964 a23.393845676920048,23.393845676920048 0 0,0 0.16711620372959538,0.36517906482208434 l -2.185212115636537 0.9774175845482277" fill="#ff0f01" stroke="none" /><path d="M 119.16976305983485 91.42560881287824 l 2.471903622772173 -1.1056510491212441 a23.70790911270986,23.70790911270986 0 0,0 0.16298184781411504,0.3729343631540407 l -2.4905193526032585 1.063054616191354" fill="#ff1402" stroke="none" /><path d="M 119.31412917781788 91.75594674310238 l 2.6425845621319404 -1.1279622117828518 a23.873247625810926,23.873247625810926 0 0,0 0.1576477358419399,0.37829717637752736 l -2.6615581425103634 1.0824325259640466" fill="#ff1602" stroke="none" /><path d="M 119.58574465831526 92.42381321644754 l 7.085982749870277 -2.7410103518967106 a28.597650247324108,28.597650247324108 0 0,0 0.17317826792695237,0.4593759304921815 l -7.131991701611671 2.6189661412103717" fill="#ff5908" stroke="none" /><path d="M 119.94978838288452 93.4421083053983 l 7.562986614263947 -2.4861039201105584 a28.96112298794113,28.96112298794113 0 0,0 0.15119814048536842,0.4736260215776765 l -7.604549470526573 2.3559088648414948" fill="#ff5e08" stroke="none" /><path d="M 120.05942366710727 93.78553927170692 l 2.752843141739037 -0.8528378421729206 a23.881922578429513,23.881922578429513 0 0,0 0.11795813786777,0.39264427715663724 l -2.767077599610434 0.8054559614255599" fill="#ff1602" stroke="none" /><path d="M 120.16314734710363 94.1308016681162 l 2.410569494026902 -0.701681647694996 a23.510617935936306,23.510617935936306 0 0,0 0.1094716035254395,0.3884761013292188 l -2.4222595896269232 0.660197622462764" fill="#ff1101" stroke="none" /><path d="M 120.51834098615036 95.52812308129327 l 2.5331100905646045 -0.5520795542965717 a23.59257373380055,23.59257373380055 0 0,0 0.08284620927025563,0.3964491020235378 l -2.542214010659227 0.5085140009876296" fill="#ff1202" stroke="none" /><path d="M 120.65975698304385 96.23510406497455 l 6.011101247357875 -1.0954228875866374 a27.110097340356866,27.110097340356866 0 0,0 0.07950382345281765,0.4585569263569366 l -6.029019888302927 0.9920729283091081" fill="#ff4406" stroke="none" /><path d="M 120.7213421655516 96.59031103205396 l 2.2570413853745044 -0.3713953010583973 a23.28739377566293,23.28739377566293 0 0,0 0.0615214218410681,0.3950116607098729 l -2.2630842993538374 0.33259545841708316" fill="#ff0e01" stroke="none" /><path d="M 120.82617615685814 97.30363454192243 l 4.405671754526144 -0.5704024132447572 a25.442443305396807,25.442443305396807 0 0,0 0.05236044381504939,0.43361958731043326 l -4.4148142846008565 0.4946891490109109" fill="#ff2d04" stroke="none" /><path d="M 120.9064616781168 98.02013634271609 l 3.009083510312639 -0.2849633369589371 a24.022546554719415,24.022546554719415 0 0,0 0.03535475655148786,0.4108758624235009 l -3.013531889561868 0.2332664271597742" fill="#ff1802" stroke="none" /><path d="M 120.93736805541906 98.37931529534042 l 11.506218716183666 -0.8906540990456588 a32.54063836487402,32.54063836487402 0 0,0 0.03832983306224116,0.5573073604829856 l -11.519812510410972 0.6930033144083392" fill="#ff8f0d" stroke="none" /><path d="M 120.96210409425399 98.7389718711861 l 10.872295771529162 -0.6540503153231166 a31.891951026266376,31.891951026266376 0 0,0 0.028183996198872855,0.5467619968430389 l -10.881921357184607 0.467316525103347" fill="#ff860c" stroke="none" /><path d="M 120.99303781780057 99.45929381324524 l 5.026788079613491 -0.12947222968594962 a26.028455175857108,26.028455175857108 0 0,0 0.007670422630326045,0.44676366384279104 l -5.028269933842482 0.04316164987409222" fill="#ff3505" stroke="none" /><line stroke="#e1ed5e" stroke-width="0.3" x1="184.99686870605535" x2="189.99668451229388" y1="99.2704041080226" y2="99.22748670261217" /><path d="M 185.99683186730306 99.26182062694052 a86.0,86.0 0 0,1 -10.086455211305974,41.156179273409016" fill="none" id="id100" stroke="none" /><text fill="#e1ed5e" style="font-size:6.75px; font-family:Arial;" text-anchor="middle"><textPath startOffset="21.40746469413373" xlink:href="#id100">April</textPath></text><path d="M 120.99922638620191 99.81974689727618 l 6.156027265482429 -0.05284209021075229 a27.156254054200566,27.156254054200566 0 0,0 0.0,0.46619038586915756 l -6.156027265482429 -0.05284209021075155" fill="#ff4506" stroke="none" /><path d="M 120.99922638620191 100.18025310272382 l 7.741247070072662 0.06644929568687326 a28.741532258461877,28.741532258461877 0 0,0 -0.008469949444789104,0.4933320924922388 l -7.738965689029205 -0.1993283041481831" fill="#ff5b08" stroke="none" /><path d="M 120.98066250479742 100.90099992219065 l 7.2712048529229865 0.312256822453429 a28.277906590245543,28.277906590245543 0 0,0 -0.02499014284811743,0.48480209508316346 l -7.264773120618297 -0.4370307109133231" fill="#ff5507" stroke="none" /><path d="M 120.93736805541906 101.62068470465957 l 3.7874289309713047 0.29317095263182463 a24.798758628108068,24.798758628108068 0 0,0 -0.03649713289466494,0.42415200716322554 l -3.781838175378899 -0.3581440071707075" fill="#ff2303" stroke="none" /><path d="M 120.9064616781168 101.97986365728391 l 5.428122661146571 0.5140488596084324 a26.452408812123103,26.452408812123103 0 0,0 -0.04669178608391891,0.45170067498811806 l -5.418498482580987 -0.6071540568794819" fill="#ff3b05" stroke="none" /><path d="M 120.86939407059847 102.33845913500097 l 8.099771853743091 0.9075963307192556 a29.150462268008106,29.150462268008106 0 0,0 -0.059991531609033505,0.4968159412536046 l -8.082998235874394 -1.046505948896269" fill="#ff6108" stroke="none" /><path d="M 120.82617615685814 102.69636545807757 l 4.79240501036157 0.62047277588217 a25.832404396255512,25.832404396255512 0 0,0 -0.06071289559611924,0.4392882684383984 l -4.7810475982102405 -0.7026493525206534" fill="#ff3204" stroke="none" /><path d="M 120.7213421655516 103.40968896794604 l 1.9683701741040147 0.3238945630961167 a22.99484055260201,22.99484055260201 0 0,0 -0.06743530724614125,0.38894893196021096 l -1.9625200493656392 -0.35763652797691564" fill="#ff0901" stroke="none" /><path d="M 120.65975698304385 103.76489593502545 l 7.184244907220154 1.3092087418849887 a28.302561360012444,28.302561360012444 0 0,0 -0.09120663167351123,0.4772316371698872 l -7.160711983264483 -1.4323429440881905" fill="#ff5507" stroke="none" /><path d="M 120.51834098615036 104.47187691870673 l 15.261988412816994 3.326279340172461 a36.62025686606396,36.62025686606396 0 0,0 -0.13913803547048953,0.6130678569734317 l -15.20263951578884 -3.5877815310849095" fill="#ffc412" stroke="none" /><path d="M 120.43855184770803 104.8234425847677 l 18.982531607512485 4.479825772619128 a40.50398280309007,40.50398280309007 0 0,0 -0.16551175953688452,0.6753444599369375 l -18.902832321459304 -4.805026057164165" fill="#fff517" stroke="none" /><path d="M 120.26092885502905 105.52220625578681 l 2.85219584541378 0.7773786608190784 a23.956237257544206,23.956237257544206 0 0,0 -0.11154652396484797,0.3958392619746363 l -2.838430829374352 -0.8262258466967232" fill="#ff1702" stroke="none" /><path d="M 120.16314734710363 105.8691983318838 l 9.544848904886846 2.7783664080941177 a30.940998969658203,30.940998969658203 0 0,0 -0.15282448932842152,0.5087030215029118 l -9.495748095554795 -2.941807033187753" fill="#ff790b" stroke="none" /><path d="M 119.58574465831526 107.57618678355244 l 1.3525774695711588 0.5232060219035495 a22.450244928468173,22.450244928468173 0 0,0 -0.14212215752979065,0.35824067803981074 l -1.3433966370752437 -0.5463477171569244" fill="#ff0100" stroke="none" /><path d="M 119.31412917781788 108.2440532568976 l 53.178276856219554 22.69864421411365 a78.82004478168147,78.82004478168147 0 0,0 -0.5418544706847751,1.2398690692074235 l -52.78078850351781 -23.608175353096918" fill="#47fffb" stroke="none" /><path d="M 119.16976305983485 108.57439118712176 l 1.9012030342945758 0.8503839349136435 a23.08272077205998,23.08272077205998 0 0,0 -0.16489365282009005,0.360322389978244 l -1.8863249166194296 -0.8828953071065765" fill="#ff0b01" stroke="none" /><path d="M 119.0197475246899 108.90220220490707 l 2.4225848669931263 1.133892041233725 a23.674813750330532,23.674813750330532 0 0,0 -0.1754424801660627,0.36660730702593664 l -2.402763128867152 -1.175311850324765" fill="#ff1302" stroke="none" /><path d="M 118.8641267826498 109.22738970284198 l 1.7309643279791918 0.8467013925432473 a22.92695115477044,22.92695115477044 0 0,0 -0.17596990366267967,0.35205768489063277 l -1.7161745111047797 -0.8762909335976258" fill="#ff0801" stroke="none" /><path d="M 118.5362547648365 109.86951160357373 l 2.9768212989023337 1.5849896715390301 a24.372485330506862,24.372485330506862 0 0,0 -0.19980174719422328,0.36761271069758017 l -2.949174202092771 -1.6358572157112137" fill="#ff1d03" stroke="none" /><line stroke="#e1ed5e" stroke-width="0.3" x1="174.33088141563837" x2="178.70328620479359" y1="141.23008692659167" y2="143.65538615756765" /><path d="M 175.20536237346943 141.71514677278685 a86.0,86.0 0 0,1 -30.301960400862466,31.631185727798858" fill="none" id="id101" stroke="none" /><text fill="#e1ed5e" style="font-size:6.75px; font-family:Arial;" text-anchor="middle"><textPath startOffset="22.145653131862474" xlink:href="#id101">May</textPath></text><path d="M 118.36410011445183 110.18625677009912 l 55.092300343355504 30.558770310297355 a84.0,84.0 0 0,0 -0.7102665399144867,1.254972919603509 l -54.559600438419636 -31.499999999999986" fill="#4dd2ff" stroke="none" /><path d="M 118.18653347947321 110.5 l 10.88610438598949 6.285095297677395 a33.570190595354795,33.570190595354795 0 0,0 -0.29242240075451886,0.49659716612427807 l -10.776608275105206 -6.471043632095222" fill="#ff9d0e" stroke="none" /><path d="M 117.423217284605 111.72311816256416 l 2.7524704017696044 1.8519849251617162 a24.317520380592104,24.317520380592104 0 0,0 -0.23600762994129942,0.34434218525782734 l -2.7202730350129847 -1.8989618454895876" fill="#ff1c02" stroke="none" /><path d="M 116.57777611688842 112.89097897827486 l 10.674172683561277 8.300301240893534 a34.521573990037716,34.521573990037716 0 0,0 -0.36779214136488403,0.4646933557932041 l -10.53011411155483 -8.482314540601422" fill="#ffa90f" stroke="none" /><path d="M 115.6541949942343 113.99807769240083 l 3.7045756275210144 3.3126543696762094 a25.969663927566693,25.969663927566693 0 0,0 -0.3000142941519703,0.32976826404178144 l -3.6471636325271644 -3.3757602092756627" fill="#ff3405" stroke="none" /><path d="M 113.86319453409587 115.77377054828091 l 2.2604879988779953 2.572020390664569 a24.424192588489404,24.424192588489404 0 0,0 -0.3173057584935184,0.2740811568232992 l -2.2160027606216217 -2.610445679952586" fill="#ff1e03" stroke="none" /><path d="M 113.31354834802062 116.24036423190432 l 6.001305891915309 7.32061738944812 a30.466103283348836,30.466103283348836 0 0,0 -0.4073016679560713,0.32809339233312995 l -5.874753453603985 -7.422559075574654" fill="#ff730a" stroke="none" /><path d="M 111.8722381534696 117.32195027204791 l 0.7847153125871198 1.1449230925658445 a22.38802990230731,22.38802990230731 0 0,0 -0.31887346885597145,0.2145523007170602 l -0.764945555634145 -1.1582250673400258" fill="#ff0000" stroke="none" /><path d="M 110.96478420261333 117.91015095944535 l 13.744433742344267 22.45049958382307 a47.32364698253134,47.32364698253134 0 0,0 -0.696485196311426,0.4182193487399149 l -13.357015789475405 -22.683132933098907" fill="#b8ff1f" stroke="none" /><line stroke="#e1ed5e" stroke-width="0.3" x1="143.1302829299769" x2="145.66735839644613" y1="173.24464959558577" y2="177.55315839532614" /><path d="M 143.63769802327073 174.10635135553383 a86.0,86.0 0 0,1 -40.68552437913181,11.842963189579606" fill="none" id="id102" stroke="none" /><text fill="#e1ed5e" style="font-size:6.75px; font-family:Arial;" text-anchor="middle"><textPath startOffset="21.407464694133747" xlink:href="#id102">June</textPath></text><path d="M 110.65571695917076 118.09573695890943 l 6.862248156530165 11.653597600531105 a34.52393385065551,34.52393385065551 0 0,0 -0.5132681993935241,0.29633553308632676 l -6.661187489276243 -11.769680030893603" fill="#ffa90f" stroke="none" /><path d="M 110.34350942703117 118.27599006163325 l 9.135376533215904 16.141334999319717 a39.547177681898006,39.547177681898006 0 0,0 -0.5936894098210447,0.3293095078133786 l -8.856942935238765 -16.29577742256624" fill="#ffe915" stroke="none" /><path d="M 110.02825361518725 118.45085714620011 l 7.758286131806813 14.274372648546146 a37.24649864470952,37.24649864470952 0 0,0 -0.5643929734065495,0.30050746877833906 l -7.51210434261371 -14.405450585047053" fill="#ffcc13" stroke="none" /><path d="M 109.71004243097381 118.62028667847754 l 9.394388866553404 18.014979348218866 a41.31733307038044,41.31733307038044 0 0,0 -0.6317081390615397,0.3225546769035158 l -9.083753505778281 -18.17359197679522" fill="#ffff18" stroke="none" /><path d="M 109.3889696526874 118.78422872680471 l 6.048122285423548 12.1002960473477 a34.52763643852448,34.52763643852448 0 0,0 -0.5324486275153171,0.2604473050587201 l -5.8395134086461615 -12.202337102503643" fill="#ffa90f" stroke="none" /><path d="M 109.06512990194946 118.94263497670748 l 17.69240579156701 36.970323469646814 a61.98568091594663,61.98568091594663 0 0,0 -0.963763066543627,0.4510897783924488 l -17.055154011151874 -37.268589479609794" fill="#31ff44" stroke="none" /><path d="M 108.73861861582097 119.09545874513695 l 5.703181987399892 12.462481902944509 a34.705463872580964,34.705463872580964 0 0,0 -0.5438620480068879,0.2432625764275057 l -5.4884065365373775 -12.558548230281865" fill="#ffab0f" stroke="none" /><path d="M 107.74402155503746 119.51999308798841 l 2.252103460604689 5.67677190359081 a27.107185050632218,27.107185050632218 0 0,0 -0.4340089285592045,0.16788397714038383 l -2.1543222695519555 -5.714595768869234" fill="#ff4406" stroke="none" /><path d="M 106.72888874123015 119.89276391827305 l 4.765717029839558 14.088995586299482 a35.87319250999156,35.87319250999156 0 0,0 -0.5850358458408436,0.1923129028163255 l -4.523158446350981 -14.168729410517827" fill="#ffbb11" stroke="none" /><path d="M 106.38641147887787 120.00534299687104 l 0.44705567307083954 1.4003955285465883 a22.470022588669337,22.470022588669337 0 0,0 -0.3684648932378323,0.1141513658010011 l -0.4229501469613829 -1.407863482154234" fill="#ff0200" stroke="none" /><path d="M 105.69591212413111 120.21278271476187 l 2.933624897653732 10.410399832482652 a31.81584854333162,31.81584854333162 0 0,0 -0.5269592318293107,0.14362508191869788 l -2.754484264889726 -10.459225408545493" fill="#ff850c" stroke="none" /><path d="M 104.64783097203109 120.47920084513623 l 0.7566770385569261 3.3340586481651764 a24.418845888612747,24.418845888612747 0 0,0 -0.40958263165498593,0.08926662823458272 l -0.6993319902828043 -3.3465567345334777" fill="#ff1e03" stroke="none" /><path d="M 102.875027216393 120.80226474461374 l 0.30875495650667323 2.233997059172735 a23.255232246035842,23.255232246035842 0 0,0 -0.3959172040494576,0.051259408602767106 l -0.27035993056644025 -2.2389680639758973" fill="#ff0d01" stroke="none" /><path d="M 102.51750503828377 120.84855314841334 l 1.6274941018633193 13.477985849258927 a34.57589185300265,34.57589185300265 0 0,0 -0.5898714629078221,0.06609632777295303 l -1.395886737354698 -13.50393793753885" fill="#ffaa0f" stroke="none" /><path d="M 101.80034050326958 120.92268563240118 l 0.5835942008293471 6.782249234891801 a27.80731128092671,27.80731128092671 0 0,0 -0.47594332601435296,0.03684102350947696 l -0.46708188003975826 -6.791268025396332" fill="#ff4e07" stroke="none" /><path d="M 101.44090949804482 120.95050786540614 l 0.4654782817324294 6.767952057949222 a27.783940233335173,27.783940233335173 0 0,0 -0.47610513395141413,0.028641302585175193 l -0.34922879564855014 -6.774945338359089" fill="#ff4e07" stroke="none" /><line stroke="#e1ed5e" stroke-width="0.3" x1="101.45913802915013" x2="101.54496967792366" y1="184.9874750549273" y2="189.98673829345242" /><path d="M 101.47630435890484 185.9873277026323 a86.0,86.0 0 0,1 -42.54439059252881,-10.42667462771756" fill="none" id="id103" stroke="none" /><text fill="#e1ed5e" style="font-size:6.75px; font-family:Arial;" text-anchor="middle"><textPath startOffset="22.145653131862474" xlink:href="#id103">July</textPath></text><path d="M 96.41257539226777 120.69131181640829 l -2.6292573633946548 15.164857774105744 a36.39109825814326,36.39109825814326 0 0,0 -0.6146027885759066,-0.11200110157461364 l 2.8891948855216185 -15.117488498599766" fill="#ffc112" stroke="none" /><path d="M 95.00130118170881 120.39639698878247 l -0.9482772159810285 3.8692946415960234 a24.98380103692848,24.98380103692848 0 0,0 -0.4156765636863384,-0.1056633569985104 l 1.0145590728927456 -3.85244605276225" fill="#ff2603" stroke="none" /><path d="M 94.30408787586889 120.21278271476187 l -1.8451458411202026 6.547771656378644 a27.802784491594505,27.802784491594505 0 0,0 -0.45826930855606557,-0.13339551683220785 l 1.957275162057875 -6.51513244524392" fill="#ff4e07" stroke="none" /><path d="M 93.95794788825049 120.11202640906438 l -0.461414807934137 1.535899828579543 a22.603711915654294,22.603711915654294 0 0,0 -0.37065713952507745,-0.11483052930464314 l 0.4877125803308481 -1.5277527114682508" fill="#ff0400" stroke="none" /><path d="M 93.27111125876986 119.89276391827306 l -3.125838097031723 9.240984908843709 a30.755340378189377,30.755340378189377 0 0,0 -0.49866742274115045,-0.17346241529901285 l 3.284011291817895 -9.185964060976104" fill="#ff770a" stroke="none" /><path d="M 92.93061703081489 119.77432235084164 l -2.283024683863815 6.386026366153332 a27.781853320172665,27.781853320172665 0 0,0 -0.4476990738428793,-0.16440130119343538 l 2.3923129093608133 -6.345894215951176" fill="#ff4e07" stroke="none" /><path d="M 90.93487009805054 118.94263497670748 l -0.8978959928467568 1.8762572873761878 a23.080038130035724,23.080038130035724 0 0,0 -0.35591589500250964,-0.1740962994186716 l 0.9299721371113359 -1.860567237860295" fill="#ff0a01" stroke="none" /><line stroke="#e1ed5e" stroke-width="0.3" x1="58.13341422392154" x2="55.67067388415222" y1="173.97424548756322" y2="178.32567169271397" /><path d="M 57.64086615596768 174.84453072859336 a86.0,86.0 0 0,1 -31.369924170532247,-30.572349798747897" fill="none" id="id104" stroke="none" /><text fill="#e1ed5e" style="font-size:6.75px; font-family:Arial;" text-anchor="middle"><textPath startOffset="22.145653131862474" xlink:href="#id104">August</textPath></text><path d="M 89.65649057296885 118.27599006163327 l -0.6832668837625778 1.207267114240181 a22.38720853499841,22.38720853499841 0 0,0 -0.33283119658125954,-0.1921601809408969 l 0.703890548204237 -1.1953600360231125" fill="#ff0000" stroke="none" /><path d="M 89.34428304082925 118.09573695890944 l -0.9063760672627907 1.5392247149472589 a22.786261542555074,22.786261542555074 0 0,0 -0.33535652587233344,-0.20137195821071627 l 0.9326653496925514 -1.5234387562006237" fill="#ff0601" stroke="none" /><path d="M 89.03521579738668 117.91015095944536 l -5.315698749849385 8.68279441760892 a31.180745164162147,31.180745164162147 0 0,0 -0.45410430296511844,-0.2833946704592654 l 5.4639671816042155 -8.590263950308106" fill="#ff7d0b" stroke="none" /><path d="M 88.72937992617639 117.7192867562869 l -3.654199507651509 5.745008572433658 a27.808692792236755,27.808692792236755 0 0,0 -0.40059662465726453,-0.25966189223172853 l 3.752281764565783 -5.681432838498035" fill="#ff4e07" stroke="none" /><path d="M 88.4268655584334 117.5232005979908 l -2.7951329911397504 4.232187602166466 a26.07190105760053,26.07190105760053 0 0,0 -0.3713429706045677,-0.2498561231329807 l 2.867372249841324 -4.183581804976363" fill="#ff3605" stroke="none" /><path d="M 88.1277618465304 117.32195027204791 l -3.8338742110255883 5.593737050605255 a27.781481081392254,27.781481081392254 0 0,0 -0.39106391343441516,-0.2729929831312868 l 3.929333215633769 -5.527099251668839" fill="#ff4e07" stroke="none" /><path d="M 87.83215693770417 117.11559508785305 l -3.949574147659619 5.5555706574045605 a27.816414106938907,27.816414106938907 0 0,0 -0.3868057686918093,-0.2800175469225841 l 4.044360926725382 -5.486952339108911" fill="#ff4e07" stroke="none" /><path d="M 87.2517909369889 116.68781488649013 l -4.129325387882316 5.405419485863673 a27.802197290373467,27.802197290373467 0 0,0 -0.37677280314903283,-0.2929808106186134 l 4.221508135666577 -5.333737623624267" fill="#ff4e07" stroke="none" /><path d="M 86.68645165197938 116.24036423190432 l -4.312126566133037 5.260093268710227 a27.801692195173267,27.801692195173267 0 0,0 -0.3664867596835691,-0.30573628948131987 l 4.401787659978499 -5.185294795317037" fill="#ff4e07" stroke="none" /><path d="M 86.40962598614128 116.0094264158162 l -4.409925665763838 5.194881345669443 a27.814267133973175,27.814267133973175 0 0,0 -0.3613477537859655,-0.3121235833959243 l 4.4984528993126665 -5.118413629808796" fill="#ff4e07" stroke="none" /><path d="M 84.3458050057657 113.99807769240083 l -5.0487498285435795 4.514623228820026 a27.772864809622305,27.772864809622305 0 0,0 -0.3147445022316123,-0.3581214666882059 l 5.125505394733785 -4.427289484320521" fill="#ff4e07" stroke="none" /><path d="M 83.8745106332314 113.45245675266167 l -5.215368573830478 4.350845955300435 a27.791901787250218,27.791901787250218 0 0,0 -0.3024727406135069,-0.3689675621688035 l 5.289288133682615 -4.260676111433136" fill="#ff4e07" stroke="none" /><path d="M 83.64595745247003 113.17365903436017 l -5.279656615421043 4.252917642101018 a27.779534087771317,27.779534087771317 0 0,0 -0.2959625865034041,-0.37393905971215424 l 5.351885632566009 -4.161658638474183" fill="#ff4e07" stroke="none" /><path d="M 81.99639281039703 110.81064883170644 l -5.816852188805469 3.4928526076393305 a27.78496784996833,27.78496784996833 0 0,0 -0.24202862299801556,-0.41101751436160433 l 5.875954521933254 -3.3924839249841674" fill="#ff4e07" stroke="none" /><line stroke="#e1ed5e" stroke-width="0.3" x1="26.387840678322732" x2="22.057713659400548" y1="142.50000000000003" y2="145.00000000000006" /><path d="M 25.521815274538298 143.00000000000003 a86.0,86.0 0 0,1 -11.493303480769221,-40.785679425670985" fill="none" id="id105" stroke="none" /><text fill="#e1ed5e" style="font-size:6.75px; font-family:Arial;" text-anchor="middle"><textPath startOffset="21.40746469413373" xlink:href="#id105">September</textPath></text><path d="M 81.81346652052679 110.50000000000001 l -5.8827345433236236 3.3963983721590085 a27.79279674431801,27.79279674431801 0 0,0 -0.23500349497777817,-0.4152286580257596 l 5.94017140332278 -3.2949129440341274" fill="#ff4e07" stroke="none" /><path d="M 81.63589988554817 110.18625677009913 l -5.960843383341808 3.3063793428833943 a27.816435886867552,27.816435886867552 0 0,0 -0.22803470452625152,-0.4195581722442542 l 6.016723437483389 -3.203566337164553" fill="#ff4e07" stroke="none" /><path d="M 80.41425534168474 107.57618678355246 l -3.8087612248915597 1.473310663298143 a25.08378579002688,25.08378579002688 0 0,0 -0.15189942315537555,-0.40293126665673507 l 3.8334913318613713 -1.407711116447263" fill="#ff2803" stroke="none" /><path d="M 79.94057633289273 106.21446072829308 l -6.523625529046474 2.021035864695699 a27.829515064015393,27.829515064015393 0 0,0 -0.1374561769025762,-0.4575469077100007 l 6.55735802595268 -1.9087513533949747" fill="#ff4e07" stroke="none" /><path d="M 79.56144815229197 104.8234425847677 l -13.19585783173384 3.114186517831156 a34.55834877789964,34.55834877789964 0 0,0 -0.1313038511894421,-0.5785489955271297 l 13.247372544480948 -2.887203188365" fill="#ffaa0f" stroke="none" /><path d="M 79.34024301695615 103.76489593502545 l -5.696977010358386 1.0381789875764402 a26.79079982962606,26.79079982962606 0 0,0 -0.07856744271602564,-0.45315613110061786 l 5.7139592705666455 -0.9402298235552298" fill="#ff4006" stroke="none" /><path d="M 79.2786578344484 103.40968896794605 l -6.704084721824766 1.1031545897728308 a27.79424035535549,27.79424035535549 0 0,0 -0.07342776105073674,-0.47145889946740194 l 6.72203397501377 -0.9879075083739788" fill="#ff4e07" stroke="none" /><path d="M 79.06263194458094 101.62068470465958 l -10.829864895356549 0.8383000357531198 a31.86226130240015,31.86226130240015 0 0,0 -0.03753076823547534,-0.5456891332724195 l 10.84265962475709 -0.652267478326357" fill="#ff860c" stroke="none" /><path d="M 79.01933749520258 100.90099992219065 l -1.3628645281839564 0.05852726688536935 a22.36412065564273,22.36412065564273 0 0,0 -0.013179190150182511,-0.3836977414647735 l 1.363668405330987 -0.03512326085647598" fill="#ff0000" stroke="none" /><path d="M 79.00696218219943 100.54070618675478 l -9.333182808595582 0.24038968207077718 a30.336278088077187,30.336278088077187 0 0,0 -0.008939911047140696,-0.5207049997556134 l 9.33593415124139 -0.08013776634611143" fill="#ff710a" stroke="none" /><line stroke="#e1ed5e" stroke-width="0.3" x1="15.003131293944662" x2="10.003315487706104" y1="100.72959589197737" y2="100.7725132973878" /><path d="M 14.003168132696942 100.73817937305945 a86.0,86.0 0 0,1 10.791469493833604,-42.45332614584628" fill="none" id="id106" stroke="none" /><text fill="#e1ed5e" style="font-size:6.75px; font-family:Arial;" text-anchor="middle"><textPath startOffset="22.145653131862435" xlink:href="#id106">October</textPath></text><path d="M 79.00077361379809 100.18025310272382 l -1.7022700407218456 0.014611940976813098 a22.70233275253643,22.70233275253643 0 0,0 0.0,-0.38973008740126064 l 1.7022700407218456 0.014611940976812472" fill="#ff0500" stroke="none" /><path d="M 79.00077361379809 99.81974689727619 l -45.77455094267112 -0.3929194667203207 a66.77623728213713,66.77623728213713 0 0,0 0.0196785386668673,-1.1461762223013654 l 45.76106097240559 1.1786426049907384" fill="#37ff7c" stroke="none" /><path d="M 79.00696218219943 99.45929381324524 l -9.61004506478725 -0.24752067169223682 a30.613232163541916,30.613232163541916 0 0,0 0.01804039666961504,-0.5252264652365608 l 9.604379981120786 0.41245340149293613" fill="#ff750a" stroke="none" /><path d="M 79.0935383218832 98.0201363427161 l -7.074113084511227 -0.6699258640308534 a28.105763618060372,28.105763618060372 0 0,0 0.049610162609399835,-0.4799333205343757 l 7.061570529420163 0.791263706848142" fill="#ff5207" stroke="none" /><path d="M 79.2786578344484 96.59031103205396 l -16.295809747581465 -2.6814692926816464 a37.514953614738545,37.514953614738545 0 0,0 0.11001739357781129,-0.634551090172187 l 16.24737753651142 2.9608134157744264" fill="#ffd013" stroke="none" /><path d="M 79.64726062577567 94.8264132398404 l -6.577084738812633 -1.6718692211163637 a27.786250095158465,27.786250095158465 0 0,0 0.12147952608220196,-0.4612775473117053 l 6.547415731925706 1.7845272728008537" fill="#ff4e07" stroke="none" /><path d="M 79.73907114497095 94.47779374421319 l -15.742729858047614 -4.290751027621024 a37.316987704980804,37.316987704980804 0 0,0 0.17375768233463357,-0.6166047160684296 l 15.666753683638397 4.560363667592466" fill="#ffcd13" stroke="none" /><path d="M 79.83685265289637 94.1308016681162 l -1.5633429376304424 -0.4550663447401206 a22.628228030330554,22.628228030330554 0 0,0 0.11176586110013827,-0.372032201726071 l 1.5553007565266745 0.481836150056915" fill="#ff0400" stroke="none" /><path d="M 80.05021161711548 93.44210830539832 l -6.5467937158087715 -2.152061130232659 a27.891434906143385,27.891434906143385 0 0,0 0.153422254520237,-0.4535656341409945 l 6.508886039716169 2.264128438847815" fill="#ff4f07" stroke="none" /><path d="M 80.28708602549916 92.7611449362534 l -6.438002134322608 -2.3641235593446925 a27.858349049544728,27.858349049544728 0 0,0 0.16870129517568386,-0.44750022837308245 l 6.396470155332488 2.47429206791192" fill="#ff4f07" stroke="none" /><path d="M 80.5471966667186 92.08871423366112 l -7.703650727090026 -3.133007685416865 a29.31636769761149,29.31636769761149 0 0,0 0.19359154912973023,-0.4645492433824462 l 7.6487333334238174 3.2647894382405753" fill="#ff6309" stroke="none" /><path d="M 80.9802524753101 91.09779779509293 l -8.679128970363946 -4.06227059304282 a30.58276171337424,30.58276171337424 0 0,0 0.22663390816527176,-0.4735777029291341 l 8.608115804238768 4.210660798037041" fill="#ff740a" stroke="none" /><line stroke="#e1ed5e" stroke-width="0.3" x1="26.387840678322718" x2="22.05771365940052" y1="57.49999999999999" y2="54.99999999999999" /><path d="M 25.521815274538284 56.99999999999999 a86.0,86.0 0 0,1 29.574782752854787,-30.34633250058573" fill="none" id="id107" stroke="none" /><text fill="#e1ed5e" style="font-size:6.75px; font-family:Arial;" text-anchor="middle"><textPath startOffset="21.40746469413373" xlink:href="#id107">November</textPath></text><path d="M 81.99639281039701 89.18935116829357 l -9.854216891307388 -5.91717410858169 a32.49428292553291,32.49428292553291 0 0,0 0.29126023898263936,-0.4757517113213985 l 9.751188687869355 6.085462936027631" fill="#ff8e0d" stroke="none" /><path d="M 83.64595745247003 86.82634096563983 l -4.410497284915238 -3.552784410006325 a26.66345860444205,26.66345860444205 0 0,0 0.2901913463878263,-0.3539862581402443 l 4.3488591192887815 3.6279729498450624" fill="#ff3e05" stroke="none" /><path d="M 84.58840730492382 85.73525988315684 l -1.8450223757904327 -1.7077251664469175 a23.5140470980639,23.5140470980639 0 0,0 0.2767314078827164,-0.29387916534065983 l 1.8154351341714448 1.7391457917320885" fill="#ff1101" stroke="none" /><path d="M 85.86807049272753 84.46653392183569 l -1.041917413009321 -1.1452497539631934 a22.54828579225051,22.54828579225051 0 0,0 0.2885482370266159,-0.25802161282592373 l 1.022104149159313 1.162966896672518" fill="#ff0300" stroke="none" /><path d="M 86.40962598614128 83.9905735841838 l -7.914745172732181 -9.323549912134856 a33.22995397020599,33.22995397020599 0 0,0 0.4380430539795899,-0.3654310951708601 l 7.753527784590682 9.458043191217598" fill="#ff980e" stroke="none" /><path d="M 86.68645165197937 83.75963576809568 l -26.9474239769086 -32.871475661979474 a63.505265217233706,63.505265217233706 0 0,0 0.8490025851487707,-0.6838963848561962 l 26.379170621404583 33.32922034062907" fill="#33ff56" stroke="none" /><path d="M 88.72937992617638 82.28071324371311 l -1.2450447444722308 -1.957417134745717 a23.319831514385054,23.319831514385054 0 0,0 0.3396209994133046,-0.21194862189441618 l 1.2112596162692277 1.9785015534816692" fill="#ff0e01" stroke="none" /><line stroke="#e1ed5e" stroke-width="0.3" x1="56.869717070023135" x2="54.33264160355391" y1="26.7553504044142" y2="22.446841604673864" /><path d="M 56.362301976729285 25.89364864446614 a86.0,86.0 0 0,1 42.16139366436587,-11.88097634709845" fill="none" id="id108" stroke="none" /><text fill="#e1ed5e" style="font-size:6.75px; font-family:Arial;" text-anchor="middle"><textPath startOffset="22.145653131862474" xlink:href="#id108">December</textPath></text><path d="M 89.34428304082924 81.90426304109057 l -5.514047514724023 -9.364058165931173 a31.866936335949358,31.866936335949358 0 0,0 0.4737665500141193,-0.2735292451836906 l 5.352488496849504 9.457334308391038" fill="#ff860c" stroke="none" /><path d="M 90.61103034731259 81.2157712731953 l -3.0415528438420627 -6.085143143160483 a27.80294133258819,27.80294133258819 0 0,0 0.4287475043298629,-0.2097218891791647 l 2.9366450902501464 6.136458782436862" fill="#ff4e07" stroke="none" /><path d="M 93.27111125876988 80.10723608172694 l -0.8355754253028205 -2.4702302728846885 a23.607723891144527,23.607723891144527 0 0,0 0.38500517374317733,-0.12655884778382706 l 0.7930475139118821 2.4842100420705444" fill="#ff1202" stroke="none" /><path d="M 94.30408787586887 79.78721728523814 l -3.757635955687265 -13.334524381390311 a34.85385752970509,34.85385752970509 0 0,0 0.5772771380002076,-0.15733945099936178 l 3.5281774167523796 13.397064326533812" fill="#ffad10" stroke="none" /><path d="M 95.00130118170881 79.60360301121753 l -3.5518092380741555 -14.492593749217038 a35.92148191177785,35.92148191177785 0 0,0 0.6001758568026867,-0.14163986801130113 l 3.302501227531563 14.551429760874571" fill="#ffbb11" stroke="none" /><path d="M 96.05791012581881 79.37332000966035 l -1.279897778577275 -6.696966010837997 a27.81817366117397,27.81817366117397 0 0,0 0.46981618922208324,-0.08561616007696107 l 1.1647468558041532 6.71795034484632" fill="#ff4e07" stroke="none" /><path d="M 98.5590905019552 79.04949213459386 l -0.39049777163835997 -5.677751897141434 a26.691164653666917,26.691164653666917 0 0,0 0.45737934994208845,-0.02751480591939634 l 0.29297406956378774 5.683618680885524" fill="#ff3e05" stroke="none" /><path d="M 98.9189461498227 79.02784411241856 l -0.16711848919260217 -3.2420540442731434 a24.246358423744653,24.246358423744653 0 0,0 0.4158530334986728,-0.01785851856390976 l 0.11143969509310928 3.2444451312628817" fill="#ff1b02" stroke="none" /></svg>