<?xml version="1.0" encoding="utf-8" ?>
<svg baseProfile="full" height="200mm" version="1.1" viewBox="0,0,200,200" width="200mm" xmlns="http://www.w3.org/2000/svg" xmlns:ev="http://www.w3.org/2001/xml-events" xmlns:xlink="http://www.w3.org/1999/xlink"><defs /><rect fill="#1a1a1a" height="200" width="200" x="0" y="0" /><rect fill="#1a1a1a" height="200" width="180" x="10" y="0" /><text alignment-baseline="middle" fill="#e1ed5e" style="dominant-baseline: central; font-size:9.0px; font-family:Arial;" text-anchor="middle" x="100.0" y="100.0">2022</text><line stroke="#e1ed5e" stroke-width="0.3" x1="100.0" x2="100.0" y1="15.0" y2="10.0" /><path d="M 100.0 14.0 a86.0,86.0 0 0,1 42.46469731375804,11.215312516191453" fill="none" id="id121" stroke="none" /><text fill="#e1ed5e" style="font-size:6.75px; font-family:Arial;" text-anchor="middle"><textPath startOffset="22.20632615414155" xlink:href="#id121">January</textPath></text><path d="M 100.0 79.0 l 0.0 -12.744034188732762 a33.74403418873276,33.74403418873276 0 0,0 0.5808480786253192,0.004999542793011137 l -0.21936759935279077 12.74214602254831" fill="#ffa70f" stroke="none" /><path d="M 100.36148047927253 79.00311137660856 l 0.023355608478093183 -1.3566295777104451 a22.356830606806245,22.356830606806245 0 0,0 0.384722052512378,0.009936235575779929 l -0.04670429618533899 1.3560265499923054" fill="#ff0b01" stroke="none" /><path d="M 100.72285384407766 79.0124445844662 l 0.021845088169123367 -0.6342568449527975 a21.634632927956464,21.634632927956464 0 0,0 0.3720736199915769,0.016022272754487612 l -0.03275954055003183 0.6337868456741151" fill="#ff0000" stroke="none" /><path d="M 102.88285421437855 79.19881850522331 l 0.6077281542871915 -4.385051305668802 a25.42696379732893,25.42696379732893 0 0,0 0.4330224279734478,0.06381624967421852 l -0.6831195626892951 4.373940571833615" fill="#ff3605" stroke="none" /><path d="M 103.95276090670814 79.375362276772 l 0.9505632483119689 -4.959830126881192 a26.05009756109322,26.05009756109322 0 0,0 0.43966807677666436,0.08819328001888056 l -1.0357977345557587 4.942732890785103" fill="#ff3f05" stroke="none" /><path d="M 105.36241919743992 79.69619591428918 l 1.406774598937444 -5.326490674808955 a26.509130392452366,26.509130392452366 0 0,0 0.4401804629853342,0.12031794844721273 l -1.4982529511464893 5.301486185535449" fill="#ff4506" stroke="none" /><path d="M 107.08798089147638 80.2323363322302 l 1.4965486358291709 -4.173723172858152 a25.43391733606472,25.43391733606472 0 0,0 0.4108397278682106,0.15131573899295206 l -1.5681706894699579 4.147344166058875" fill="#ff3605" stroke="none" /><path d="M 110.36928655335952 81.73862282372117 l 6.290098438550046 -11.077508512393244 a33.73878067982939,33.73878067982939 0 0,0 0.5025524209183945,0.29111079971019066 l -6.479847591933768 10.967593555293005" fill="#ffa70f" stroke="none" /><line stroke="#e1ed5e" stroke-width="0.3" x1="143.23703022742887" x2="145.7803849466894" y1="26.81831364943548" y2="22.513508569990506" /><path d="M 143.74570117128098 25.957352633546492 a86.0,86.0 0 0,1 28.547481713284135,27.462654790039103" fill="none" id="id122" stroke="none" /><text fill="#e1ed5e" style="font-size:6.75px; font-family:Arial;" text-anchor="middle"><textPath startOffset="19.985693538727396" xlink:href="#id122">February</textPath></text><path d="M 110.99172775467656 82.1063720568725 l 1.67023075913476 -2.718998182101922 a24.191022078117516,24.191022078117516 0 0,0 0.35293646901309234,0.22100878451754452 l -1.7167863805201158 2.689845056261433" fill="#ff2503" stroke="none" /><path d="M 111.60114157652 82.49532879139004 l 4.628313363531741 -6.983545812682125 a29.378018662480798,29.378018662480798 0 0,0 0.4191198323293453,0.28299158169939154 l -4.747837890267629 6.902842318684063" fill="#ff6d0a" stroke="none" /><path d="M 112.19680574252982 82.90503203632743 l 3.666396788338402 -5.138799203811601 a27.312663674443055,27.312663674443055 0 0,0 0.38036744830688624,0.2763531274638319 l -3.754309552999077 5.074926841531094" fill="#ff5107" stroke="none" /><path d="M 112.48926042617603 83.11751280151076 l 3.7500147045208254 -5.069121235596129 a27.305442124490085,27.305442124490085 0 0,0 0.37545483032258964,0.28278479420403835 l -3.836715688601798 5.003819851886243" fill="#ff5007" stroke="none" /><path d="M 113.06298171725822 83.55741782278167 l 2.7485479277745073 -3.4596408498948 a25.41855525274205,25.41855525274205 0 0,0 0.3402414045212615,0.27511822025252847 l -2.8076927308602597 3.411816532378142" fill="#ff3605" stroke="none" /><path d="M 113.6212207817346 84.01681056812373 l 3.278826706954235 -3.847387044912937 a26.05500659224103,26.05500659224103 0 0,0 0.3388468512685936,0.2938446503678054 l -3.344567356869593 3.7903774011254603" fill="#ff3f05" stroke="none" /><path d="M 114.42810811169701 84.74124197986012 l 2.181931087590008 -2.307548448099384 a24.1757838577771,24.1757838577771 0 0,0 0.2999141330359689,0.2885171583589459 l -2.221328464238395 2.2696482029781357" fill="#ff2503" stroke="none" /><path d="M 115.19652480421416 85.50635884689758 l 2.409292067794887 -2.297855273723612 a24.329388401331208,24.329388401331208 0 0,0 0.2864295166324701,0.3055430376230176 l -2.44848890639782 2.2560428192225395" fill="#ff2703" stroke="none" /><path d="M 115.68641384162765 86.03803664274999 l 4.711443450096947 -4.193501553264107 a27.30738889404244,27.30738889404244 0 0,0 0.3094943210107622,0.3538055104183494 l -4.782929634685558 4.11178048664281" fill="#ff5007" stroke="none" /><path d="M 115.9244219780498 86.31012108654704 l 4.789304484484376 -4.1172608062398135 a27.315795594515443,27.315795594515443 0 0,0 0.3034516760169435,0.3591910708183865 l -4.859466773988436 4.034210785792321" fill="#ff5107" stroke="none" /><path d="M 116.60985879189232 87.15038557335679 l 2.51576883951505 -1.946233256968534 a24.18071010065445,24.18071010065445 0 0,0 0.2518525276894727,0.3314084046178865 l -2.548897307428636 1.902640076469614" fill="#ff2503" stroke="none" /><path d="M 117.2510076193507 88.02491185347247 l 5.17883463769028 -3.594978487695161 a27.30430000329391,27.30430000329391 0 0,0 0.26468987917675063,0.3883997366762764 l -5.239948982535764 3.505300727748478" fill="#ff5007" stroke="none" /><path d="M 117.45458315368197 88.32363383020206 l 2.629826647041896 -1.7592410327757195 a24.164003350961153,24.164003350961153 0 0,0 0.22829616990728904,0.34771072926873403 l -2.6597194523071104 1.7137122395293116" fill="#ff2403" stroke="none" /><line stroke="#e1ed5e" stroke-width="0.3" x1="172.23445277983987" x2="176.4835382374775" y1="55.19839476539836" y2="52.563006222186495" /><path d="M 173.08426987136738 54.67131705675599 a86.0,86.0 0 0,1 12.851231095245387,41.99856678651699" fill="none" id="id123" stroke="none" /><text fill="#e1ed5e" style="font-size:6.75px; font-family:Arial;" text-anchor="middle"><textPath startOffset="22.20632615414155" xlink:href="#id123">March</textPath></text><path d="M 118.03404312379186 89.2402003453031 l 4.33528424307436 -2.5865963379063053 a26.04828387509252,26.04828387509252 0 0,0 0.22642201038327203,0.38702861151804385 l -4.37916592792796 2.5115883140343658" fill="#ff3f05" stroke="none" /><path d="M 118.56541770881063 90.18545643968196 l 0.6758177121154635 -0.3572686851663959 a21.764441294939974,21.764441294939974 0 0,0 0.1722402302742593,0.33271330192567217 l -0.6818673755498392 0.34558266098037893" fill="#ff0200" stroke="none" /><path d="M 118.73160827565052 90.50648371742162 l 8.51729226487372 -4.3167170490730085 a30.548733612738147,30.548733612738147 0 0,0 0.23368324627809722,0.47109116495167064 l -8.590335524105226 4.169466295622389" fill="#ff7d0b" stroke="none" /><path d="M 119.196687751892 91.48605970444005 l 2.891541213185612 -1.2824300509230766 a24.16316888943058,24.16316888943058 0 0,0 0.16535580233578517,0.38166399000583384 l -2.913187725364078 1.23246691633064" fill="#ff2403" stroke="none" /><path d="M 119.34039704204932 91.81776055985345 l 2.162013316357031 -0.9146715338241099 a23.34753606892275,23.34753606892275 0 0,0 0.15340255438826778,0.37147645323265777 l -2.1774375576314964 0.877320510138149" fill="#ff1902" stroke="none" /><path d="M 119.61058180528143 92.48833698450437 l 2.8174494579896865 -1.0791995414388793 a24.017066969519945,24.017066969519945 0 0,0 0.14455462202840463,0.3873345189996873 l -2.835608668519716 1.030541885409859" fill="#ff2203" stroke="none" /><path d="M 119.7369772167798 92.82701384747503 l 10.637155945438465 -3.865848932227097 a32.317856447860535,32.317856447860535 0 0,0 0.18551514426763901,0.52447629458261 l -10.702124170515914 3.682175011217873" fill="#ff940d" stroke="none" /><path d="M 120.08093135843002 93.85539295169968 l 3.7812397847704946 -1.15702963264503 a24.954300428742094,24.954300428742094 0 0,0 0.1221502345608384,0.4118298668047847 l -3.800595916443035 1.0917703790937154" fill="#ff3004" stroke="none" /><path d="M 120.18372546131832 94.20196356495316 l 3.0343620764062584 -0.871659788964389 a24.1570783959905,24.1570783959905 0 0,0 0.11136784634273246,0.4006493975117013 l -3.048916693315354 0.8192990880337357" fill="#ff2403" stroke="none" /><path d="M 120.37134235888165 94.90015583598534 l 6.126445181721129 -1.5337190429443743 a27.315506683340953,27.315506683340953 0 0,0 0.11025995290493734,0.4570986882491526 l -6.1519379348868855 1.4280351230358157" fill="#ff5107" stroke="none" /><path d="M 120.53481517161879 95.60439243477599 l 0.6404668960408325 -0.1370960054904014 a21.654975693934976,21.654975693934976 0 0,0 0.07488569437319935,0.3651692408767614 l -0.6427318863290288 0.1260511084502282" fill="#ff0000" stroke="none" /><path d="M 120.6074358757038 95.95851677861258 l 3.1030418904544996 -0.6085614829120941 a24.162153704739794,24.162153704739794 0 0,0 0.07652991249759424,0.4088258527149145 l -3.113057526861953 0.5550575527346168" fill="#ff2403" stroke="none" /><path d="M 120.83666639777658 97.38593545837742 l 7.385302319740435 -0.9265233005437226 a28.443193923337876,28.443193923337876 0 0,0 0.05676401032274073,0.4863193752483316 l -7.400156683066765 0.7992601869705382" fill="#ff6008" stroke="none" /><path d="M 120.96714384426684 98.82574320788733 l 6.305386215471945 -0.35313071944398744 a27.31526694853659,27.31526694853659 0 0,0 0.02225074560134725,0.469678072130687 l -6.310530569306788 0.24454154069030065" fill="#ff5107" stroke="none" /><line stroke="#e1ed5e" stroke-width="0.3" x1="184.98032266829074" x2="189.97916517819016" y1="98.17113171792111" y2="98.06355123074" /><path d="M 185.9800911702706 98.14961562048488 a86.0,86.0 0 0,1 -9.607161424134198,41.387399972396054" fill="none" id="id124" stroke="none" /><text fill="#e1ed5e" style="font-size:6.75px; font-family:Arial;" text-anchor="middle"><textPath startOffset="21.466115282336823" xlink:href="#id124">April</textPath></text><path d="M 120.9904718944345 100.63252640178507 l 9.453287516572404 0.28486515062496914 a30.457578602635255,30.457578602635255 0 0,0 -0.020301958997796406,0.5239033520062479 l -9.446983424723404 -0.4475457496452232" fill="#ff7b0b" stroke="none" /><path d="M 120.9764740272857 100.99374915477107 l 3.15570167849329 0.14949966670438186 a24.159240926866783,24.159240926866783 0 0,0 -0.02325459137711079,0.41522635058919166 l -3.15266073622865 -0.20379773362899684" fill="#ff2403" stroke="none" /><path d="M 120.89721153311464 102.0752229133903 l 3.140626885954804 0.3118837585490826 a24.15607489068762,24.15607489068762 0 0,0 -0.044651582477367766,0.4134181983114079 l -3.1347930019763846 -0.36589827874528197" fill="#ff2403" stroke="none" /><path d="M 120.8583938346157 102.4346265915055 l 6.387516808068571 0.7455616380588228 a27.430881209406955,27.430881209406955 0 0,0 -0.058778488307252685,0.4685223844793232 l -6.373736810514471 -0.8554017768255409" fill="#ff5207" stroke="none" /><path d="M 120.81339534386255 102.79330883721812 l 3.7552973528177582 0.5039881820676047 a24.788965860989496,24.788965860989496 0 0,0 -0.06039766488545712,0.4224211275370544 l -3.7460656369157 -0.5685547815850683" fill="#ff2d04" stroke="none" /><path d="M 120.70491114924044 103.5080841355445 l 3.1141504671781317 0.5276381903240801 a24.15853370919391,24.15853370919391 0 0,0 -0.07299737674842804,0.4094080550895993 l -3.104606648090515 -0.5811649961468978" fill="#ff2403" stroke="none" /><path d="M 120.5718875245553 104.21870165774334 l 3.0939932270426436 0.6344889033829003 a24.158380955094206,24.158380955094206 0 0,0 -0.08704605322991951,0.40665018156692445 l -3.082613135088281 -0.6876529043659938" fill="#ff2403" stroke="none" /><path d="M 120.41448212921028 104.9243191809786 l 3.0760849107895143 0.7420038300577565 a24.16431162533138,24.16431162533138 0 0,0 -0.10101681707392493,0.4035119698633132 l -3.0628567794205286 -0.7948436393184657" fill="#ff2403" stroke="none" /><path d="M 120.23288151984713 105.62410040840565 l 3.0852184516431773 0.8575930391766644 a24.2021927979439,24.2021927979439 0 0,0 -0.11502652593985795,0.40042242685916446 l -3.0699992888172196 -0.9105729415404108" fill="#ff2503" stroke="none" /><path d="M 120.02730092923936 106.31721596034902 l 3.024013910144449 0.9538653763169628 a24.17088619866488,24.17088619866488 0 0,0 -0.1285750137235865,0.3957132030291673 l -3.0071466454046156 -1.0057774793239254" fill="#ff2503" stroke="none" /><path d="M 119.79798401119884 107.00284435728193 l 0.9825512040217339 0.3475431211042539 a22.042205876759215,22.042205876759215 0 0,0 -0.12960369808132277,0.3566137145463498 l -0.9764232449351844 -0.36440463265673484" fill="#ff0601" stroke="none" /><path d="M 119.41010516605496 108.01547362559984 l 5.2709500650915 2.1766580277206016 a26.702697147694995,26.702697147694995 0 0,0 -0.17909755679865577,0.42333371970900663 l -5.232701527100535 -2.2670662730957716" fill="#ff4806" stroke="none" /><path d="M 119.26925614724726 108.34839909993367 l 1.0004269578831029 0.43343466145857457 a22.090284230745795,22.090284230745795 0 0,0 -0.15416800451599863,0.3476081510190141 l -0.9928178686358314 -0.4505911489702764" fill="#ff0701" stroke="none" /><line stroke="#e1ed5e" stroke-width="0.3" x1="174.80103733775053" x2="179.2010983576182" y1="140.37084112569926" y2="142.7455964860345" /><path d="M 175.68104954172406 140.8457921977663 a86.0,86.0 0 0,1 -30.038265399797805,32.042727171017184" fill="none" id="id125" stroke="none" /><text fill="#e1ed5e" style="font-size:6.75px; font-family:Arial;" text-anchor="middle"><textPath startOffset="22.206326154141568" xlink:href="#id125">May</textPath></text><path d="M 118.30583269289576 110.29060199501025 l 6.369319658741847 3.5805054425381906 a28.306726499553747,28.306726499553747 0 0,0 -0.24242420268596582,0.42268703137983715 l -6.306743459903501 -3.689612319776343" fill="#ff5e08" stroke="none" /><path d="M 117.94076556474637 110.91462005526583 l 53.8222966942391 32.74386016579747 a84.0,84.0 0 0,0 -0.7621414413281484,1.228814674538906 l -53.25069061324299 -33.665471171701654" fill="#4dd2ff" stroke="none" /><path d="M 117.14729908036423 112.12312394758627 l 5.736212305428808 4.0554965795176345 a28.02503979486466,28.02503979486466 0 0,0 -0.28187879638825275,0.3915049943670484 l -5.665553716664952 -4.153635179335814" fill="#ff5a08" stroke="none" /><path d="M 116.93607887273984 112.41649034213515 l 4.993889468470184 3.6612123042692994 a27.19220538743914,27.19220538743914 0 0,0 -0.280000383273654,0.37510627040373984 l -4.930127818501438 -3.746631454182354" fill="#ff4f07" stroke="none" /><path d="M 115.80600337817218 113.82643327865902 l 2.4166699713304647 2.11400221268354 a24.210809727399194,24.210809727399194 0 0,0 -0.277088279087063,0.311311618946994 l -2.379922842595063 -2.1552880013714" fill="#ff2503" stroke="none" /><path d="M 115.32070863581623 114.36230785411682 l 4.600181139927276 4.312412649234984 a27.305439665671578,27.305439665671578 0 0,0 -0.32440610991914365,0.3401385092916862 l -4.525268478629168 -4.390958275109178" fill="#ff5007" stroke="none" /><path d="M 115.07121518719521 114.62390073753431 l 2.268678342567568 2.201343851509051 a24.161141593572143,24.161141593572143 0 0,0 -0.29218801985944204,0.2959849214869327 l -2.2304496976525905 -2.240069266976648" fill="#ff2403" stroke="none" /><path d="M 114.81725581225074 114.88116024355365 l 2.2299515639048533 2.2395689848585065 a24.160435605308525,24.160435605308525 0 0,0 -0.29723093758347685,0.290903031245147 l -2.191070673945582 -2.2776221190262254" fill="#ff2403" stroke="none" /><path d="M 114.29624159901734 115.38237550388516 l 2.1543658534803476 2.3180403255958257 a24.16458578359483,24.16458578359483 0 0,0 -0.30712089678990834,0.2805476574514021 l -2.1141454072235755 -2.3547807496338105" fill="#ff2403" stroke="none" /><path d="M 114.0293411484842 115.62618273729858 l 3.37314618602348 3.7570829695106247 a26.049137315628435,26.049137315628435 0 0,0 -0.33622942236130715,0.2966833725092497 l -3.3079744107555853 -3.8145894837921634" fill="#ff3f05" stroke="none" /><path d="M 113.75828350139079 115.86535959552629 l 0.6791610061819997 0.7831742662700362 a22.036639572689445,22.036639572689445 0 0,0 -0.28871620603215675,0.2460502143449285 l -0.6655793235727957 -0.7947488708379115" fill="#ff0601" stroke="none" /><path d="M 113.48314897796784 116.09983520530334 l 2.033481824367898 2.428121377194564 a24.167147257773756,24.167147257773756 0 0,0 -0.32122727178590044,0.2643481756384756 l -1.9913844240373064 -2.462764671690218" fill="#ff2403" stroke="none" /><path d="M 112.92097659922987 116.55440617244103 l 1.9406925107384376 2.4864228978244047 a24.15413795640929,24.15413795640929 0 0,0 -0.3299584889380332,0.252998099165917 l -1.8976052933069107 -2.519460338817693" fill="#ff2403" stroke="none" /><path d="M 112.04921762599082 117.19931262002967 l 1.8131786121192655 2.5881701828110484 a24.16010151334398,24.16010151334398 0 0,0 -0.34266285250294115,0.2356866345182306 l -1.7683588749934411 -2.618997606694373" fill="#ff2403" stroke="none" /><path d="M 111.7513745106137 117.40417183066458 l 1.768978902744165 2.6199158881689044 a24.16120951843338,24.16120951843338 0 0,0 -0.34668493985470406,0.22976387398373427 l -1.7236192641494967 -2.649977783243957" fill="#ff2403" stroke="none" /><path d="M 111.1453310114006 117.79835938074945 l 1.677297850104399 2.678534167731727 a24.160359689287144,24.160359689287144 0 0,0 -0.3543758724484487,0.2176866047041843 l -1.6309427777236414 -2.70700923926429" fill="#ff2403" stroke="none" /><line stroke="#e1ed5e" stroke-width="0.3" x1="143.8653032363475" x2="146.44561519142675" y1="172.8068346515853" y2="177.08958963109032" /><path d="M 144.38136562736335 173.6633856474863 a86.0,86.0 0 0,1 -40.68145358897372,12.25698825130547" fill="none" id="id126" stroke="none" /><text fill="#e1ed5e" style="font-size:6.75px; font-family:Arial;" text-anchor="middle"><textPath startOffset="21.466115282336833" xlink:href="#id126">June</textPath></text><path d="M 110.8373102113329 117.98757091392108 l 1.6363871679078645 2.7160457393378374 a24.170909557440694,24.170909557440694 0 0,0 -0.35822684003536637,0.21164673135146905 l -1.589392456844116 -2.743811042983056" fill="#ff2503" stroke="none" /><path d="M 109.89434966115114 118.52300852407294 l 1.9117528178632557 3.578953135266664 a25.057549060830095,25.057549060830095 0 0,0 -0.3821981392653593,0.19994800266402693 l -1.8498637760714007 -3.6113305568754077" fill="#ff3104" stroke="none" /><path d="M 107.93186726928326 119.44442032107085 l 0.24585471697304737 0.6026957199920238 a21.650912185132988,21.650912185132988 0 0,0 -0.3462897660692626,0.1377958445252437 l -0.23544387486191853 -0.6068384089233364" fill="#ff0000" stroke="none" /><path d="M 107.2578585660854 119.70592522655815 l 0.8885092478859352 2.4124053455328283 a23.570826371954006,23.570826371954006 0 0,0 -0.38193767400803535,0.13694926120772685 l -0.8468520132481651 -2.4273421477805153" fill="#ff1c02" stroke="none" /><path d="M 106.91757812671514 119.82793768551818 l 1.0430373247291362 2.9896704741981086 a24.16639485931083,24.16639485931083 0 0,0 -0.39394706695868104,0.13364823411432925 l -0.9914205248332283 -3.007181695210561" fill="#ff2403" stroke="none" /><path d="M 106.57524785965236 119.94407469862006 l 1.9733309961888659 5.985517448641679 a27.302416548318092,27.302416548318092 0 0,0 -0.4476018688105621,0.14330798359200111 l -1.8700077822873635 -6.0185982788933865" fill="#ff5007" stroke="none" /><path d="M 103.06178313531738 120.77559828337769 l 0.9217210749770374 6.2542988633520595 a27.321852893905685,27.321852893905685 0 0,0 -0.46586544557652293,0.06456470578129826 l -0.813927038213684 -6.269238134625961" fill="#ff5107" stroke="none" /><path d="M 102.34483914955558 120.86867818915974 l 0.7055067620034918 6.278892767257573 a27.318404400950616,27.318404400950616 0 0,0 -0.4677527493013281,0.04848448499068659 l -0.5973214160965611 -6.290106620704018" fill="#ff5107" stroke="none" /><path d="M 101.62511606390274 120.93702456842531 l 0.48804463618184796 6.287675548347255 a27.306587933914013,27.306587933914013 0 0,0 -0.4689415469063868,0.032340954644193995 l -0.37974032849653083 -6.295144847507734" fill="#ff5007" stroke="none" /><path d="M 100.90346689309514 120.98055641714683 l 0.1363571708915517 3.166523686298996 a24.169458239817356,24.169458239817356 0 0,0 -0.41580635109978054,0.014321211467150279 l -0.08183046811711883 -3.16840169619224" fill="#ff2403" stroke="none" /><line stroke="#e1ed5e" stroke-width="0.3" x1="102.19456741930631" x2="102.32365962044197" y1="184.97166512339345" y2="189.96999836594603" /><path d="M 102.22038585953345 185.97133177190398 a86.0,86.0 0 0,1 -42.740103519485714,-10.115201625700543" fill="none" id="id127" stroke="none" /><text fill="#e1ed5e" style="font-size:6.75px; font-family:Arial;" text-anchor="middle"><textPath startOffset="22.20632615414155" xlink:href="#id127">July</textPath></text><path d="M 99.09653310690486 120.98055641714683 l -0.05619575311189003 1.304993218433196 a22.3062026117048,22.3062026117048 0 0,0 -0.3834669186291252,-0.019820859577899447 l 0.07865074015450413 -1.3038325520930947" fill="#ff0a01" stroke="none" /><path d="M 97.2962882734958 120.8252237178851 l -0.40608349852207737 3.1278407464682063 a24.15409123885767,24.15409123885767 0 0,0 -0.41185187992855177,-0.05707891775521795 l 0.4598639696374602 -3.1203872632203833" fill="#ff2403" stroke="none" /><path d="M 96.93821686468263 120.77559828337769 l -0.5479331566076251 3.7179769581045616 a24.758135628886542,24.758135628886542 0 0,0 -0.42108181574068876,-0.06576431963377236 l 0.611850835956831 -3.707994331123684" fill="#ff2d04" stroke="none" /><path d="M 96.58105272829116 120.7198165907248 l -0.41137011401440865 2.4930227452802765 a23.526734607984984,23.526734607984984 0 0,0 -0.39900336802561764,-0.06937184998502231 l 0.45422245351207624 -2.485572316774248" fill="#ff1b02" stroke="none" /><path d="M 95.86986931433489 120.58985236759428 l -0.621822983048974 3.0999608472906384 a24.16171173211329,24.16171173211329 0 0,0 -0.40707713891921155,-0.0853069723974078 l 0.6750915833975724 -3.0887978941666896" fill="#ff2403" stroke="none" /><path d="M 95.16358092515715 120.4354850818985 l -1.4545410278106239 6.145921396565319 a27.31569785647982,27.31569785647982 0 0,0 -0.4566231432125793,-0.11222685901577277 l 1.560117455766414 -6.1199732792355155" fill="#ff5107" stroke="none" /><path d="M 94.46302465271185 120.25689768951611 l -0.8345688952620656 3.053251218547705 a24.16525642634242,24.16525642634242 0 0,0 -0.4003018821659147,-0.11312931040751306 l 0.8870019455325941 -3.0384331148016708" fill="#ff2403" stroke="none" /><path d="M 94.11515582081647 120.15858648285463 l -0.9085158142492034 3.112129064923619 a24.242028423916615,24.242028423916615 0 0,0 -0.3995606051356393,-0.12038433268174539 l 0.9619513938250885 -3.096029363136148" fill="#ff2603" stroke="none" /><path d="M 93.76903079525671 120.05430185196036 l -0.9375280878282559 3.0174232370923177 a24.159715478838496,24.159715478838496 0 0,0 -0.3960797308590526,-0.12681222203541864 l 0.9893291637782489 -3.0008381683971925" fill="#ff2403" stroke="none" /><path d="M 93.08242187328487 119.8279376855182 l -1.6253905933230524 4.658876677456586 a25.93427061242206,25.93427061242206 0 0,0 -0.4202345237496451,-0.15068114898841786 l 1.705344677702424 -4.630207987428211" fill="#ff3d05" stroke="none" /><path d="M 91.07499286063937 119.00905698771935 l -1.3488049034741272 2.87277185049868 a24.17365605771222,24.17365605771222 0 0,0 -0.37513753701560104,-0.1800888148380726 l 1.3980551084899702 -2.849128759161045" fill="#ff2503" stroke="none" /><path d="M 90.42595943632237 118.69057910512821 l -0.4676009272750525 0.9128572270753489 a22.02565049808021,22.02565049808021 0 0,0 -0.3359531539193769,-0.17575481200399473 l 0.48324498372092495 -0.9046729961266374" fill="#ff0600" stroke="none" /><line stroke="#e1ed5e" stroke-width="0.3" x1="58.666819895761336" x2="56.23545636021788" y1="174.27360380694188" y2="178.64263932499728" /><path d="M 58.180547188652646 175.14741091055294 a86.0,86.0 0 0,1 -31.652253787137756,-30.449443065178592" fill="none" id="id128" stroke="none" /><text fill="#e1ed5e" style="font-size:6.75px; font-family:Arial;" text-anchor="middle"><textPath startOffset="22.20632615414155" xlink:href="#id128">August</textPath></text><path d="M 89.7882731507175 118.34994917583269 l -0.624770637070556 1.1226807773068124 a22.284815347308623,22.284815347308623 0 0,0 -0.3335837706361748,-0.18941757096884584 l 0.644003174627938 -1.1117600405433334" fill="#ff0901" stroke="none" /><path d="M 89.4739219176387 118.17145234162733 l -0.960984556435991 1.6589735447220981 a22.917207484806035,22.917207484806035 0 0,0 -0.33964625121811803,-0.2006689919688811 l 0.9893986786824912 -1.6421859804594674" fill="#ff1302" stroke="none" /><path d="M 89.1626897886671 117.98757091392108 l -1.6437052531029008 2.72819216440392 a24.185090178471093,24.185090178471093 0 0,0 -0.35473861078485375,-0.2179094282172595 l 1.6904230638200632 -2.6994942693582824" fill="#ff2503" stroke="none" /><path d="M 88.8546689885994 117.79835938074946 l -3.3636799147151586 5.371575227570173 a27.3378358289012,27.3378358289012 0 0,0 -0.39668266998665824,-0.25318164837642476 l 3.45564438674874 -5.312879150369945" fill="#ff5107" stroke="none" /><path d="M 88.24862548938628 117.40417183066458 l -0.43817920114468906 0.6489577965928713 a21.783037185626885,21.783037185626885 0 0,0 -0.3089489360829781,-0.2124978953846749 l 0.4492850218505574 -0.6413191118430953" fill="#ff0200" stroke="none" /><path d="M 87.65650970185807 116.9893568818739 l -2.8435002935820815 3.913742394940852 a25.83765164656972,25.83765164656972 0 0,0 -0.35756237607536623,-0.2645160977114322 l 2.9104476400760118 -3.8642163484896535" fill="#ff3c05" stroke="none" /><path d="M 87.36589467227662 116.77436683061367 l -2.417195287384737 3.209322654834051 a25.017783588022887,25.017783588022887 0 0,0 -0.3417563518176621,-0.2620441973353341 l 2.4720803676958854 -3.16723911567135" fill="#ff3104" stroke="none" /><path d="M 87.07902340077011 116.55440617244103 l -3.88482945544624 4.977258818033387 a27.313874027852776,27.313874027852776 0 0,0 -0.3681422565926516,-0.29247447361905576 l 3.9699292047562498 -4.909650430409201" fill="#ff5107" stroke="none" /><path d="M 86.79598089348748 116.32954008644616 l -0.7564736074434296 0.9355383385497607 a22.203114417524336,22.203114417524336 0 0,0 -0.29512154634624455,-0.24286494087037355 l 0.772465282334363 -0.9223782788222064" fill="#ff0801" stroke="none" /><path d="M 86.51685102203217 116.09983520530335 l -0.4956810455586558 0.5918782890352378 a21.772023061804116,21.772023061804116 0 0,0 -0.2852492947172766,-0.24309563730935632 l 0.505795816852989 -0.5832582615029299" fill="#ff0200" stroke="none" /><path d="M 84.67929136418377 114.36230785411682 l -2.3084777138403996 2.164068803125387 a24.164216038761946,24.164216038761946 0 0,0 -0.28186245317437886,-0.30590602441019515 l 2.345386575010507 -2.1240115239138477" fill="#ff2403" stroke="none" /><path d="M 84.19399662182784 113.82643327865904 l -2.3786613504410847 2.0807538545649686 a24.160311127621643,24.160311127621643 0 0,0 -0.27112182325354783,-0.3153759319744573 l 2.4141256832654117 -2.039500823428981" fill="#ff2403" stroke="none" /><path d="M 83.28015986056508 112.70617746262583 l -2.5244775164690982 1.9184668667381999 a24.17072576075735,24.17072576075735 0 0,0 -0.24888795816984027,-0.33342609265733275 l 2.5571267413340237 -1.874727894571559" fill="#ff2503" stroke="none" /><path d="M 82.6465618267979 111.8261652097733 l -5.225908700779542 3.561395675587131 a27.324054151173442,27.324054151173442 0 0,0 -0.2615261919988049,-0.39094617269851534 l 5.2864379981890774 -3.4709125886827947" fill="#ff5107" stroke="none" /><path d="M 82.44556493220864 111.52570212397912 l -2.6484687196229406 1.7389030993687786 a24.168307205404098,24.168307205404098 0 0,0 -0.22533509577274413,-0.3497250726754824 l 2.6780086787727306 -1.6930564267718478" fill="#ff2403" stroke="none" /><path d="M 82.24976979558568 111.22182372390057 l -0.7343500486266777 0.4642614040733391 a21.868797240574665,21.868797240574665 0 0,0 -0.19841805534577645,-0.3199130829016059 l 0.74223274364041 -0.451551989806469" fill="#ff0300" stroke="none" /><path d="M 82.05923443525364 110.91462005526583 l -5.391063963519455 3.2797605343594602 a27.31034070565924,27.31034070565924 0 0,0 -0.2408760661850065,-0.4037221420915124 l 5.446720905402693 -3.1864762983818364" fill="#ff5007" stroke="none" /><line stroke="#e1ed5e" stroke-width="0.3" x1="26.63291911575756" x2="22.317208475507996" y1="142.92168965132927" y2="145.44649492493687" /><path d="M 25.769776987707644 143.4266507060508 a86.0,86.0 0 0,1 -11.730757126820373,-40.83630448921669" fill="none" id="id129" stroke="none" /><text fill="#e1ed5e" style="font-size:6.75px; font-family:Arial;" text-anchor="middle"><textPath startOffset="21.46611528233685" xlink:href="#id129">September</textPath></text><path d="M 81.51974371655577 109.97397251340807 l -5.547602908416612 2.99409478284235 a27.304006789187035,27.304006789187035 0 0,0 -0.2196639744020872,-0.41552145703860227 l 5.598319391043585 -2.8981583107176214" fill="#ff5007" stroke="none" /><path d="M 81.35079622478065 109.6543875284942 l -4.794089706604666 2.481821767395112 a26.39840118924937,26.39840118924937 0 0,0 -0.205431516088711,-0.4053358705360139 l 4.836099892479644 -2.398931685156413" fill="#ff4406" stroke="none" /><path d="M 81.02952815118164 109.00673069616217 l -2.8535915522989463 1.3548176784016503 a24.158878865841732,24.158878865841732 0 0,0 -0.1751235520034748,-0.377200551292912 l 2.876489721142248 -1.3054970598299112" fill="#ff2403" stroke="none" /><path d="M 80.87730276802145 108.67885076344099 l -0.7023696563361714 0.3187710056883157 a21.771322298529824,21.771322298529824 0 0,0 -0.15194197047801092,-0.3425890319191831 l 0.7077527115454623 -0.3066336372764367" fill="#ff0200" stroke="none" /><path d="M 80.45479744820244 107.68017299344265 l -1.4299018552930935 0.5618715683908612 a22.536332963630162,22.536332963630162 0 0,0 -0.13876556043727364,-0.36227309040583805 l 1.4393616953238761 -0.5371749111518653" fill="#ff0d01" stroke="none" /><path d="M 80.32549172779594 107.34259656027581 l -4.237725564293545 1.5815342737553901 a25.523225466117076,25.523225466117076 0 0,0 -0.15007138695043246,-0.41293200379156425 l 4.264321212249202 -1.5083544729577087" fill="#ff3805" stroke="none" /><path d="M 80.20201598880116 107.00284435728193 l -4.257388998356255 1.5059024447655331 a25.515872369374016,25.515872369374016 0 0,0 -0.14290002605336735,-0.4153343657305532 l 4.282679855352851 -1.4323953759456831" fill="#ff3805" stroke="none" /><path d="M 80.0844068197444 106.66101706037122 l -2.65752326977093 0.8888416065772685 a23.802225781580926,23.802225781580926 0 0,0 -0.12661395537444767,-0.38967768603258146 l 2.6724294761616267 -0.8429650205668836" fill="#ff1f03" stroke="none" /><path d="M 79.97269907076064 106.31721596034903 l -1.4970463113467825 0.4722136490002161 a22.569755837262313,22.569755837262313 0 0,0 -0.11367980565027803,-0.3715121823346455 l 1.504952889503191 -0.44637449411352287" fill="#ff0e01" stroke="none" /><path d="M 79.86692584326677 105.97154293290107 l -3.0284404480035425 0.8982464383830439 a24.158844442382645,24.158844442382645 0 0,0 -0.11482050284157197,-0.39970523342634223 l 3.0434535877312188 -0.8459837294521056" fill="#ff2403" stroke="none" /><path d="M 79.35854240842038 103.8639653848113 l -3.119491046995673 0.5839512723528361 a24.17367665031721,24.17367665031721 0 0,0 -0.07304313262879573,-0.409664678366011 l 3.1290806219636575 -0.5301678432536113" fill="#ff2503" stroke="none" /><path d="M 79.23777060512086 103.15116336523772 l -3.125020151622397 0.4742963209842453 a24.16080811631223,24.16080811631223 0 0,0 -0.05886717502271295,-0.4117168850016676 l 3.1327213776617087 -0.4204339640021771" fill="#ff2403" stroke="none" /><path d="M 79.1416061653843 102.43462659150553 l -0.6805749662873201 0.07943784759142355 a21.68519534175806,21.68519534175806 0 0,0 -0.04008425593653136,-0.3711304269749922 l 0.6818415237249033 -0.06771109873164924" fill="#ff0100" stroke="none" /><path d="M 79.10278846688536 102.07522291339032 l -6.275701408782088 0.6232161329497422 a27.306570107479843,27.306570107479843 0 0,0 -0.04242323209737506,-0.4681368311236249 l 6.285499237156538 -0.5150979132775512" fill="#ff5007" stroke="none" /><path d="M 79.04373962182676 101.35467743843564 l -1.2177796499739717 0.0787210402541103 a22.220321383107507,22.220321383107507 0 0,0 -0.02138827521925776,-0.3819020218704747 l 1.2189542760807612 -0.057747302048198036" fill="#ff0901" stroke="none" /><path d="M 79.0095281055655 100.63252640178507 l -10.094020410159358 0.30417298104079715 a31.0986023410722,31.0986023410722 0 0,0 -0.01151823712346381,-0.5352072190836398 l 10.09776070996783 -0.13037594616702852" fill="#ff840c" stroke="none" /><line stroke="#e1ed5e" stroke-width="0.3" x1="15.007084014347285" x2="10.007500721073583" y1="101.09737516637583" y2="101.16192664675087" /><path d="M 14.007167355692545 101.11028546245083 a86.0,86.0 0 0,1 10.666146001902534,-42.60595125391555" fill="none" id="id130" stroke="none" /><text fill="#e1ed5e" style="font-size:6.75px; font-family:Arial;" text-anchor="middle"><textPath startOffset="22.20632615414155" xlink:href="#id130">October</textPath></text><path d="M 79.00175016825051 100.2711162175752 l -0.7431105778634176 0.009594577201659502 a21.743172514860568,21.743172514860568 0 0,0 -0.0016107577341034367,-0.3742833703764024 l 0.7431656328870241 0.003198271378418284" fill="#ff0200" stroke="none" /><path d="M 79.00019446554 99.90962569577889 l -4.23054162994614 -0.018206466515009945 a25.230580806240475,25.230580806240475 0 0,0 0.0056071876685060435,-0.434282864263396 l 4.2296014351599185 0.09102558883887792" fill="#ff3404" stroke="none" /><path d="M 79.00486145842228 99.54816195383935 l -6.299972407960416 -0.1355822071877083 a27.3014311768017,27.3014311768017 0 0,0 0.014155539259580699,-0.4697534334381152 l 6.29670517424519 0.24400578805081793" fill="#ff5007" stroke="none" /><path d="M 79.01574976396665 99.18683210126434 l -0.8470200488825298 -0.032823165259154644 a21.84765578119104,21.84765578119104 0 0,0 0.01779688376060565,-0.37566408804341384 l 0.8463295568884253 0.04739835992557757" fill="#ff0300" stroke="none" /><path d="M 79.03285615573316 98.82574320788736 l -6.295763954713471 -0.35259182844694986 a27.305629609401187,27.305629609401187 0 0,0 0.03032148308303009,-0.4690599226883834 l 6.288761880626028 0.4609108153883451" fill="#ff5007" stroke="none" /><path d="M 79.05617556472873 98.46500227214037 l -4.897021411042647 -0.3589085060592505 a25.910156210950095,25.910156210950095 0 0,0 0.036429082687893584,-0.4445270802751315 l 4.890117844535256 0.4431495035421604" fill="#ff3d05" stroke="none" /><path d="M 79.08570108090925 98.10471618934814 l -15.233687965091177 -1.380498686016414 a36.296111454871685,36.296111454871685 0 0,0 0.06174292512981911,-0.6217428300284079 l 15.20766791427913 1.642517046749252" fill="#ffc712" stroke="none" /><path d="M 79.12142395522702 97.74499172005258 l -2.9099804607079647 -0.31429490302929464 a23.92690409268434,23.92690409268434 0 0,0 0.047750862106732586,-0.40910022557041925 l 2.9041392455976434 0.3643388669245756" fill="#ff2103" stroke="none" /><path d="M 79.16333360222342 97.38593545837743 l -1.6833650725581453 -0.21118661031352387 a22.696560565345195,22.696560565345195 0 0,0 0.05196863998133282,-0.38722673089436893 l 1.6794804335189786 0.24013168327255222" fill="#ff0f01" stroke="none" /><path d="M 79.26566170972629 96.67025291283419 l -6.225221997173206 -0.9997143155405891 a27.30498355483866,27.30498355483866 0 0,0 0.07851891086179191,-0.4634230566070049 l 6.207091224791191 1.106723160463422" fill="#ff5007" stroke="none" /><path d="M 79.3925641242962 95.95851677861259 l -3.106770957098848 -0.6092928189388279 a24.165953808741264,24.165953808741264 0 0,0 0.08356898002269092,-0.4075120255098107 l 3.095822681161163 0.6626805006120411" fill="#ff2403" stroke="none" /><path d="M 79.54389044137918 95.25157060432595 l -1.7831758516101612 -0.4139244858450331 a22.830587227571442,22.830587227571442 0 0,0 0.09215642608011616,-0.3820478819836644 l 1.7757866252692303 0.4445575994880943" fill="#ff1101" stroke="none" /><path d="M 79.62865764111835 94.90015583598534 l -12.223474747263758 -3.060074061670023 a33.60068998745309,33.60068998745309 0 0,0 0.14528885250235127,-0.5598572157444922 l 12.1689895628911 3.2700277029633793" fill="#ffa50f" stroke="none" /><path d="M 79.91906864156998 93.8553929516997 l -0.6818798245641244 -0.20864986296323212 a21.71308825573149,21.71308825573149 0 0,0 0.11243710848894359,-0.35645636012057164 l 0.678187232306977 0.22035638951021827" fill="#ff0100" stroke="none" /><path d="M 80.02781315780177 93.51064311812611 l -2.3766392807146945 -0.772216913145011 a23.498946424312308,23.498946424312308 0 0,0 0.1283072757392277,-0.38362242320198003 l 2.3629947112036946 0.8130124392693132" fill="#ff1b02" stroke="none" /><path d="M 80.14247586403 93.16781622104843 l -0.5952127736029466 -0.20478902752375677 a21.629457537610154,21.629457537610154 0 0,0 0.1241602128530451,-0.35101764132963664 l 0.591599479940092 0.21500429528000448" fill="#ff0000" stroke="none" /><path d="M 80.2630227832202 92.82701384747504 l -3.017157347694467 -1.0965219059280222 a24.210233441811784,24.210233441811784 0 0,0 0.14571725801664084,-0.3904498054219117 l 2.997835501176199 1.1482948483792752" fill="#ff2503" stroke="none" /><path d="M 80.38941819471856 92.48833698450439 l -3.997114001568264 -1.5310597978390332 a25.280311255749044,25.280311255749044 0 0,0 0.15915334328611946,-0.4050278989781714 l 3.9701671084004535 1.599636701712968" fill="#ff3405" stroke="none" /><path d="M 80.803312248108 91.48605970444005 l -4.027833267525646 -1.7863879646010083 a25.406202763271075,25.406202763271075 0 0,0 0.18074418226628533,-0.3982458470745047 l 3.996486768296009 1.855455820517584" fill="#ff3605" stroke="none" /><path d="M 80.95270993114464 91.15688171328213 l -0.7229118658972457 -0.3356275416550867 a21.797024097861836,21.797024097861836 0 0,0 0.1609261897622555,-0.33895159693442234 l 0.7170274822932385 0.3480215542300412" fill="#ff0200" stroke="none" /><path d="M 81.10775173730289 90.83032412892265 l -4.844491922372475 -2.3513570259353607 a26.38497742329044,26.38497742329044 0 0,0 0.2018324967381844,-0.40688199743828507 l 4.803299412680878 2.4343986118726075" fill="#ff4406" stroke="none" /><path d="M 81.26839172434947 90.50648371742162 l -5.620258463185534 -2.848448165655323 a27.300869951477637,27.300869951477637 0 0,0 0.2160546215456228,-0.4173487600213082 l 5.570394408479797 2.9447696479369667" fill="#ff5007" stroke="none" /><path d="M 81.43458229118936 90.18545643968196 l -0.809622110126756 -0.42800391522915593 a21.91579217765691,21.91579217765691 0 0,0 0.17917923886261247,-0.3319919170021954 l 0.8021347720456716 0.441876815563824" fill="#ff0400" stroke="none" /><path d="M 81.6062741919709 89.86733742301443 l -4.633203118011366 -2.5523205214331166 a26.289698590362107,26.289698590362107 0 0,0 0.22176281990513355,-0.3944913116508261 l 4.588582656813802 2.6316953430187273" fill="#ff4206" stroke="none" /><line stroke="#e1ed5e" stroke-width="0.3" x1="26.266209847984243" x2="21.928928074336255" y1="57.711370442889674" y2="55.22380399835377" /><path d="M 25.398753493254645 57.213857153982495 a86.0,86.0 0 0,1 29.58750427330803,-30.492523968695096" fill="none" id="id131" stroke="none" /><text fill="#e1ed5e" style="font-size:6.75px; font-family:Arial;" text-anchor="middle"><textPath startOffset="21.46611528233685" xlink:href="#id131">November</textPath></text><path d="M 81.78341655067845 89.55222093294921 l -7.024222343764462 -4.028610709008994 a29.09749367269786,29.09749367269786 0 0,0 0.25292695081485367,-0.4323341464182905 l 6.953835718479283 4.148924267781176" fill="#ff6909" stroke="none" /><path d="M 81.96595687620814 89.24020034530311 l -3.017532072042736 -1.8003750087504202 a24.51380847200578,24.51380847200578 0 0,0 0.21932177789177992,-0.36050733607546803 l 2.986094495864739 1.8520501180329627" fill="#ff2904" stroke="none" /><path d="M 82.15384107792192 88.93136811851018 l -8.86097267778186 -5.495795768184597 a31.426917469798653,31.426917469798653 0 0,0 0.2890863423914645,-0.45726516942800915 l 8.765058739144433 5.647508585326821" fill="#ff880c" stroke="none" /><path d="M 82.34701348167596 88.62581576622439 l -0.8499924636134318 -0.5476677200441122 a22.011151383215168,22.011151383215168 0 0,0 0.20795649971790747,-0.3167320161457435 l 0.8404393285376042 0.5622178001675227" fill="#ff0600" stroke="none" /><path d="M 82.54541684631803 88.32363383020206 l -5.231866158061102 -3.4998936654645276 a27.294575376101534,27.294575376101534 0 0,0 0.26459560793022435,-0.3882614052544612 l 5.170846084462138 3.5894330939894044" fill="#ff5007" stroke="none" /><path d="M 82.95767976084542 87.72973835380427 l -10.783608164455224 -7.764065679502921 a34.28784861895034,34.28784861895034 0 0,0 0.34898072315916523,-0.47600931419668063 l 10.648364828782425 7.948537437371103" fill="#ffae10" stroke="none" /><path d="M 83.17141714833178 87.43820079747576 l -6.127080991194684 -4.573597300937377 a28.6458429060373,28.6458429060373 0 0,0 0.29835881219575666,-0.39260522362276334 l 6.0474462387748185 4.678387300441167" fill="#ff6309" stroke="none" /><path d="M 83.39014120810768 87.1503855733568 l -0.6689998162572821 -0.5175474275914576 a21.845822731994602,21.845822731994602 0 0,0 0.2326537671465743,-0.2954466579161847 l 0.6599919685167368 0.5289864794606899" fill="#ff0300" stroke="none" /><path d="M 83.6137871275137 86.86637796730984 l -0.7591268738922513 -0.6084435442248534 a21.97287057575729,21.97287057575729 0 0,0 0.23908733618908598,-0.29309280416297095 l 0.7485410456267728 0.6214205179959065" fill="#ff0500" stroke="none" /><path d="M 83.84228863543731 86.58626213691792 l -1.914561790949381 -1.5894224996983672 a23.488334932019946,23.488334932019946 0 0,0 0.260932345071423,-0.30886159426624366 l 1.886918832390834 1.622143043593727" fill="#ff1b02" stroke="none" /><path d="M 84.07557802195018 86.31012108654704 l -2.6920921712566153 -2.314333035080192 a24.550140512121267,24.550140512121267 0 0,0 0.2782444377234318,-0.3180814917323861 l 2.65185586995534 2.3603300830155214" fill="#ff2a04" stroke="none" /><path d="M 84.5562425177563 85.77008943001954 l -15.479780914829144 -14.263102636399786 a42.04898368063368,42.04898368063368 0 0,0 0.4950420401801743,-0.5280763326561368 l 15.231971552678512 14.527448385933972" fill="#f0ff19" stroke="none" /><path d="M 84.80347519578584 85.50635884689758 l -6.914236454018824 -6.594432826145761 a30.55474803648069,30.55474803648069 0 0,0 0.3662724759204364,-0.37747598269560223 l 6.7996997143952695 6.712473004391487" fill="#ff7d0b" stroke="none" /><path d="M 85.05521093208273 85.24692304244772 l -1.1423555395145124 -1.1277013754261342 a22.60520608359098,22.60520608359098 0 0,0 0.27574497754552696,-0.2745608409804812 l 1.1227747618016723 1.1471980670567248" fill="#ff0e01" stroke="none" /><path d="M 85.31137513191541 84.99185889309783 l -4.787376607324817 -4.89151464482752 a27.844405766823222,27.844405766823222 0 0,0 0.34542544161486677,-0.33229900115327954 l 4.702467922097522 4.973196732743114" fill="#ff5808" stroke="none" /><path d="M 85.83668400450813 84.49514656593479 l -4.801475237308055 -5.256266953688729 a28.119164750370835,28.119164750370835 0 0,0 0.3601783978965917,-0.32337172189497676 l 4.710285851815493 5.338137684352984" fill="#ff5c08" stroke="none" /><path d="M 86.10567301691215 84.25364557470407 l -0.5029256194450195 -0.569962479145775 a21.760125914785277,21.760125914785277 0 0,0 0.28299168235975763,-0.24540759829603573 l 0.4930401384384884 0.5785350708614913" fill="#ff0200" stroke="none" /><path d="M 86.37877921826538 84.01681056812374 l -7.962512800998102 -9.343241144931016 a33.27590180794839,33.27590180794839 0 0,0 0.4391507327124575,-0.3677761093477127 l 7.800504531326534 9.47891841167254" fill="#ffa10e" stroke="none" /><path d="M 86.65592168130627 83.78471172551755 l -1.360203833233025 -1.6528752860383882 a23.14059598690138,23.14059598690138 0 0,0 0.3097496612909494,-0.2504626844522251 l 1.331550773377575 1.6760440677547475" fill="#ff1602" stroke="none" /><path d="M 86.93701828274178 83.55741782278169 l -0.551149609858421 -0.6937407513987531 a21.886026028172083,21.886026028172083 0 0,0 0.29699071023630963,-0.23180596012802518 l 0.5391263444626857 0.7031251007500001" fill="#ff0400" stroke="none" /><path d="M 87.22198572758235 83.33499621200491 l -4.317809793129111 -5.631259679656352 a28.096095193087887,28.096095193087887 0 0,0 0.386326454827359,-0.2909730763886155 l 4.220237184543362 5.704749345550822" fill="#ff5b08" stroke="none" /><path d="M 87.51073957382395 83.11751280151077 l -0.9590889638249521 -1.2964584452135297 a22.612654997417707,22.612654997417707 0 0,0 0.31491318398432727,-0.22879782079419114 l 0.9366304634868432 1.3127755008243889" fill="#ff0e01" stroke="none" /><path d="M 88.09926311788651 82.69761687909137 l -11.531894163339674 -16.76612573661389 a41.34914138754789,41.34914138754789 0 0,0 0.589905173810934,-0.3983066066371033 l 11.241584295122202 16.96214425554966" fill="#f8ff18" stroke="none" /><path d="M 88.39885842347998 82.49532879139004 l -0.8184347018690215 -1.234915569940955 a22.48150323189186,22.48150323189186 0 0,0 0.3244112756762072,-0.21100611778651315 l 0.7970564004085271 1.248820611887003" fill="#ff0c01" stroke="none" /><path d="M 88.70189139769569 82.29822771554957 l -0.8459871472614404 -1.3254848544595788 a22.572451701240226,22.572451701240226 0 0,0 0.3293222326315525,-0.2062215518617994 l 0.8230457622576456 1.3398507476443082" fill="#ff0e01" stroke="none" /><path d="M 89.00827224532344 82.1063720568725 l -1.0552004993947126 -1.7177795486735945 a23.015989749915438,23.015989749915438 0 0,0 0.33936302429140863,-0.20446242497678052 l 1.0254754088856548 1.7356885831089943" fill="#ff1402" stroke="none" /><line stroke="#e1ed5e" stroke-width="0.3" x1="56.762969772571076" x2="54.21961505331055" y1="26.818313649435495" y2="22.513508569990535" /><path d="M 56.25429882871897 25.957352633546506 a86.0,86.0 0 0,1 42.265352541879196,-11.944610805530505" fill="none" id="id132" stroke="none" /><text fill="#e1ed5e" style="font-size:6.75px; font-family:Arial;" text-anchor="middle"><textPath startOffset="22.20632615414155" xlink:href="#id132">December</textPath></text><path d="M 89.3179101791058 81.91981866633112 l -1.6073375340503138 -2.7205307732199104 a24.159876838802973,24.159876838802973 0 0,0 0.35987087706728577,-0.20846044005521847 l 1.5602699245177079 2.7477953706651763" fill="#ff2403" stroke="none" /><path d="M 89.94658935756843 81.56283822128135 l -3.3963734564032118 -6.2286809028131325 a28.094492120259865,28.094492120259865 0 0,0 0.4265746656103025,-0.22786141315282027 l 3.2886537442646038 6.286221042467702" fill="#ff5b08" stroke="none" /><path d="M 90.58718382345135 81.22770947309562 l -1.2528200930038143 -2.4985405348088228 a23.795042573829036,23.795042573829036 0 0,0 0.3677226199008433,-0.18043989258353885 l 1.209626206092545 2.5197355875271916" fill="#ff1f03" stroke="none" /><path d="M 90.91171255644093 81.06846463323043 l -0.7327932802380938 -1.5264594113592187 a22.693240776171315,22.693240776171315 0 0,0 0.3536058494374971,-0.1660226876476937 l 0.7064092195009882 1.53884708164692" fill="#ff0f01" stroke="none" /><path d="M 91.23893434514133 80.91482961587045 l -2.0667192533143717 -4.502156545738392 a25.953861325709003,25.953861325709003 0 0,0 0.40762131238345034,-0.18288780099039337 l 1.9889158224641468 4.537064677245314" fill="#ff3e05" stroke="none" /><path d="M 91.56875222667455 80.76684994638697 l -3.871469715924373 -8.831499201099074 a30.642803321666015,30.642803321666015 0 0,0 0.4849095833631767,-0.20761297719762595 l 3.718876374770888 8.896831706259487" fill="#ff7e0b" stroke="none" /><path d="M 92.23578459929587 80.48803036053334 l -2.329586262623647 -5.854399199783781 a27.300869951477637,27.300869951477637 0 0,0 0.4381358468477349,-0.16998990172813844 l 2.228467250776236 5.893631805402472" fill="#ff5007" stroke="none" /><path d="M 93.25333710446033 80.11325718540243 l -1.2254871975558028 -3.6122967899413245 a24.81451267791753,24.81451267791753 0 0,0 0.4056784980958381,-0.13374582258740525 l 1.1631258772175554 3.6328563367879636" fill="#ff2e04" stroke="none" /><path d="M 93.94186890950719 79.89281104454417 l -2.244704001751774 -7.450265905127386 a28.781076924988213,28.781076924988213 0 0,0 0.4755864398774106,-0.13883672323908489 l 2.116127344150942 7.487800957285169" fill="#ff6509" stroke="none" /><path d="M 94.28887869178378 79.79150937346287 l -0.2121292036678072 -0.7506075939533104 a21.780006768655962,21.780006768655962 0 0,0 0.3616540158548545,-0.09885370409272799 l 0.19917729858923017 0.7541478388723344" fill="#ff0200" stroke="none" /><path d="M 94.98787191387505 79.60689891045804 l -4.508533491257135 -18.34410008541434 a39.890020703680705,39.890020703680705 0 0,0 0.6682078290537611,-0.15814320420793854 l 4.19210197524084 18.41898920176315" fill="#fff417" stroke="none" /><path d="M 95.33964822691252 79.52364482259891 l -0.6612287698566726 -2.905264624719793 a23.979561381434255,23.979561381434255 0 0,0 0.40326459873622633,-0.0881380219156343 l 0.6111214469669252 2.9162161447312953" fill="#ff2203" stroke="none" /></svg>