<?xml version="1.0" encoding="utf-8" ?>
<svg baseProfile="full" height="200mm" version="1.1" viewBox="0,0,200,200" width="200mm" xmlns="http://www.w3.org/2000/svg" xmlns:ev="http://www.w3.org/2001/xml-events" xmlns:xlink="http://www.w3.org/1999/xlink"><defs /><rect fill="#1a1a1a" height="200" width="200" x="0" y="0" /><rect fill="#1a1a1a" height="200" width="180" x="10" y="0" /><text alignment-baseline="middle" fill="#e1ed5e" style="dominant-baseline: central; font-size:9.0px; font-family:Arial;" text-anchor="middle" x="100.0" y="100.0">2016</text><line stroke="#e1ed5e" stroke-width="0.3" x1="100.0" x2="100.0" y1="15.0" y2="10.0" /><path d="M 100.0 14.0 a86.0,86.0 0 0,1 42.35913384403234,11.155469271406648" fill="none" id="id49" stroke="none" /><text fill="#e1ed5e" style="font-size:6.75px; font-family:Arial;" text-anchor="middle"><textPath startOffset="22.145653131862478" xlink:href="#id49">January</textPath></text><line stroke="#e1ed5e" stroke-width="0.3" x1="143.13028292997686" x2="145.6673583964461" y1="26.7553504044142" y2="22.446841604673864" /><path d="M 143.63769802327073 25.89364864446614 a86.0,86.0 0 0,1 29.32050498858742,28.57503671076993" fill="none" id="id50" stroke="none" /><text fill="#e1ed5e" style="font-size:6.75px; font-family:Arial;" text-anchor="middle"><textPath startOffset="20.669276256404974" xlink:href="#id50">February</textPath></text><path d="M 113.31354834802062 83.75963576809568 l 9.570742655022013 -11.674749858139007 a36.0963207179357,36.0963207179357 0 0,0 0.47582800081182935,0.3969526416865135 l -9.769744989995734 11.508735032540624" fill="#ffb811" stroke="none" /><path d="M 114.91283532996326 85.21462403516908 l 3.128522778749168 -3.1017834284942767 a25.405532341775977,25.405532341775977 0 0,0 0.30439844099908386,0.31233961650407793 l -3.181308020899064 3.0476211199224568" fill="#ff2503" stroke="none" /><path d="M 115.16444852881244 85.47280134310134 l 6.49948639562765 -6.226360942680934 a30.000605201623472,30.000605201623472 0 0,0 0.3530702171410883,0.3749483353333186 l -6.605412446504999 6.11387114740312" fill="#ff6609" stroke="none" /><path d="M 115.41159269507618 85.73525988315684 l 5.3055389777886095 -4.91072767074332 a28.22938379815585,28.22938379815585 0 0,0 0.326119686345222,0.35846266305377233 l -5.389056364975709 4.818927432131876" fill="#ff4d07" stroke="none" /><path d="M 116.7966241395341 87.39550010848427 l 17.41663539285842 -13.069767894796874 a42.77516983244061,42.77516983244061 0 0,0 0.43569154471990046,0.5910992573965056 l -17.638428957162144 12.768862328131492" fill="#f2ff19" stroke="none" /><path d="M 117.42321728460499 88.27688183743584 l 17.91970113295458 -12.057174653103916 a42.59840617522194,42.59840617522194 0 0,0 0.40301248799738565,0.6102122727710694 l -18.12403805987269 11.747782501993788" fill="#f4ff19" stroke="none" /><line stroke="#e1ed5e" stroke-width="0.3" x1="172.87174338648825" x2="177.1583165268699" y1="56.24261187166439" y2="53.66864786411523" /><path d="M 173.72905801456457 55.72781907015455 a86.0,86.0 0 0,1 12.242430191666344,42.057860355516425" fill="none" id="id51" stroke="none" /><text fill="#e1ed5e" style="font-size:6.75px; font-family:Arial;" text-anchor="middle"><textPath startOffset="22.145653131862474" xlink:href="#id51">March</textPath></text><path d="M 119.4528033332814 92.08871423366111 l 3.643381640543006 -1.4817315952017165 a24.933161361915484,24.933161361915484 0 0,0 0.1578403575588797,0.3978608100013293 l -3.66828067306801 1.4189697679868218" fill="#ff1e03" stroke="none" /><path d="M 120.05942366710727 93.78553927170692 l 7.741571715359628 -2.3983587065492538 a29.104570137233488,29.104570137233488 0 0,0 0.1437539580641138,0.4785101729544333 l -7.781601993427369 2.2651109300040972" fill="#ff5908" stroke="none" /><path d="M 120.43855184770803 95.1765574152323 l 6.57167644064724 -1.550897746245518 a27.752200756780518,27.752200756780518 0 0,0 0.10544400896486647,0.46460575922454295 l -6.597331311169772 1.437857653081949" fill="#ff4606" stroke="none" /><path d="M 120.51834098615036 95.52812308129327 l 42.152821636768515 -9.187011282396739 a64.14234055129722,64.14234055129722 0 0,0 0.22523823930170014,1.0778465122191367 l -42.304317586894584 8.462048318892199" fill="#34ff5c" stroke="none" /><path d="M 120.86939407059847 97.66154086499901 l 14.181675271492537 -1.5890862943146418 a35.27042777063258,35.27042777063258 0 0,0 0.06225668445740734,0.6022769474140645 l -14.20686434843161 1.345404824617646" fill="#ffad10" stroke="none" /><line stroke="#e1ed5e" stroke-width="0.3" x1="184.99686870605535" x2="189.99668451229388" y1="99.2704041080226" y2="99.22748670261217" /><path d="M 185.99683186730306 99.26182062694052 a86.0,86.0 0 0,1 -10.086455211305974,41.156179273409016" fill="none" id="id52" stroke="none" /><text fill="#e1ed5e" style="font-size:6.75px; font-family:Arial;" text-anchor="middle"><textPath startOffset="21.40746469413373" xlink:href="#id52">April</textPath></text><line stroke="#e1ed5e" stroke-width="0.3" x1="174.33088141563837" x2="178.70328620479359" y1="141.23008692659167" y2="143.65538615756765" /><path d="M 175.20536237346943 141.71514677278685 a86.0,86.0 0 0,1 -30.301960400862466,31.631185727798858" fill="none" id="id53" stroke="none" /><text fill="#e1ed5e" style="font-size:6.75px; font-family:Arial;" text-anchor="middle"><textPath startOffset="22.145653131862474" xlink:href="#id53">May</textPath></text><line stroke="#e1ed5e" stroke-width="0.3" x1="143.1302829299769" x2="145.66735839644613" y1="173.24464959558577" y2="177.55315839532614" /><path d="M 143.63769802327073 174.10635135553383 a86.0,86.0 0 0,1 -40.68552437913181,11.842963189579606" fill="none" id="id54" stroke="none" /><text fill="#e1ed5e" style="font-size:6.75px; font-family:Arial;" text-anchor="middle"><textPath startOffset="21.407464694133747" xlink:href="#id54">June</textPath></text><path d="M 107.74402155503746 119.51999308798841 l 4.808590511676973 12.120789293237836 a34.03978818079722,34.03978818079722 0 0,0 -0.5450057602489975,0.2108199361215186 l -4.599812488934446 -12.201549117497395" fill="#ff9d0e" stroke="none" /><path d="M 106.38641147887787 120.00534299687104 l 1.7809263948061331 5.578726566259031 a26.856098438790237,26.856098438790237 0 0,0 -0.44038805056757924,0.13643334379289496 l -1.6848977113669295 -5.608476497858571" fill="#ff3905" stroke="none" /><path d="M 105.3480935250658 120.30758222061773 l 1.0291814947472948 3.9079697702672056 a25.04121791969359,25.04121791969359 0 0,0 -0.4166318567776318,0.10590618876666993 l -0.9619443447442656 -3.9250611908691453" fill="#ff1f03" stroke="none" /><line stroke="#e1ed5e" stroke-width="0.3" x1="101.45913802915013" x2="101.54496967792366" y1="184.9874750549273" y2="189.98673829345242" /><path d="M 101.47630435890484 185.9873277026323 a86.0,86.0 0 0,1 -42.54439059252881,-10.42667462771756" fill="none" id="id55" stroke="none" /><text fill="#e1ed5e" style="font-size:6.75px; font-family:Arial;" text-anchor="middle"><textPath startOffset="22.145653131862474" xlink:href="#id55">July</textPath></text><line stroke="#e1ed5e" stroke-width="0.3" x1="58.13341422392154" x2="55.67067388415222" y1="173.97424548756322" y2="178.32567169271397" /><path d="M 57.64086615596768 174.84453072859336 a86.0,86.0 0 0,1 -31.369924170532247,-30.572349798747897" fill="none" id="id56" stroke="none" /><text fill="#e1ed5e" style="font-size:6.75px; font-family:Arial;" text-anchor="middle"><textPath startOffset="22.145653131862474" xlink:href="#id56">August</textPath></text><line stroke="#e1ed5e" stroke-width="0.3" x1="26.387840678322732" x2="22.057713659400548" y1="142.50000000000003" y2="145.00000000000006" /><path d="M 25.521815274538298 143.00000000000003 a86.0,86.0 0 0,1 -11.493303480769221,-40.785679425670985" fill="none" id="id57" stroke="none" /><text fill="#e1ed5e" style="font-size:6.75px; font-family:Arial;" text-anchor="middle"><textPath startOffset="21.40746469413373" xlink:href="#id57">September</textPath></text><path d="M 80.41425534168474 107.57618678355246 l -12.604268270106529 4.875601737398778 a34.514402351807504,34.514402351807504 0 0,0 -0.20900823550632303,-0.5544191763526892 l 12.686107189427288 -4.658514280851944" fill="#ffa30f" stroke="none" /><path d="M 79.56144815229197 104.8234425847677 l -20.914904953928158 4.935860620793391 a42.48943855245519,42.48943855245519 0 0,0 -0.1614378902380416,-0.7113251316786059 l 20.996553705723866 -4.576101155175759" fill="#f5ff19" stroke="none" /><line stroke="#e1ed5e" stroke-width="0.3" x1="15.003131293944662" x2="10.003315487706104" y1="100.72959589197737" y2="100.7725132973878" /><path d="M 14.003168132696942 100.73817937305945 a86.0,86.0 0 0,1 10.791469493833604,-42.45332614584628" fill="none" id="id58" stroke="none" /><text fill="#e1ed5e" style="font-size:6.75px; font-family:Arial;" text-anchor="middle"><textPath startOffset="22.145653131862435" xlink:href="#id58">October</textPath></text><path d="M 79.00077361379809 100.18025310272382 l -3.680601986598597 0.03159354138930511 a24.680737580378565,24.680737580378565 0 0,0 0.0,-0.42369328822624397 l 3.680601986598597 0.03159354138930376" fill="#ff1a02" stroke="none" /><path d="M 79.13060592940154 97.66154086499901 l -14.950745230098498 -1.6752621873028708 a36.044310762926955,36.044310762926955 0 0,0 0.07417904349437553,-0.6143088920470571 l 14.919784100344454 1.9316647562733642" fill="#ffb711" stroke="none" /><path d="M 79.17382384314186 97.30363454192245 l -30.620395855262707 -3.964423285145554 a51.875966289604506,51.875966289604506 0 0,0 0.12192206644710331,-0.8821673374017599 l 30.547829272260397 4.489478930747381" fill="#89ff25" stroke="none" /><path d="M 80.28708602549916 92.7611449362534 l -17.395262142612104 -6.387781208254157 a39.531025167937116,39.531025167937116 0 0,0 0.23938730660575644,-0.6350032716947033 l 17.283044152191913 6.685452760143005" fill="#ffe415" stroke="none" /><path d="M 81.1358732173502 90.77261029715801 l -9.001771140813068 -4.403217349476007 a31.020988309458378,31.020988309458378 0 0,0 0.23809359942742747,-0.4763466914341155 l 8.924857628173894 4.557095897073892" fill="#ff740a" stroke="none" /><path d="M 81.46374523516351 90.13048839642627 l -39.96417473907186 -21.278672057461712 a66.27601072426845,66.27601072426845 0 0,0 0.5433201645297956,-0.9996479073093478 l 39.59300922492671 21.961574798245678" fill="#37ff75" stroke="none" /><line stroke="#e1ed5e" stroke-width="0.3" x1="26.387840678322718" x2="22.05771365940052" y1="57.49999999999999" y2="54.99999999999999" /><path d="M 25.521815274538284 56.99999999999999 a86.0,86.0 0 0,1 29.574782752854787,-30.34633250058573" fill="none" id="id59" stroke="none" /><text fill="#e1ed5e" style="font-size:6.75px; font-family:Arial;" text-anchor="middle"><textPath startOffset="21.40746469413373" xlink:href="#id59">November</textPath></text><path d="M 81.81346652052679 89.5 l -3.829613111541174 -2.2110281608404176 a25.422056321680834,25.422056321680834 0 0,0 0.2214458306569935,-0.3760634331383402 l 3.791093570754401 2.2764427622723304" fill="#ff2503" stroke="none" /><path d="M 82.576782715395 88.27688183743585 l -1.5883286575342246 -1.0686984056448185 a22.914393952814375,22.914393952814375 0 0,0 0.2223899362971757,-0.3244735632613448 l 1.5697489844217356 1.095806703976198" fill="#ff0000" stroke="none" /><path d="M 84.34580500576568 86.00192230759919 l -46.962584982702936 -41.99423307720245 a84.0,84.0 0 0,0 0.9704091966325366,-1.066649697769369 l 46.234778085228534 42.79422035052948" fill="#4dd2ff" stroke="none" /><line stroke="#e1ed5e" stroke-width="0.3" x1="56.869717070023135" x2="54.33264160355391" y1="26.7553504044142" y2="22.446841604673864" /><path d="M 56.362301976729285 25.89364864446614 a86.0,86.0 0 0,1 42.16139366436587,-11.88097634709845" fill="none" id="id60" stroke="none" /><text fill="#e1ed5e" style="font-size:6.75px; font-family:Arial;" text-anchor="middle"><textPath startOffset="22.145653131862474" xlink:href="#id60">December</textPath></text></svg>