<?xml version="1.0" encoding="utf-8" ?>
<svg baseProfile="full" height="200mm" version="1.1" viewBox="0,0,200,200" width="200mm" xmlns="http://www.w3.org/2000/svg" xmlns:ev="http://www.w3.org/2001/xml-events" xmlns:xlink="http://www.w3.org/1999/xlink"><defs /><rect fill="#1a1a1a" height="200" width="200" x="0" y="0" /><text alignment-baseline="middle" fill="#e1ed5e" style="dominant-baseline: central; font-size:9.0px; font-family:Arial;" text-anchor="middle" x="100.0" y="100.0">2025</text><line stroke="#e1ed5e" stroke-width="0.3" x1="100.0" x2="100.0" y1="15.0" y2="10.0" /><path d="M 100.0 14.0 a86.0,86.0 0 0,1 42.46469731375804,11.215312516191453" fill="none" id="id157" stroke="none" /><text fill="#e1ed5e" style="font-size:6.75px; font-family:Arial;" text-anchor="middle"><textPath startOffset="22.20632615414155" xlink:href="#id157">January</textPath></text><path d="M 100.0 79.0 l 0.0 -31.213152450617997 a52.213152450618,52.213152450618 0 0,0 0.8987635891513801,0.007735941961617668 l -0.5372831098788518 31.20852788526494" fill="#94ff23" stroke="none" /><path d="M 100.72285384407766 79.0124445844662 l 0.2543761169114664 -7.385632508989096 a28.390011824529886,28.390011824529886 0 0,0 0.48825300185734516,0.021025201327449197 l -0.3814699511581431 7.380159581137453" fill="#ff2d04" stroke="none" /><path d="M 101.44485096284872 79.0497635885617 l 2.5227664258539106 -36.579934118791584 a57.666823295379004,57.666823295379004 0 0,0 0.9896994697125181,0.0768197267672559 l -3.1520560849287698 36.53108912983586" fill="#57ff2a" stroke="none" /><path d="M 102.16513564639614 79.11191278185805 l 1.5238196354492186 -14.701008457812348 a35.77977252727696,35.77977252727696 0 0,0 0.6120612206021844,0.06877220967153931 l -1.7766475595611284 14.67260029467021" fill="#ff990e" stroke="none" /><path d="M 103.2404852339499 79.25152402106235 l 2.308376252134595 -14.780283124260391 a35.95945754881224,35.95945754881224 0 0,0 0.6107470605119181,0.10077849806721545 l -2.5624525187853884 14.738358363253552" fill="#ff9b0e" stroke="none" /><path d="M 103.59715602781102 79.31037775812273 l 3.9025378165159554 -22.44607478355324 a43.78280216738498,43.78280216738498 0 0,0 0.7413989553575516,0.13548592018873118 l -4.288331892976408 22.37557338201377" fill="#faff18" stroke="none" /><path d="M 103.95276090670814 79.375362276772 l 8.89805442413661 -46.42809248288663 a68.27306996731195,68.27306996731195 0 0,0 1.152298539296026,0.23114024672094474 l -9.69591937289976 46.26804828008848" fill="#38ff84" stroke="none" /><path d="M 104.66035177308747 79.52364482259891 l 1.6409991766948635 -7.210117094994685 a28.39450247288131,28.39450247288131 0 0,0 0.47564349478303314,0.11256944779017063 l -1.7648663584404203 7.180801735063646" fill="#ff2e04" stroke="none" /><path d="M 105.01212808612495 79.60689891045804 l 4.231173488540026 -17.21559130103914 a38.72792748559567,38.72792748559567 0 0,0 0.6460023218026224,0.1646803756691926 l -4.526884699027674 17.14020792920108" fill="#ffc112" stroke="none" /><path d="M 105.71112130821622 79.79150937346287 l 4.821415189098168 -17.060314148005016 a38.72851836037876,38.72851836037876 0 0,0 0.6399607011490137,0.1868220775432877 l -5.114366107970609 16.974793741543028" fill="#ffc112" stroke="none" /><path d="M 106.40334571778207 80.00007090966166 l 12.613152539612505 -39.39536728390909 a62.36528230801318,62.36528230801318 0 0,0 1.0195748910496178,0.3361378114269218 l -13.289410252904542 39.17241574822293" fill="#31ff3b" stroke="none" /><path d="M 107.08798089147638 80.2323363322302 l 2.6680249761693453 -7.440852507030335 a28.90472284807273,28.90472284807273 0 0,0 0.4669044218434048,0.1719648389334319 l -2.7957117237853266 7.393824400290578" fill="#ff3505" stroke="none" /><path d="M 107.4271985657038 80.35727306442388 l 6.396538478206654 -16.916938136069977 a39.085864657317245,39.085864657317245 0 0,0 0.6272664000028777,0.24336961803289725 l -6.686788043209199 16.804325814146534" fill="#ffc612" stroke="none" /><path d="M 108.43124777332544 80.76684994638697 l 17.79439680153554 -40.59212977707075 a65.32111863851196,65.32111863851196 0 0,0 1.0259082366063872,0.46029512125797384 l -18.490487156608708 40.27981432529625" fill="#34ff60" stroke="none" /><path d="M 108.76106565485865 80.91482961587045 l 3.5265356702480446 -7.682231452639461 a29.452995559294635,29.452995559294635 0 0,0 0.4589362804522566,0.21547673733600706 l -3.658250161999899 7.62038973266345" fill="#ff3d05" stroke="none" /><path d="M 109.08828744355905 81.06846463323043 l 6.3964143139174 -13.324176260540552 a35.77997933345104,35.77997933345104 0 0,0 0.5529348266418,0.27132271806354435 l -6.624820407569632 13.212098382342175" fill="#ff990e" stroke="none" /><path d="M 109.73455568895987 81.39251694778311 l 9.586533191875029 -18.32453987598373 a41.68067649535284,41.68067649535284 0 0,0 0.6328614364092497,0.33805266195032857 l -9.90053967481259 18.15680848753165" fill="#ffe815" stroke="none" /><path d="M 110.05341064243156 81.56283822128135 l 7.073307212195823 -12.97188725499926 a35.77503075714273,35.77503075714273 0 0,0 0.5381176394708772,0.2994618837579367 l -7.295548940738736 12.848209973681142" fill="#ff990e" stroke="none" /><path d="M 110.36928655335952 81.73862282372117 l 7.29407555515722 -12.845615190550046 a35.77204683948816,35.77204683948816 0 0,0 0.5328387208473916,0.3086545794744606 l -7.514111008469939 12.718156453685536" fill="#ff980e" stroke="none" /><line stroke="#e1ed5e" stroke-width="0.3" x1="143.23703022742887" x2="145.7803849466894" y1="26.81831364943548" y2="22.513508569990506" /><path d="M 143.74570117128098 25.957352633546492 a86.0,86.0 0 0,1 28.547481713284135,27.462654790039103" fill="none" id="id158" stroke="none" /><text fill="#e1ed5e" style="font-size:6.75px; font-family:Arial;" text-anchor="middle"><textPath startOffset="19.985693538727396" xlink:href="#id158">February</textPath></text><path d="M 110.99172775467656 82.1063720568725 l 21.747163141759593 -35.40259136345327 a62.54855689385568,62.54855689385568 0 0,0 0.9125561847157725,0.5714425991509514 l -22.35333847884763 35.02300442297937" fill="#31ff3e" stroke="none" /><path d="M 111.60114157652 82.49532879139004 l 12.245013376056605 -18.476193198669584 a43.16551528149908,43.16551528149908 0 0,0 0.6158183686599907,0.4158033114731896 l -12.561236439123137 18.262677974897723" fill="#fffc17" stroke="none" /><path d="M 111.90073688211348 82.69761687909136 l 10.21714568672234 -14.854623778760018 a39.02914067814136,39.02914067814136 0 0,0 0.5502530096955565,0.385487397645008 l -10.471329836001548 14.676551538351074" fill="#ffc512" stroke="none" /><path d="M 112.19680574252982 82.90503203632743 l 8.580072137165129 -12.025776371872798 a35.772844520445325,35.772844520445325 0 0,0 0.4981874251119972,0.36195435126134967 l -8.785804878630914 11.876302785794774" fill="#ff980e" stroke="none" /><path d="M 112.48926042617603 83.11751280151076 l 12.300834919222615 -16.627781066944205 a41.68317294131136,41.68317294131136 0 0,0 0.5731512623980073,0.4316856481663798 l -12.585232335379004 16.413578829271977" fill="#ffe815" stroke="none" /><path d="M 113.06298171725822 83.55741782278167 l 29.404938429184494 -37.012462162382256 a68.27126779922355,68.27126779922355 0 0,0 0.913848635907392,0.7389353763243465 l -30.037690463656375 36.50082068879378" fill="#38ff84" stroke="none" /><path d="M 113.6212207817346 84.01681056812373 l 4.795430560641939 -5.626975458831681 a28.393173004619374,28.393173004619374 0 0,0 0.3692548392217542,0.32021415787549723 l -4.891579198510457 5.543596307536513" fill="#ff2d04" stroke="none" /><path d="M 113.89432698308785 84.25364557470407 l 12.007957572376528 -13.608543694754472 a39.14892576854169,39.14892576854169 0 0,0 0.5014586132932345,0.45021449422476245 l -12.240427173265752 13.399830191760412" fill="#ffc712" stroke="none" /><path d="M 114.42810811169701 84.74124197986012 l 13.339419103064092 -14.107391395124912 a40.4154215504695,40.4154215504695 0 0,0 0.501375930017385,0.48232324743709565 l -13.580278276693896 13.875685060925514" fill="#ffd814" stroke="none" /><path d="M 114.94478906791727 85.2469230424477 l 31.540355823653616 -31.13575538739886 a65.31962667968467,65.31962667968467 0 0,0 0.7830135388975459,0.8069642806671528 l -32.071633626254275 30.588226911181593" fill="#34ff60" stroke="none" /><path d="M 115.68641384162765 86.03803664274999 l 11.049677271983983 -9.834955952231255 a35.79262405380899,35.79262405380899 0 0,0 0.4056636070812268,0.4637436289389339 l -11.217332742643057 9.643296767089373" fill="#ff990e" stroke="none" /><path d="M 116.60985879189232 87.15038557335679 l 29.211141139774362 -22.598139172114703 a57.931919266808805,57.931919266808805 0 0,0 0.6033859320307295,0.7939851584484974 l -29.595803012029208 22.09196923778517" fill="#54ff2b" stroke="none" /><path d="M 116.82858285166822 87.43820079747576 l 11.844064809049117 -8.841075043832934 a35.779935017842305,35.779935017842305 0 0,0 0.36416713500694425,0.49672356289021413 l -11.994494556569688 8.635889037271227" fill="#ff990e" stroke="none" /><path d="M 117.2510076193507 88.02491185347247 l 12.17052986753865 -8.448385808504264 a35.81543182043597,35.81543182043597 0 0,0 0.34719741286430006,0.5094693614678389 l -12.314151746071685 8.23763842376602" fill="#ff990e" stroke="none" /><line stroke="#e1ed5e" stroke-width="0.3" x1="172.23445277983987" x2="176.4835382374775" y1="55.19839476539836" y2="52.563006222186495" /><path d="M 173.08426987136738 54.67131705675599 a86.0,86.0 0 0,1 12.851231095245387,41.99856678651699" fill="none" id="id159" stroke="none" /><text fill="#e1ed5e" style="font-size:6.75px; font-family:Arial;" text-anchor="middle"><textPath startOffset="22.20632615414155" xlink:href="#id159">March</textPath></text><path d="M 117.84615892207809 88.93136811851018 l 31.43256439848557 -19.495258668107073 a57.987446724548946,57.987446724548946 0 0,0 0.518805958917238,0.8527805856180086 l -31.763486155689034 18.951310309281986" fill="#53ff2b" stroke="none" /><path d="M 118.3937258080291 89.86733742301442 l 12.945040249587564 -7.131112329472241 a35.77927028371134,35.77927028371134 0 0,0 0.2925243296946046,0.5420031561779254 l -13.065872678500634 6.907228189961858" fill="#ff990e" stroke="none" /><path d="M 118.56541770881063 90.18545643968196 l 14.373673158103447 -7.598592369135444 a37.25856961876619,37.25856961876619 0 0,0 0.2948582287898105,0.5695722465326634 l -14.502340820053373 7.350047400342436" fill="#ffad10" stroke="none" /><path d="M 118.73160827565052 90.50648371742162 l 10.54277765961948 -5.343269510141694 a32.81950463590507,32.81950463590507 0 0,0 0.251053561885112,0.5061086612643867 l -10.633191234458 5.161001260378357" fill="#ff6f0a" stroke="none" /><path d="M 118.89224826269711 90.83032412892265 l 15.949162257882922 -7.741198733280227 a38.72856267598748,38.72856267598748 0 0,0 0.28593077653323085,0.6022431368183049 l -16.080051228257908 7.4655131808213815" fill="#ffc112" stroke="none" /><path d="M 119.196687751892 91.48605970444005 l 40.5141892684489 -17.96848461634184 a65.32004029203283,65.32004029203283 0 0,0 0.44700460111502527,1.0317482495478505 l -40.8174845794066 17.268437222207385" fill="#34ff60" stroke="none" /><path d="M 119.47837535516314 92.15188598940014 l 6.851502270894104 -2.7605675517289763 a28.386732469483782,28.386732469483782 0 0,0 0.17870995858325345,0.45479735176737934 l -6.898005779359058 2.6422211950658125" fill="#ff2d04" stroke="none" /><path d="M 119.61058180528143 92.48833698450437 l 14.682985512745093 -5.6241900586265 a36.723281380902506,36.723281380902506 0 0,0 0.22103115531951312,0.5922536064796741 l -14.777621256566231 5.370613315117492" fill="#ffa60f" stroke="none" /><path d="M 119.97218684219823 93.5106431181261 l 6.180974582865065 -2.008320383887832 a27.499061282859497,27.499061282859497 0 0,0 0.14239867219204796,0.4514427047950244 l -6.2146287388253185 1.9016275126663884" fill="#ff2003" stroke="none" /><path d="M 120.08093135843002 93.85539295169968 l 29.805574815141664 -9.120271456476932 a52.16972315406146,52.16972315406146 0 0,0 0.2553685661691715,0.8609758546079447 l -29.95814927842254 8.605866215122457" fill="#94ff23" stroke="none" /><path d="M 120.28053869075195 94.5502522615342 l 14.270948618343434 -3.834862137761839 a35.777216993840135,35.777216993840135 0 0,0 0.15470012088156318,0.5961226719075751 l -14.3348450710953 3.588643040305414" fill="#ff990e" stroke="none" /><path d="M 120.37134235888165 94.90015583598534 l 16.410510323667086 -4.108273467122184 a37.91693707394587,37.91693707394587 0 0,0 0.15305297992595762,0.6345034122869315 l -16.478796103853863 3.8251848231758463" fill="#ffb610" stroke="none" /><path d="M 120.6074358757038 95.95851677861258 l 7.251257598084728 -1.4221000658878273 a28.389391406007647,28.389391406007647 0 0,0 0.08991903895286955,0.4803511016214493 l -7.274662360947457 1.2970708868038152" fill="#ff2d04" stroke="none" /><path d="M 120.67395015179393 96.31383870115 l 30.687972240927234 -5.4716594934264675 a52.171953706367596,52.171953706367596 0 0,0 0.15002700786574477,0.8854678929656004 l -30.777611110313202 4.942605812145029" fill="#94ff23" stroke="none" /><path d="M 120.83666639777658 97.38593545837742 l 15.789873454546832 -1.9809189976110035 a36.91364646414199,36.91364646414199 0 0,0 0.0736684710791671,0.6311464716291829 l -15.821632278629588 1.7088287876569679" fill="#ffa80f" stroke="none" /><path d="M 120.94382443527127 98.46500227214037 l 7.366339270244616 -0.5398877400550661 a28.386097279091967,28.386097279091967 0 0,0 0.03152128629712351,0.4876203473649527 l -7.3745411475461555 0.4130083284370782" fill="#ff2d04" stroke="none" /><path d="M 120.96714384426684 98.82574320788733 l 62.688046504625774 -3.510819830258364 a83.7862805909592,83.7862805909592 0 0,0 0.06825147335462564,1.440680730417347 l -62.7391915862139 2.431227993218017" fill="#4dd4ff" stroke="none" /><line stroke="#e1ed5e" stroke-width="0.3" x1="184.98032266829074" x2="189.97916517819016" y1="98.17113171792111" y2="98.06355123074" /><path d="M 185.9800911702706 98.14961562048488 a86.0,86.0 0 0,1 -9.607161424134198,41.387399972396054" fill="none" id="id160" stroke="none" /><text fill="#e1ed5e" style="font-size:6.75px; font-family:Arial;" text-anchor="middle"><textPath startOffset="21.466115282336823" xlink:href="#id160">April</textPath></text><path d="M 120.99513854157772 99.54816195383933 l 7.39177163715477 -0.15907890522292636 a28.393483213880494,28.393483213880494 0 0,0 0.006310104002973487,0.48872450900888964 l -7.393414748275459 0.031818138153574003" fill="#ff2d04" stroke="none" /><path d="M 120.99980553446 99.90962569577887 l 13.314604748469709 -0.05730044205160526 a34.314728046363975,34.314728046363975 0 0,0 -0.002542072163414067,0.5906880450847032 l -13.313618379016791 -0.17189708123678268" fill="#ff840c" stroke="none" /><path d="M 120.9904718944345 100.63252640178507 l 17.722586008137224 0.5340520029483348 a38.73063073772827,38.73063073772827 0 0,0 -0.025816486840753633,0.6662088123793408 l -17.71076738844527 -0.8390380623416818" fill="#ffc112" stroke="none" /><path d="M 120.95626037817324 101.35467743843564 l 32.43204624905141 2.0965077042873155 a53.499737975170596,53.499737975170596 0 0,0 -0.06731653275524886,0.9184806062110898 l -32.39115315763183 -2.6544614469951755" fill="#85ff25" stroke="none" /><path d="M 120.89721153311464 102.0752229133903 l 14.717866830521904 1.4615755999084645 a35.79026055467667,35.79026055467667 0 0,0 -0.0661569306385826,0.6125310135263077 l -14.69052759838227 -1.7147029353195637" fill="#ff990e" stroke="none" /><path d="M 120.8583938346157 102.4346265915055 l 12.187381245197574 1.4225315091678634 a33.27012051735308,33.27012051735308 0 0,0 -0.07129072430744576,0.5682572162996772 l -12.16108901164328 -1.6321064797549356" fill="#ff750a" stroke="none" /><path d="M 120.76222939487914 103.15116336523771 l 4.36098227586614 0.6618830436171623 a25.410924571316826,25.410924571316826 0 0,0 -0.06935760078502426,0.4318898462953461 l -4.348942920719827 -0.7368521196057134" fill="#ff0000" stroke="none" /><path d="M 120.64145759157962 103.86396538481128 l 30.829237094669562 5.771060713393495 a52.364741376217715,52.364741376217715 0 0,0 -0.17347707463121337,0.8845558661357354 l -30.725330087062684 -6.3008803065971755" fill="#92ff23" stroke="none" /><path d="M 120.49622156327973 104.57218783832717 l 7.213926162585586 1.609244189975769 a28.39123788970478,28.39123788970478 0 0,0 -0.11050874845883402,0.47606879607800195 l -7.185156848196199 -1.7331816434023357" fill="#ff2d04" stroke="none" /><path d="M 120.41448212921028 104.9243191809786 l 14.365589255334964 3.4652236715270823 a35.77761583431871,35.77761583431871 0 0,0 -0.14956523198814567,0.5974387545633563 l -14.303812709051758 -3.7119902654878345" fill="#ff990e" stroke="none" /><path d="M 120.23288151984713 105.62410040840565 l 17.81543231480818 4.952126075534549 a39.49089454925047,39.49089454925047 0 0,0 -0.1876896215223714,0.6533721950844726 l -17.727550056399707 -5.2580557461236035" fill="#ffcb13" stroke="none" /><path d="M 120.13307415673323 105.97154293290107 l 28.32681405988684 8.401835953817745 a50.54656058119569,50.54656058119569 0 0,0 -0.2545939453041599,0.832027743961084 l -28.177993342076544 -8.888190670330886" fill="#a7ff21" stroke="none" /><path d="M 120.02730092923936 106.31721596034902 l 6.9314061927928385 2.1863749879967473 a28.268055269301733,28.268055269301733 0 0,0 -0.15036956296581022,0.46278992843211514 l -6.892744378810781 -2.3053638164066577" fill="#ff2c04" stroke="none" /><path d="M 119.9155931802556 106.66101706037122 l 16.81091630434067 5.622619386235565 a38.72627303620304,38.72627303620304 0 0,0 -0.2168840377358765,0.6303665348281428 l -16.711641435661562 -5.911158624153008" fill="#ffc111" stroke="none" /><path d="M 119.67450827220406 107.3425965602758 l 27.683462107754682 10.331566656540044 a50.54852523984944,50.54852523984944 0 0,0 -0.3112482605535494,0.8125709929672941 l -27.501519567607627 -10.806561216340482" fill="#a7ff21" stroke="none" /><path d="M 119.26925614724726 108.34839909993367 l 29.248580042368033 12.67193800498239 a52.87565602927925,52.87565602927925 0 0,0 -0.3690189900844522,0.8320404044721798 l -29.026119967552308 -13.173526745947257" fill="#8cff24" stroke="none" /><path d="M 118.64920377521936 109.65438752849418 l 6.564813683002958 3.3984965852691604 a28.392331008053482,28.392331008053482 0 0,0 -0.2284196718790109,0.4320839369942025 l -6.5053415028990536 -3.510995537349497" fill="#ff2d04" stroke="none" /><line stroke="#e1ed5e" stroke-width="0.3" x1="174.80103733775053" x2="179.2010983576182" y1="140.37084112569926" y2="142.7455964860345" /><path d="M 175.68104954172406 140.8457921977663 a86.0,86.0 0 0,1 -30.038265399797805,32.042727171017184" fill="none" id="id161" stroke="none" /><text fill="#e1ed5e" style="font-size:6.75px; font-family:Arial;" text-anchor="middle"><textPath startOffset="22.206326154141568" xlink:href="#id161">May</textPath></text><path d="M 118.48025628344425 109.97397251340804 l 30.180129219190366 16.28850675371728 a55.295125775435224,55.295125775435224 0 0,0 -0.45927497036103776,0.8337174766382963 l -29.89527783937782 -16.80559474875338" fill="#71ff27" stroke="none" /><path d="M 117.75023020441432 111.22182372390056 l 37.45951199100339 23.682174005937007 a65.31772110850923,65.31772110850923 0 0,0 -0.6089948632542995,0.9451735517728822 l -37.046312264372034 -24.32346915763134" fill="#34ff60" stroke="none" /><path d="M 117.35343817320211 111.8261652097733 l 12.211251928703444 8.321825409215858 a35.77726130944886,35.77726130944886 0 0,0 -0.3511948662168091,0.5059223981361483 l -12.066196155324498 -8.530789069539026" fill="#ff990e" stroke="none" /><path d="M 116.498646956653 112.99209946851258 l 24.493014630537093 19.287380547006173 a52.17548418319652,52.17548418319652 0 0,0 -0.5617115430326672,0.7008215170313322 l -24.157385175449573 -19.706129897615753" fill="#94ff23" stroke="none" /><path d="M 116.27256486870786 113.27417163493432 l 11.451648361598235 9.341560293736292 a35.77853169023249,35.77853169023249 0 0,0 -0.39340028977191926,0.47387599174459 l -11.289152071932772 -9.537297542594652" fill="#ff990e" stroke="none" /><path d="M 115.07121518719521 114.62390073753431 l 5.3056869542025575 5.148213889787123 a28.392862795358255,28.392862795358255 0 0,0 -0.343363508971101,0.3478254217718395 l -5.216282820175921 -5.238779805539627" fill="#ff2d04" stroke="none" /><path d="M 114.81725581225074 114.88116024355365 l 20.84586996651303 20.93577483703049 a50.54415276645463,50.54415276645463 0 0,0 -0.6218135368732708,0.6085754202316119 l -20.48240647726396 -21.29150036018467" fill="#a7ff21" stroke="none" /><path d="M 114.29624159901734 115.38237550388516 l 10.059946451774264 10.82423466324222 a35.77723176570971,35.77723176570971 0 0,0 -0.4547123465283975,0.41536894742801456 l -9.872134555779004 -10.995796377256818" fill="#ff990e" stroke="none" /><path d="M 114.0293411484842 115.62618273729858 l 11.444550200479581 12.74718683408758 a38.13092237663906,38.13092237663906 0 0,0 -0.4921751476625395,0.43428734358901244 l -11.223432699910454 -12.942297319448882" fill="#ffb911" stroke="none" /><path d="M 113.48314897796784 116.09983520530334 l 11.382204554557871 13.591158704904725 a38.7277797668999,38.7277797668999 0 0,0 -0.5147657232421087,0.4236171451562435 l -11.146568702771072 -13.785070968918147" fill="#ffc112" stroke="none" /><path d="M 113.20401910651253 116.32954008644616 l 10.220322674190344 12.639573410060446 a37.254655073328266,37.254655073328266 0 0,0 -0.5021262371383376,0.39891945102040016 l -10.001238944334656 -12.813626775085972" fill="#ffad10" stroke="none" /><path d="M 112.92097659922987 116.55440617244103 l 18.180252641994564 23.292611378238263 a50.547712787022704,50.547712787022704 0 0,0 -0.6905088875694709,0.529452770178786 l -17.7766150259316 -23.60210349024442" fill="#a7ff21" stroke="none" /><path d="M 112.34349029814194 116.9893568818739 l 8.687341006457942 11.957099098256556 a35.77978729914654,35.77978729914654 0 0,0 -0.5013816008342092,0.3577224596880543 l -8.480232077774847 -12.104865819788829" fill="#ff990e" stroke="none" /><path d="M 112.04921762599082 117.19931262002967 l 6.780737751890574 9.678971034404656 a32.817820642773285,32.817820642773285 0 0,0 -0.46545533048243076,0.32014442055411685 l -6.61312553678526 -9.794256244323867" fill="#ff6f0a" stroke="none" /><path d="M 111.7513745106137 117.40417183066458 l 10.279234053104837 15.223883434765309 a39.36924820328343,39.36924820328343 0 0,0 -0.564902408344548,0.3743865130639409 l -10.015656946020323 -15.398567968920569" fill="#ffca12" stroke="none" /><path d="M 111.1453310114006 117.79835938074945 l 15.683152609915123 25.044961525941265 a50.55015014550291,50.55015014550291 0 0,0 -0.7414522710171298,0.4554605433850614 l -15.249721138965684 -25.311210536154704" fill="#a7ff21" stroke="none" /><line stroke="#e1ed5e" stroke-width="0.3" x1="143.8653032363475" x2="146.44561519142675" y1="172.8068346515853" y2="177.08958963109032" /><path d="M 144.38136562736335 173.6633856474863 a86.0,86.0 0 0,1 -40.68145358897372,12.25698825130547" fill="none" id="id162" stroke="none" /><text fill="#e1ed5e" style="font-size:6.75px; font-family:Arial;" text-anchor="middle"><textPath startOffset="21.466115282336833" xlink:href="#id162">June</textPath></text><path d="M 110.8373102113329 117.98757091392108 l 9.29909201411089 15.434464251468912 a39.01931738487262,39.01931738487262 0 0,0 -0.5782888200339604,0.3416632280406523 l -9.032035323048547 -15.592246051803313" fill="#ffc512" stroke="none" /><path d="M 110.21172684928248 118.3499491758327 l 7.189427904358414 12.919033048515178 a35.784765419194,35.784765419194 0 0,0 -0.5408222965087528,0.29489943716072464 l -6.965982795981012 -13.040873137435673" fill="#ff990e" stroke="none" /><path d="M 109.89434966115114 118.52300852407294 l 14.03443629973937 26.2735795795988 a50.787017074170976,50.787017074170976 0 0,0 -0.7746449334475792,0.4052576171992105 l -13.580100463765296 -26.511266615742727" fill="#a4ff21" stroke="none" /><path d="M 109.2508944713604 118.85261126421891 l 6.5102728729547135 13.267435281829117 a35.77864986518911,35.77864986518911 0 0,0 -0.55522898795811,0.26654365542992514 l -6.280931216996371 -13.377533213758602" fill="#ff990e" stroke="none" /><path d="M 108.59647513512805 119.15986991738527 l 6.053350510312533 13.491740104963185 a35.78749821506576,35.78749821506576 0 0,0 -0.5642143221300386,0.24733497809130855 l -5.82021551352474 -13.593939636348948" fill="#ff990e" stroke="none" /><path d="M 107.93186726928326 119.44442032107085 l 6.235741515284296 15.286486135022715 a37.5094255079237,37.5094255079237 0 0,0 -0.5999345465661517,0.23872633731664258 l -5.971685892676278 -15.391559316745425" fill="#ffb110" stroke="none" /><path d="M 107.59598834532513 119.57807347666477 l 4.611566687009506 11.885957078432986 a33.74921656334565,33.74921656334565 0 0,0 -0.543410245051321,0.2054712569120961 l -4.40628622119791 -11.963576585451712" fill="#ff7c0b" stroke="none" /><path d="M 106.91757812671514 119.82793768551818 l 4.932112659446732 14.13697405046919 a35.972634056474966,35.972634056474966 0 0,0 -0.5864057820716418,0.1989406796536123 l -4.688037144437864 -14.219777717020927" fill="#ff9b0e" stroke="none" /><path d="M 106.2309692047433 120.05430185196036 l 10.519338853646701 33.85636964687523 a56.45293014101508,56.45293014101508 0 0,0 -0.9304653279991363,0.28034157060266746 l -9.934998551207318 -34.032426586583625" fill="#64ff29" stroke="none" /><path d="M 105.18746579009965 120.34920634021253 l 5.219142580554955 20.47346692741501 a42.1282345997984,42.1282345997984 0 0,0 -0.7042370655155538,0.1730843367010453 l -4.86595223029619 -20.560272522430086" fill="#ffee16" stroke="none" /><path d="M 104.48393922423573 120.51570834832081 l 3.207899497576564 14.677346683757326 a36.02381858455946,36.02381858455946 0 0,0 -0.6069302193874377,0.1271881285446267 l -2.9547778167597483 -14.730390793028494" fill="#ff9c0e" stroke="none" /><path d="M 103.7750983002368 120.6578951692458 l 7.966540029630146 43.59408304238763 a65.31602234350787,65.31602234350787 0 0,0 -1.107731835094995,0.1925933785173204 l -7.214959223063101 -43.72475499942596" fill="#34ff60" stroke="none" /><path d="M 103.06178313531738 120.77559828337769 l 2.1533519728899844 14.611477552228328 a35.76929927174683,35.76929927174683 0 0,0 -0.6099030182140127,0.08452700087550337 l -1.901520363489141 -14.646379118596434" fill="#ff980e" stroke="none" /><path d="M 102.70371172650421 120.8252237178851 l 1.9516645744856096 15.0326127550901 a36.15877438501542,36.15877438501542 0 0,0 -0.6179234544216298,0.07482192489715092 l -1.6926136970125996 -15.063980208712602" fill="#ff9e0e" stroke="none" /><path d="M 101.98527174616119 120.90594882070398 l 1.6761207919886854 17.65042773735631 a38.72983305677111,38.72983305677111 0 0,0 -0.664227116586552,0.0573123105410334 l -1.3720493576605917 -17.676664300176007" fill="#ffc112" stroke="none" /><path d="M 101.26447882468166 120.96189622390904 l 1.7789449282878274 29.490457449302593 a50.54406413523718,50.54406413523718 0 0,0 -0.8689052487473783,0.04491247637081841 l -1.2710516111269694 -29.516709732435615" fill="#a7ff21" stroke="none" /><line stroke="#e1ed5e" stroke-width="0.3" x1="102.19456741930631" x2="102.32365962044197" y1="184.97166512339345" y2="189.96999836594603" /><path d="M 102.22038585953345 185.97133177190398 a86.0,86.0 0 0,1 -42.740103519485714,-10.115201625700543" fill="none" id="id163" stroke="none" /><text fill="#e1ed5e" style="font-size:6.75px; font-family:Arial;" text-anchor="middle"><textPath startOffset="22.20632615414155" xlink:href="#id163">July</textPath></text><path d="M 100.18074693466247 120.99922214144158 l 0.10225909371584324 11.880485989605258 a32.88092606960646,32.88092606960646 0 0,0 -0.5660120567565892,0.0 l 0.10225909371583505 -11.880485989605258" fill="#ff700a" stroke="none" /><path d="M 99.45781275523022 120.99299961872073 l -0.4576830273933592 17.721072770060246 a38.72698208594274,38.72698208594274 0 0,0 -0.6662509747005615,-0.022947030687830498 l 0.7626543537685637 -17.710568940946324" fill="#ffc112" stroke="none" /><path d="M 98.73552117531835 120.96189622390904 l -2.2238603870897893 36.86604294253382 a57.933056700766244,57.933056700766244 0 0,0 -0.9948960775334307,-0.0686138584466655 l 2.85811922540215 -36.82230073957086" fill="#54ff2b" stroke="none" /><path d="M 97.65516085044442 120.86867818915974 l -1.6520826888029323 14.703260981054717 a35.795785233898485,35.795785233898485 0 0,0 -0.6117202709899131,-0.07407080577143013 l 1.9049303828442348 -14.67264464655794" fill="#ff990e" stroke="none" /><path d="M 96.93821686468263 120.77559828337769 l -3.587736123028794 24.34442974717187 a45.607379181933865,45.607379181933865 0 0,0 -0.7756819142187763,-0.12114556229669722 l 4.006253900856088 -24.279065877528065" fill="#e3ff1b" stroke="none" /><path d="M 96.22490169976321 120.6578951692458 l -5.317915908904069 29.100420870660223 a50.58233804931132,50.58233804931132 0 0,0 -0.8551603875327577,-0.16389352356952494 l 5.818043911008521 -29.00457014874223" fill="#a7ff21" stroke="none" /><path d="M 95.51606077576429 120.51570834832081 l -3.7849899739850255 17.317752655496996 a38.726553701725,38.726553701725 0 0,0 -0.6500157077768244,-0.14794145882054793 l 4.082525831154713 -17.25003446309876" fill="#ffc111" stroke="none" /><path d="M 95.16358092515715 120.4354850818985 l -3.1586187744698635 13.346218730472765 a34.71489799320635,34.71489799320635 0 0,0 -0.580311948142362,-0.14262655793384052 l 3.387884007355436 -13.289870914224895" fill="#ff8a0c" stroke="none" /><path d="M 94.81253420990036 120.34920634021253 l -1.8369692260116877 7.205997558976545 a28.436454582480142,28.436454582480142 0 0,0 -0.47327679281589674,-0.1249967025285107 l 1.9607364616390737 -7.173309507144452" fill="#ff2e04" stroke="none" /><path d="M 93.76903079525671 120.05430185196036 l -11.399147825522112 36.68802458117046 a59.41811706495613,59.41811706495613 0 0,0 -0.9741137819215303,-0.311880471471925 l 12.028982952534584 -36.486371263038826" fill="#44ff2d" stroke="none" /><path d="M 93.42475214034765 119.94407469862007 l -4.8819892904364455 14.808074336451805 a36.59207763531912,36.59207763531912 0 0,0 -0.5965036052038363,-0.2023664095122836 l 5.136162628577507 -14.721844940041398" fill="#ffa40f" stroke="none" /><path d="M 92.7421414339146 119.70592522655815 l -3.8276827221850516 10.392601182231367 a32.075076268569475,32.075076268569475 0 0,0 -0.516454212275642,-0.19527879185237185 l 4.006007155220977 -10.325174140272361" fill="#ff6409" stroke="none" /><path d="M 92.06813273071674 119.44442032107085 l -5.034998637057317 12.342948575815997 a34.33040099998523,34.33040099998523 0 0,0 -0.5452461209710445,-0.22791292278666717 l 5.246716217525823 -12.254450610009357" fill="#ff840c" stroke="none" /><path d="M 91.40352486487194 119.15986991738527 l -15.121584717754624 33.70306917459419 a57.93994039198915,57.93994039198915 0 0,0 -0.906434511528402,-0.41609962643738013 l 15.699487225050445 -33.437782477822736" fill="#54ff2b" stroke="none" /><path d="M 90.7491055286396 118.85261126421891 l -7.8096802835891905 15.915527621697166 a38.728370641682986,38.728370641682986 0 0,0 -0.5959486492701694,-0.2988210244350806 l 8.08248284054212 -15.778738756352784" fill="#ffc112" stroke="none" /><path d="M 90.10565033884886 118.52300852407294 l -8.337676027136128 15.60879182671145 a38.69607933478754,38.69607933478754 0 0,0 -0.5848215643325179,-0.3188913461490822 l 8.605120403337287 -15.462959828802601" fill="#ffc111" stroke="none" /><line stroke="#e1ed5e" stroke-width="0.3" x1="58.666819895761336" x2="56.23545636021788" y1="174.27360380694188" y2="178.64263932499728" /><path d="M 58.180547188652646 175.14741091055294 a86.0,86.0 0 0,1 -31.652253787137756,-30.449443065178592" fill="none" id="id164" stroke="none" /><text fill="#e1ed5e" style="font-size:6.75px; font-family:Arial;" text-anchor="middle"><textPath startOffset="22.20632615414155" xlink:href="#id164">August</textPath></text><path d="M 89.1626897886671 117.98757091392108 l -3.8123807339002513 6.327720390451295 a28.38744151922348,28.38744151922348 0 0,0 -0.4163772594583816,-0.25577292060343 l 3.920737193290942 -6.261159003019487" fill="#ff2d04" stroke="none" /><path d="M 88.54995079064634 117.60387380957326 l -8.056226147198727 12.386041831227763 a35.77554777257792,35.77554777257792 0 0,0 -0.5133370338245206,-0.3402117946059946 l 8.268237879763209 -12.245532015530449" fill="#ff990e" stroke="none" /><path d="M 88.24862548938628 117.40417183066458 l -6.6191681140736245 9.803205499862589 a32.82861887943411,32.82861887943411 0 0,0 -0.4656084819323074,-0.3202497595178481 l 6.786933480628822 -9.68781495097964" fill="#ff6f0a" stroke="none" /><path d="M 86.79598089348748 116.32954008644616 l -4.6501683795772495 5.7509088975475775 a28.395743309925784,28.395743309925784 0 0,0 -0.3774333419036951,-0.31060194485564324 l 4.748471850025633 -5.670011833834753" fill="#ff2e04" stroke="none" /><path d="M 86.24171649860922 115.8653595955263 l -10.648314749800221 12.279100265294693 a37.2530892551531,37.2530892551531 0 0,0 -0.4808445104982228,-0.42428937368209635 l 10.858101613205031 -12.093987749840307" fill="#ffad10" stroke="none" /><path d="M 85.97065885151581 115.62618273729859 l -9.871660865269973 10.99526877055195 a35.77652271597001,35.77652271597001 0 0,0 -0.45470333482865266,-0.41536071545396036 l 10.05946374956548 -10.823715288511414" fill="#ff990e" stroke="none" /><path d="M 85.70375840098266 115.38237550388516 l -14.087402499646414 15.15767019066231 a41.69323258449334,41.69323258449334 0 0,0 -0.521491340397883,-0.49310261219448015 l 14.346229674435113 -14.912932941721898" fill="#ffe915" stroke="none" /><path d="M 85.18274418774928 114.88116024355367 l -15.638321443572902 15.705766998340051 a43.16366879780195,43.16366879780195 0 0,0 -0.5219913499142745,-0.5287744815668918 l 15.90635341854271 -15.434252022792496" fill="#fffc17" stroke="none" /><path d="M 84.9287848128048 114.62390073753433 l -10.604822224808931 10.29007055028755 a35.776596575317896,35.776596575317896 0 0,0 -0.42504887902380195,-0.4456620503334314 l 10.78037765521169 -10.10600138337162" fill="#ff990e" stroke="none" /><path d="M 84.43433777217949 114.09645910891817 l -10.960359294526437 9.925838962264084 a35.78687779654352,35.78687779654352 0 0,0 -0.4095742560531243,-0.4601610185425666 l 11.129592400227901 -9.735703773980653" fill="#ff990e" stroke="none" /><path d="M 83.95833913139862 113.55231037782056 l -27.087573679378355 22.88411461206912 a56.460109269629534,56.460109269629534 0 0,0 -0.6208030988954993,-0.7477973245464019 l 27.477472778167392 -22.414456030408957" fill="#64ff29" stroke="none" /><path d="M 83.50135304334701 112.99209946851258 l -23.21704604281277 18.2826005275315 a50.55139098254739,50.55139098254739 0 0,0 -0.5324582412134996,-0.6882740528616752 l 23.528311101244338 -17.880248480556574" fill="#a7ff21" stroke="none" /><path d="M 83.06392112726016 112.41649034213515 l -14.294763884348582 10.48004080795845 a38.7248844804628,38.7248844804628 0 0,0 -0.3894989590568556,-0.5409799875883117 l 14.473042635781045 -10.232427214919" fill="#ffc111" stroke="none" /><path d="M 82.85270091963577 112.12312394758628 l -14.476106331355613 10.234593244741777 a38.72863653533537,38.72863653533537 0 0,0 -0.38016600010673673,-0.5476574772738639 l 14.650133238624484 -9.983894505280901" fill="#ffc112" stroke="none" /><path d="M 82.44556493220864 111.52570212397912 l -17.289801175960957 11.351951650245965 a41.68342406309417,41.68342406309417 0 0,0 -0.38863865282600313,-0.6031758197185172 l 17.48264469216401 -11.052654230606" fill="#ffe815" stroke="none" /><path d="M 82.24976979558568 111.22182372390057 l -19.98134974011125 12.632353607074434 a44.639600146593224,44.639600146593224 0 0,0 -0.4050201094766433,-0.6530213776867204 l 20.195834489255848 -12.28653589802245" fill="#efff19" stroke="none" /><path d="M 82.05923443525364 110.91462005526583 l -30.292628559609287 18.42912054171888 a56.45808552349747,56.45808552349747 0 0,0 -0.49795796001983494,-0.8346061834815913 l 30.605367395327356 -17.904952264351177" fill="#64ff29" stroke="none" /><line stroke="#e1ed5e" stroke-width="0.3" x1="26.63291911575756" x2="22.317208475507996" y1="142.92168965132927" y2="145.44649492493687" /><path d="M 25.769776987707644 143.4266507060508 a86.0,86.0 0 0,1 -11.730757126820373,-40.83630448921669" fill="none" id="id165" stroke="none" /><text fill="#e1ed5e" style="font-size:6.75px; font-family:Arial;" text-anchor="middle"><textPath startOffset="21.46611528233685" xlink:href="#id165">September</textPath></text><path d="M 80.58989483394504 108.01547362559985 l -6.827010416296348 2.819238817377353 a28.386215454048582,28.386215454048582 0 0,0 -0.1826144523318334,-0.4532340945853722 l 6.874527482885569 -2.7013053549491755" fill="#ff2d04" stroke="none" /><path d="M 80.45479744820244 107.68017299344265 l -20.772726529450328 8.162521358827334 a43.318891603317624,43.318891603317624 0 0,0 -0.26673240409417504,-0.6963541388661444 l 20.910153213138013 -7.8037436531280315" fill="#fffe18" stroke="none" /><path d="M 80.20201598880116 107.00284435728193 l -12.364101235706675 4.373368345097884 a34.11477601976898,34.11477601976898 0 0,0 -0.19105764096394792,-0.5553029367405574 l 12.43754970761385 -4.159892705268029" fill="#ff810b" stroke="none" /><path d="M 79.97269907076064 106.31721596034903 l -21.136294927253353 6.667026182352387 a43.16285634497521,43.16285634497521 0 0,0 -0.2174035534982037,-0.7104873917175539 l 21.247925253257684 -6.302211818082785" fill="#fffc17" stroke="none" /><path d="M 79.76711848015287 105.62410040840567 l -14.23647403406182 3.957288997648854 a35.77624205044805,35.77624205044805 0 0,0 -0.1598208613340388,-0.5947528798437125 l 14.302482971737634 -3.711645184629602" fill="#ff990e" stroke="none" /><path d="M 79.58551787078972 104.9243191809786 l -18.812537610659856 4.537903004970195 a40.35210931746225,40.35210931746225 0 0,0 -0.15706469424370173,-0.676630592036909 l 18.887862870834113 -4.213403755584712" fill="#ffd714" stroke="none" /><path d="M 79.50377843672027 104.57218783832718 l -14.428486695195808 3.2186298918347327 a35.78312574167096,35.78312574167096 0 0,0 -0.12893164793751152,-0.6023257356083056 l 14.48175238185776 -2.969790336810263" fill="#ff990e" stroke="none" /><path d="M 79.35854240842038 103.8639653848113 l -36.30039124551786 6.795230162670604 a57.93092955154714,57.93092955154714 0 0,0 -0.17504397993540444,-0.9817395990471802 l 36.411981667792446 -6.16937181289021" fill="#54ff2b" stroke="none" /><path d="M 79.23777060512086 103.15116336523772 l -7.308807262639123 1.1092857732942831 a28.392508270488406,28.392508270488406 0 0,0 -0.06917760141326669,-0.4838279831632477 l 7.326818915068989 -0.9833123181506349" fill="#ff2d04" stroke="none" /><path d="M 79.18660465613746 102.79330883721812 l -17.57265291001414 2.3583776628441213 a38.730202353510535,38.730202353510535 0 0,0 -0.08299050726057833,-0.6615159979552501 l 17.610644926521566 -2.055543910601463" fill="#ffc112" stroke="none" /><path d="M 79.07016306316243 101.71520430193888 l -44.178308087256404 3.6204211390809213 a65.32640696782053,65.32640696782053 0 0,0 -0.08219754677066479,-1.1215202194306904 l 44.2340821926914 -2.8594277831534702" fill="#34ff60" stroke="none" /><path d="M 79.0095281055655 100.63252640178507 l -14.770202216589727 0.4450849370458682 a35.77690678457901,35.77690678457901 0 0,0 -0.013250978014037478,-0.6157208795940043 l 14.775675257288773 -0.1907742416617351" fill="#ff990e" stroke="none" /><line stroke="#e1ed5e" stroke-width="0.3" x1="15.007084014347285" x2="10.007500721073583" y1="101.09737516637583" y2="101.16192664675087" /><path d="M 14.007167355692545 101.11028546245083 a86.0,86.0 0 0,1 10.666146001902534,-42.60595125391555" fill="none" id="id166" stroke="none" /><text fill="#e1ed5e" style="font-size:6.75px; font-family:Arial;" text-anchor="middle"><textPath startOffset="22.20632615414155" xlink:href="#id166">October</textPath></text><path d="M 79.00175016825051 100.2711162175752 l -18.135360371661903 0.2341523864000326 a39.13687192296681,39.13687192296681 0 0,0 -0.00289930179671109,-0.6736956310909142 l 18.13670397074812 0.07805272289455699" fill="#ffc712" stroke="none" /><path d="M 79.00486145842228 99.54816195383935 l -22.155628567722957 -0.47681304429957383 a43.160758739495265,43.160758739495265 0 0,0 0.022378453746752958,-0.7426319329698671 l 22.14413841952056 0.8581151246944353" fill="#fffc17" stroke="none" /><path d="M 79.03285615573316 98.82574320788736 l -58.997538578510685 -3.304134359372321 a80.08998952604105,80.08998952604105 0 0,0 0.08893577248619124,-1.375797036456692 l 58.93192221502008 4.319190460082025" fill="#48f8ff" stroke="none" /><path d="M 79.08570108090925 98.10471618934814 l -22.07577859592602 -2.0005387673885404 a43.16623910310835,43.16623910310835 0 0,0 0.07342962544053361,-0.7394263072786343 l 22.03807184480326 2.380240605371605" fill="#fffc17" stroke="none" /><path d="M 79.12142395522702 97.74499172005258 l -17.359539336209952 -1.8749317412873443 a38.4604975587727,38.4604975587727 0 0,0 0.07675551790449973,-0.6575944036008908 l 17.324693465301863 2.1734698832130968" fill="#ffbd11" stroke="none" /><path d="M 79.21141760316559 97.0276538004421 l -20.47626107994926 -2.927690577468642 a41.6845024095733,41.6845024095733 0 0,0 0.1076732662206932,-0.7094322933654987 l 20.422831920289266 3.2797219832262328" fill="#ffe815" stroke="none" /><path d="M 79.32604984820605 96.31383870115002 l -21.81741386433435 -3.890040656827444 a43.16149733297412,43.16149733297412 0 0,0 0.13670741666996247,-0.7302964862831622 l 21.747220723754523 4.265015220573179" fill="#fffc17" stroke="none" /><path d="M 79.46518482838121 95.60439243477599 l -15.240822729168505 -3.262394870792983 a36.58608025627084,36.58608025627084 0 0,0 0.13712047017916412,-0.6146841811909322 l 15.182407871987303 3.5242572215338748" fill="#ffa40f" stroke="none" /><path d="M 79.54389044137918 95.25157060432595 l -19.5714994921296 -4.543086907093862 a41.0918697740115,41.0918697740115 0 0,0 0.1658687015614391,-0.687632852253166 l 19.490397990307347 4.879304991006425" fill="#ffe115" stroke="none" /><path d="M 79.81627453868168 94.20196356495316 l -7.099381418976429 -2.039389220409628 a28.38649611957055,28.38649611957055 0 0,0 0.13895068584539363,-0.4684726365845976 l 7.063224836019328 2.1612912437407643" fill="#ff2d04" stroke="none" /><path d="M 79.91906864156998 93.8553929516997 l -60.24279407529007 -18.433821144900918 a84.0,84.0 0 0,0 0.4349780649271846,-1.378999334294342 l 59.91656052659468 19.468070645621676" fill="#4dd2ff" stroke="none" /><path d="M 80.14247586403 93.16781622104843 l -12.461753278761101 -4.287593358842929 a34.178723443168046,34.178723443168046 0 0,0 0.19619713394892602,-0.5546757178638144 l 12.386103064002365 4.501466703133354" fill="#ff820c" stroke="none" /><path d="M 80.2630227832202 92.82701384747504 l -17.598748341370747 -6.395892175783742 a39.724940050829304,39.724940050829304 0 0,0 0.23909762592727357,-0.6406627656243973 l 17.486046126941847 6.697878078437481" fill="#ffcf13" stroke="none" /><path d="M 80.52162464483688 92.15188598940014 l -22.82752126558134 -9.19753245355686 a45.61077671193658,45.61077671193658 0 0,0 0.2996808585963436,-0.7257009695635198 l 22.665818720098795 9.589107993573691" fill="#e3ff1b" stroke="none" /><path d="M 80.803312248108 91.48605970444005 l -27.01318644501869 -11.980642679519065 a50.55077056402515,50.55077056402515 0 0,0 0.3596270475229792,-0.7923905288452939 l 26.80295708053236 12.44385521720643" fill="#a7ff21" stroke="none" /><path d="M 81.43458229118936 90.18545643968196 l -7.580954097739331 -4.007645041335339 a29.575085061348982,29.575085061348982 0 0,0 0.24180012237897075,-0.4480189036940388 l 7.510845876141889 4.13754492836185" fill="#ff3f05" stroke="none" /><line stroke="#e1ed5e" stroke-width="0.3" x1="26.266209847984243" x2="21.928928074336255" y1="57.711370442889674" y2="55.22380399835377" /><path d="M 25.398753493254645 57.213857153982495 a86.0,86.0 0 0,1 29.58750427330803,-30.492523968695096" fill="none" id="id167" stroke="none" /><text fill="#e1ed5e" style="font-size:6.75px; font-family:Arial;" text-anchor="middle"><textPath startOffset="21.46611528233685" xlink:href="#id167">November</textPath></text><path d="M 81.78341655067845 89.55222093294921 l -19.94145673237639 -11.437047720536235 a43.98842659189756,43.98842659189756 0 0,0 0.38236484331539017,-0.653585462611027 l 19.741632214590677 11.778612595501153" fill="#f8ff18" stroke="none" /><path d="M 81.96595687620814 89.24020034530311 l -13.956920299956554 -8.327232290244677 a37.25233588980467,37.25233588980467 0 0,0 0.33329168526807906,-0.5478438974326855 l 13.811512816402258 8.566243960884437" fill="#ffad10" stroke="none" /><path d="M 82.34701348167596 88.62581576622439 l -12.423614864785383 -8.004791946952544 a35.77913733688515,35.77913733688515 0 0,0 0.3380333919823369,-0.5148480471270902 l 12.283984837445127 8.217458058057302" fill="#ff990e" stroke="none" /><path d="M 82.54541684631803 88.32363383020206 l -16.23587442341246 -10.861102392733489 a40.5337442257817,40.5337442257817 0 0,0 0.3929370780576248,-0.5765866761608038 l 16.046512879686095 11.138967092164709" fill="#ffd914" stroke="none" /><path d="M 83.17141714833178 87.43820079747576 l -6.096210872681301 -4.550554111053755 a28.607320797877918,28.607320797877918 0 0,0 0.2979575878201497,-0.3920772593754573 l 6.016977344637042 4.654816146310239" fill="#ff3104" stroke="none" /><path d="M 83.84228863543731 86.58626213691792 l -11.732614220347667 -9.740130148974979 a36.24874984260925,36.24874984260925 0 0,0 0.40268802917338165,-0.4766556121985494 l 11.56321557768716 9.940644710802644" fill="#ff9f0e" stroke="none" /><path d="M 84.07557802195018 86.31012108654704 l -14.787280910547496 -12.712303492311817 a40.50041888801586,40.50041888801586 0 0,0 0.4590204392311124,-0.5247397117473148 l 14.566268607738541 12.964958760262075" fill="#ffd914" stroke="none" /><path d="M 84.5562425177563 85.77008943001954 l -16.298072754852317 -15.017078455889461 a43.161674595409046,43.161674595409046 0 0,0 0.5081417332601293,-0.5420501718841465 l 16.03716369962173 15.295398044651657" fill="#fffc17" stroke="none" /><path d="M 85.05521093208273 85.24692304244772 l -10.51314007041991 -10.378277259021006 a35.77277066109744,35.77277066109744 0 0,0 0.4363668177237257,-0.4344929199315021 l 10.33293745252887 10.557706029602617" fill="#ff980e" stroke="none" /><path d="M 85.83668400450813 84.49514656593479 l -10.7271386668219 -11.743204264376166 a36.90516741100477,36.90516741100477 0 0,0 0.47271831116626256,-0.42441116720444577 l 10.523409368059665 11.92611444034989" fill="#ffa80f" stroke="none" /><path d="M 86.37877921826538 84.01681056812374 l -8.216772743629546 -9.641590675647516 a33.66789742132397,33.66789742132397 0 0,0 0.4443240007977972,-0.3721085725939592 l 8.049591205872638 9.781600405635286" fill="#ff7b0b" stroke="none" /><path d="M 86.93701828274178 83.55741782278169 l -19.410931021344062 -24.432846601407874 a52.20493929113315,52.20493929113315 0 0,0 0.7084146741834056,-0.5529288898875122 l 18.987483792001232 24.76335388051861" fill="#94ff23" stroke="none" /><path d="M 87.51073957382395 83.11751280151077 l -10.543473640365221 -14.25224974795201 a38.72826723859595,38.72826723859595 0 0,0 0.5393458639728466,-0.3918577074800686 l 10.296582460038593 14.431626690248747" fill="#ffc112" stroke="none" /><path d="M 87.80319425747018 82.90503203632743 l -8.582251331661137 -12.028830717484439 a35.776596575317896,35.776596575317896 0 0,0 0.5043969608394996,-0.35336230495431215 l 8.373923231237978 12.174777865202694" fill="#ff990e" stroke="none" /><path d="M 88.39885842347998 82.49532879139004 l -8.424404882850707 -12.711372982549635 a36.24957706730556,36.24957706730556 0 0,0 0.5230865310841571,-0.34023003041560823 l 8.204351325982262 12.854501937124779" fill="#ff9f0e" stroke="none" /><path d="M 89.00827224532344 82.1063720568725 l -15.469190161390033 -25.18256815555079 a50.554315812723644,50.554315812723644 0 0,0 0.745406375811056,-0.44909900101730166 l 15.033421719361327 25.44511376602671" fill="#a7ff21" stroke="none" /><line stroke="#e1ed5e" stroke-width="0.3" x1="56.762969772571076" x2="54.21961505331055" y1="26.818313649435495" y2="22.513508569990535" /><path d="M 56.25429882871897 25.957352633546506 a86.0,86.0 0 0,1 42.265352541879196,-11.944610805530505" fill="none" id="id168" stroke="none" /><text fill="#e1ed5e" style="font-size:6.75px; font-family:Arial;" text-anchor="middle"><textPath startOffset="22.20632615414155" xlink:href="#id168">December</textPath></text><path d="M 89.63071344664047 81.73862282372117 l -8.753391033767342 -15.415619427287744 a38.727469557638784,38.727469557638784 0 0,0 0.5825273678311321,-0.324175849509028 l 8.486739576864164 15.564010674356958" fill="#ffc112" stroke="none" /><path d="M 90.58718382345135 81.22770947309562 l -6.623681563684834 -13.20982714832788 a35.777438571883785,35.777438571883785 0 0,0 0.5528955623497981,-0.27130345124598104 l 6.39531473432461 13.321885759708692" fill="#ff990e" stroke="none" /><path d="M 91.23893434514133 80.91482961587045 l -13.006415929644126 -28.333272901162747 a52.17597165489255,52.17597165489255 0 0,0 0.819455639912109,-0.3676658590699979 l 12.516778171265242 28.552959090749273" fill="#94ff23" stroke="none" /><path d="M 91.90106846888425 80.62456947434976 l -5.699635719416298 -13.63548950608934 a35.778782812015294,35.778782812015294 0 0,0 0.5702731301750249,-0.2326287285039446 l 5.464078719652893 13.731579120776864" fill="#ff990e" stroke="none" /><path d="M 92.57280143429618 80.3572730644239 l -5.223041721311453 -13.813388910670685 a35.76786640039786,35.76786640039786 0 0,0 0.5777663072581152,-0.212796206933607 l 4.984493088280768 13.901248385410614" fill="#ff980e" stroke="none" /><path d="M 93.59665428221793 80.00007090966166 l -4.544781358185454 -14.194970707638758 a35.90477208763799,35.90477208763799 0 0,0 0.5902310721019133,-0.1833876671997011 l 4.299764913372813 14.271098509720984" fill="#ff9a0e" stroke="none" /><path d="M 94.63758080256005 79.69619591428918 l -3.773456316570868 -14.287491327462723 a35.77739425627506,35.77739425627506 0 0,0 0.5967858663802623,-0.15213400533193744 l 3.5269615615056065 14.350328328963524" fill="#ff990e" stroke="none" /><path d="M 94.98787191387505 79.60689891045804 l -3.527807715818653 -14.353771120158562 a35.780939504973546,35.780939504973546 0 0,0 0.5993755702893432,-0.141852832439488 l 3.2802084585667757 14.41236986473892" fill="#ff990e" stroke="none" /><path d="M 96.04723909329186 79.375362276772 l -5.562297145346828 -29.022844092855287 a50.55105122954712,50.55105122954712 0 0,0 0.8560095452668829,-0.15643027292220926 l 5.061892478977052 29.11428984712823" fill="#a7ff21" stroke="none" /><path d="M 96.75951476605007 79.25152402106235 l -2.2897555903153606 -14.66105704341891 a35.83878614623729,35.83878614623729 0 0,0 0.6103362680799266,-0.0899477005181979 l 2.0370503418067853 14.698299228098078" fill="#ff990e" stroke="none" /></svg>