<?xml version="1.0" encoding="utf-8" ?>
<svg baseProfile="full" height="200mm" version="1.1" viewBox="0,0,200,200" width="200mm" xmlns="http://www.w3.org/2000/svg" xmlns:ev="http://www.w3.org/2001/xml-events" xmlns:xlink="http://www.w3.org/1999/xlink"><defs /><rect fill="#1a1a1a" height="200" width="200" x="0" y="0" /><text alignment-baseline="middle" fill="#e1ed5e" style="dominant-baseline: central; font-size:9.0px; font-family:Arial;" text-anchor="middle" x="100.0" y="100.0">2013</text><line stroke="#e1ed5e" stroke-width="0.3" x1="100.0" x2="100.0" y1="15.0" y2="10.0" /><path d="M 100.0 14.0 a86.0,86.0 0 0,1 42.46469731375804,11.215312516191453" fill="none" id="id13" stroke="none" /><text fill="#e1ed5e" style="font-size:6.75px; font-family:Arial;" text-anchor="middle"><textPath startOffset="22.20632615414155" xlink:href="#id13">January</textPath></text><line stroke="#e1ed5e" stroke-width="0.3" x1="143.23703022742887" x2="145.7803849466894" y1="26.81831364943548" y2="22.513508569990506" /><path d="M 143.74570117128098 25.957352633546492 a86.0,86.0 0 0,1 28.547481713284135,27.462654790039103" fill="none" id="id14" stroke="none" /><text fill="#e1ed5e" style="font-size:6.75px; font-family:Arial;" text-anchor="middle"><textPath startOffset="19.985693538727396" xlink:href="#id14">February</textPath></text><line stroke="#e1ed5e" stroke-width="0.3" x1="172.23445277983987" x2="176.4835382374775" y1="55.19839476539836" y2="52.563006222186495" /><path d="M 173.08426987136738 54.67131705675599 a86.0,86.0 0 0,1 12.851231095245387,41.99856678651699" fill="none" id="id15" stroke="none" /><text fill="#e1ed5e" style="font-size:6.75px; font-family:Arial;" text-anchor="middle"><textPath startOffset="22.20632615414155" xlink:href="#id15">March</textPath></text><line stroke="#e1ed5e" stroke-width="0.3" x1="184.98032266829074" x2="189.97916517819016" y1="98.17113171792111" y2="98.06355123074" /><path d="M 185.9800911702706 98.14961562048488 a86.0,86.0 0 0,1 -9.607161424134198,41.387399972396054" fill="none" id="id16" stroke="none" /><text fill="#e1ed5e" style="font-size:6.75px; font-family:Arial;" text-anchor="middle"><textPath startOffset="21.466115282336823" xlink:href="#id16">April</textPath></text><line stroke="#e1ed5e" stroke-width="0.3" x1="174.80103733775053" x2="179.2010983576182" y1="140.37084112569926" y2="142.7455964860345" /><path d="M 175.68104954172406 140.8457921977663 a86.0,86.0 0 0,1 -30.038265399797805,32.042727171017184" fill="none" id="id17" stroke="none" /><text fill="#e1ed5e" style="font-size:6.75px; font-family:Arial;" text-anchor="middle"><textPath startOffset="22.206326154141568" xlink:href="#id17">May</textPath></text><line stroke="#e1ed5e" stroke-width="0.3" x1="143.8653032363475" x2="146.44561519142675" y1="172.8068346515853" y2="177.08958963109032" /><path d="M 144.38136562736335 173.6633856474863 a86.0,86.0 0 0,1 -40.68145358897372,12.25698825130547" fill="none" id="id18" stroke="none" /><text fill="#e1ed5e" style="font-size:6.75px; font-family:Arial;" text-anchor="middle"><textPath startOffset="21.466115282336833" xlink:href="#id18">June</textPath></text><line stroke="#e1ed5e" stroke-width="0.3" x1="102.19456741930631" x2="102.32365962044197" y1="184.97166512339345" y2="189.96999836594603" /><path d="M 102.22038585953345 185.97133177190398 a86.0,86.0 0 0,1 -42.740103519485714,-10.115201625700543" fill="none" id="id19" stroke="none" /><text fill="#e1ed5e" style="font-size:6.75px; font-family:Arial;" text-anchor="middle"><textPath startOffset="22.20632615414155" xlink:href="#id19">July</textPath></text><line stroke="#e1ed5e" stroke-width="0.3" x1="58.666819895761336" x2="56.23545636021788" y1="174.27360380694188" y2="178.64263932499728" /><path d="M 58.180547188652646 175.14741091055294 a86.0,86.0 0 0,1 -31.652253787137756,-30.449443065178592" fill="none" id="id20" stroke="none" /><text fill="#e1ed5e" style="font-size:6.75px; font-family:Arial;" text-anchor="middle"><textPath startOffset="22.20632615414155" xlink:href="#id20">August</textPath></text><line stroke="#e1ed5e" stroke-width="0.3" x1="26.63291911575756" x2="22.317208475507996" y1="142.92168965132927" y2="145.44649492493687" /><path d="M 25.769776987707644 143.4266507060508 a86.0,86.0 0 0,1 -11.730757126820373,-40.83630448921669" fill="none" id="id21" stroke="none" /><text fill="#e1ed5e" style="font-size:6.75px; font-family:Arial;" text-anchor="middle"><textPath startOffset="21.46611528233685" xlink:href="#id21">September</textPath></text><line stroke="#e1ed5e" stroke-width="0.3" x1="15.007084014347285" x2="10.007500721073583" y1="101.09737516637583" y2="101.16192664675087" /><path d="M 14.007167355692545 101.11028546245083 a86.0,86.0 0 0,1 10.666146001902534,-42.60595125391555" fill="none" id="id22" stroke="none" /><text fill="#e1ed5e" style="font-size:6.75px; font-family:Arial;" text-anchor="middle"><textPath startOffset="22.20632615414155" xlink:href="#id22">October</textPath></text><path d="M 79.21141760316559 97.0276538004421 l -27.95750034676516 -3.997356256360229 a49.24182505929169,49.24182505929169 0 0,0 0.12719422884568843,-0.8380510468392465 l 27.884550224480165 4.478006415591568" fill="#c3ff1e" stroke="none" /><path d="M 79.32604984820605 96.31383870115002 l -14.206297998763988 -2.5329801754615224 a35.430346198167484,35.430346198167484 0 0,0 0.11222018233305223,-0.5994847012999761 l 14.160592092521075 2.7771429542240713" fill="#ff7f0b" stroke="none" /><path d="M 79.62865764111835 94.90015583598534 l -14.784859592186699 -3.701301493964423 a36.241118919223034,36.241118919223034 0 0,0 0.15670602547570733,-0.6038522405688017 l 14.718957234840683 3.955250160082089" fill="#ff8b0c" stroke="none" /><path d="M 79.81627453868168 94.20196356495316 l -5.882330995008446 -1.6897757303243004 a27.120225482253908,27.120225482253908 0 0,0 0.13275234517031023,-0.4475749131884224 l 5.852372752726429 1.790780030259262" fill="#ff0000" stroke="none" /><path d="M 80.2630227832202 92.82701384747504 l -25.8922658515542 -9.409995379271919 a48.54918227398916,48.54918227398916 0 0,0 0.2922092319728737,-0.7829754643973977 l 25.7264520310797 9.854293980698658" fill="#ccff1d" stroke="none" /><path d="M 80.52162464483688 92.15188598940014 l -22.815337937036915 -9.192623617491133 a45.59764163805245,45.59764163805245 0 0,0 0.29959455596124085,-0.7254919808871549 l 22.653721694189475 9.5839901688316" fill="#f2ff19" stroke="none" /><path d="M 80.803312248108 91.48605970444005 l -13.108094235164947 -5.813582694533774 a35.339451810447535,35.339451810447535 0 0,0 0.25141105810791187,-0.5539509407421694 l 13.006080860093682 6.038355644118014" fill="#ff7e0b" stroke="none" /><path d="M 81.6062741919709 89.86733742301443 l -20.026403512493395 -11.032065582606247 a43.8640177716895,43.8640177716895 0 0,0 0.37000836049846747,-0.6582035866844298 l 19.8335375107025 11.375152679225462" fill="#fff517" stroke="none" /><line stroke="#e1ed5e" stroke-width="0.3" x1="26.266209847984243" x2="21.928928074336255" y1="57.711370442889674" y2="55.22380399835377" /><path d="M 25.398753493254645 57.213857153982495 a86.0,86.0 0 0,1 29.58750427330803,-30.492523968695096" fill="none" id="id23" stroke="none" /><text fill="#e1ed5e" style="font-size:6.75px; font-family:Arial;" text-anchor="middle"><textPath startOffset="21.46611528233685" xlink:href="#id23">November</textPath></text><path d="M 81.96595687620814 89.24020034530311 l -24.425252052980603 -14.573039268095433 a49.44233484369883,49.44233484369883 0 0,0 0.44235398157018646,-0.7271136365533791 l 24.1707822731242 14.991320677855887" fill="#c1ff1e" stroke="none" /><path d="M 84.5562425177563 85.77008943001954 l -6.142997444258341 -5.660170743027946 a29.353080296536962,29.353080296536962 0 0,0 0.3455733642918608,-0.36863357062052904 l 6.044656757996024 5.765073730526525" fill="#ff2303" stroke="none" /><path d="M 85.83668400450813 84.49514656593479 l -7.553119937014607 -8.268545136647594 a32.19903832745054,32.19903832745054 0 0,0 0.41243750095525644,-0.3702904606073947 l 7.40967144846338 8.397334606024268" fill="#ff4f07" stroke="none" /><path d="M 86.37877921826538 84.01681056812374 l -10.935835577494373 -12.832148779596068 a37.859909314100136,37.859909314100136 0 0,0 0.4996470722768776,-0.4184400539513269 l 10.713330968258385 13.018489990941207" fill="#ffa20f" stroke="none" /><path d="M 86.65592168130627 83.78471172551755 l -5.66743765316664 -6.886885188242022 a29.91902669289415,29.91902669289415 0 0,0 0.40048270103002565,-0.323829159194593 l 5.548051553572114 6.983420444700749" fill="#ff2c04" stroke="none" /><path d="M 87.51073957382395 83.11751280151077 l -21.719080365120107 -29.3589919430775 a57.519431263646965,57.519431263646965 0 0,0 0.80103938446287,-0.5819891794195136 l 21.210495664303455 29.72850035731368" fill="#61ff29" stroke="none" /><path d="M 89.00827224532344 82.1063720568725 l -4.315362434305107 -7.025054801448434 a29.244619330373318,29.244619330373318 0 0,0 0.43120207160515195,-0.25979442338919745 l 4.1937982964823055 7.09829583429625" fill="#ff2203" stroke="none" /><line stroke="#e1ed5e" stroke-width="0.3" x1="56.762969772571076" x2="54.21961505331055" y1="26.818313649435495" y2="22.513508569990535" /><path d="M 56.25429882871897 25.957352633546506 a86.0,86.0 0 0,1 42.265352541879196,-11.944610805530505" fill="none" id="id24" stroke="none" /><text fill="#e1ed5e" style="font-size:6.75px; font-family:Arial;" text-anchor="middle"><textPath startOffset="22.20632615414155" xlink:href="#id24">December</textPath></text><path d="M 89.3179101791058 81.91981866633112 l -32.046269462682616 -54.240544001006626 a84.0,84.0 0 0,0 1.2512130701387194,-0.7247833704398112 l 31.107859660078574 54.78413152883649" fill="#4dd2ff" stroke="none" /></svg>