<?xml version="1.0" encoding="utf-8" ?>
<svg baseProfile="full" height="200mm" version="1.1" viewBox="0,0,200,200" width="200mm" xmlns="http://www.w3.org/2000/svg" xmlns:ev="http://www.w3.org/2001/xml-events" xmlns:xlink="http://www.w3.org/1999/xlink"><defs /><rect fill="#1a1a1a" height="200" width="200" x="0" y="0" /><text alignment-baseline="middle" fill="#e1ed5e" style="dominant-baseline: central; font-size:9.0px; font-family:Arial;" text-anchor="middle" x="100.0" y="100.0">2025</text><line stroke="#e1ed5e" stroke-width="0.3" x1="100.0" x2="100.0" y1="15.0" y2="10.0" /><path d="M 100.0 14.0 a86.0,86.0 0 0,1 42.46469731375804,11.215312516191453" fill="none" id="id157" stroke="none" /><text fill="#e1ed5e" style="font-size:6.75px; font-family:Arial;" text-anchor="middle"><textPath startOffset="22.20632615414155" xlink:href="#id157">January</textPath></text><path d="M 100.0 79.0 l 0.0 -31.319399491106125 a52.319399491106125,52.319399491106125 0 0,0 0.9005924572998056,0.007751683607165447 l -0.5391119780272773 31.31475918410752" fill="#93ff23" stroke="none" /><path d="M 100.72285384407766 79.0124445844662 l 0.25524199259113267 -7.41077260329564 a28.4151668256715,28.4151668256715 0 0,0 0.48868561896560947,0.021043830730165317 l -0.3827684439460737 7.40528104604128" fill="#ff2e04" stroke="none" /><path d="M 101.44485096284872 79.0497635885617 l 2.53135371824656 -36.70444924899258 a57.79163418929299,57.79163418929299 0 0,0 0.9918415206954255,0.07698599114979243 l -3.1627854283043266 36.655437995654324" fill="#56ff2b" stroke="none" /><path d="M 102.16513564639614 79.11191278185805 l 1.5290065939520594 -14.75104949879034 a35.830081674762,35.830081674762 0 0,0 0.6129218263590732,0.0688689087558222 l -1.782695123820858 14.722544636563917" fill="#ff990e" stroke="none" /><path d="M 103.2404852339499 79.25152402106235 l 2.316233777756539 -14.830594009776162 a36.01037832954349,36.01037832954349 0 0,0 0.6116119155256059,0.10092120655483765 l -2.5711748994210204 14.7885265402817" fill="#ff9c0e" stroke="none" /><path d="M 103.59715602781102 79.31037775812273 l 3.915821738864197 -22.522479402410656 a43.86035297895843,43.86035297895843 0 0,0 0.742712167117454,0.135725901244015 l -4.302929027084552 22.451738019815902" fill="#faff18" stroke="none" /><path d="M 103.95276090670814 79.375362276772 l 8.928342680030102 -46.58612994576772 a68.4339836650476,68.4339836650476 0 0,0 1.155014406898615,0.23168502421246823 l -9.728923496395842 46.42554096547804" fill="#39ff86" stroke="none" /><path d="M 104.66035177308747 79.52364482259891 l 1.6465850048563448 -7.234659749061042 a28.41967275982585,28.41967275982585 0 0,0 0.4760651286277686,0.11266923489877635 l -1.770873820446637 7.205244602021398" fill="#ff2e04" stroke="none" /><path d="M 105.01212808612495 79.60689891045804 l 4.245576060073307 -17.27419177815796 a38.78827191355157,38.78827191355157 0 0,0 0.6470088987897814,0.16493697455559095 l -4.542293847548114 17.1985518074335" fill="#ffc212" stroke="none" /><path d="M 105.71112130821622 79.79150937346287 l 4.837826895529186 -17.118386074283237 a38.788864799624506,38.788864799624506 0 0,0 0.6409578823272915,0.1871131820737353 l -5.131774995579904 17.032574563290797" fill="#ffc212" stroke="none" /><path d="M 106.40334571778207 80.00007090966166 l 12.656086688307655 -39.529465920356664 a62.506086375501575,62.506086375501575 0 0,0 1.0218768174813753,0.33689672037969143 l -13.334646328031447 39.30575547571774" fill="#31ff3d" stroke="none" /><path d="M 107.08798089147638 80.2323363322302 l 2.677106716891141 -7.466180565733517 a28.9316298838108,28.9316298838108 0 0,0 0.46733905718071067,0.17212491879620015 l -2.8052280998444283 7.418992379130992" fill="#ff3505" stroke="none" /><path d="M 107.4271985657038 80.35727306442388 l 6.418311776618378 -16.974522022027084 a39.147427474387676,39.147427474387676 0 0,0 0.6282543859915816,0.24375294124723107 l -6.7095493276096265 16.86152637688931" fill="#ffc712" stroke="none" /><path d="M 108.43124777332544 80.76684994638697 l 17.854967485654214 -40.730302096023365 a65.47198413323937,65.47198413323937 0 0,0 1.0282776717429327,0.4613582177363654 l -18.553427275863925 40.41692354777047" fill="#35ff62" stroke="none" /><path d="M 108.76106565485865 80.91482961587045 l 3.538539711772927 -7.70838114570488 a29.481768870893177,29.481768870893177 0 0,0 0.4593846259040713,0.21568724153729021 l -3.670702548976596 7.646328921527587" fill="#ff3e05" stroke="none" /><path d="M 109.08828744355905 81.06846463323043 l 6.418187189683947 -13.369530676338965 a35.83028918488752,35.83028918488752 0 0,0 0.5537123024676845,0.27170422207476547 l -6.647370759162063 13.257071294129366" fill="#ff990e" stroke="none" /><path d="M 109.73455568895987 81.39251694778311 l 9.61916497367885 -18.386915124149073 a41.75107184155826,41.75107184155826 0 0,0 0.6339302890206284,0.33862360599861696 l -9.93424030922779 18.218612791648702" fill="#ffe915" stroke="none" /><path d="M 110.05341064243156 81.56283822128135 l 7.097384176512326 -13.016042507582915 a35.825323764026635,35.825323764026635 0 0,0 0.5388741322976753,0.2998828711970124 l -7.320382397882036 12.891944238825722" fill="#ff990e" stroke="none" /><path d="M 110.36928655335952 81.73862282372117 l 7.31890399701545 -12.889340623263212 a35.822329689358284,35.822329689358284 0 0,0 0.5335877036921691,0.3090884386816533 l -7.539688433172948 12.76144802719151" fill="#ff990e" stroke="none" /><line stroke="#e1ed5e" stroke-width="0.3" x1="143.23703022742887" x2="145.7803849466894" y1="26.81831364943548" y2="22.513508569990506" /><path d="M 143.74570117128098 25.957352633546492 a86.0,86.0 0 0,1 28.547481713284135,27.462654790039103" fill="none" id="id158" stroke="none" /><text fill="#e1ed5e" style="font-size:6.75px; font-family:Arial;" text-anchor="middle"><textPath startOffset="19.985693538727396" xlink:href="#id158">February</textPath></text><path d="M 110.99172775467656 82.1063720568725 l 21.821188722049182 -35.5230989143624 a62.68998481317619,62.68998481317619 0 0,0 0.9146195564205174,0.5727346823231686 l -22.42942743084196 35.142219890716284" fill="#31ff3f" stroke="none" /><path d="M 111.60114157652 82.49532879139004 l 12.286694408884086 -18.53908466245079 a43.240964898556484,43.240964898556484 0 0,0 0.6168947663304298,0.4165300999852058 l -12.603993869621059 18.324842650166914" fill="#fffd17" stroke="none" /><path d="M 111.90073688211348 82.69761687909136 l 10.251924022334796 -14.9051877138369 a39.090510411385296,39.090510411385296 0 0,0 0.5511182319329654,0.38609354111502353 l -10.506973393851412 14.726509329957942" fill="#ffc612" stroke="none" /><path d="M 112.19680574252982 82.90503203632743 l 8.609278007132627 -12.066711139711611 a35.823130085556755,35.823130085556755 0 0,0 0.49888772268517023,0.3624631472305188 l -8.815711046171586 11.916728757664417" fill="#ff990e" stroke="none" /><path d="M 112.48926042617603 83.11751280151076 l 12.342705964057583 -16.684380685680008 a41.75357678521644,41.75357678521644 0 0,0 0.5741193281464733,0.43241477521801663 l -12.628071445962439 16.469449320956144" fill="#ffe915" stroke="none" /><path d="M 113.06298171725822 83.55741782278167 l 29.50503045573578 -37.13844958297855 a68.43217536252513,68.43217536252513 0 0,0 0.916002472535456,0.7406769624216101 l -30.13993632683573 36.62506652329281" fill="#39ff86" stroke="none" /><path d="M 113.6212207817346 84.01681056812373 l 4.811753817504269 -5.64612922711401 a28.41833876616173,28.41833876616173 0 0,0 0.3695821213902778,0.3204979737469488 l -4.908229737541311 5.56246625994739" fill="#ff2e04" stroke="none" /><path d="M 113.89432698308785 84.25364557470407 l 12.048831686466425 -13.654866074245248 a39.21070324052235,39.21070324052235 0 0,0 0.5022499209683248,0.45092493806852707 l -12.28209259503074 13.445442127407423" fill="#ffc712" stroke="none" /><path d="M 114.42810811169701 84.74124197986012 l 13.384825404262715 -14.15541181174611 a40.48151007141689,40.48151007141689 0 0,0 0.5021957951179405,0.4831119570142518 l -13.626504442993074 13.922916767969555" fill="#ffd814" stroke="none" /><path d="M 114.94478906791727 85.2469230424477 l 31.647716637897148 -31.24173897455838 a65.47048709590521,65.47048709590521 0 0,0 0.7848219654668475,0.8088280232120013 l -32.18080286706711 30.692346755796265" fill="#35ff62" stroke="none" /><path d="M 115.68641384162765 86.03803664274999 l 11.08728947761924 -9.868433344971667 a35.84297694684847,35.84297694684847 0 0,0 0.40623429271150246,0.4643960212673252 l -11.25551563390859 9.676121767501394" fill="#ff990e" stroke="none" /><path d="M 116.60985879189232 87.15038557335679 l 29.310573496063665 -22.675061405822902 a58.05763252591818,58.05763252591818 0 0,0 0.6046952898593038,0.7957081198697017 l -29.69654472614708 22.167168510072166" fill="#53ff2b" stroke="none" /><path d="M 116.82858285166822 87.43820079747576 l 11.884381045459461 -8.871169346535199 a35.830244718432056,35.830244718432056 0 0,0 0.3646791856721478,0.4974219994220977 l -12.035322843645236 8.665284903441608" fill="#ff990e" stroke="none" /><path d="M 117.2510076193507 88.02491185347247 l 12.211957364541526 -8.477143428884824 a35.865862349264006,35.865862349264006 0 0,0 0.34768629009538465,0.5101867284801738 l -12.356068120305643 8.265678677134243" fill="#ff9a0e" stroke="none" /><line stroke="#e1ed5e" stroke-width="0.3" x1="172.23445277983987" x2="176.4835382374775" y1="55.19839476539836" y2="52.563006222186495" /><path d="M 173.08426987136738 54.67131705675599 a86.0,86.0 0 0,1 12.851231095245387,41.99856678651699" fill="none" id="id159" stroke="none" /><text fill="#e1ed5e" style="font-size:6.75px; font-family:Arial;" text-anchor="middle"><textPath startOffset="22.20632615414155" xlink:href="#id159">March</textPath></text><path d="M 117.84615892207809 88.93136811851018 l 31.53955829945649 -19.561618948130505 a58.113348994622854,58.113348994622854 0 0,0 0.5199323897508945,0.8546321417334948 l -31.87160648749361 19.015819033189928" fill="#52ff2b" stroke="none" /><path d="M 118.3937258080291 89.86733742301442 l 12.989104117141297 -7.15538605772169 a35.829577721599996,35.829577721599996 0 0,0 0.2929356334867262,0.5427652396385064 l -13.110347849846487 6.9307398347507245" fill="#ff990e" stroke="none" /><path d="M 118.56541770881063 90.18545643968196 l 14.422599976258331 -7.624457361541244 a37.3139124716644,37.3139124716644 0 0,0 0.2952962030799862,0.5704182734568662 l -14.551705612498434 7.375066365824033" fill="#ffae10" stroke="none" /><path d="M 118.73160827565052 90.50648371742162 l 10.578664420068655 -5.361457566374757 a32.85973727147712,32.85973727147712 0 0,0 0.2513613223640237,0.5067290876100736 l -10.669385755386088 5.178568890265733" fill="#ff6f0a" stroke="none" /><path d="M 118.89224826269711 90.83032412892265 l 16.003451913208387 -7.767549146188465 a38.78890926607998,38.78890926607998 0 0,0 0.2863763119772038,0.6031815480890161 l -16.134786419027346 7.490925182458908" fill="#ffc212" stroke="none" /><path d="M 119.196687751892 91.48605970444005 l 40.652096284228826 -18.0296478812688 a65.47090211615627,65.47090211615627 0 0,0 0.4480369937653404,1.0341311541245635 l -40.95642398783685 17.327217582557637" fill="#35ff62" stroke="none" /><path d="M 119.47837535516314 92.15188598940014 l 6.874824229172167 -2.7699642998755394 a28.411876307966672,28.411876307966672 0 0,0 0.17886825275602347,0.4552001931711083 l -6.921486031809891 2.651215101808647" fill="#ff2e04" stroke="none" /><path d="M 119.61058180528143 92.48833698450437 l 14.732965205079193 -5.643334345632344 a36.77680215603491,36.77680215603491 0 0,0 0.2213532877193499,0.5931167611570837 l -14.827923081300169 5.388894447445927" fill="#ffa60f" stroke="none" /><path d="M 119.97218684219823 93.5106431181261 l 6.202014119252832 -2.0151565436598267 a27.52118356058672,27.52118356058672 0 0,0 0.14251322821059048,0.45180587867905914 l -6.235782831231629 1.9081004985543482" fill="#ff2003" stroke="none" /><path d="M 120.08093135843002 93.85539295169968 l 29.907030575471108 -9.151316121133348 a52.275822364744926,52.275822364744926 0 0,0 0.2558879172729507,0.8627268483466246 l -30.060124389855762 8.635159886040194" fill="#93ff23" stroke="none" /><path d="M 120.28053869075195 94.5502522615342 l 14.319525770492865 -3.8479156975860755 a35.82751744249652,35.82751744249652 0 0,0 0.1549176192266379,0.5969607817543068 l -14.383639721589805 3.6008584902829184" fill="#ff990e" stroke="none" /><path d="M 120.37134235888165 94.90015583598534 l 16.466370370406935 -4.122257696946077 a37.97452095628759,37.97452095628759 0 0,0 0.15328541918577754,0.6354670230808968 l -16.534888589853534 3.838205442205774" fill="#ffb710" stroke="none" /><path d="M 120.6074358757038 95.95851677861258 l 7.275940291088345 -1.4269407792222981 a28.41454429529491,28.41454429529491 0 0,0 0.08999870686822754,0.4807766908109217 l -7.299424721866432 1.3014860109488136" fill="#ff2e04" stroke="none" /><path d="M 120.67395015179393 96.31383870115 l 30.792431610557994 -5.490284578754041 a52.27806050967028,52.27806050967028 0 0,0 0.1503321313101014,0.887268748806241 l -30.88237560338832 4.959430041631962" fill="#93ff23" stroke="none" /><path d="M 120.83666639777658 97.38593545837742 l 15.843620903699296 -1.9876618852855459 a36.967815226584825,36.967815226584825 0 0,0 0.07377657554165337,0.6320726446454826 l -15.875487832244538 1.7146455023152105" fill="#ffa90f" stroke="none" /><path d="M 120.94382443527127 98.46500227214037 l 7.391413691930574 -0.5417254741534536 a28.411238955438257,28.411238955438257 0 0,0 0.031549204822530826,0.48805223459597213 l -7.399643487757521 0.4144141753044463" fill="#ff2e04" stroke="none" /><path d="M 120.96714384426684 98.82574320788733 l 62.90143153280055 -3.5227703763380056 a84.0,84.0 0 0,0 0.0684255670660141,1.444355573508001 l -62.95275070810006 2.4395036962070047" fill="#4dd2ff" stroke="none" /><line stroke="#e1ed5e" stroke-width="0.3" x1="184.98032266829074" x2="189.97916517819016" y1="98.17113171792111" y2="98.06355123074" /><path d="M 185.9800911702706 98.14961562048488 a86.0,86.0 0 0,1 -9.607161424134198,41.387399972396054" fill="none" id="id160" stroke="none" /><text fill="#e1ed5e" style="font-size:6.75px; font-family:Arial;" text-anchor="middle"><textPath startOffset="21.466115282336823" xlink:href="#id160">April</textPath></text><path d="M 120.99513854157772 99.54816195383933 l 7.416932628555886 -0.15962039691976043 a28.418650031350026,28.418650031350026 0 0,0 0.006315697020021109,0.489157694342949 l -7.4185813326936225 0.03192644451634873" fill="#ff2e04" stroke="none" /><path d="M 120.99980553446 99.90962569577887 l 13.359926583617 -0.05749548811099567 a34.3600503012073,34.3600503012073 0 0,0 -0.0025454296850667144,0.591468214872908 l -13.35893685664243 -0.17248220496559705" fill="#ff840c" stroke="none" /><path d="M 120.9904718944345 100.63252640178507 l 17.782912254136885 0.535869872670715 a38.79098436733527,38.79098436733527 0 0,0 -0.02585671646404823,0.6672469602002618 l -17.771053404821632 -0.8418940798849829" fill="#ffc212" stroke="none" /><path d="M 120.95626037817324 101.35467743843564 l 32.54244230521355 2.1036440465485944 a53.61036444848067,53.61036444848067 0 0,0 -0.06745572952323362,0.9203798355178947 l -32.501410017025975 -2.6634970185632594" fill="#84ff25" stroke="none" /><path d="M 120.89721153311464 102.0752229133903 l 14.767965256033882 1.4665506847604548 a35.840605402556704,35.840605402556704 0 0,0 -0.0662499911683913,0.6133926384549855 l -14.740532963364439 -1.7205396451002317" fill="#ff990e" stroke="none" /><path d="M 120.8583938346157 102.4346265915055 l 12.228866102923861 1.4273736911002817 a33.3118870128541,33.3118870128541 0 0,0 -0.07138022093895026,0.5689705925092892 l -12.202484372738063 -1.637662037896966" fill="#ff750a" stroke="none" /><path d="M 120.76222939487914 103.15116336523771 l 4.3758267059878655 0.6641360398387025 a25.42593900096344,25.42593900096344 0 0,0 -0.06939858177391044,0.4321450349522597 l -4.363746369852667 -0.7393603044841671" fill="#ff0000" stroke="none" /><path d="M 120.64145759157962 103.86396538481128 l 30.934177318410097 5.790704936201346 a52.47150441311925,52.47150441311925 0 0,0 -0.17383076566135439,0.8863593290784667 l -30.82991661977308 -6.322327992347756" fill="#91ff24" stroke="none" /><path d="M 120.49622156327973 104.57218783832717 l 7.238481782409224 1.6147219267368396 a28.41639706427285,28.41639706427285 0 0,0 -0.11060667687268394,0.47649066912184274 l -7.209614539605988 -1.7390812532072473" fill="#ff2e04" stroke="none" /><path d="M 120.41448212921028 104.9243191809786 l 14.414488556540192 3.477019011978889 a35.82791764059576,35.82791764059576 0 0,0 -0.14977551434346217,0.5982787280438032 l -14.35250172790167 -3.724625579420088" fill="#ff990e" stroke="none" /><path d="M 120.23288151984713 105.62410040840565 l 17.876074602108687 4.968982711226251 a39.55383605523722,39.55383605523722 0 0,0 -0.18798876560536926,0.6544135548814051 l -17.78789319961722 -5.275953741612238" fill="#ffcc13" stroke="none" /><path d="M 120.13307415673323 105.97154293290107 l 28.423236238488695 8.430435122266756 a50.6471346780711,50.6471346780711 0 0,0 -0.25510051896267383,0.8336832559872633 l -28.273908947019887 -8.918445350806076" fill="#a6ff21" stroke="none" /><path d="M 120.02730092923936 106.31721596034902 l 6.955000137543228 2.1938172312062227 a28.29279514021638,28.29279514021638 0 0,0 -0.15050116464628757,0.4631949567575848 l -6.916206721880694 -2.313211087941603" fill="#ff2c04" stroke="none" /><path d="M 119.9155931802556 106.66101706037122 l 16.868139300577774 5.641758326799925 a38.78661183254733,38.78661183254733 0 0,0 -0.21722196134063543,0.6313486990021053 l -16.768526508293906 -5.931279728891331" fill="#ffc212" stroke="none" /><path d="M 119.67450827220406 107.3425965602758 l 27.7776943684681 10.366734471857638 a50.64910602426363,50.64910602426363 0 0,0 -0.31186757821010785,0.8141878359409925 l -27.595132510664484 -10.843345874631774" fill="#a6ff21" stroke="none" /><path d="M 119.26925614724726 108.34839909993367 l 29.348139837646585 12.715072254635913 a52.9841581782399,52.9841581782399 0 0,0 -0.3697762261442617,0.8337477718825687 l -29.12492252677105 -13.21836836301117" fill="#8bff24" stroke="none" /><path d="M 118.64920377521936 109.65438752849418 l 6.587159776569717 3.4100647921289164 a28.41749390350779,28.41749390350779 0 0,0 -0.22862211035866828,0.43246687430678127 l -6.527485157986155 -3.522946681521832" fill="#ff2e04" stroke="none" /><line stroke="#e1ed5e" stroke-width="0.3" x1="174.80103733775053" x2="179.2010983576182" y1="140.37084112569926" y2="142.7455964860345" /><path d="M 175.68104954172406 140.8457921977663 a86.0,86.0 0 0,1 -30.038265399797805,32.042727171017184" fill="none" id="id161" stroke="none" /><text fill="#e1ed5e" style="font-size:6.75px; font-family:Arial;" text-anchor="middle"><textPath startOffset="22.206326154141568" xlink:href="#id161">May</textPath></text><path d="M 118.48025628344425 109.97397251340804 l 30.282859932346028 16.34395151019586 a55.41186360326511,55.41186360326511 0 0,0 -0.46024458136498636,0.8354776022530175 l -29.99703894152953 -16.862799630846684" fill="#70ff27" stroke="none" /><path d="M 117.75023020441432 111.22182372390056 l 37.58702113297393 23.762786206336717 a65.46857503831998,65.46857503831998 0 0,0 -0.6104013616256044,0.9473564684793799 l -37.17241490797127 -24.40626427473755" fill="#35ff62" stroke="none" /><path d="M 117.35343817320211 111.8261652097733 l 12.252818040301186 8.35015222825751 a35.82756190895199,35.82756190895199 0 0,0 -0.3516886243097032,0.506633693495181 l -12.107268508829348 -8.55982718393971" fill="#ff990e" stroke="none" /><path d="M 116.498646956653 112.99209946851258 l 24.57638686668799 19.35303322675807 a52.28160300395611,52.28160300395611 0 0,0 -0.5628539984882674,0.7022469058727503 l -24.23961495614487 -19.773207966209068" fill="#93ff23" stroke="none" /><path d="M 116.27256486870786 113.27417163493432 l 11.490628844234694 9.373358207654825 a35.828836614008814,35.828836614008814 0 0,0 -0.393953413968348,0.47454226547126305 l -11.327579430372802 -9.56976173023986" fill="#ff990e" stroke="none" /><path d="M 115.07121518719521 114.62390073753431 l 5.323747082462026 5.16573799250168 a28.418027500973437,28.418027500973437 0 0,0 -0.3436678333953245,0.34813370080687206 l -5.234038624011165 -5.256612187289217" fill="#ff2e04" stroke="none" /><path d="M 114.81725581225074 114.88116024355365 l 20.916827617902015 21.00703851731012 a50.64471866732386,50.64471866732386 0 0,0 -0.6230507371246486,0.6097862810737207 l -20.552126928401574 -21.363974901306413" fill="#a6ff21" stroke="none" /><path d="M 114.29624159901734 115.38237550388516 l 10.094189693935114 10.861079480513974 a35.82753226464834,35.82753226464834 0 0,0 -0.4553516429964338,0.41595292959399277 l -9.905738501471815 -11.033225176694549" fill="#ff990e" stroke="none" /><path d="M 114.0293411484842 115.62618273729858 l 11.483506521551044 12.790577224654948 a38.18923464760334,38.18923464760334 0 0,0 -0.4929278137084562,0.43495148386355337 l -11.261636354936 -12.98635185029079" fill="#ffba11" stroke="none" /><path d="M 113.48314897796784 116.09983520530334 l 11.420948656104985 13.637421907299458 a38.78812369203333,38.78812369203333 0 0,0 -0.5155678085785659,0.4242772067824562 l -11.184510718981729 -13.831994232939094" fill="#ffc212" stroke="none" /><path d="M 113.20401910651253 116.32954008644616 l 10.25511182401058 12.682597493256655 a37.30998460143116,37.30998460143116 0 0,0 -0.5028719803936237,0.39951191456442114 l -10.035282350899605 -12.857243321826202" fill="#ffae10" stroke="none" /><path d="M 112.92097659922987 116.55440617244103 l 18.24213674811279 23.371897539035164 a50.648290805913334,50.648290805913334 0 0,0 -0.6918828372916024,0.5305062562374947 l -17.837125182327693 -23.68244313710003" fill="#a6ff21" stroke="none" /><path d="M 112.34349029814194 116.9893568818739 l 8.716912010960213 11.997800094223653 a35.83009649691382,35.83009649691382 0 0,0 -0.5020865828371023,0.3582254456286854 l -8.509098100274226 -12.146069801696557" fill="#ff990e" stroke="none" /><path d="M 112.04921762599082 117.19931262002967 l 6.803818833482839 9.711917467130501 a32.85804754616924,32.85804754616924 0 0,0 -0.4660258688743082,0.32053684206249694 l -6.635636079985647 -9.827595098558092" fill="#ff6f0a" stroke="none" /><path d="M 111.7513745106137 117.40417183066458 l 10.314223732482949 15.275704299775315 a39.4317756349704,39.4317756349704 0 0,0 -0.565799603448838,0.3749811250565106 l -10.049749430294145 -15.450983445923143" fill="#ffca12" stroke="none" /><path d="M 111.1453310114006 117.79835938074945 l 15.736536789964333 25.13021254457773 a50.65073646096422,50.65073646096422 0 0,0 -0.7429276366059039,0.4563668334309909 l -15.30162995342612 -25.3973678448371" fill="#a6ff21" stroke="none" /><line stroke="#e1ed5e" stroke-width="0.3" x1="143.8653032363475" x2="146.44561519142675" y1="172.8068346515853" y2="177.08958963109032" /><path d="M 144.38136562736335 173.6633856474863 a86.0,86.0 0 0,1 -40.68145358897372,12.25698825130547" fill="none" id="id162" stroke="none" /><text fill="#e1ed5e" style="font-size:6.75px; font-family:Arial;" text-anchor="middle"><textPath startOffset="21.466115282336833" xlink:href="#id162">June</textPath></text><path d="M 110.8373102113329 117.98757091392108 l 9.330745369448488 15.487001916507161 a39.08065368042264,39.08065368042264 0 0,0 -0.5791978593600207,0.3422003044976023 l -9.062779639060086 -15.645320793298513" fill="#ffc612" stroke="none" /><path d="M 110.21172684928248 118.3499491758327 l 7.2139001340971225 12.963008389664864 a35.83509156207835,35.83509156207835 0 0,0 -0.5415828855429494,0.2953141709458203 l -6.989694436685524 -13.085263212370455" fill="#ff990e" stroke="none" /><path d="M 109.89434966115114 118.52300852407294 l 14.082208383130356 26.363012714485706 a50.88840966545463,50.88840966545463 0 0,0 -0.7761914558001777,0.4060666846009297 l -13.626326024803681 -26.601508818031352" fill="#a3ff21" stroke="none" /><path d="M 109.2508944713604 118.85261126421891 l 6.532433314025698 13.312596555935993 a35.82895519122341,35.82895519122341 0 0,0 -0.5560096483622384,0.26691841986456144 l -6.302310997663227 -13.423069252300115" fill="#ff990e" stroke="none" /><path d="M 108.59647513512805 119.15986991738527 l 6.07395562470383 13.53766489450359 a35.8378336601657,35.8378336601657 0 0,0 -0.565007894758824,0.24768285701081819 l -5.840027055287252 -13.640212304808864" fill="#ff990e" stroke="none" /><path d="M 107.93186726928326 119.44442032107085 l 6.256967473870058 15.338520094549184 a37.56562225393169,37.56562225393169 0 0,0 -0.6008333704984905,0.23908399790893206 l -5.992013027329701 -15.443950936864184" fill="#ffb110" stroke="none" /><path d="M 107.59598834532513 119.57807347666477 l 4.6272640861518575 11.926415912732097 a33.79261386294686,33.79261386294686 0 0,0 -0.5441090031148332,0.2057354674213657 l -4.4212848622767495 -12.004299630260093" fill="#ff7c0b" stroke="none" /><path d="M 106.91757812671514 119.82793768551818 l 4.948901171092561 14.185095164050912 a36.02359968897008,36.02359968897008 0 0,0 -0.5872365953375026,0.19922253662165185 l -4.703994842817831 -14.268180687570686" fill="#ff9c0e" stroke="none" /><path d="M 106.2309692047433 120.05430185196036 l 10.555145830300532 33.97161398441351 a56.57360904104207,56.57360904104207 0 0,0 -0.932454375016106,0.280940854152479 l -9.96881648084418 -34.14827020767171" fill="#63ff29" stroke="none" /><path d="M 105.18746579009965 120.34920634021253 l 5.23690811878269 20.54315694904967 a42.20015339750776,42.20015339750776 0 0,0 -0.7054392968346533,0.1733798159091373 l -4.882515537204825 -20.63025802327284" fill="#ffef16" stroke="none" /><path d="M 104.48393922423573 120.51570834832081 l 3.218818927401541 14.727307181974686 a36.07495844503863,36.07495844503863 0 0,0 -0.6077918250683351,0.12736868639229382 l -2.9648356409038277 -14.78053184909352" fill="#ff9d0e" stroke="none" /><path d="M 103.7750983002368 120.6578951692458 l 7.993657486042712 43.74247376688671 a65.46687049086026,65.46687049086026 0 0,0 -1.1102901552298088,0.19303817526548864 l -7.2395183593408525 -43.873590520673204" fill="#35ff62" stroke="none" /><path d="M 103.06178313531738 120.77559828337769 l 2.1606818084332153 14.661213837261984 a35.819572769119105,35.819572769119105 0 0,0 -0.6107602325963963,0.0846458029779465 l -1.9079929846499886 -14.696234205732534" fill="#ff990e" stroke="none" /><path d="M 102.70371172650421 120.8252237178851 l 1.9583078824754918 15.083782550212817 a36.210373624098466,36.210373624098466 0 0,0 -0.6188052426072641,0.07492869716631892 l -1.6983752168168473 -15.115256776104486" fill="#ff9e0e" stroke="none" /><path d="M 101.98527174616119 120.90594882070398 l 1.6818261712813134 17.710508362452106 a38.7901839711368,38.7901839711368 0 0,0 -0.6652621510978994,0.057401617673870545 l -1.3767197024418723 -17.73683423240464" fill="#ffc212" stroke="none" /><path d="M 101.26447882468166 120.96189622390904 l 1.7850003126044538 29.590840575665318 a50.64462973441292,50.64462973441292 0 0,0 -0.8706340764240255,0.04500183701432766 l -1.2753781677669487 -29.617182219441847" fill="#a6ff21" stroke="none" /><line stroke="#e1ed5e" stroke-width="0.3" x1="102.19456741930631" x2="102.32365962044197" y1="184.97166512339345" y2="189.96999836594603" /><path d="M 102.22038585953345 185.97133177190398 a86.0,86.0 0 0,1 -42.740103519485714,-10.115201625700543" fill="none" id="id163" stroke="none" /><text fill="#e1ed5e" style="font-size:6.75px; font-family:Arial;" text-anchor="middle"><textPath startOffset="22.20632615414155" xlink:href="#id163">July</textPath></text><line stroke="#e1ed5e" stroke-width="0.3" x1="58.666819895761336" x2="56.23545636021788" y1="174.27360380694188" y2="178.64263932499728" /><path d="M 58.180547188652646 175.14741091055294 a86.0,86.0 0 0,1 -31.652253787137756,-30.449443065178592" fill="none" id="id164" stroke="none" /><text fill="#e1ed5e" style="font-size:6.75px; font-family:Arial;" text-anchor="middle"><textPath startOffset="22.20632615414155" xlink:href="#id164">August</textPath></text><line stroke="#e1ed5e" stroke-width="0.3" x1="26.63291911575756" x2="22.317208475507996" y1="142.92168965132927" y2="145.44649492493687" /><path d="M 25.769776987707644 143.4266507060508 a86.0,86.0 0 0,1 -11.730757126820373,-40.83630448921669" fill="none" id="id165" stroke="none" /><text fill="#e1ed5e" style="font-size:6.75px; font-family:Arial;" text-anchor="middle"><textPath startOffset="21.46611528233685" xlink:href="#id165">September</textPath></text><line stroke="#e1ed5e" stroke-width="0.3" x1="15.007084014347285" x2="10.007500721073583" y1="101.09737516637583" y2="101.16192664675087" /><path d="M 14.007167355692545 101.11028546245083 a86.0,86.0 0 0,1 10.666146001902534,-42.60595125391555" fill="none" id="id166" stroke="none" /><text fill="#e1ed5e" style="font-size:6.75px; font-family:Arial;" text-anchor="middle"><textPath startOffset="22.20632615414155" xlink:href="#id166">October</textPath></text><line stroke="#e1ed5e" stroke-width="0.3" x1="26.266209847984243" x2="21.928928074336255" y1="57.711370442889674" y2="55.22380399835377" /><path d="M 25.398753493254645 57.213857153982495 a86.0,86.0 0 0,1 29.58750427330803,-30.492523968695096" fill="none" id="id167" stroke="none" /><text fill="#e1ed5e" style="font-size:6.75px; font-family:Arial;" text-anchor="middle"><textPath startOffset="21.46611528233685" xlink:href="#id167">November</textPath></text><line stroke="#e1ed5e" stroke-width="0.3" x1="56.762969772571076" x2="54.21961505331055" y1="26.818313649435495" y2="22.513508569990535" /><path d="M 56.25429882871897 25.957352633546506 a86.0,86.0 0 0,1 42.265352541879196,-11.944610805530505" fill="none" id="id168" stroke="none" /><text fill="#e1ed5e" style="font-size:6.75px; font-family:Arial;" text-anchor="middle"><textPath startOffset="22.20632615414155" xlink:href="#id168">December</textPath></text></svg>