<?xml version="1.0" encoding="utf-8" ?>
<svg baseProfile="full" height="200mm" version="1.1" viewBox="0,0,200,200" width="200mm" xmlns="http://www.w3.org/2000/svg" xmlns:ev="http://www.w3.org/2001/xml-events" xmlns:xlink="http://www.w3.org/1999/xlink"><defs /><rect fill="#1a1a1a" height="200" width="200" x="0" y="0" /><text alignment-baseline="middle" fill="#e1ed5e" style="dominant-baseline: central; font-size:9.0px; font-family:Arial;" text-anchor="middle" x="100.0" y="100.0">2014</text><line stroke="#e1ed5e" stroke-width="0.3" x1="100.0" x2="100.0" y1="15.0" y2="10.0" /><path d="M 100.0 14.0 a86.0,86.0 0 0,1 42.46469731375804,11.215312516191453" fill="none" id="id25" stroke="none" /><text fill="#e1ed5e" style="font-size:6.75px; font-family:Arial;" text-anchor="middle"><textPath startOffset="22.20632615414155" xlink:href="#id25">January</textPath></text><path d="M 101.44485096284872 79.0497635885617 l 0.49770142444126514 -7.216635329498586 a28.233777172878497,28.233777172878497 0 0,0 0.4845585849744283,0.037611072087647204 l -0.6218501987780346 7.206998995222474" fill="#ff4e07" stroke="none" /><path d="M 102.52436894288641 79.15227682838746 l 1.2296861890734743 -10.155471659561051 a31.22964968861328,31.22964968861328 0 0,0 0.5331128308203519,0.0692133458811742 l -1.4043137484016723 10.13279999051574" fill="#ff770b" stroke="none" /><path d="M 102.88285421437855 79.19881850522331 l 0.6491366044048849 -4.683833214937572 a25.728601475756943,25.728601475756943 0 0,0 0.4381593322818927,0.06457329583793453 l -0.7296649171154334 4.671965434938668" fill="#ff2a04" stroke="none" /><path d="M 103.59715602781102 79.31037775812273 l 3.8030763941399983 -21.8740063937785 a43.202151827575804,43.202151827575804 0 0,0 0.7315664747018659,0.1336890971965393 l -4.179037989944765 21.80530181523122" fill="#ecff1a" stroke="none" /><path d="M 104.307194497241 79.44645832069477 l 1.27423939680108 -6.080554887488821 a27.212635011017802,27.212635011017802 0 0,0 0.4576352404331132,0.10002133829020503 l -1.378717361387721 6.057720051102746" fill="#ff3f05" stroke="none" /><path d="M 105.36241919743992 79.69619591428918 l 0.7285648661038857 -2.7585755160968377 a23.85316414566879,23.85316414566879 0 0,0 0.39607850887085744,0.10826321842675804 l -0.775941264198454 2.7456257568437863" fill="#ff0e01" stroke="none" /><path d="M 106.0581310904928 79.89281104454417 l 9.076948517172246 -30.126769501595714 a52.46447576213011,52.46447576213011 0 0,0 0.8624525926738715,0.2679682187478735 l -9.594186482556836 29.96606114796532" fill="#82ff25" stroke="none" /><path d="M 107.4271985657038 80.35727306442388 l 2.6757490532826704 -7.076558885130236 a28.56553492166012,28.56553492166012 0 0,0 0.4584317223518751,0.17786438610840183 l -2.7971639406342126 7.029451795131288" fill="#ff5207" stroke="none" /><path d="M 108.43124777332544 80.76684994638697 l 5.564264524547577 -12.693060080288614 a34.85910581173818,34.85910581173818 0 0,0 0.5474836395699922,0.24563995031001337 l -5.78193028258435 12.595399799462069" fill="#ffa80f" stroke="none" /><path d="M 109.73455568895987 81.39251694778311 l 3.30926974687208 -6.325628277002114 a28.138966266650343,28.138966266650343 0 0,0 0.4272499418902008,0.22822212235524134 l -3.417664735290592 6.267727428145118" fill="#ff4c07" stroke="none" /><line stroke="#e1ed5e" stroke-width="0.3" x1="143.23703022742887" x2="145.7803849466894" y1="26.81831364943548" y2="22.513508569990506" /><path d="M 143.74570117128098 25.957352633546492 a86.0,86.0 0 0,1 28.547481713284135,27.462654790039103" fill="none" id="id26" stroke="none" /><text fill="#e1ed5e" style="font-size:6.75px; font-family:Arial;" text-anchor="middle"><textPath startOffset="19.985693538727396" xlink:href="#id26">February</textPath></text><path d="M 111.2981086023043 82.29822771554956 l 7.902626955353282 -12.381762977928226 a35.688756490495386,35.688756490495386 0 0,0 0.5149938107321615,0.33496629998501276 l -8.114587791869724 12.243897753783685" fill="#ffb310" stroke="none" /><path d="M 111.90073688211348 82.69761687909136 l 4.806670908649917 -6.988379158485954 a29.481835207478525,29.481835207478525 0 0,0 0.41565015966003643,0.2911894992936618 l -4.9262522078936035 6.904604816428357" fill="#ff5f08" stroke="none" /><path d="M 112.77801427241765 83.33499621200491 l 12.199413139307573 -15.910395922527963 a41.04909921555342,41.04909921555342 0 0,0 0.5570312817363472,0.4347717508790038 l -12.471476976203352 15.698045782425735" fill="#fff717" stroke="none" /><path d="M 113.34407831869373 83.78471172551755 l 4.747895268961892 -5.769487306996336 a28.471913628423614,28.471913628423614 0 0,0 0.375751250974695,0.314680866663822 l -4.846504056895704 5.686905282938694" fill="#ff5107" stroke="none" /><path d="M 114.68862486808459 84.99185889309783 l 16.71707337864131 -17.08071370971048 a44.90002768157329,44.90002768157329 0 0,0 0.5477037935007281,0.5453517793517436 l -17.00861297230936 16.79042607970862" fill="#d8ff1c" stroke="none" /><path d="M 116.38621287248628 86.86637796730983 l 6.752942175557163 -5.41251299690477 a29.654335616792416,29.654335616792416 0 0,0 0.31581291206631895,0.40105032702087445 l -6.845109168217446 5.295470275930857" fill="#ff6109" stroke="none" /><path d="M 117.45458315368197 88.32363383020206 l 10.8566147002626 -7.262608765190508 a34.06183634969371,34.06183634969371 0 0,0 0.32180871131747474,0.4901367453631469 l -10.980020046938002 7.074653955849686" fill="#ff9e0e" stroke="none" /><line stroke="#e1ed5e" stroke-width="0.3" x1="172.23445277983987" x2="176.4835382374775" y1="55.19839476539836" y2="52.563006222186495" /><path d="M 173.08426987136738 54.67131705675599 a86.0,86.0 0 0,1 12.851231095245387,41.99856678651699" fill="none" id="id27" stroke="none" /><text fill="#e1ed5e" style="font-size:6.75px; font-family:Arial;" text-anchor="middle"><textPath startOffset="22.20632615414155" xlink:href="#id27">March</textPath></text><path d="M 117.84615892207809 88.93136811851018 l 26.305460458888643 -16.315301212089622 a51.95426147714345,51.95426147714345 0 0,0 0.46482785444104213,0.7640547744460836 l -26.582404111615908 15.860078664436456" fill="#87ff25" stroke="none" /><path d="M 118.56541770881063 90.18545643968196 l 7.997247333975551 -4.227717014128453 a30.04596905103761,30.04596905103761 0 0,0 0.23777888704026387,0.4593131262621207 l -8.068835654175931 4.089431165605988" fill="#ff6709" stroke="none" /><path d="M 118.89224826269711 90.83032412892265 l 13.048209745846583 -6.333171806951702 a35.50395955275571,35.50395955275571 0 0,0 0.26212371499183235,0.5520993936544698 l -13.15529165468017 6.107629997656692" fill="#ffb110" stroke="none" /><path d="M 119.61058180528143 92.48833698450437 l 12.24616384975226 -4.690786687782493 a34.113809850125804,34.113809850125804 0 0,0 0.2053251920849505,0.5501694335246875 l -12.325093630338836 4.479294117228473" fill="#ff9e0e" stroke="none" /><path d="M 119.85752413597 93.16781622104841 l 7.048552371189783 -2.4251263574345487 a28.454081323605806,28.454081323605806 0 0,0 0.15536295084775126,0.4645154480651388 l -7.089252615809304 2.303437806447096" fill="#ff5107" stroke="none" /><path d="M 120.18372546131832 94.20196356495316 l 7.084897423729894 -2.0352285052668555 a28.371426359492798,28.371426359492798 0 0,0 0.1307966385476719,0.4705451003282351 l -7.118880832843929 1.9129721015196686" fill="#ff5007" stroke="none" /><path d="M 120.37134235888165 94.90015583598534 l 3.175183537584382 -0.7948882772943617 a24.2731693923057,24.2731693923057 0 0,0 0.09797945705621626,0.40618810470900485 l -3.1883957949014174 0.7401149409259508" fill="#ff1502" stroke="none" /><path d="M 120.67395015179393 96.31383870115 l 29.326628553221223 -5.22893217817171 a50.78914020280763,50.78914020280763 0 0,0 0.14605055389695026,0.8619986365476222 l -29.412290968638395 4.723347753308249" fill="#94ff23" stroke="none" /><path d="M 120.83666639777658 97.38593545837742 l 4.305127163769156 -0.5400998437632036 a25.338874017237202,25.338874017237202 0 0,0 0.05056872692137829,0.43324197046127194 l -4.313786243694124 0.46591413497707895" fill="#ff2403" stroke="none" /><path d="M 120.91429891909075 98.10471618934814 l 6.810351499602167 -0.6171638357077562 a27.838258458718784,27.838258458718784 0 0,0 0.03913995002666613,0.4776065281833089 l -6.819965933448327 0.49984339031667857" fill="#ff4806" stroke="none" /><path d="M 120.96714384426684 98.82574320788733 l 31.200755192427714 -1.7473862427748297 a52.249647730162394,52.249647730162394 0 0,0 0.042562044939712364,0.8984174989629728 l -31.22621084560092 1.2100576371888572" fill="#84ff25" stroke="none" /><line stroke="#e1ed5e" stroke-width="0.3" x1="184.98032266829074" x2="189.97916517819016" y1="98.17113171792111" y2="98.06355123074" /><path d="M 185.9800911702706 98.14961562048488 a86.0,86.0 0 0,1 -9.607161424134198,41.387399972396054" fill="none" id="id28" stroke="none" /><text fill="#e1ed5e" style="font-size:6.75px; font-family:Arial;" text-anchor="middle"><textPath startOffset="21.466115282336823" xlink:href="#id28">April</textPath></text><path d="M 120.9904718944345 100.63252640178507 l 25.208536708298052 0.7596334707746312 a46.21997950006168,46.21997950006168 0 0,0 -0.030808625364855964,0.7950337256175466 l -25.19172595008199 -1.193444443406184" fill="#c8ff1d" stroke="none" /><path d="M 120.8583938346157 102.4346265915055 l 9.233994202738154 1.0778072372228857 a30.296683138453837,30.296683138453837 0 0,0 -0.0649192864788994,0.5174705878925637 l -9.214073407012407 -1.2365955794028443" fill="#ff6a09" stroke="none" /><path d="M 120.64145759157962 103.86396538481128 l 11.612813496062948 2.1738537198730175 a32.81452822967331,32.81452822967331 0 0,0 -0.10870994896715876,0.5543096877246674 l -11.573673614120125 -2.3734271346656297" fill="#ff8d0d" stroke="none" /><path d="M 120.23288151984713 105.62410040840565 l 3.6362760806953007 1.0107696113602649 a24.774143471343685,24.774143471343685 0 0,0 -0.11774485396572709,0.40988528332834895 l -3.618338589843474 -1.073212370193196" fill="#ff1c02" stroke="none" /><path d="M 119.54520255179757 107.68017299344265 l 4.111168280980021 1.6154595236045222 a25.41717263721272,25.41717263721272 0 0,0 -0.16351397982171315,0.40582828823360795 l -4.082751686900915 -1.6859871796809436" fill="#ff2503" stroke="none" /><path d="M 118.97047184881838 109.00673069616215 l 5.680322886947333 2.6968827616782587 a27.288023912980535,27.288023912980535 0 0,0 -0.20511074800398946,0.42258889268499666 l -5.633058882328629 -2.794260610328531" fill="#ff4006" stroke="none" /><line stroke="#e1ed5e" stroke-width="0.3" x1="174.80103733775053" x2="179.2010983576182" y1="140.37084112569926" y2="142.7455964860345" /><path d="M 175.68104954172406 140.8457921977663 a86.0,86.0 0 0,1 -30.038265399797805,32.042727171017184" fill="none" id="id29" stroke="none" /><text fill="#e1ed5e" style="font-size:6.75px; font-family:Arial;" text-anchor="middle"><textPath startOffset="22.206326154141568" xlink:href="#id29">May</textPath></text><path d="M 118.30583269289576 110.29060199501025 l 3.772440129575754 2.1206727153436034 a25.327650320536115,25.327650320536115 0 0,0 -0.2169108262999507,0.37820230912192426 l -3.7353773071234238 -2.1852948703238426" fill="#ff2403" stroke="none" /><path d="M 117.75023020441432 111.22182372390056 l 8.90517183839034 5.629913947629113 a31.535559621062813,31.535559621062813 0 0,0 -0.2940242478327223,0.4563321620585809 l -8.806942727180568 -5.782367709609147" fill="#ff7b0b" stroke="none" /><path d="M 117.35343817320211 111.8261652097733 l 5.991654359097985 4.083242388241737 a28.250709645271417,28.250709645271417 0 0,0 -0.27731312658581614,0.39949024183718057 l -5.920480325350033 -4.185773892265937" fill="#ff4e07" stroke="none" /><path d="M 116.27256486870786 113.27417163493432 l 5.716780705844489 4.663403028405719 a28.377595098950568,28.377595098950568 0 0,0 -0.3120238200832888,0.3758527917598352 l -5.635660885867656 -4.761117077279325" fill="#ff5007" stroke="none" /><path d="M 115.80600337817218 113.82643327865902 l 5.510434763318241 4.820298766773612 a28.32121379839063,28.32121379839063 0 0,0 -0.3241311001743123,0.36416472713604087 l -5.4266448134955905 -4.914437663650519" fill="#ff4f07" stroke="none" /><path d="M 115.32070863581623 114.36230785411682 l 4.502411757310155 4.220759318750561 a27.17142778125001,27.17142778125001 0 0,0 -0.3228139629095941,0.33846914951749335 l -4.429091243021597 -4.297635584850561" fill="#ff3f05" stroke="none" /><path d="M 114.81725581225074 114.88116024355365 l 10.05178843068077 10.095140170799123 a35.246062814800794,35.246062814800794 0 0,0 -0.43361057175093015,0.4243792073860449 l -9.876527906554045 -10.26666948110774" fill="#ffad10" stroke="none" /><path d="M 114.29624159901734 115.38237550388516 l 4.729430385213054 5.088741233208589 a27.947143233526553,27.947143233526553 0 0,0 -0.3551954819115391,0.3244626511226003 l -4.641135353834652 -5.169396650917773" fill="#ff4a06" stroke="none" /><path d="M 113.75828350139079 115.86535959552629 l 1.7389980698371843 2.005324989204073 a23.654325262514707,23.654325262514707 0 0,0 -0.30991054799969026,0.26411249237108997 l -1.7042220452604468 -2.0349618717981097" fill="#ff0c01" stroke="none" /><path d="M 113.48314897796784 116.09983520530334 l 7.427121472316139 8.868509274016937 a32.5677391960514,32.5677391960514 0 0,0 -0.432887088351612,0.35623660291044756 l -7.2733642554198354 -8.995040995784562" fill="#ff890c" stroke="none" /><path d="M 112.34349029814194 116.9893568818739 l 4.280944585456592 5.892214729961414 a28.283177944257876,28.283177944257876 0 0,0 -0.39633173098010743,0.28277216679418854 l -4.1788855266276 -5.965031158599822" fill="#ff4e07" stroke="none" /><path d="M 111.7513745106137 117.40417183066458 l 3.2223855364024128 4.772458875303682 a26.758483503638814,26.758483503638814 0 0,0 -0.38395276680931745,0.25446295753676107 l -3.1397580708531314 -4.827219853931762" fill="#ff3905" stroke="none" /><path d="M 111.45004920935366 117.60387380957326 l 4.456754855216679 6.852036060014981 a29.173925740257435,29.173925740257435 0 0,0 -0.42332505137085313,0.2701860767164644 l -4.338148001798895 -6.927736565555254" fill="#ff5b08" stroke="none" /><line stroke="#e1ed5e" stroke-width="0.3" x1="143.8653032363475" x2="146.44561519142675" y1="172.8068346515853" y2="177.08958963109032" /><path d="M 144.38136562736335 173.6633856474863 a86.0,86.0 0 0,1 -40.68145358897372,12.25698825130547" fill="none" id="id30" stroke="none" /><text fill="#e1ed5e" style="font-size:6.75px; font-family:Arial;" text-anchor="middle"><textPath startOffset="21.466115282336833" xlink:href="#id30">June</textPath></text><path d="M 110.21172684928248 118.3499491758327 l 4.638541059285984 8.335220276078141 a30.538970605334,30.538970605334 0 0,0 -0.46154155329270935,0.2516692547088871 l -4.494376694124626 -8.4138301825468" fill="#ff6e0a" stroke="none" /><path d="M 109.89434966115114 118.52300852407294 l 3.2671431833186233 6.116351564933156 a27.93426139153736,27.93426139153736 0 0,0 -0.4260760978529662,0.22290287679667045 l -3.1613761829391613 -6.171683860674544" fill="#ff4906" stroke="none" /><path d="M 109.2508944713604 118.85261126421891 l 3.2986072465427476 6.722307807632025 a28.488005877901994,28.488005877901994 0 0,0 -0.4420895347401509,0.2122298424120554 l -3.182405043802364 -6.778091926543641" fill="#ff5107" stroke="none" /><path d="M 104.48393922423573 120.51570834832081 l 1.5481598909420553 7.083413759817188 a28.250624079394075,28.250624079394075 0 0,0 -0.4759672390113543,0.09974356267761114 l -1.4260011905013228 -7.1090133032213405" fill="#ff4e07" stroke="none" /><path d="M 104.13013068566511 120.58985236759428 l 1.1417354646185016 5.691869446391599 a26.80525087019793,26.80525087019793 0 0,0 -0.45317772183096516,0.08685258896097285 l -1.043590128215832 -5.71067923370104" fill="#ff3905" stroke="none" /><path d="M 100.90346689309514 120.98055641714683 l 0.40041365374212956 9.298515880036748 a30.307133214121237,30.307133214121237 0 0,0 -0.5213976394927231,0.01795798893859708 l -0.24029566257475415 -9.304030667401438" fill="#ff6b09" stroke="none" /><line stroke="#e1ed5e" stroke-width="0.3" x1="102.19456741930631" x2="102.32365962044197" y1="184.97166512339345" y2="189.96999836594603" /><path d="M 102.22038585953345 185.97133177190398 a86.0,86.0 0 0,1 -42.740103519485714,-10.115201625700543" fill="none" id="id31" stroke="none" /><text fill="#e1ed5e" style="font-size:6.75px; font-family:Arial;" text-anchor="middle"><textPath startOffset="22.20632615414155" xlink:href="#id31">July</textPath></text><path d="M 100.54218724476979 120.99299961872073 l 0.36685513429498856 14.204298918264564 a35.20903552141983,35.20903552141983 0 0,0 -0.605998319878193,0.010432810643376643 l -0.12229712452412765 -14.2085092061871" fill="#ffad10" stroke="none" /><path d="M 100.18074693466247 120.99922214144158 l 0.029977309647537653 3.482771011674351 a24.4829000213691,24.4829000213691 0 0,0 -0.4214484886199838,0.0 l 0.02997730964753525 -3.482771011674351" fill="#ff1802" stroke="none" /><path d="M 99.45781275523022 120.99299961872073 l -0.24404492684590867 9.44919878814612 a30.45234974301212,30.45234974301212 0 0,0 -0.5238959145636283,-0.01804403458339957 l 0.40666119308418 -9.443597955136626" fill="#ff6d0a" stroke="none" /><path d="M 99.09653310690486 120.98055641714683 l -0.819590504667039 19.032755880202387 a40.05039435263005,40.05039435263005 0 0,0 -0.6885081060021175,-0.035588004660480704 l 1.1470866790826455 -19.015828068779705" fill="#ffeb16" stroke="none" /><path d="M 98.01472825383883 120.90594882070398 l -0.6908076298374041 7.274565299313991 a28.307291938565534,28.307291938565534 0 0,0 -0.4846847361655919,-0.050239554659880496 l 0.8159249626085893 -7.261596376198351" fill="#ff4f07" stroke="none" /><path d="M 94.46302465271185 120.25689768951611 l -2.491687486614508 9.115781690326337 a30.450184249877893,30.450184249877893 0 0,0 -0.5044128583811575,-0.14255211222237368 l 2.648231513100279 -9.07154078476544" fill="#ff6d0a" stroke="none" /><path d="M 94.11515582081647 120.15858648285463 l -5.570406969025268 19.081479001092486 a40.87793436626902,40.87793436626902 0 0,0 -0.6737560036835627,-0.20299715700508286 l 5.898037947149076 -18.982766474981677" fill="#fff517" stroke="none" /><path d="M 93.42475214034765 119.94407469862007 l -3.021907114840264 9.166063776925398 a30.65135471182083,30.65135471182083 0 0,0 -0.49966125925397364,-0.16951222779795305 l 3.1792381070314635 -9.112688562229323" fill="#ff6f0a" stroke="none" /><path d="M 93.08242187328487 119.8279376855182 l -4.267846883879155 12.232981039720137 a33.956092857894674,33.956092857894674 0 0,0 -0.5502187712848667,-0.197288875536536 l 4.477785215793748 -12.157704623143644" fill="#ff9c0e" stroke="none" /><path d="M 92.7421414339146 119.70592522655815 l -1.945556398304673 5.2824105843277955 a26.62930291247527,26.62930291247527 0 0,0 -0.42876953881441987,-0.16212395122859485 l 2.0361961578793757 -5.248138382992567" fill="#ff3705" stroke="none" /><path d="M 92.06813273071674 119.44442032107085 l -2.1431964520364453 5.253896873111707 a26.674215662566464,26.674215662566464 0 0,0 -0.4236482009040821,-0.17708498233679337 l 2.23331611243799 -5.21622684775494" fill="#ff3705" stroke="none" /><path d="M 90.7491055286396 118.85261126421891 l -5.145718888190821 10.486579235590872 a32.68104305876018,32.68104305876018 0 0,0 -0.5028929217757047,-0.2521609508641418 l 5.325465717649285 -10.396450443817429" fill="#ff8b0c" stroke="none" /><path d="M 90.10565033884886 118.52300852407294 l -5.9573886186161085 11.152704719655416 a33.644101459456934,33.644101459456934 0 0,0 -0.5084700151623147,-0.277258393842949 l 6.148481445647064 -11.048505674052702" fill="#ff980e" stroke="none" /><line stroke="#e1ed5e" stroke-width="0.3" x1="58.666819895761336" x2="56.23545636021788" y1="174.27360380694188" y2="178.64263932499728" /><path d="M 58.180547188652646 175.14741091055294 a86.0,86.0 0 0,1 -31.652253787137756,-30.449443065178592" fill="none" id="id32" stroke="none" /><text fill="#e1ed5e" style="font-size:6.75px; font-family:Arial;" text-anchor="middle"><textPath startOffset="22.20632615414155" xlink:href="#id32">August</textPath></text><path d="M 89.7882731507175 118.34994917583269 l -4.090025725306054 7.349566365701184 a29.410971180399528,29.410971180399528 0 0,0 -0.44025595507635373,-0.24998882126698085 l 4.215930447303615 -7.2780743786395705" fill="#ff5e08" stroke="none" /><path d="M 89.4739219176387 118.17145234162733 l -6.623042664880457 11.433537087579898 a34.21326850078707,34.21326850078707 0 0,0 -0.5070603997417883,-0.2995802218296198 l 6.818870935650628 -11.31783829345653" fill="#ffa00e" stroke="none" /><path d="M 89.1626897886671 117.98757091392108 l -5.493708399222104 9.11835755223413 a31.645434534394013,31.645434534394013 0 0,0 -0.46416438398922816,-0.28512767553023244 l 5.649851983143641 -9.022441409875519" fill="#ff7d0b" stroke="none" /><path d="M 88.54995079064634 117.60387380957326 l -5.7086662793811875 8.776786803771754 a31.469997960277063,31.469997960277063 0 0,0 -0.4515574579063464,-0.2992676604247382 l 5.858898436027496 -8.677221122255697" fill="#ff7b0b" stroke="none" /><path d="M 87.95078237400918 117.19931262002967 l -6.751997138010557 9.637946063459848 a32.76773001363746,32.76773001363746 0 0,0 -0.4591736891161583,-0.32760823536678974 l 6.916898154975602 -9.52029356624884" fill="#ff8c0c" stroke="none" /><path d="M 87.36589467227662 116.77436683061367 l -6.218335315472679 8.256115882508206 a31.335915226096766,31.335915226096766 0 0,0 -0.42806542117765184,-0.3282223113130516 l 6.359529465143817 -8.147854229367788" fill="#ff790b" stroke="none" /><path d="M 86.79598089348748 116.32954008644616 l -7.431836915922879 9.191025691157648 a32.81977805207839,32.81977805207839 0 0,0 -0.43623716327945167,-0.3589934865041131 l 7.588944207747019 -9.061737085796356" fill="#ff8d0d" stroke="none" /><path d="M 86.51685102203217 116.09983520530335 l -6.5220346906510285 7.787771528322842 a31.15806683790825,31.15806683790825 0 0,0 -0.4082218985822907,-0.3478955581567891 l 6.655122065810375 -7.674351579943101" fill="#ff760a" stroke="none" /><path d="M 85.97065885151581 115.62618273729859 l -3.8586758371969454 4.29787636624353 a26.775908627747,26.775908627747 0 0,0 -0.3403096226752385,-0.31086477165055365 l 3.9320850093390387 -4.2308188280064005" fill="#ff3905" stroke="none" /><path d="M 85.70375840098266 115.38237550388516 l -6.924617033632167 7.45070364782104 a31.17169139868697,31.17169139868697 0 0,0 -0.3898898243744315,-0.36866516464183974 l 7.051842692397416 -7.33040384643327" fill="#ff760a" stroke="none" /><path d="M 85.44109423537348 115.13401014063109 l -6.059765995041118 6.299138238920824 a29.74070400297889,29.74070400297889 0 0,0 -0.36588153788319067,-0.35809209267445397 l 6.167297485300103 -6.1938960433238" fill="#ff6309" stroke="none" /><path d="M 85.18274418774928 114.88116024355367 l -14.121014082466582 14.181915735633336 a41.01323993384939,41.01323993384939 0 0,0 -0.49598556085942064,-0.5024307545540272 l 14.363040268381535 -13.936744487098643" fill="#fff717" stroke="none" /><path d="M 84.19399662182784 113.82643327865904 l -6.111872945141205 5.346411832376092 a29.120290042782962,29.120290042782962 0 0,0 -0.3267816415263463,-0.38012087522787 l 6.20299709623833 -5.240413857986692" fill="#ff5a08" stroke="none" /><path d="M 82.24976979558568 111.22182372390057 l -22.981276577087076 14.528929018291874 a48.18876333214026,48.18876333214026 0 0,0 -0.4372220659735685,-0.7049411848859297 l 23.227963282728602 -14.13119150204068" fill="#b2ff20" stroke="none" /><line stroke="#e1ed5e" stroke-width="0.3" x1="26.63291911575756" x2="22.317208475507996" y1="142.92168965132927" y2="145.44649492493687" /><path d="M 25.769776987707644 143.4266507060508 a86.0,86.0 0 0,1 -11.730757126820373,-40.83630448921669" fill="none" id="id33" stroke="none" /><text fill="#e1ed5e" style="font-size:6.75px; font-family:Arial;" text-anchor="middle"><textPath startOffset="21.46611528233685" xlink:href="#id33">September</textPath></text><path d="M 81.18737489456691 109.33194174019688 l -3.201822072675893 1.5882534668730912 a24.574103196622747,24.574103196622747 0 0,0 -0.18471153148574881,-0.3805604646090722 l 3.2286868607763606 -1.5329040462987342" fill="#ff1902" stroke="none" /><path d="M 81.02952815118164 109.00673069616217 l -19.95944819866575 9.476273242016326 a43.094780536420274,43.094780536420274 0 0,0 -0.3123866418742931,-0.6728530353769138 l 20.119609457379873 -9.131300139360585" fill="#eeff19" stroke="none" /><path d="M 80.32549172779594 107.34259656027581 l -34.72799727985926 12.960612272715082 a58.06765794535129,58.06765794535129 0 0,0 -0.3414260464999097,-0.9394578433156356 l 34.945947587364394 -12.36090663239333" fill="#47ff2c" stroke="none" /><path d="M 80.0844068197444 106.66101706037122 l -5.239093710246682 1.7522798477041817 a26.524363091743385,26.524363091743385 0 0,0 -0.14109413781934912,-0.4342431051585489 l 5.268480099082281 -1.6618378425678295" fill="#ff3505" stroke="none" /><path d="M 79.76711848015287 105.62410040840567 l -45.67958986157337 12.697479582642243 a68.41150617385165,68.41150617385165 0 0,0 -0.30561023783455077,-1.1372893847813907 l 45.89138817574969 -11.909299264685313" fill="#39ff8d" stroke="none" /><path d="M 79.35854240842038 103.8639653848113 l -6.94408329446851 1.299893544824969 a28.06470211887198,28.06470211887198 0 0,0 -0.08480024733968267,-0.47560482144592314 l 6.965429984147382 -1.1801699726458323" fill="#ff4b07" stroke="none" /><path d="M 79.0235259727143 100.99374915477108 l -26.54814744432636 1.2577041808465976 a47.57792227643484,47.57792227643484 0 0,0 -0.03171378263054409,-0.8183918126689468 l 26.565863359808105 -0.800535121163654" fill="#b9ff1f" stroke="none" /><line stroke="#e1ed5e" stroke-width="0.3" x1="15.007084014347285" x2="10.007500721073583" y1="101.09737516637583" y2="101.16192664675087" /><path d="M 14.007167355692545 101.11028546245083 a86.0,86.0 0 0,1 10.666146001902534,-42.60595125391555" fill="none" id="id34" stroke="none" /><text fill="#e1ed5e" style="font-size:6.75px; font-family:Arial;" text-anchor="middle"><textPath startOffset="22.20632615414155" xlink:href="#id34">October</textPath></text><path d="M 79.00486145842228 99.54816195383935 l -7.3515675609295 -0.15821367010130588 a28.35326982833609,28.35326982833609 0 0,0 0.014700907860593495,-0.4878515622424778 l 7.347754958613262 0.28473537976877805" fill="#ff4f07" stroke="none" /><path d="M 79.01574976396665 99.18683210126434 l -51.828585391600235 -2.0084273397082635 a72.86748542269314,72.86748542269314 0 0,0 0.05935713108001922,-1.2529352225925847 l 51.78633465228672 2.9002736689238575" fill="#3fffbe" stroke="none" /><path d="M 79.05617556472873 98.46500227214037 l -7.270757196219627 -0.532882416509411 a28.290258834650825,28.290258834650825 0 0,0 0.03977545214157612,-0.485361263653066 l 7.260507260258553 0.6579575973702554" fill="#ff4e07" stroke="none" /><path d="M 79.12142395522702 97.74499172005258 l -7.342131666013882 -0.7929931458841256 a28.384831449024613,28.384831449024613 0 0,0 0.05664753648005949,-0.48532149849360356 l 7.327393776530233 0.919258382702591" fill="#ff5007" stroke="none" /><path d="M 79.16333360222342 97.38593545837743 l -3.270383101791384 -0.410285999723387 a24.29601884613114,24.29601884613114 0 0,0 0.05563094252801219,-0.4145151387342927 l 3.2628361602055382 0.46651948052233905" fill="#ff1502" stroke="none" /><path d="M 79.3925641242962 95.95851677861259 l -6.338260940482493 -1.2430452482415075 a27.459002495650687,27.459002495650687 0 0,0 0.09495676641457496,-0.46304291624665683 l 6.315924878152923 1.351963820651567" fill="#ff4306" stroke="none" /><path d="M 79.54389044137918 95.25157060432595 l -7.849928465203263 -1.822185737287513 a29.05864366813563,29.05864366813563 0 0,0 0.11729618342698396,-0.4862684063300009 l 7.817399481515464 1.9570393752769106" fill="#ff5908" stroke="none" /><path d="M 79.91906864156998 93.8553929516997 l -60.24279407529007 -18.433821144900918 a84.0,84.0 0 0,0 0.4349780649271846,-1.378999334294342 l 59.91656052659468 19.468070645621676" fill="#4dd2ff" stroke="none" /><path d="M 80.2630227832202 92.82701384747504 l -1.759875759061798 -0.6395895537226661 a22.8724949891961,22.8724949891961 0 0,0 0.13766563886447153,-0.36887546910728775 l 1.748605531695699 0.6697881598592953" fill="#ff0000" stroke="none" /><path d="M 80.38941819471856 92.48833698450439 l -2.6775561102462087 -1.025614609752885 a23.86726211764034,23.86726211764034 0 0,0 0.15025742850554386,-0.3823887661854163 l 2.6595051318589737 1.0715523808340648" fill="#ff0f01" stroke="none" /><path d="M 81.26839172434947 90.50648371742162 l -1.849275342579405 -0.9372460344779759 a23.07322199048169,23.07322199048169 0 0,0 0.18259770673431783,-0.3527206497279667 l 1.8328682026849732 0.9689394064662782" fill="#ff0300" stroke="none" /><line stroke="#e1ed5e" stroke-width="0.3" x1="26.266209847984243" x2="21.928928074336255" y1="57.711370442889674" y2="55.22380399835377" /><path d="M 25.398753493254645 57.213857153982495 a86.0,86.0 0 0,1 29.58750427330803,-30.492523968695096" fill="none" id="id35" stroke="none" /><text fill="#e1ed5e" style="font-size:6.75px; font-family:Arial;" text-anchor="middle"><textPath startOffset="21.46611528233685" xlink:href="#id35">November</textPath></text><path d="M 81.96595687620814 89.24020034530311 l -53.08445812279785 -31.672217386788372 a82.81495812816715,82.81495812816715 0 0,0 0.7409343951367169,-1.2179013300230834 l 52.531407929374915 32.581286490018535" fill="#4cddff" stroke="none" /><path d="M 83.17141714833178 87.43820079747576 l -1.5703282103930136 -1.1721811536293927 a22.95957631779935,22.95957631779935 0 0,0 0.23913389252207048,-0.3146721715992426 l 1.5499183776468342 1.1990381011096618" fill="#ff0100" stroke="none" /><path d="M 83.39014120810768 87.1503855733568 l -2.373715739278661 -1.8363390315559798 a24.001111035885742,24.001111035885742 0 0,0 0.2556071687803264,-0.3245951470366189 l 2.3417544899043636 1.8769265725456463" fill="#ff1101" stroke="none" /><path d="M 83.84228863543731 86.58626213691792 l -2.2090927989239155 -1.833934958448225 a23.871133648243493,23.871133648243493 0 0,0 0.2651848630555043,-0.3138952342461768 l 2.1771973223812866 1.8716891423235176" fill="#ff0f01" stroke="none" /><path d="M 85.83668400450813 84.49514656593479 l -4.891082350366366 -5.354361577508534 a28.25202554192724,28.25202554192724 0 0,0 0.36188021185411423,-0.32489962726909916 l 4.7981911509162805 5.4377602135469125" fill="#ff4e07" stroke="none" /><path d="M 86.10567301691215 84.25364557470407 l -9.700846803230755 -10.993909397346217 a35.66193958986361,35.66193958986361 0 0,0 0.46378556448932806,-0.40219027130630003 l 9.510167440094653 11.159264662072196" fill="#ffb310" stroke="none" /><path d="M 88.09926311788651 82.69761687909137 l -12.424696752550654 -18.06416405162655 a42.92457781296871,42.92457781296871 0 0,0 0.6123810479688873,-0.41348241719869394 l 12.111911010175227 18.275358381123908" fill="#f0ff19" stroke="none" /><path d="M 88.70189139769569 82.29822771554957 l -5.850695116570241 -9.166815110818579 a31.874793451969133,31.874793451969133 0 0,0 0.4650393445606669,-0.29120759490109943 l 5.692036619637332 9.26616704704261" fill="#ff800b" stroke="none" /><line stroke="#e1ed5e" stroke-width="0.3" x1="56.762969772571076" x2="54.21961505331055" y1="26.818313649435495" y2="22.513508569990535" /><path d="M 56.25429882871897 25.957352633546506 a86.0,86.0 0 0,1 42.265352541879196,-11.944610805530505" fill="none" id="id36" stroke="none" /><text fill="#e1ed5e" style="font-size:6.75px; font-family:Arial;" text-anchor="middle"><textPath startOffset="22.20632615414155" xlink:href="#id36">December</textPath></text><path d="M 89.63071344664047 81.73862282372117 l -3.0019921330190633 -5.286816054236801 a27.07966946124905,27.07966946124905 0 0,0 0.40732453612856917,-0.22667566335463213 l 2.9105435078184483 5.337707115151617" fill="#ff3d05" stroke="none" /><path d="M 90.91171255644093 81.06846463323043 l -6.406164597175094 -13.344486779268664 a35.80250898490441,35.80250898490441 0 0,0 0.5578743347620123,-0.26192948044890824 l 6.175512051113473 13.45278124235758" fill="#ffb510" stroke="none" /><path d="M 91.23893434514133 80.91482961587045 l -6.1466681983599365 -13.389947579647759 a35.73337117317161,35.73337117317161 0 0,0 0.5612145133512331,-0.25180059313029185 l 5.915271566541929 13.493768503294579" fill="#ffb410" stroke="none" /><path d="M 91.56875222667455 80.76684994638697 l -1.141815683188373 -2.6046811763508306 a23.843959754428898,23.843959754428898 0 0,0 0.37732071928528266,-0.16154904043316537 l 1.0968112061127822 2.623949744746782" fill="#ff0e01" stroke="none" /><path d="M 91.90106846888425 80.62456947434976 l -1.790204076361382 -4.282784040711265 a25.641882137063803,25.641882137063803 0 0,0 0.40870245549470596,-0.16671999350380282 l 1.7162177512782957 4.312964920398644" fill="#ff2903" stroke="none" /><path d="M 92.57280143429618 80.3572730644239 l -2.6074820578173994 -6.896013025372474 a28.372513704832734,28.372513704832734 0 0,0 0.4583075290923457,-0.16879853078105406 l 2.4883922029524843 6.93987482395985" fill="#ff5007" stroke="none" /><path d="M 93.25333710446033 80.11325718540243 l -1.448830781202988 -4.270633581930521 a25.509703074890183,25.509703074890183 0 0,0 0.41704377452883,-0.1374927755380757 l 1.3751041844317486 4.29494008172783" fill="#ff2703" stroke="none" /><path d="M 94.28887869178378 79.79150937346287 l -2.9308383025521727 -10.370611158235116 a31.77679864110941,31.77679864110941 0 0,0 0.5276493695175046,-0.14422650475954266 l 2.7518910438109456 10.419524203820956" fill="#ff7f0b" stroke="none" /><path d="M 95.692805502759 79.44645832069477 l -1.6643094564342682 -7.941933850908128 a29.114446331018335,29.114446331018335 0 0,0 0.4913875118799612,-0.09856771214941774 l 1.5273555350871706 7.969405519134756" fill="#ff5a08" stroke="none" /><path d="M 97.11714578562143 79.19881850522333 l -1.0542571536892706 -7.6069730778198235 a28.67968082362676,28.67968082362676 0 0,0 0.4895830079221821,-0.06356192555471155 l 0.9231594172592308 7.623993326538671" fill="#ff5407" stroke="none" /><path d="M 97.83486435360386 79.11191278185805 l -1.491835830614588 -14.392445571202451 a35.46955644328915,35.46955644328915 0 0,0 0.6078381960568748,-0.05772156084464172 l 1.2438725074674768 14.415992676562274" fill="#ffb010" stroke="none" /><path d="M 99.27714615592234 79.0124445844662 l -0.7641355303773422 -22.186140282944617 a43.199295569077925,43.199295569077925 0 0,0 0.7433845141432688,-0.019199428802373637 l 0.3821243810391944 22.19600650388935" fill="#ecff1a" stroke="none" /><path d="M 99.63851952072746 79.00311137660856 l -0.251511797494337 -14.609268002756945 a35.61143284420309,35.61143284420309 0 0,0 0.6129922767668692,-0.005276218054700882 l 3.5787688927219635e-15 14.611432844203087" fill="#ffb210" stroke="none" /></svg>