<?xml version="1.0" encoding="utf-8" ?>
<svg baseProfile="full" height="200mm" version="1.1" viewBox="0,0,200,200" width="200mm" xmlns="http://www.w3.org/2000/svg" xmlns:ev="http://www.w3.org/2001/xml-events" xmlns:xlink="http://www.w3.org/1999/xlink"><defs /><rect fill="#1a1a1a" height="200" width="200" x="0" y="0" /><text alignment-baseline="middle" fill="#e1ed5e" style="dominant-baseline: central; font-size:9.0px; font-family:Arial;" text-anchor="middle" x="100.0" y="100.0">2023</text><line stroke="#e1ed5e" stroke-width="0.3" x1="100.0" x2="100.0" y1="15.0" y2="10.0" /><path d="M 100.0 14.0 a86.0,86.0 0 0,1 42.46469731375804,11.215312516191453" fill="none" id="id37" stroke="none" /><text fill="#e1ed5e" style="font-size:6.75px; font-family:Arial;" text-anchor="middle"><textPath startOffset="22.20632615414155" xlink:href="#id37">January</textPath></text><path d="M 102.16513564639614 79.11191278185805 l 0.7342761631458732 -7.08390929848811 a28.121862988921546,28.121862988921546 0 0,0 0.4810623592837208,0.05405296124658181 l -0.8561052259393193 7.070220383770927" fill="#ff2b04" stroke="none" /><path d="M 104.66035177308747 79.52364482259891 l 1.6152654913278541 -7.0970500761826525 a28.27854397467782,28.27854397467782 0 0,0 0.4737010446419195,0.11210973259981603 l -1.7371902229322973 7.068194431441968" fill="#ff2e04" stroke="none" /><path d="M 105.36241919743992 79.69619591428918 l 3.6408195455374397 -13.785286834589556 a35.25796970382093,35.25796970382093 0 0,0 0.5854537360670864,0.1600266217101387 l -3.877571170828237 13.720573672053122" fill="#ff930d" stroke="none" /><path d="M 106.40334571778207 80.00007090966166 l 2.223725756842248 -6.945487470666902 a28.292787700655666,28.292787700655666 0 0,0 0.4625428582992165,0.15249310810291916 l -2.342951437383882 6.906180638304747" fill="#ff2e04" stroke="none" /><path d="M 107.08798089147638 80.2323363322302 l 2.8893577995324233 -8.058127423239638 a29.560479312683697,29.560479312683697 0 0,0 0.4774970019760205,0.1758661755907353 l -3.0276371272810203 8.007197979842578" fill="#ff4106" stroke="none" /><path d="M 108.09893153111575 80.62456947434976 l 5.4987771620937345 -13.154966734914687 a35.25796970382093,35.25796970382093 0 0,0 0.5579426666626992,0.23888193202539346 l -5.724403586546749 13.058365274926501" fill="#ff930d" stroke="none" /><path d="M 108.76106565485865 80.91482961587045 l 4.837106563229671 -10.537188803537056 a32.59439294596428,32.59439294596428 0 0,0 0.5078855029229619,0.2384590536234185 l -5.017770277452231 10.452364767273634" fill="#ff6d0a" stroke="none" /><path d="M 109.41281617654863 81.2277094730956 l 1.9217212316127992 -3.8325521921308336 a25.287361519330773,25.287361519330773 0 0,0 0.38742587454268324,0.19845458064336924 l -1.987407593744238 3.798905086174964" fill="#ff0000" stroke="none" /><line stroke="#e1ed5e" stroke-width="0.3" x1="143.23703022742887" x2="145.7803849466894" y1="26.81831364943548" y2="22.513508569990506" /><path d="M 143.74570117128098 25.957352633546492 a86.0,86.0 0 0,1 28.547481713284135,27.462654790039103" fill="none" id="id38" stroke="none" /><text fill="#e1ed5e" style="font-size:6.75px; font-family:Arial;" text-anchor="middle"><textPath startOffset="19.985693538727396" xlink:href="#id38">February</textPath></text><path d="M 110.68208982089419 81.91981866633111 l 7.317823232491387 -12.38592571580753 a35.386163237621524,35.386163237621524 0 0,0 0.5217570699705963,0.3143527966775821 l -7.529942368679621 12.258126309671335" fill="#ff950d" stroke="none" /><path d="M 111.2981086023043 82.29822771554956 l 4.306717409786352 -6.747725089663903 a29.00497399954782,29.00497399954782 0 0,0 0.41854588276821897,0.27223388476360916 l -4.422230318338852 6.672592280740766" fill="#ff3805" stroke="none" /><path d="M 111.90073688211348 82.69761687909136 l 4.368395277056732 -6.35117383536173 a28.708455512201844,28.708455512201844 0 0,0 0.40474665275290733,0.2835508959079955 l -4.47707306939329 6.2750380966898" fill="#ff3404" stroke="none" /><path d="M 112.77801427241765 83.33499621200491 l 6.942249219222157 -9.054036649910062 a32.409224508252315,32.409224508252315 0 0,0 0.4397892332086205,0.34326247234055446 l -7.097071007590208 8.933195788346284" fill="#ff6a09" stroke="none" /><path d="M 113.06298171725822 83.55741782278167 l 5.333878584980408 -6.713837533813313 a29.574723038661542,29.574723038661542 0 0,0 0.3958740064078193,0.3201025819899924 l -5.448655989952718 6.621028854559191" fill="#ff4106" stroke="none" /><path d="M 113.6212207817346 84.01681056812373 l 29.56448553123496 -34.691073602987146 a66.57992312909789,66.57992312909789 0 0,0 0.865875709151351,0.7508788824951277 l -30.157255039033075 34.17702972707235" fill="#36ff70" stroke="none" /><path d="M 114.94478906791727 85.2469230424477 l 3.702915292681559 -3.655414207049868 a26.203233099706082,26.203233099706082 0 0,0 0.3141090560815988,0.3237169932576247 l -3.7652886124662666 3.591133018242129" fill="#ff0e01" stroke="none" /><path d="M 115.68641384162765 86.03803664274999 l 44.89938938164282 -39.96347639674095 a81.10852362649786,81.10852362649786 0 0,0 0.919261359823563,1.050874644672178 l -45.580642605044225 39.18468619586582" fill="#49eeff" stroke="none" /><path d="M 117.65298651832404 88.62581576622439 l 6.96705461187887 -4.489017347859489 a29.288011022813983,29.288011022813983 0 0,0 0.26941121383104394,0.42614384103776526 l -7.04329342195587 4.368425859107518" fill="#ff3d05" stroke="none" /><line stroke="#e1ed5e" stroke-width="0.3" x1="172.23445277983987" x2="176.4835382374775" y1="55.19839476539836" y2="52.563006222186495" /><path d="M 173.08426987136738 54.67131705675599 a86.0,86.0 0 0,1 12.851231095245387,41.99856678651699" fill="none" id="id39" stroke="none" /><text fill="#e1ed5e" style="font-size:6.75px; font-family:Arial;" text-anchor="middle"><textPath startOffset="22.20632615414155" xlink:href="#id39">March</textPath></text><path d="M 118.03404312379186 89.2402003453031 l 6.458495208701403 -3.853385180429547 a28.520687316301153,28.520687316301153 0 0,0 0.24791312128798187,0.4237638865001471 l -6.523868004459713 3.7416418815755046" fill="#ff3104" stroke="none" /><path d="M 118.3937258080291 89.86733742301442 l 5.464471108241068 -3.010246128455588 a27.238751978295277,27.238751978295277 0 0,0 0.2226987191462056,0.4126269045041113 l -5.5154779266057385 2.915738240619018" fill="#ff1e03" stroke="none" /><path d="M 118.89224826269711 90.83032412892265 l 7.470617728116039 -3.6259921090920795 a29.304092245082522,29.304092245082522 0 0,0 0.21635044711930382,0.4556892178762344 l -7.531926369077099 3.4968604755753048" fill="#ff3d05" stroke="none" /><path d="M 119.196687751892 91.48605970444005 l 6.523314874766831 -2.8931612625427534 a28.13610671489939,28.13610671489939 0 0,0 0.1925438058947036,0.44441765073022654 l -6.572149390504215 2.7804444672259243" fill="#ff2b04" stroke="none" /><path d="M 119.47837535516314 92.15188598940014 l 19.84389766004184 -7.995388137409659 a42.394076418720324,42.394076418720324 0 0,0 0.26689382616013946,0.679215676076315 l -19.97858503608368 7.65262345643756" fill="#fff316" stroke="none" /><path d="M 119.61058180528143 92.48833698450437 l 13.354526881643153 -5.115335519482897 a35.300700881754466,35.300700881754466 0 0,0 0.21246888638716172,0.5693109826332596 l -13.44060035653194 4.884701399820304" fill="#ff930d" stroke="none" /><path d="M 119.85752413597 93.16781622104841 l 6.734407914075286 -2.3170417518488295 a28.121862988921546,28.121862988921546 0 0,0 0.1535489959280592,0.4590919537397997 l -6.773294203775115 2.2007766951867156" fill="#ff2b04" stroke="none" /><path d="M 120.08093135843002 93.85539295169968 l 6.823793767063153 -2.0880272198949528 a28.13610671489939,28.13610671489939 0 0,0 0.13772504040607106,0.46434036946417906 l -6.858724704580926 1.9702574636842438" fill="#ff2b04" stroke="none" /><path d="M 120.28053869075195 94.5502522615342 l 29.03835666482752 -7.803131907687971 a51.06850553922677,51.06850553922677 0 0,0 0.2208194108982646,0.850907268097799 l -29.168372407596088 7.302128214041321" fill="#a0ff22" stroke="none" /><path d="M 120.53481517161879 95.60439243477599 l 8.99761967049451 -1.9259976173194993 a30.201446981686637,30.201446981686637 0 0,0 0.10444049258076073,0.5092889331097756 l -9.029439458990266 1.7708330280463118" fill="#ff4a06" stroke="none" /><path d="M 120.67395015179393 96.31383870115 l 14.036597853456293 -2.5027226724952576 a35.25796970382093,35.25796970382093 0 0,0 0.10138872176143428,0.5984019751224481 l -14.077598436737949 2.2607349090569717" fill="#ff930d" stroke="none" /><path d="M 120.83666639777658 97.38593545837742 l 45.225412032253026 -5.673755279126551 a66.57992312909789,66.57992312909789 0 0,0 0.13287338454231803,1.138378014350122 l -45.31637576979893 4.894433526451576" fill="#36ff70" stroke="none" /><path d="M 120.91429891909075 98.10471618934814 l 6.72397310941602 -0.6093361019097787 a27.751526113497626,27.751526113497626 0 0,0 0.03901800634751372,0.4761185064256368 l -6.733465599583029 0.49350367827637315" fill="#ff2603" stroke="none" /><line stroke="#e1ed5e" stroke-width="0.3" x1="184.98032266829074" x2="189.97916517819016" y1="98.17113171792111" y2="98.06355123074" /><path d="M 185.9800911702706 98.14961562048488 a86.0,86.0 0 0,1 -9.607161424134198,41.387399972396054" fill="none" id="id40" stroke="none" /><text fill="#e1ed5e" style="font-size:6.75px; font-family:Arial;" text-anchor="middle"><textPath startOffset="21.466115282336823" xlink:href="#id40">April</textPath></text><path d="M 120.99980553446 99.90962569577887 l 60.107967005711856 -0.25867933335733817 a81.10852362649786,81.10852362649786 0 0,0 -0.006008607145245314,1.3961886918034037 l -60.103514101277106 -0.7760188366497502" fill="#49eeff" stroke="none" /><path d="M 120.64145759157962 103.86396538481128 l 7.028269304300005 1.3156526948961766 a28.150350440877233,28.150350440877233 0 0,0 -0.09325817937763677,0.4755214474822868 l -7.004581191946704 -1.4364378694464084" fill="#ff2c04" stroke="none" /><path d="M 120.5718875245553 104.21870165774334 l 13.96730233692958 2.8642914488363638 a35.25796970382093,35.25796970382093 0 0,0 -0.1270394366792416,0.5934859545592422 l -13.915928861525893 -3.1042912228117747" fill="#ff930d" stroke="none" /><path d="M 120.41448212921028 104.9243191809786 l 29.479379913919534 7.110926205948527 a51.324892606827945,51.324892606827945 0 0,0 -0.21455927932859872,0.857057665863475 l -29.352609320295876 -7.617311711209397" fill="#9dff22" stroke="none" /><path d="M 120.23288151984713 105.62410040840565 l 6.875428651216422 1.911151461413906 a28.13610671489939,28.13610671489939 0 0,0 -0.13372336283359143,0.46550856888081554 l -6.841512651496731 -2.0292175057993034" fill="#ff2b04" stroke="none" /><path d="M 119.9155931802556 106.66101706037122 l 5.835543468598524 1.9517698643999795 a27.15328962242822,27.15328962242822 0 0,0 -0.15207027760245606,0.441987409231809 l -5.801082360052837 -2.051929976721089" fill="#ff1d02" stroke="none" /><path d="M 119.79798401119884 107.00284435728193 l 28.360847093591637 10.031657663969764 a51.08274926520461,51.08274926520461 0 0,0 -0.3003562007336119,0.8264512665636525 l -28.1839666318528 -10.518356727539548" fill="#a0ff22" stroke="none" /><path d="M 118.81262510543309 109.33194174019688 l 6.405564867461504 3.1774597017265425 a28.150350440877233,28.150350440877233 0 0,0 -0.2190651292871831,0.4322362827978127 l -6.349921068388052 -3.2872501962270495" fill="#ff2c04" stroke="none" /><line stroke="#e1ed5e" stroke-width="0.3" x1="174.80103733775053" x2="179.2010983576182" y1="140.37084112569926" y2="142.7455964860345" /><path d="M 175.68104954172406 140.8457921977663 a86.0,86.0 0 0,1 -30.038265399797805,32.042727171017184" fill="none" id="id41" stroke="none" /><text fill="#e1ed5e" style="font-size:6.75px; font-family:Arial;" text-anchor="middle"><textPath startOffset="22.206326154141568" xlink:href="#id41">May</textPath></text><path d="M 118.12598468904814 110.60418214915192 l 4.1923767435894765 2.452651670491166 a25.857110558444496,25.857110558444496 0 0,0 -0.228058636886153,0.3822393933294771 l -4.149537231005096 -2.524453157706747" fill="#ff0901" stroke="none" /><path d="M 117.35343817320211 111.8261652097733 l 7.862602328531994 5.358271553331602 a30.514808953199186,30.514808953199186 0 0,0 -0.2995378588444383,0.431506626254584 l -7.769203562525419 -5.4928194417732055" fill="#ff4f07" stroke="none" /><path d="M 116.93607887273984 112.41649034213515 l 5.7551269603725945 4.219304766952096 a28.13610671489939,28.13610671489939 0 0,0 -0.28971981315055045,0.38812703505037294 l -5.681645880526952 -4.317744681511784" fill="#ff2b04" stroke="none" /><path d="M 116.0416608686014 113.55231037782055 l 5.527354999717054 4.669618136061162 a28.23581279674429,28.23581279674429 0 0,0 -0.3168562278052405,0.36857537673217117 l -5.4461562623410344 -4.764070611954861" fill="#ff2d04" stroke="none" /><path d="M 115.32070863581623 114.36230785411682 l 5.195808942736684 4.870780416272944 a28.121862988921546,28.121862988921546 0 0,0 -0.3341057418454427,0.35030853458779343 l -5.1111966495122765 -4.9594960674432444" fill="#ff2b04" stroke="none" /><path d="M 111.7513745106137 117.40417183066458 l 3.706345792969957 5.489219919461246 a27.62333257969704,27.62333257969704 0 0,0 -0.39636233387539876,0.2626873419151502 l -3.611308760354594 -5.552205282467715" fill="#ff2403" stroke="none" /><line stroke="#e1ed5e" stroke-width="0.3" x1="143.8653032363475" x2="146.44561519142675" y1="172.8068346515853" y2="177.08958963109032" /><path d="M 144.38136562736335 173.6633856474863 a86.0,86.0 0 0,1 -40.68145358897372,12.25698825130547" fill="none" id="id42" stroke="none" /><text fill="#e1ed5e" style="font-size:6.75px; font-family:Arial;" text-anchor="middle"><textPath startOffset="21.466115282336833" xlink:href="#id42">June</textPath></text><path d="M 109.89434966115114 118.52300852407294 l 3.3622445265001506 6.294388833751213 a28.13610671489939,28.13610671489939 0 0,0 -0.42915480706036335,0.22451351194519747 l -3.2533988169132915 -6.351331764641127" fill="#ff2b04" stroke="none" /><path d="M 107.93186726928326 119.44442032107085 l 2.6953643467629993 6.607498020024754 a28.13610671489939,28.13610671489939 0 0,0 -0.45001548798912516,0.17907044993209037 l -2.581227782732008 -6.652915314362914" fill="#ff2b04" stroke="none" /><path d="M 107.59598834532513 119.57807347666477 l 1.8084050932912865 4.661024501679405 a25.999547818222926,25.999547818222926 0 0,0 -0.4186295887670665,0.1582898897617204 l -1.7279052837639453 -4.691462641547757" fill="#ff0b01" stroke="none" /><path d="M 106.91757812671514 119.82793768551818 l 2.350694081947288 6.737822821915858 a28.13610671489939,28.13610671489939 0 0,0 -0.4586590917056281,0.15560206638971805 l -2.234365257304433 -6.777287875203699" fill="#ff2b04" stroke="none" /><path d="M 105.53697534728816 120.25689768951611 l 1.904078567312975 6.966027896394757 a28.22156907076645,28.22156907076645 0 0,0 -0.46970038614706294,0.12405214102181707 l -1.7838877383544147 -6.997771386720158" fill="#ff2d04" stroke="none" /><path d="M 105.18746579009965 120.34920634021253 l 3.518516249219752 13.802310427455929 a35.24372597784309,35.24372597784309 0 0,0 -0.5891521065681989,0.14479925379492553 l -3.280410857908342 -13.860830939564885" fill="#ff930d" stroke="none" /><line stroke="#e1ed5e" stroke-width="0.3" x1="102.19456741930631" x2="102.32365962044197" y1="184.97166512339345" y2="189.96999836594603" /><path d="M 102.22038585953345 185.97133177190398 a86.0,86.0 0 0,1 -42.740103519485714,-10.115201625700543" fill="none" id="id43" stroke="none" /><text fill="#e1ed5e" style="font-size:6.75px; font-family:Arial;" text-anchor="middle"><textPath startOffset="22.20632615414155" xlink:href="#id43">July</textPath></text><path d="M 98.37488393609728 120.93702456842531 l -0.44201099364118684 5.694605597064356 a26.71173411711508,26.71173411711508 0 0,0 -0.458113467869339,-0.039527957648708936 l 0.5399687792520675 -5.686153387136984" fill="#ff1602" stroke="none" /><path d="M 96.22490169976321 120.6578951692458 l -1.1420035102231136 6.249211787576505 a27.35270178611802,27.35270178611802 0 0,0 -0.4624330934778351,-0.08862640296506333 l 1.249404218272644 -6.228628186262974" fill="#ff2003" stroke="none" /><path d="M 94.11515582081647 120.15858648285463 l -1.9997560030099162 6.8501821125323366 a28.13610671489939,28.13610671489939 0 0,0 -0.46374336456412013,-0.13972207159834282 l 2.117374342014282 -6.814744671828268" fill="#ff2b04" stroke="none" /><path d="M 93.42475214034765 119.94407469862007 l -1.3513227005254322 4.098838774823793 a25.315848971286457,25.315848971286457 0 0,0 -0.4126848256791119,-0.14000509922206827 l 1.42167725914177 -4.074970688703602" fill="#ff0000" stroke="none" /><path d="M 92.06813273071674 119.44442032107085 l -2.689984378006983 6.594309401222308 a28.121862988921546,28.121862988921546 0 0,0 -0.44664018661463506,-0.1866956342285098 l 2.80309602411908 -6.547028723973825" fill="#ff2b04" stroke="none" /><line stroke="#e1ed5e" stroke-width="0.3" x1="58.666819895761336" x2="56.23545636021788" y1="174.27360380694188" y2="178.64263932499728" /><path d="M 58.180547188652646 175.14741091055294 a86.0,86.0 0 0,1 -31.652253787137756,-30.449443065178592" fill="none" id="id44" stroke="none" /><text fill="#e1ed5e" style="font-size:6.75px; font-family:Arial;" text-anchor="middle"><textPath startOffset="22.20632615414155" xlink:href="#id44">August</textPath></text><path d="M 87.36589467227662 116.77436683061367 l -4.2846841491261705 5.688797252073366 a28.121862988921546,28.121862988921546 0 0,0 -0.3841597425125657,-0.2945573091468475 l 4.381972620132223 -5.614200601099151" fill="#ff2b04" stroke="none" /><path d="M 83.06392112726016 112.41649034213515 l -5.766614239734614 4.227726532953997 a28.150350440877233,28.150350440877233 0 0,0 -0.283139184039119,-0.39325556257748173 l 5.83853321614934 -4.1278373649253775" fill="#ff2c04" stroke="none" /><path d="M 82.6465618267979 111.8261652097733 l -5.8969517463989956 4.018703664998704 a28.13610671489939,28.13610671489939 0 0,0 -0.26929857502509874,-0.4025648307520474 l 5.965253426834825 -3.9166019200408355" fill="#ff2b04" stroke="none" /><path d="M 82.05923443525364 110.91462005526583 l -6.089232933709528 3.704505454886969 a28.127560479312685,28.127560479312685 0 0,0 -0.24808391051063414,-0.41580290377569534 l 6.152097719918395 -3.599140457225163" fill="#ff2b04" stroke="none" /><line stroke="#e1ed5e" stroke-width="0.3" x1="26.63291911575756" x2="22.317208475507996" y1="142.92168965132927" y2="145.44649492493687" /><path d="M 25.769776987707644 143.4266507060508 a86.0,86.0 0 0,1 -11.730757126820373,-40.83630448921669" fill="none" id="id45" stroke="none" /><text fill="#e1ed5e" style="font-size:6.75px; font-family:Arial;" text-anchor="middle"><textPath startOffset="21.46611528233685" xlink:href="#id45">September</textPath></text><path d="M 81.69416730710424 110.29060199501025 l -6.22058931436182 3.4968968569976044 a28.13610671489939,28.13610671489939 0 0,0 -0.23369527415562127,-0.42422480397343515 l 6.2798609979689575 -3.389301534626347" fill="#ff2b04" stroke="none" /><path d="M 79.76711848015287 105.62410040840567 l -6.875428651216421 1.9111514614139107 a28.13610671489939,28.13610671489939 0 0,0 -0.12569058548465792,-0.4677414266339038 l 6.907307313042853 -1.792519101604468" fill="#ff2b04" stroke="none" /><path d="M 79.50377843672027 104.57218783832718 l -6.964915444180295 1.553696206422281 a28.13610671489939,28.13610671489939 0 0,0 -0.1013783600540276,-0.4736059475785244 l 6.990627842958763 -1.4335764394275927" fill="#ff2b04" stroke="none" /><path d="M 79.18660465613746 102.79330883721812 l -14.131274297449517 1.8965196559272042 a35.25796970382093,35.25796970382093 0 0,0 -0.07555025827106168,-0.6022098929825239 l 14.161826064967427 -1.6529920086572716" fill="#ff930d" stroke="none" /><path d="M 79.07016306316243 101.71520430193888 l -7.736894278030619 0.634040025699767 a28.762830657924486,28.762830657924486 0 0,0 -0.036191093739872594,-0.49379872012268233 l 7.746661930434827 -0.5007681690803241" fill="#ff3505" stroke="none" /><path d="M 79.0235259727143 100.99374915477108 l -5.406552202375243 0.2561324974992154 a26.412615871580375,26.412615871580375 0 0,0 -0.01760572800107836,-0.45432561041400316 l 5.410160063227522 -0.16302964007121548" fill="#ff1101" stroke="none" /><path d="M 79.0095281055655 100.63252640178507 l -11.432522449399215 0.34450737099259493 a32.437711960208006,32.437711960208006 0 0,0 -0.012014213822299134,-0.5582533073755008 l 11.436758725906522 -0.14766424782696527" fill="#ff6b09" stroke="none" /><line stroke="#e1ed5e" stroke-width="0.3" x1="15.007084014347285" x2="10.007500721073583" y1="101.09737516637583" y2="101.16192664675087" /><path d="M 14.007167355692545 101.11028546245083 a86.0,86.0 0 0,1 10.666146001902534,-42.60595125391555" fill="none" id="id46" stroke="none" /><text fill="#e1ed5e" style="font-size:6.75px; font-family:Arial;" text-anchor="middle"><textPath startOffset="22.20632615414155" xlink:href="#id46">October</textPath></text><path d="M 79.00019446554 99.90962569577889 l -8.702835981158753 -0.03745333475860579 a29.70291657246213,29.70291657246213 0 0,0 0.006601109534608074,-0.5112632081333229 l 8.700901864506429 0.18725280095240068" fill="#ff4306" stroke="none" /><path d="M 79.01574976396665 99.18683210126434 l -5.579352990634234 -0.21620742683995675 a26.58354058331449,26.58354058331449 0 0,0 0.02165468855994578,-0.4570962500605408 l 5.57480469384079 0.3122147835235066" fill="#ff1402" stroke="none" /><path d="M 79.05617556472873 98.46500227214037 l -6.321502514376473 -0.4633104152594642 a27.338458060140177,27.338458060140177 0 0,0 0.038437242181174724,-0.46903171257463533 l 6.312590788375801 0.5720560450418779" fill="#ff1f03" stroke="none" /><path d="M 79.08570108090925 98.10471618934814 l -14.370010041853224 -1.3022309519717352 a35.42889441555505,35.42889441555505 0 0,0 0.060267711544022065,-0.6068876305411578 l 14.345465204626974 1.5493941132173232" fill="#ff950d" stroke="none" /><path d="M 79.16333360222342 97.38593545837743 l -10.50077535623875 -1.317375053872189 a31.583088401537417,31.583088401537417 0 0,0 0.07231625011695436,-0.5388400607248215 l 10.476543107063963 1.4979334566616698" fill="#ff5e08" stroke="none" /><path d="M 79.26566170972629 96.67025291283419 l -11.728988108131322 -1.8835693448086952 a32.87926746552114,32.87926746552114 0 0,0 0.09454846461054839,-0.5580303902131791 l 11.69482778200055 2.085185523337702" fill="#ff710a" stroke="none" /><path d="M 79.3925641242962 95.95851677861259 l -6.988730231416617 -1.3706137987974485 a28.121862988921546,28.121862988921546 0 0,0 0.09724902335416846,-0.47422077516259714 l 6.964101912147454 1.490710230123448" fill="#ff2b04" stroke="none" /><path d="M 79.46518482838121 95.60439243477599 l -18.343444436596396 -3.926530746145163 a39.758987112819355,39.758987112819355 0 0,0 0.14901216442345405,-0.667992314761167 l 18.273137885170907 4.2417012304562896" fill="#ffd013" stroke="none" /><path d="M 79.71946130924805 94.55025226153421 l -8.260318890207925 -2.219697162750649 a29.55335744969478,29.55335744969478 0 0,0 0.1362455226338882,-0.4901476355118228 l 8.220886597007677 2.361556101681414" fill="#ff4106" stroke="none" /><path d="M 79.81627453868168 94.20196356495316 l -8.446772739972914 -2.4264448205452656 a29.788378928329188,29.788378928329188 0 0,0 0.1458128423063872,-0.4916084168103579 l 8.40375400055482 2.571482624102163" fill="#ff4406" stroke="none" /><path d="M 80.02781315780177 93.51064311812611 l -6.785486133341911 -2.2047380932380505 a28.134682342301605,28.134682342301605 0 0,0 0.15361899124951578,-0.4593012308417806 l 6.746529848320623 2.3212124270021532" fill="#ff2b04" stroke="none" /><path d="M 80.14247586403 93.16781622104843 l -28.432670213225865 -9.782550276305741 a51.06850553922677,51.06850553922677 0 0,0 0.29315004811433154,-0.8287746620292498 l 28.260067084301724 10.2705225647616" fill="#a0ff22" stroke="none" /><path d="M 80.38941819471856 92.48833698450439 l -7.023097802298394 -2.690136607855541 a28.520687316301153,28.520687316301153 0 0,0 0.1795532773820216,-0.456943506125062 l 6.975750975034681 2.810629118876366" fill="#ff3104" stroke="none" /><path d="M 80.65960295795068 91.81776055985345 l -6.978809332830821 -2.952487937253873 a28.577662220212524,28.577662220212524 0 0,0 0.1955655024772563,-0.4513921430552247 l 6.926953120510883 3.0721792248956965" fill="#ff3204" stroke="none" /><path d="M 81.10775173730289 90.83032412892265 l -5.791971206017924 -2.811232304133138 a27.438164141985077,27.438164141985077 0 0,0 0.209888872969077,-0.4231231603130231 l 5.742722320095434 2.9105150529451227" fill="#ff2103" stroke="none" /><path d="M 81.43458229118936 90.18545643968196 l -6.308800094131222 -3.3351252478313413 a28.13610671489939,28.13610671489939 0 0,0 0.23003531630823787,-0.42622050480935264 l 6.250456678604512 3.4432267359731665" fill="#ff2b04" stroke="none" /><line stroke="#e1ed5e" stroke-width="0.3" x1="26.266209847984243" x2="21.928928074336255" y1="57.711370442889674" y2="55.22380399835377" /><path d="M 25.398753493254645 57.213857153982495 a86.0,86.0 0 0,1 29.58750427330803,-30.492523968695096" fill="none" id="id47" stroke="none" /><text fill="#e1ed5e" style="font-size:6.75px; font-family:Arial;" text-anchor="middle"><textPath startOffset="21.46611528233685" xlink:href="#id47">November</textPath></text><path d="M 82.15384107792192 88.93136811851018 l -5.931235273672797 -3.6786997209563728 a27.979425729143117,27.979425729143117 0 0,0 0.2573739487502921,-0.40710377843548 l 5.867033728676543 3.7802511471060685" fill="#ff2904" stroke="none" /><path d="M 82.54541684631803 88.32363383020206 l -23.689772252216333 -15.847439773297992 a49.50169568166403,49.50169568166403 0 0,0 0.47987305469991254,-0.7041544945472858 l 23.413474731847682 16.252872291115693" fill="#b3ff20" stroke="none" /><path d="M 83.39014120810768 87.1503855733568 l -5.655538625500756 -4.375202199078605 a28.150350440877233,28.150350440877233 0 0,0 0.29979576218818577,-0.38071017324268147 l 5.579388782718599 4.471904766274335" fill="#ff2c04" stroke="none" /><path d="M 83.84228863543731 86.58626213691792 l -27.39833489356097 -22.74542934051901 a56.60931494460773,56.60931494460773 0 0,0 0.6288739216353194,-0.7443883661704841 l 27.002750358438526 23.21367665631861" fill="#62ff29" stroke="none" /><path d="M 84.80347519578584 85.50635884689758 l -5.174308468267357 -4.934981590904869 a28.150350440877233,28.150350440877233 0 0,0 0.3374499616785465,-0.3477718481988055 l 5.0885942428856925 5.0233176346537975" fill="#ff2c04" stroke="none" /><path d="M 85.31137513191541 84.99185889309783 l -9.982818528931107 -10.199971098202116 a35.27221342979878,35.27221342979878 0 0,0 0.43757155396863573,-0.4209434882303352 l 9.805763731350044 10.370297673194765" fill="#ff930d" stroke="none" /><path d="M 85.83668400450813 84.49514656593479 l -28.81977028248403 -31.549554805920636 a63.73117793352928,63.73117793352928 0 0,0 0.8163326957945458,-0.7329115544404186 l 28.272426599093514 32.04096536913033" fill="#32ff4d" stroke="none" /><path d="M 86.37877921826538 84.01681056812374 l -4.6379286677124885 -5.442162171468607 a28.150350440877233,28.150350440877233 0 0,0 0.37150749793566235,-0.3111268455374376 l 4.543563632817715 5.521190174399857" fill="#ff2c04" stroke="none" /><path d="M 87.22198572758235 83.33499621200491 l -8.675644779577258 -11.314719958252148 a35.25796970382093,35.25796970382093 0 0,0 0.4848035410784979,-0.3651439761088685 l 8.47959508474037 11.46238052386687" fill="#ff930d" stroke="none" /><path d="M 87.80319425747018 82.90503203632743 l -36.59041722758948 -51.284903891017706 a84.0,84.0 0 0,0 1.184275441665359,-0.8296606289442297 l 35.70221064634046 51.907149362725875" fill="#4dd2ff" stroke="none" /><line stroke="#e1ed5e" stroke-width="0.3" x1="56.762969772571076" x2="54.21961505331055" y1="26.818313649435495" y2="22.513508569990535" /><path d="M 56.25429882871897 25.957352633546506 a86.0,86.0 0 0,1 42.265352541879196,-11.944610805530505" fill="none" id="id48" stroke="none" /><text fill="#e1ed5e" style="font-size:6.75px; font-family:Arial;" text-anchor="middle"><textPath startOffset="22.20632615414155" xlink:href="#id48">December</textPath></text><path d="M 94.28887869178378 79.79150937346287 l -1.9407224341508007 -6.867140269429187 a28.13610671489939,28.13610671489939 0 0,0 0.4671961809767625,-0.12770236469893062 l 1.8222283639503158 6.899529174954414" fill="#ff2b04" stroke="none" /><path d="M 95.33964822691252 79.52364482259891 l -1.5899775775692995 -6.985941660117169 a28.164594166855075,28.164594166855075 0 0,0 0.47364435006134153,-0.10352030958519325 l 1.469490503354437 7.01227546779823" fill="#ff2c04" stroke="none" /><path d="M 97.11714578562143 79.19881850522333 l -0.9796359674906149 -7.0685452829865145 a28.13610671489939,28.13610671489939 0 0,0 0.48030380259155214,-0.06235721838781956 l 0.857817436391205 7.084360824538471" fill="#ff2b04" stroke="none" /><path d="M 98.19473922651362 79.07773832637324 l -0.6146784365522245 -7.123881094388855 a28.150350440877233,28.150350440877233 0 0,0 0.48312678437049983,-0.03749993680411659 l 0.49196146281939057 7.133406293381434" fill="#ff2c04" stroke="none" /></svg>