<?xml version="1.0" encoding="utf-8" ?>
<svg baseProfile="full" height="200mm" version="1.1" viewBox="0,0,200,200" width="200mm" xmlns="http://www.w3.org/2000/svg" xmlns:ev="http://www.w3.org/2001/xml-events" xmlns:xlink="http://www.w3.org/1999/xlink"><defs /><rect fill="#1a1a1a" height="200" width="200" x="0" y="0" /><text alignment-baseline="middle" fill="#e1ed5e" style="dominant-baseline: central; font-size:9.0px; font-family:Arial;" text-anchor="middle" x="100.0" y="100.0">2018</text><line stroke="#e1ed5e" stroke-width="0.3" x1="100.0" x2="100.0" y1="15.0" y2="10.0" /><path d="M 100.0 14.0 a86.0,86.0 0 0,1 42.46469731375804,11.215312516191453" fill="none" id="id73" stroke="none" /><text fill="#e1ed5e" style="font-size:6.75px; font-family:Arial;" text-anchor="middle"><textPath startOffset="22.20632615414155" xlink:href="#id73">January</textPath></text><line stroke="#e1ed5e" stroke-width="0.3" x1="143.23703022742887" x2="145.7803849466894" y1="26.81831364943548" y2="22.513508569990506" /><path d="M 143.74570117128098 25.957352633546492 a86.0,86.0 0 0,1 28.547481713284135,27.462654790039103" fill="none" id="id74" stroke="none" /><text fill="#e1ed5e" style="font-size:6.75px; font-family:Arial;" text-anchor="middle"><textPath startOffset="19.985693538727396" xlink:href="#id74">February</textPath></text><path d="M 111.2981086023043 82.29822771554956 l 4.573728230670493 -7.166075179502059 a29.50127186992086,29.50127186992086 0 0,0 0.42570753132803185,0.2768920202011264 l -4.696402787782805 7.086284235141404" fill="#ff5c08" stroke="none" /><path d="M 113.34407831869373 83.78471172551755 l 2.4426189119744657 -2.9681907477178164 a24.844026985333606,24.844026985333606 0 0,0 0.32787308716997665,0.27458428137964996 l -2.4933495361035596 2.9257053089443468" fill="#ff1a02" stroke="none" /><path d="M 114.68862486808459 84.99185889309783 l 4.255860749749785 -4.34843691885368 a27.084509376976133,27.084509376976133 0 0,0 0.33038484154351144,0.32896606403796674 l -4.330081391460619 4.274535004165594" fill="#ff3a05" stroke="none" /><path d="M 116.15771136456269 86.58626213691792 l 3.308758397237511 -2.7468505156093164 a25.300356948718665,25.300356948718665 0 0,0 0.2752937958946344,0.3374776426619897 l -3.355550685208554 2.689488703339226" fill="#ff2003" stroke="none" /><line stroke="#e1ed5e" stroke-width="0.3" x1="172.23445277983987" x2="176.4835382374775" y1="55.19839476539836" y2="52.563006222186495" /><path d="M 173.08426987136738 54.67131705675599 a86.0,86.0 0 0,1 12.851231095245387,41.99856678651699" fill="none" id="id75" stroke="none" /><text fill="#e1ed5e" style="font-size:6.75px; font-family:Arial;" text-anchor="middle"><textPath startOffset="22.20632615414155" xlink:href="#id75">March</textPath></text><path d="M 118.21658344932153 89.55222093294921 l 8.573238102858136 -4.9170195847684885 a30.883192458173394,30.883192458173394 0 0,0 0.26051055030764664,0.46341920044894497 l -8.656606294458214 4.76871687438475" fill="#ff700a" stroke="none" /><path d="M 119.34039704204932 91.81776055985345 l 5.067878471278114 -2.1440405290235725 a26.502754036820097,26.502754036820097 0 0,0 0.17413358547002186,0.4216782893677605 l -5.104033743634333 2.0564876692025087" fill="#ff3204" stroke="none" /><path d="M 120.18372546131832 94.20196356495316 l 8.849857900008598 -2.5422362510615293 a30.20776574455258,30.20776574455258 0 0,0 0.13926244550975841,0.501001112275993 l -8.89230711608472 2.3895238353665844" fill="#ff6609" stroke="none" /><path d="M 120.28053869075195 94.5502522615342 l 11.879245669630897 -3.1921682757012726 a33.30066729815249,33.30066729815249 0 0,0 0.14399155913518585,0.5548582152015268 l -11.932433560636387 2.9872136349508955" fill="#ff910d" stroke="none" /><path d="M 120.73433829027371 96.67025291283417 l 14.03546245827265 -2.253968252238918 a35.21529385203422,35.21529385203422 0 0,0 0.0909629596321958,0.5993322514328897 l -14.072181311344147 2.0120368884139466" fill="#ffaa0f" stroke="none" /><line stroke="#e1ed5e" stroke-width="0.3" x1="184.98032266829074" x2="189.97916517819016" y1="98.17113171792111" y2="98.06355123074" /><path d="M 185.9800911702706 98.14961562048488 a86.0,86.0 0 0,1 -9.607161424134198,41.387399972396054" fill="none" id="id76" stroke="none" /><text fill="#e1ed5e" style="font-size:6.75px; font-family:Arial;" text-anchor="middle"><textPath startOffset="21.466115282336823" xlink:href="#id76">April</textPath></text><path d="M 120.99513854157772 99.54816195383933 l 2.112796055734392 -0.04546965193244466 a23.113285277091965,23.113285277091965 0 0,0 0.005136644660685626,0.39783878975112746 l -2.1132657075127934 0.009094604120854494" fill="#ff0000" stroke="none" /><path d="M 120.95626037817324 101.35467743843564 l 12.914171059197132 0.8348119299096942 a33.94112534150428,33.94112534150428 0 0,0 -0.0427067302060762,0.5826994030067869 l -12.897887770326719 -1.0569844694132515" fill="#ff990e" stroke="none" /><path d="M 120.70491114924044 103.5080841355445 l 12.09832407842608 2.0498488721000645 a33.27075082890506,33.27075082890506 0 0,0 -0.10053083362573391,0.5638303032873592 l -12.061246802461158 -2.257797926120642" fill="#ff900d" stroke="none" /><path d="M 120.5718875245553 104.21870165774334 l 21.023024283905364 4.31121681427758 a42.46052516741807,42.46052516741807 0 0,0 -0.15299125966941263,0.714724231762583 l -20.94569898551151 -4.6724548654563325" fill="#f7ff18" stroke="none" /><path d="M 120.02730092923936 106.31721596034902 l 6.79385156300051 2.1429861007066315 a28.123819796142115,28.123819796142115 0 0,0 -0.14960231439294036,0.4604285801304723 l -6.755956997591323 -2.259613580814899" fill="#ff4906" stroke="none" /><path d="M 119.79798401119884 107.00284435728193 l 29.06576336454898 10.280997138516138 a51.83046386491995,51.83046386491995 0 0,0 -0.3047526108648992,0.8385482990619366 l -28.884486492678853 -10.779793234584206" fill="#8aff24" stroke="none" /><line stroke="#e1ed5e" stroke-width="0.3" x1="174.80103733775053" x2="179.2010983576182" y1="140.37084112569926" y2="142.7455964860345" /><path d="M 175.68104954172406 140.8457921977663 a86.0,86.0 0 0,1 -30.038265399797805,32.042727171017184" fill="none" id="id77" stroke="none" /><text fill="#e1ed5e" style="font-size:6.75px; font-family:Arial;" text-anchor="middle"><textPath startOffset="22.206326154141568" xlink:href="#id77">May</textPath></text><path d="M 117.75023020441432 111.22182372390056 l 6.736345643441144 4.258766364346213 a28.96965768235971,28.96965768235971 0 0,0 -0.2701008611351287,0.4192025346351742 l -6.662039918928965 -4.374090498902841" fill="#ff5507" stroke="none" /><path d="M 114.55890576462653 115.13401014063108 l 4.871464480340147 5.063896561808887 a28.026678772500958,28.026678772500958 0 0,0 -0.35055258069408707,0.3314693454351225 l -4.783576065255252 -5.147000543989932" fill="#ff4806" stroke="none" /><path d="M 114.29624159901734 115.38237550388516 l 7.730384586517977 8.317688091353954 a32.35529748798005,32.35529748798005 0 0,0 -0.41122111793692956,0.37564074127678565 l -7.586063919114184 -8.449521599217322" fill="#ff840c" stroke="none" /><line stroke="#e1ed5e" stroke-width="0.3" x1="143.8653032363475" x2="146.44561519142675" y1="172.8068346515853" y2="177.08958963109032" /><path d="M 144.38136562736335 173.6633856474863 a86.0,86.0 0 0,1 -40.68145358897372,12.25698825130547" fill="none" id="id78" stroke="none" /><text fill="#e1ed5e" style="font-size:6.75px; font-family:Arial;" text-anchor="middle"><textPath startOffset="21.466115282336833" xlink:href="#id78">June</textPath></text><path d="M 106.91757812671514 119.82793768551818 l 2.2340473611302523 6.403476918015167 a27.78199706954567,27.78199706954567 0 0,0 -0.45288659411213084,0.1536437217934349 l -2.1234910340808946 -6.440983626706725" fill="#ff4406" stroke="none" /><path d="M 106.57524785965236 119.94407469862006 l 2.2157574492336582 6.720846578683398 a28.076677172800437,28.076677172800437 0 0,0 -0.46029526911274443,0.14737200952439 l -2.0997408350299738 -6.7579914348674945" fill="#ff4806" stroke="none" /><path d="M 102.70371172650421 120.8252237178851 l 0.9119676649681667 7.024391861108345 a28.083344269506647,28.083344269506647 0 0,0 -0.4799210536825287,0.0581117560407313 l -0.7909191882342578 -7.0390491458744275" fill="#ff4806" stroke="none" /><path d="M 101.98527174616119 120.90594882070398 l 0.4191376280373744 4.413738228796189 a25.43359464809016,25.43359464809016 0 0,0 -0.4361930301318088,0.03763657004432316 l -0.3431002801640239 -4.4202990511191755" fill="#ff2203" stroke="none" /><line stroke="#e1ed5e" stroke-width="0.3" x1="102.19456741930631" x2="102.32365962044197" y1="184.97166512339345" y2="189.96999836594603" /><path d="M 102.22038585953345 185.97133177190398 a86.0,86.0 0 0,1 -42.740103519485714,-10.115201625700543" fill="none" id="id79" stroke="none" /><text fill="#e1ed5e" style="font-size:6.75px; font-family:Arial;" text-anchor="middle"><textPath startOffset="22.20632615414155" xlink:href="#id79">July</textPath></text><path d="M 100.54218724476979 120.99299961872073 l 0.15241553484950984 5.9013916241084 a26.903359517796645,26.903359517796645 0 0,0 -0.4630456479543554,0.007971750755544087 l -0.05081019700248653 -5.903140852143103" fill="#ff3705" stroke="none" /><path d="M 98.01472825383883 120.90594882070398 l -0.5459434786927542 5.7490700941155675 a26.774933872260455,26.774933872260455 0 0,0 -0.45844730707169706,-0.04751993785592337 l 0.6448233823700446 -5.738820787803884" fill="#ff3605" stroke="none" /><path d="M 93.42475214034765 119.94407469862007 l -2.075749581933492 6.296174015240818 a27.629520612916952,27.629520612916952 0 0,0 -0.45040100810648975,-0.15280047606766264 l 2.1838203229772075 -6.2595105522750325" fill="#ff4206" stroke="none" /><line stroke="#e1ed5e" stroke-width="0.3" x1="58.666819895761336" x2="56.23545636021788" y1="174.27360380694188" y2="178.64263932499728" /><path d="M 58.180547188652646 175.14741091055294 a86.0,86.0 0 0,1 -31.652253787137756,-30.449443065178592" fill="none" id="id80" stroke="none" /><text fill="#e1ed5e" style="font-size:6.75px; font-family:Arial;" text-anchor="middle"><textPath startOffset="22.20632615414155" xlink:href="#id80">August</textPath></text><path d="M 86.79598089348748 116.32954008644616 l -3.2964095145954624 4.07670201593237 a26.242691581108176,26.242691581108176 0 0,0 -0.3488151965560049,-0.2870511595479104 l 3.366094839696156 -4.019355737527279" fill="#ff2e04" stroke="none" /><path d="M 85.97065885151581 115.62618273729859 l -3.6865157345020725 4.1061207309425205 a26.518208560557248,26.518208560557248 0 0,0 -0.33703437200688774,-0.30787290782045906 l 3.756649655975815 -4.042055056535486" fill="#ff3204" stroke="none" /><line stroke="#e1ed5e" stroke-width="0.3" x1="26.63291911575756" x2="22.317208475507996" y1="142.92168965132927" y2="145.44649492493687" /><path d="M 25.769776987707644 143.4266507060508 a86.0,86.0 0 0,1 -11.730757126820373,-40.83630448921669" fill="none" id="id81" stroke="none" /><text fill="#e1ed5e" style="font-size:6.75px; font-family:Arial;" text-anchor="middle"><textPath startOffset="21.46611528233685" xlink:href="#id81">September</textPath></text><path d="M 81.35079622478065 109.6543875284942 l -6.816979980232828 3.5290389496738888 a28.676283733631173,28.676283733631173 0 0,0 -0.22315792539697374,-0.4403117578061036 l 6.876716575416069 -3.4111729801651003" fill="#ff5107" stroke="none" /><path d="M 81.02952815118164 109.00673069616217 l -6.427643224909929 3.0516927569928107 a28.115295222955467,28.115295222955467 0 0,0 -0.20380293276075173,-0.4389733860065977 l 6.479220774510507 -2.940599303707386" fill="#ff4906" stroke="none" /><path d="M 80.20201598880116 107.00284435728193 l -7.074292679493096 2.5022835933358887 a28.503801709574127,28.503801709574127 0 0,0 -0.15963373495342845,-0.4639703566696382 l 7.116317245389753 -2.380140533576953" fill="#ff4e07" stroke="none" /><path d="M 79.76711848015287 105.62410040840567 l -18.065318303643654 5.021586468039004 a39.75025482674715,39.75025482674715 0 0,0 -0.17757370815246656,-0.6608178270762013 l 18.149080088137897 -4.709877707787264" fill="#ffe515" stroke="none" /><path d="M 79.29508885075956 103.50808413554451 l -13.881153862083053 2.351918117186047 a35.07898971420788,35.07898971420788 0 0,0 -0.09574600710460582,-0.596210477637091 l 13.91958162354895 -2.112628409855742" fill="#ffa80f" stroke="none" /><path d="M 79.18660465613746 102.79330883721812 l -19.030814204385543 2.5540735001817874 a40.201436944306366,40.201436944306366 0 0,0 -0.08614304707627563,-0.6866448420979497 l 19.071958760708664 -2.226110903796429" fill="#ffeb16" stroke="none" /><path d="M 79.04373962182676 101.35467743843564 l -8.440412956309896 0.5456143795055096 a29.458029671511394,29.458029671511394 0 0,0 -0.028354965491648246,-0.5062969566418267 l 8.448554272689076 -0.40024570652824537" fill="#ff5c08" stroke="none" /><line stroke="#e1ed5e" stroke-width="0.3" x1="15.007084014347285" x2="10.007500721073583" y1="101.09737516637583" y2="101.16192664675087" /><path d="M 14.007167355692545 101.11028546245083 a86.0,86.0 0 0,1 10.666146001902534,-42.60595125391555" fill="none" id="id82" stroke="none" /><text fill="#e1ed5e" style="font-size:6.75px; font-family:Arial;" text-anchor="middle"><textPath startOffset="22.20632615414155" xlink:href="#id82">October</textPath></text><path d="M 79.00175016825051 100.2711162175752 l -21.17416214338269 0.2733874868922686 a42.175926973623845,42.175926973623845 0 0,0 -0.0031244382814566473,-0.726009421378046 l 21.17573087895365 0.09113141268945274" fill="#fbff18" stroke="none" /><path d="M 79.03285615573316 98.82574320788736 l -28.231027016284923 -1.581067763373629 a49.2752658991315,49.2752658991315 0 0,0 0.05471762280324474,-0.8464574061730645 l 28.199628802477267 2.066784233799705" fill="#a7ff21" stroke="none" /><path d="M 80.02781315780177 93.51064311812611 l -24.27512051040658 -7.887464782258494 a46.52437220552408,46.52437220552408 0 0,0 0.25402906774546313,-0.7595145791288942 l 24.135754148889344 8.30415246430971" fill="#c6ff1e" stroke="none" /><path d="M 80.38941819471856 92.48833698450439 l -6.253944524297435 -2.3955191258769584 a27.69703919619948,27.69703919619948 0 0,0 0.1743679633770092,-0.44374744757154094 l 6.211783011038735 2.5028155783442627" fill="#ff4306" stroke="none" /><path d="M 80.52162464483688 92.15188598940014 l -13.160532751617719 -5.3025655164588175 a35.18861597770342,35.18861597770342 0 0,0 0.23120313682918273,-0.5598767347001729 l 13.067307927902336 5.528316821612301" fill="#ffaa0f" stroke="none" /><path d="M 81.26839172434947 90.50648371742162 l -25.823529396902824 -13.087829576375468 a49.95075048306957,49.95075048306957 0 0,0 0.3953020731837638,-0.7635977832682407 l 25.594417890558947 13.530400081904043" fill="#9fff22" stroke="none" /><line stroke="#e1ed5e" stroke-width="0.3" x1="26.266209847984243" x2="21.928928074336255" y1="57.711370442889674" y2="55.22380399835377" /><path d="M 25.398753493254645 57.213857153982495 a86.0,86.0 0 0,1 29.58750427330803,-30.492523968695096" fill="none" id="id83" stroke="none" /><text fill="#e1ed5e" style="font-size:6.75px; font-family:Arial;" text-anchor="middle"><textPath startOffset="21.46611528233685" xlink:href="#id83">November</textPath></text><path d="M 82.15384107792192 88.93136811851018 l -35.83524198641066 -22.225908872804116 a63.16818224024842,63.16818224024842 0 0,0 0.5810642668629465,-0.9191041272916676 l 35.44735012330175 22.83946064781" fill="#33ff4f" stroke="none" /><path d="M 83.84228863543731 86.58626213691792 l -21.046853054511775 -17.472584040287455 a48.354363756869205,48.354363756869205 0 0,0 0.5371695169552596,-0.6358392760875081 l 20.74297292406939 17.83228226600408" fill="#b1ff20" stroke="none" /><path d="M 85.57189188830299 84.74124197986013 l -43.28432433509105 -45.776274060419595 a84.0,84.0 0 0,0 1.0591684648205755,-0.98438165570141 l 42.48994798647562 46.514560302195655" fill="#4dd2ff" stroke="none" /><path d="M 87.22198572758235 83.33499621200491 l -6.134820202168472 -8.000992934284987 a31.082257031409817,31.082257031409817 0 0,0 0.427386727032853,-0.3218988221450784 l 5.996187321377229 8.10540834593592" fill="#ff720a" stroke="none" /><line stroke="#e1ed5e" stroke-width="0.3" x1="56.762969772571076" x2="54.21961505331055" y1="26.818313649435495" y2="22.513508569990535" /><path d="M 56.25429882871897 25.957352633546506 a86.0,86.0 0 0,1 42.265352541879196,-11.944610805530505" fill="none" id="id84" stroke="none" /><text fill="#e1ed5e" style="font-size:6.75px; font-family:Arial;" text-anchor="middle"><textPath startOffset="22.20632615414155" xlink:href="#id84">December</textPath></text><path d="M 89.3179101791058 81.91981866633112 l -7.225486618003989 -12.229639561912444 a35.20463799895121,35.20463799895121 0 0,0 0.524386942783214,-0.30375876409515845 l 7.013902942755456 12.352202483397651" fill="#ffaa0f" stroke="none" /><path d="M 90.26544431104013 81.39251694778311 l -1.583572541179316 -3.0269793674680385 a24.416182969961405,24.416182969961405 0 0,0 0.3740786096999482,-0.19161759318034075 l 1.531233443890604 3.0537894859608845" fill="#ff1302" stroke="none" /><path d="M 96.75951476605007 79.25152402106235 l -1.0951282598830867 -7.011987635673692 a28.096990665657895,28.096990665657895 0 0,0 0.47849311517361764,-0.0705174469789495 l 0.9742661642808202 7.029799566813611" fill="#ff4906" stroke="none" /></svg>