<?xml version="1.0" encoding="utf-8" ?>
<svg baseProfile="full" height="200mm" version="1.1" viewBox="0,0,200,200" width="200mm" xmlns="http://www.w3.org/2000/svg" xmlns:ev="http://www.w3.org/2001/xml-events" xmlns:xlink="http://www.w3.org/1999/xlink"><defs /><rect fill="#1a1a1a" height="200" width="200" x="0" y="0" /><rect fill="#1a1a1a" height="200" width="180" x="10" y="0" /><text alignment-baseline="middle" fill="#e1ed5e" style="dominant-baseline: central; font-size:9.0px; font-family:Arial;" text-anchor="middle" x="100.0" y="100.0">2019</text><line stroke="#e1ed5e" stroke-width="0.3" x1="100.0" x2="100.0" y1="15.0" y2="10.0" /><path d="M 100.0 14.0 a86.0,86.0 0 0,1 42.46469731375804,11.215312516191453" fill="none" id="id85" stroke="none" /><text fill="#e1ed5e" style="font-size:6.75px; font-family:Arial;" text-anchor="middle"><textPath startOffset="22.20632615414155" xlink:href="#id85">January</textPath></text><path d="M 100.0 79.0 l 0.0 -7.279024600815333 a28.279024600815333,28.279024600815333 0 0,0 0.4867769221934451,0.0041898426502779825 l -0.1252964429209167 7.2779461347736145" fill="#ff4e07" stroke="none" /><path d="M 108.76106565485865 80.91482961587045 l 3.061087552332166 -6.668295821364901 a28.337330997322905,28.337330997322905 0 0,0 0.4415520064733023,0.20731458760522323 l -3.1754177701050663 6.614616251119675" fill="#ff4f07" stroke="none" /><line stroke="#e1ed5e" stroke-width="0.3" x1="143.23703022742887" x2="145.7803849466894" y1="26.81831364943548" y2="22.513508569990506" /><path d="M 143.74570117128098 25.957352633546492 a86.0,86.0 0 0,1 28.547481713284135,27.462654790039103" fill="none" id="id86" stroke="none" /><text fill="#e1ed5e" style="font-size:6.75px; font-family:Arial;" text-anchor="middle"><textPath startOffset="19.985693538727396" xlink:href="#id86">February</textPath></text><path d="M 115.19652480421416 85.50635884689758 l 3.4113760814862166 -3.253589975362442 a25.714163181002036,25.714163181002036 0 0,0 0.3027324488822692,0.32293386905802474 l -3.466875852338949 3.1943866894263624" fill="#ff2a04" stroke="none" /><path d="M 116.82858285166822 87.43820079747576 l 5.8199871868211845 -4.344365241358655 a28.2626276377829,28.2626276377829 0 0,0 0.287656199752376,0.3923627331877015 l -5.8939059990871865 4.243540064499459" fill="#ff4e07" stroke="none" /><line stroke="#e1ed5e" stroke-width="0.3" x1="172.23445277983987" x2="176.4835382374775" y1="55.19839476539836" y2="52.563006222186495" /><path d="M 173.08426987136738 54.67131705675599 a86.0,86.0 0 0,1 12.851231095245387,41.99856678651699" fill="none" id="id87" stroke="none" /><text fill="#e1ed5e" style="font-size:6.75px; font-family:Arial;" text-anchor="middle"><textPath startOffset="22.20632615414155" xlink:href="#id87">March</textPath></text><path d="M 118.21658344932153 89.55222093294921 l 3.740353377634331 -2.1452093819313935 a25.31186348136244,25.31186348136244 0 0,0 0.21351443811297482,0.37981836082174286 l -3.7767254570397393 2.080507511174857" fill="#ff2403" stroke="none" /><path d="M 119.196687751892 91.48605970444005 l 13.148303671769844 -5.831416018021493 a35.38343847000132,35.38343847000132 0 0,0 0.2421394678975749,0.558891276569845 l -13.246733849510099 5.604225596865045" fill="#ffaf10" stroke="none" /><path d="M 120.08093135843002 93.85539295169968 l 10.41204989300976 -3.1860053708606615 a31.888590964751938,31.888590964751938 0 0,0 0.15609329050445483,0.5262689774496736 l -10.465349080625916 3.006307006664458" fill="#ff800b" stroke="none" /><line stroke="#e1ed5e" stroke-width="0.3" x1="184.98032266829074" x2="189.97916517819016" y1="98.17113171792111" y2="98.06355123074" /><path d="M 185.9800911702706 98.14961562048488 a86.0,86.0 0 0,1 -9.607161424134198,41.387399972396054" fill="none" id="id88" stroke="none" /><text fill="#e1ed5e" style="font-size:6.75px; font-family:Arial;" text-anchor="middle"><textPath startOffset="21.466115282336823" xlink:href="#id88">April</textPath></text><path d="M 120.99513854157772 99.54816195383933 l 5.30616634076297 -0.1141944277845986 a26.3073949921956,26.3073949921956 0 0,0 0.005846496437143925,0.45281759212192696 l -5.30734584431783 0.022840577602208926" fill="#ff3204" stroke="none" /><path d="M 120.99980553446 99.90962569577887 l 5.494427946856705 -0.023645700050673145 a26.494478827180142,26.494478827180142 0 0,0 -0.001962739644030913,0.4560715702837513 l -5.4940209099231705 -0.07093534843676286" fill="#ff3505" stroke="none" /><path d="M 120.99824983174949 100.27111621757518 l 3.105098161257558 0.040091077848161426 a24.105356965884614,24.105356965884614 0 0,0 -0.008928093116008068,0.41485340483263794 l -3.1039480054565423 -0.0935342984709142" fill="#ff1202" stroke="none" /><path d="M 120.92983693683757 101.71520430193887 l 6.28491677423175 0.5150501803249536 a27.305985691965404,27.305985691965404 0 0,0 -0.04242232415489408,0.46812681205399925 l -6.27511985379978 -0.6231583809275235" fill="#ff4106" stroke="none" /><path d="M 120.64145759157962 103.86396538481128 l 2.519686085163003 0.4716711390397227 a23.56345306786902,23.56345306786902 0 0,0 -0.07806242901221146,0.3980386437478693 l -2.5111937231751273 -0.5149735098555369" fill="#ff0a01" stroke="none" /><path d="M 120.49622156327973 104.57218783832717 l 2.838768802644116 0.6332574106500382 a23.908543151305942,23.908543151305942 0 0,0 -0.09306051364822403,0.4009022571766254 l -2.827447723065339 -0.6820283251752285" fill="#ff0f01" stroke="none" /><path d="M 119.41010516605496 108.01547362559984 l 6.675204110657957 2.756549850541029 a28.22197459130553,28.22197459130553 0 0,0 -0.18928749666671296,0.44741972749751785 l -6.626765632798936 -2.8710441037047105" fill="#ff4d07" stroke="none" /><line stroke="#e1ed5e" stroke-width="0.3" x1="174.80103733775053" x2="179.2010983576182" y1="140.37084112569926" y2="142.7455964860345" /><path d="M 175.68104954172406 140.8457921977663 a86.0,86.0 0 0,1 -30.038265399797805,32.042727171017184" fill="none" id="id89" stroke="none" /><text fill="#e1ed5e" style="font-size:6.75px; font-family:Arial;" text-anchor="middle"><textPath startOffset="22.206326154141568" xlink:href="#id89">May</textPath></text><path d="M 118.12598468904814 110.60418214915192 l 7.383973153268054 4.319820282591999 a29.554759307080275,29.554759307080275 0 0,0 -0.2606717446574799,0.4369008378566751 l -7.308520532912347 -4.446283214334778" fill="#ff6008" stroke="none" /><path d="M 113.20401910651253 116.32954008644616 l 9.14375947423828 11.308177129322013 a35.542462216242605,35.542462216242605 0 0,0 -0.4790489343182915,0.3805854459612938 l -8.947753047202639 -11.463896489288434" fill="#ffb110" stroke="none" /><path d="M 112.04921762599082 117.19931262002967 l 1.88239684798026 2.6869737827238103 a24.28073863669923,24.28073863669923 0 0,0 -0.34437384948628685,0.23686347384507928 l -1.8358661138710899 -2.7189780459339836" fill="#ff1502" stroke="none" /><line stroke="#e1ed5e" stroke-width="0.3" x1="143.8653032363475" x2="146.44561519142675" y1="172.8068346515853" y2="177.08958963109032" /><path d="M 144.38136562736335 173.6633856474863 a86.0,86.0 0 0,1 -40.68145358897372,12.25698825130547" fill="none" id="id90" stroke="none" /><text fill="#e1ed5e" style="font-size:6.75px; font-family:Arial;" text-anchor="middle"><textPath startOffset="21.466115282336833" xlink:href="#id90">June</textPath></text><path d="M 109.89434966115114 118.52300852407294 l 6.9399690715440405 12.992173378887536 a35.7295532797523,35.7295532797523 0 0,0 -0.5449762363889975,0.28510580971113303 l -6.715301932628547 -13.109708607543384" fill="#ffb410" stroke="none" /><path d="M 108.59647513512805 119.15986991738527 l 2.7702307457676514 6.174305153650489 a27.76729063327351,27.76729063327351 0 0,0 -0.4377702785450603,0.19190562523156474 l -2.663539792564837 -6.221075332176508" fill="#ff4706" stroke="none" /><path d="M 103.41894727170886 120.7198165907248 l 1.0836174173172362 6.567037265276653 a27.655839928261912,27.655839928261912 0 0,0 -0.4703654373408931,0.0734614077588546 l -0.970416116367826 -6.5847169803826135" fill="#ff4506" stroke="none" /><path d="M 102.70371172650421 120.8252237178851 l 0.87833775699178 6.765358935980019 a27.822137403189856,27.822137403189856 0 0,0 -0.4754572450524439,0.05757125098029777 l -0.7617530888879558 -6.779475715685667" fill="#ff4806" stroke="none" /><line stroke="#e1ed5e" stroke-width="0.3" x1="102.19456741930631" x2="102.32365962044197" y1="184.97166512339345" y2="189.96999836594603" /><path d="M 102.22038585953345 185.97133177190398 a86.0,86.0 0 0,1 -42.740103519485714,-10.115201625700543" fill="none" id="id91" stroke="none" /><text fill="#e1ed5e" style="font-size:6.75px; font-family:Arial;" text-anchor="middle"><textPath startOffset="22.20632615414155" xlink:href="#id91">July</textPath></text><path d="M 97.2962882734958 120.8252237178851 l -0.42242096257071576 3.2536793632336507 a24.28098595979192,24.28098595979192 0 0,0 -0.41401556428549846,-0.05737878469155399 l 0.4783651180430453 -3.245926013049492" fill="#ff1502" stroke="none" /><path d="M 94.81253420990036 120.34920634021253 l -0.6152094335411776 2.4133216896519 a23.4905028056323,23.4905028056323 0 0,0 -0.3909597730348578,-0.10325602943658797 l 0.6566596493875246 -2.40237431091173" fill="#ff0901" stroke="none" /><path d="M 92.7421414339146 119.70592522655815 l -2.3317756146068938 6.331040414767771 a27.74679555420929,27.74679555420929 0 0,0 -0.4467627550168738,-0.16892744597805465 l 2.4404085903840507 -6.289964718683083" fill="#ff4706" stroke="none" /><path d="M 91.40352486487194 119.15986991738527 l -0.764138151862482 1.703115213905433 a22.866683836906496,22.866683836906496 0 0,0 -0.3577351176710308,-0.16421864672325417 l 0.7933412653009323 -1.6897094968481046" fill="#ff0000" stroke="none" /><line stroke="#e1ed5e" stroke-width="0.3" x1="58.666819895761336" x2="56.23545636021788" y1="174.27360380694188" y2="178.64263932499728" /><path d="M 58.180547188652646 175.14741091055294 a86.0,86.0 0 0,1 -31.652253787137756,-30.449443065178592" fill="none" id="id92" stroke="none" /><text fill="#e1ed5e" style="font-size:6.75px; font-family:Arial;" text-anchor="middle"><textPath startOffset="22.20632615414155" xlink:href="#id92">August</textPath></text><path d="M 89.1626897886671 117.98757091392108 l -1.989135074199594 3.3015303158081544 a24.854446882447768,24.854446882447768 0 0,0 -0.36455650542721413,-0.22394038098859903 l 2.0456707795591167 -3.266801467991177" fill="#ff1d03" stroke="none" /><path d="M 88.54995079064634 117.60387380957326 l -2.505095573496112 3.8514582383384717 a25.594478685772206,25.594478685772206 0 0,0 -0.36725066669447315,-0.2433937163183229 l 2.5710209389305465 -3.8077665009288304" fill="#ff2803" stroke="none" /><path d="M 88.24862548938628 117.40417183066458 l -3.5874570078082373 5.31314172164492 a27.410875348745783,27.410875348745783 0 0,0 -0.3887685956706697,-0.2673985850836033 l 3.6783824881017972 -5.2506023471962155" fill="#ff4206" stroke="none" /><path d="M 87.65650970185807 116.9893568818739 l -3.4334095891947984 4.725682884140081 a26.841265284904402,26.841265284904402 0 0,0 -0.3714511954655074,-0.2747907142614818 l 3.51424575507887 -4.665882221138832" fill="#ff3a05" stroke="none" /><path d="M 83.50135304334701 112.99209946851258 l -4.780300620271345 3.764317238324428 a27.084517917708276,27.084517917708276 0 0,0 -0.28528146296819745,-0.3687647472146047 l 4.84438890045761 -3.6814744969965703" fill="#ff3d05" stroke="none" /><path d="M 83.06392112726016 112.41649034213515 l -4.438235203973796 3.253840806974811 a26.50321830594851,26.50321830594851 0 0,0 -0.26657215587128785,-0.37024540944559564 l 4.493587152220691 -3.176961792078077" fill="#ff3505" stroke="none" /><path d="M 82.44556493220864 111.52570212397912 l -2.5908437198426304 1.7010682969500537 a24.099371634950632,24.099371634950632 0 0,0 -0.2246923696091671,-0.3487275473965347 l 2.619740952828843 -1.6562191496320708" fill="#ff1202" stroke="none" /><path d="M 82.05923443525364 110.91462005526583 l -7.085641342712553 4.31069024476629 a29.29387506681169,29.29387506681169 0 0,0 -0.25837075653715524,-0.43304424941442277 l 7.158792974947941 -4.188083901465756" fill="#ff5d08" stroke="none" /><line stroke="#e1ed5e" stroke-width="0.3" x1="26.63291911575756" x2="22.317208475507996" y1="142.92168965132927" y2="145.44649492493687" /><path d="M 25.769776987707644 143.4266507060508 a86.0,86.0 0 0,1 -11.730757126820373,-40.83630448921669" fill="none" id="id93" stroke="none" /><text fill="#e1ed5e" style="font-size:6.75px; font-family:Arial;" text-anchor="middle"><textPath startOffset="21.46611528233685" xlink:href="#id93">September</textPath></text><path d="M 81.51974371655577 109.97397251340807 l -6.417668411594512 3.4636775245782014 a28.29270387685159,28.29270387685159 0 0,0 -0.22761815978714847,-0.43056777817411024 l 6.4763390796065465 -3.352694731317965" fill="#ff4e07" stroke="none" /><path d="M 81.35079622478065 109.6543875284942 l -12.919877755039366 6.688409230299942 a35.54847274586314,35.54847274586314 0 0,0 -0.27663708110455226,-0.5458312055859742 l 13.033093505930184 -6.465023813011283" fill="#ffb110" stroke="none" /><path d="M 81.18737489456691 109.33194174019688 l -6.483274725991653 3.2160074253099404 a28.237095752602063,28.237095752602063 0 0,0 -0.21224445748602797,-0.4372864471529495 l 6.5376724400924004 -3.103932022191706" fill="#ff4e07" stroke="none" /><path d="M 81.02952815118164 109.00673069616217 l -12.294355492907156 5.837068781944614 a34.60964911197672,34.60964911197672 0 0,0 -0.25087938557665757,-0.5403718772542061 l 12.393009495323641 -5.624576837411581" fill="#ffa50f" stroke="none" /><path d="M 80.87730276802145 108.67885076344099 l -13.353572019788487 6.060528873761528 a35.66451144489223,35.66451144489223 0 0,0 -0.24890248147391708,-0.5612093873876154 l 13.455915585993683 -5.829771149881217" fill="#ffb310" stroke="none" /><path d="M 80.0844068197444 106.66101706037122 l -8.190328340615048 2.7393568603804246 a29.63629285837363,29.63629285837363 0 0,0 -0.15764778873486307,-0.4851900040613725 l 8.23626838036616 -2.5979679563412486" fill="#ff6109" stroke="none" /><path d="M 79.86692584326677 105.97154293290107 l -14.060022638485306 4.17025379083486 a35.665444189477924,35.665444189477924 0 0,0 -0.1695082828017911,-0.5900805698305785 l 14.1297235581732 -3.927615745499685" fill="#ffb310" stroke="none" /><path d="M 79.67330655649465 105.27499134158121 l -7.0121432729239395 1.8197251389364169 a28.244415287743355,28.244415287743355 0 0,0 -0.1180733379340736,-0.4716442920909666 l 7.042427925153072 -1.6987530074480583" fill="#ff4e07" stroke="none" /><path d="M 79.58551787078972 104.9243191809786 l -7.0438575683743645 1.6990978616301047 a28.245885935269808,28.245885935269808 0 0,0 -0.10994298719709741,-0.47363151136978954 l 7.072061121502017 -1.5775976929117408" fill="#ff4e07" stroke="none" /><path d="M 79.35854240842038 103.8639653848113 l -7.152231444220204 1.3388577139968767 a28.27646580490977,28.27646580490977 0 0,0 -0.0854401120664667,-0.4791935226428978 l 7.17421799862586 -1.2155454406207653" fill="#ff4e07" stroke="none" /><path d="M 79.29508885075956 103.50808413554451 l -17.604339504157593 2.9827466385210903 a38.855238639885286,38.855238639885286 0 0,0 -0.10605305298626722,-0.6603924621810412 l 17.653074311505154 -2.6792749466468355" fill="#ffdc14" stroke="none" /><path d="M 79.04373962182676 101.35467743843564 l -11.603176472744643 0.750065188070764 a32.627394464969804,32.627394464969804 0 0,0 -0.03140565253185677,-0.5607690230803902 l 11.61436847616403 -0.5502244486549362" fill="#ff8a0c" stroke="none" /><line stroke="#e1ed5e" stroke-width="0.3" x1="15.007084014347285" x2="10.007500721073583" y1="101.09737516637583" y2="101.16192664675087" /><path d="M 14.007167355692545 101.11028546245083 a86.0,86.0 0 0,1 10.666146001902534,-42.60595125391555" fill="none" id="id94" stroke="none" /><text fill="#e1ed5e" style="font-size:6.75px; font-family:Arial;" text-anchor="middle"><textPath startOffset="22.20632615414155" xlink:href="#id94">October</textPath></text><path d="M 79.12142395522702 97.74499172005258 l -7.484965849403298 -0.8084200727737734 a28.528496316051246,28.528496316051246 0 0,0 0.05693424809257723,-0.48777786849782445 l 7.469941248307132 0.9371416795964596" fill="#ff5207" stroke="none" /><path d="M 79.3925641242962 95.95851677861259 l -14.415409936472553 -2.8271172473409654 a35.69001822894595,35.69001822894595 0 0,0 0.12342067869489207,-0.6018430612781757 l 14.364609961862667 3.0748359647825434" fill="#ffb310" stroke="none" /><path d="M 79.91906864156998 93.8553929516997 l -7.44479969141255 -2.2780501481986035 a28.785534979881863,28.785534979881863 0 0,0 0.14906043218384282,-0.4725623044590903 l 7.404483775460504 2.4058626190841084" fill="#ff5507" stroke="none" /><path d="M 80.02781315780177 93.51064311812611 l -7.375258892086263 -2.396366878855708 a28.75480611900608,28.75480611900608 0 0,0 0.15700494698443979,-0.46942480751662274 l 7.332916651330051 2.522964789294653" fill="#ff5507" stroke="none" /><path d="M 80.2630227832202 92.82701384747504 l -13.597045111110411 -4.941557930883852 a35.467156961125866,35.467156961125866 0 0,0 0.21347075708470797,-0.5719954980039078 l 13.509969765524076 5.174876565917102" fill="#ffb010" stroke="none" /><path d="M 80.65960295795068 91.81776055985345 l -6.7406723687884424 -2.851740591937851 a28.31909068034097,28.31909068034097 0 0,0 0.19379601997964552,-0.44730793348565545 l 6.690585638966117 2.9673476700101062" fill="#ff4f07" stroke="none" /><path d="M 80.803312248108 91.48605970444005 l -13.548224538282456 -6.008785282159332 a35.82092739024159,35.82092739024159 0 0,0 0.2548363598250528,-0.5614981390349413 l 13.442785861494052 6.2411054300363435" fill="#ffb510" stroke="none" /><path d="M 80.95270993114464 91.15688171328213 l -13.212240329984485 -6.134069657585599 a35.56674655169715,35.56674655169715 0 0,0 0.26258726783560865,-0.553075754164174 l 13.104694868307124 6.360587827390305" fill="#ffb210" stroke="none" /><line stroke="#e1ed5e" stroke-width="0.3" x1="26.266209847984243" x2="21.928928074336255" y1="57.711370442889674" y2="55.22380399835377" /><path d="M 25.398753493254645 57.213857153982495 a86.0,86.0 0 0,1 29.58750427330803,-30.492523968695096" fill="none" id="id95" stroke="none" /><text fill="#e1ed5e" style="font-size:6.75px; font-family:Arial;" text-anchor="middle"><textPath startOffset="21.46611528233685" xlink:href="#id95">November</textPath></text><path d="M 82.34701348167596 88.62581576622439 l -12.381590470166747 -7.977714760539407 a35.729145099816634,35.729145099816634 0 0,0 0.3375610763613665,-0.5141286780326402 l 12.24243275844746 8.189661502549715" fill="#ffb410" stroke="none" /><path d="M 83.17141714833178 87.43820079747576 l -20.536077398289056 -15.329281316116933 a46.626496845592655,46.626496845592655 0 0,0 0.4856350801521813,-0.6390388399760408 l 20.269166377912768 15.680504931974001" fill="#c4ff1e" stroke="none" /><path d="M 83.6137871275137 86.86637796730984 l -24.674041454495523 -19.776353267471183 a52.62139260465898,52.62139260465898 0 0,0 0.5725746456764164,-0.7019088136111034 l 24.32996831674271 20.198146250690368" fill="#80ff25" stroke="none" /><path d="M 85.31137513191541 84.99185889309783 l -23.979063135239812 -24.50067085088028 a55.282332782163344,55.282332782163344 0 0,0 0.6858082867594075,-0.6597470284973495 l 23.553771604867975 24.90980096613994" fill="#64ff29" stroke="none" /><path d="M 86.93701828274178 83.55741782278169 l -10.41384216843006 -13.108068229841475 a37.7412532812556,37.7412532812556 0 0,0 0.5121442148876357,-0.3997366832167256 l 10.186665398383 13.285383302281423" fill="#ffce13" stroke="none" /><path d="M 87.22198572758235 83.33499621200491 l -4.40526186274829 -5.745314104733769 a28.239818108311653,28.239818108311653 0 0,0 0.38830267123516465,-0.29246152161571193 l 4.305713037754735 5.820292215855335" fill="#ff4e07" stroke="none" /><path d="M 89.00827224532344 82.1063720568725 l -6.743730065969279 -10.978237402031413 a33.884082879973235,33.884082879973235 0 0,0 0.4996094005268971,-0.30100907364972196 l 6.553758599224732 11.092693085139754" fill="#ff9b0e" stroke="none" /><line stroke="#e1ed5e" stroke-width="0.3" x1="56.762969772571076" x2="54.21961505331055" y1="26.818313649435495" y2="22.513508569990535" /><path d="M 56.25429882871897 25.957352633546506 a86.0,86.0 0 0,1 42.265352541879196,-11.944610805530505" fill="none" id="id96" stroke="none" /><text fill="#e1ed5e" style="font-size:6.75px; font-family:Arial;" text-anchor="middle"><textPath startOffset="22.20632615414155" xlink:href="#id96">December</textPath></text><path d="M 91.56875222667455 80.76684994638697 l -25.293743319976343 -57.69945016083907 a84.0,84.0 0 0,0 1.329264968838767,-0.5691218881488553 l 24.29679459334727 58.12629157695071" fill="#4dd2ff" stroke="none" /><path d="M 97.11714578562143 79.19881850522333 l -0.5901649079342449 -4.258324025044274 a25.299025252406214,25.299025252406214 0 0,0 0.4318727588616859,-0.05606947893142071 l 0.5167774205647012 4.267851827139832" fill="#ff2403" stroke="none" /></svg>