<?xml version="1.0" encoding="utf-8" ?>
<svg baseProfile="full" height="200mm" version="1.1" viewBox="0,0,200,200" width="200mm" xmlns="http://www.w3.org/2000/svg" xmlns:ev="http://www.w3.org/2001/xml-events" xmlns:xlink="http://www.w3.org/1999/xlink"><defs /><rect fill="#1a1a1a" height="200" width="200" x="0" y="0" /><text alignment-baseline="middle" fill="#e1ed5e" style="dominant-baseline: central; font-size:9.0px; font-family:Arial;" text-anchor="middle" x="100.0" y="100.0">2015</text><line stroke="#e1ed5e" stroke-width="0.3" x1="100.0" x2="100.0" y1="15.0" y2="10.0" /><path d="M 100.0 14.0 a86.0,86.0 0 0,1 42.46469731375804,11.215312516191453" fill="none" id="id37" stroke="none" /><text fill="#e1ed5e" style="font-size:6.75px; font-family:Arial;" text-anchor="middle"><textPath startOffset="22.20632615414155" xlink:href="#id37">January</textPath></text><path d="M 100.72285384407766 79.0124445844662 l 0.24745139633565727 -7.18457809389178 a28.188838194087978,28.188838194087978 0 0,0 0.48479320657564917,0.020876215264746666 l -0.371085435300638 7.179254152102838" fill="#ff4f07" stroke="none" /><path d="M 101.80526077348638 79.07773832637324 l 0.4761661514185931 -5.518578238901048 a26.53908295502324,26.53908295502324 0 0,0 0.4547975764562121,0.043188509954973066 l -0.5710888549650494 5.5095641844308965" fill="#ff3705" stroke="none" /><path d="M 102.16513564639614 79.11191278185805 l 0.9720710956552779 -9.378029437591787 a30.42827440984545,30.42827440984545 0 0,0 0.5205166344171167,0.05848610876611086 l -1.1333544335821197 9.359907375355075" fill="#ff6e0a" stroke="none" /><path d="M 105.71112130821622 79.79150937346287 l 5.988090177584397 -21.18852983397214 a43.01842456898336,43.01842456898336 0 0,0 0.710848292550671,0.207516109339177 l -6.351928687858495 21.08231539571426" fill="#edff19" stroke="none" /><path d="M 108.09893153111575 80.62456947434976 l 2.82829967204674 -6.766265845182607 a28.333596152133303,28.333596152133303 0 0,0 0.44836734293160585,0.19196749690653236 l -2.9443507727686606 6.716578820313283" fill="#ff5107" stroke="none" /><path d="M 108.43124777332544 80.76684994638697 l 7.0180411127966895 -16.009378615569492 a38.480077365891674,38.480077365891674 0 0,0 0.6043532189548949,0.27115567287156933 l -7.292576450218364 15.886202612181393" fill="#ffd814" stroke="none" /><path d="M 109.08828744355905 81.06846463323043 l 1.1430571451579739 -2.38106759982962 a23.64122368459301,23.64122368459301 0 0,0 0.36534554136590197,0.17927347046998246 l -1.1838739535343075 2.3610389692248055" fill="#ff0d01" stroke="none" /><path d="M 109.41281617654863 81.2277094730956 l 3.091683863056307 -6.16584735174503 a27.897549033831073,27.897549033831073 0 0,0 0.4274163725530282,0.21893926696363758 l -3.197360723198091 6.111715559468891" fill="#ff4a06" stroke="none" /><path d="M 110.36928655335952 81.73862282372117 l 3.5827166646204134 -6.309531518074985 a28.255759552006285,28.255759552006285 0 0,0 0.42088066259721796,0.24380124574333026 l -3.69079405968296 6.246926114941606" fill="#ff4f07" stroke="none" /><line stroke="#e1ed5e" stroke-width="0.3" x1="143.23703022742887" x2="145.7803849466894" y1="26.81831364943548" y2="22.513508569990506" /><path d="M 143.74570117128098 25.957352633546492 a86.0,86.0 0 0,1 28.547481713284135,27.462654790039103" fill="none" id="id38" stroke="none" /><text fill="#e1ed5e" style="font-size:6.75px; font-family:Arial;" text-anchor="middle"><textPath startOffset="19.985693538727396" xlink:href="#id38">February</textPath></text><path d="M 110.68208982089419 81.91981866633111 l 13.961006489231316 -23.629976264766178 a48.44604671834856,48.44604671834856 0 0,0 0.7143206574187263,0.43037020350639443 l -14.36568921286768 23.386159451801166" fill="#aeff20" stroke="none" /><path d="M 112.48926042617603 83.11751280151076 l 2.4750550191608562 -3.3456812694019145 a25.161667995443672,25.161667995443672 0 0,0 0.34597754340661707,0.2605831128271742 l -2.532278716325856 3.3025815670688927" fill="#ff2303" stroke="none" /><path d="M 114.68862486808459 84.99185889309783 l 43.55256056879613 -44.499943354372824 a83.26612635005526,83.26612635005526 0 0,0 1.0157047918870727,1.0113430327207988 l -44.31210116085053 43.74366447100191" fill="#4cd9ff" stroke="none" /><path d="M 116.15771136456269 86.58626213691792 l 4.142201569287236 -3.4387547080662904 a26.383573885705825,26.383573885705825 0 0,0 0.2870803055855839,0.35192650989050056 l -4.200780366949228 3.366944028567689" fill="#ff3505" stroke="none" /><path d="M 117.45458315368197 88.32363383020206 l 4.469821256986428 -2.99011836894601 a26.377742084715116,26.377742084715116 0 0,0 0.24921108482230206,0.37956557957413334 l -4.5206289771666555 2.912734725394203" fill="#ff3505" stroke="none" /><line stroke="#e1ed5e" stroke-width="0.3" x1="172.23445277983987" x2="176.4835382374775" y1="55.19839476539836" y2="52.563006222186495" /><path d="M 173.08426987136738 54.67131705675599 a86.0,86.0 0 0,1 12.851231095245387,41.99856678651699" fill="none" id="id39" stroke="none" /><text fill="#e1ed5e" style="font-size:6.75px; font-family:Arial;" text-anchor="middle"><textPath startOffset="22.20632615414155" xlink:href="#id39">March</textPath></text><path d="M 117.84615892207809 88.93136811851018 l 3.689265922701004 -2.2881745360220775 a25.341247027721728,25.341247027721728 0 0,0 0.2267247603921475,0.3726758928228919 l -3.7281064813793754 2.2243308699921043" fill="#ff2603" stroke="none" /><path d="M 119.04729006885535 91.15688171328212 l 6.669740591120162 -3.0965719940098393 a28.35351600711673,28.35351600711673 0 0,0 0.2017118855907568,0.4444454019755763 l -6.722054793674266 2.9813045831922" fill="#ff5107" stroke="none" /><path d="M 119.34039704204932 91.81776055985345 l 3.1205703934018776 -1.3202032043671499 a24.38834710161129,24.38834710161129 0 0,0 0.16024109489115346,0.3880365214885625 l -3.1428331751792284 1.2662921124252844" fill="#ff1802" stroke="none" /><path d="M 119.61058180528143 92.48833698450437 l 5.870803941828759 -2.2487604538680444 a27.286752937906254,27.286752937906254 0 0,0 0.16423430314481652,0.44006628026979594 l -5.908642833475201 2.147371036568915" fill="#ff4206" stroke="none" /><path d="M 119.97218684219823 93.5106431181261 l 59.27718227953257 -19.260324059808344 a83.32771792621452,83.32771792621452 0 0,0 0.43149677974217004,1.3679627089108926 l -59.59993454304295 18.237111184471033" fill="#4cd8ff" stroke="none" /><path d="M 120.53481517161879 95.60439243477599 l 2.8529351559214073 -0.610688883715583 a23.917564038129427,23.917564038129427 0 0,0 0.08271001621176709,0.4033234129129601 l -2.863024468048171 0.5614898146392112" fill="#ff1101" stroke="none" /><path d="M 120.73433829027371 96.67025291283417 l 1.7276701837020303 -0.27744819637980106 a22.74980620793487,22.74980620793487 0 0,0 0.058763948198976,0.387180996744002 l -1.7321900253403062 0.24766808724371692" fill="#ff0000" stroke="none" /><path d="M 120.87857604477298 97.74499172005257 l 2.44810177804535 -0.26440930491657544 a23.462339252864087,23.462339252864087 0 0,0 0.03991153315861793,0.4019036921985256 l -2.4522904368861966 0.22223008201361485" fill="#ff0b01" stroke="none" /><path d="M 120.94382443527127 98.46500227214037 l 7.383489714417793 -0.5411447164453607 a28.4032937242183,28.4032937242183 0 0,0 0.03154038205603642,0.48791575030335244 l -7.391710687478246 0.413969901888973" fill="#ff5207" stroke="none" /><line stroke="#e1ed5e" stroke-width="0.3" x1="184.98032266829074" x2="189.97916517819016" y1="98.17113171792111" y2="98.06355123074" /><path d="M 185.9800911702706 98.14961562048488 a86.0,86.0 0 0,1 -9.607161424134198,41.387399972396054" fill="none" id="id40" stroke="none" /><text fill="#e1ed5e" style="font-size:6.75px; font-family:Arial;" text-anchor="middle"><textPath startOffset="21.466115282336823" xlink:href="#id40">April</textPath></text><path d="M 120.99513854157772 99.54816195383933 l 8.826702683109202 -0.1899601703736831 a29.828746520448732,29.828746520448732 0 0,0 0.006629073699923869,0.5134290635546358 l -8.828664763926842 0.03799484875858463" fill="#ff6509" stroke="none" /><path d="M 120.76222939487914 103.15116336523771 l 14.440414959940107 2.191677287402335 a35.60578767295271,35.60578767295271 0 0,0 -0.09718387066657676,0.6051640554100223 l -14.400549334912242 -2.4399205725055624" fill="#ffb310" stroke="none" /><path d="M 120.5718875245553 104.21870165774334 l 2.0464279755049786 0.4196634403338165 a23.08901528526773,23.08901528526773 0 0,0 -0.08319297792694333,0.38864989650623727 l -2.038900958853592 -0.4548271562562228" fill="#ff0500" stroke="none" /><path d="M 120.41448212921028 104.9243191809786 l 4.619585891504531 1.1143224339335174 a25.752082521984992,25.752082521984992 0 0,0 -0.10765435613191414,0.4300256389524302 l -4.599720221077557 -1.1936759122833436" fill="#ff2c04" stroke="none" /><path d="M 118.97047184881838 109.00673069616215 l 1.6854277739477994 0.8002011857562431 a22.865740796273784,22.865740796273784 0 0,0 -0.1718706057039946,0.35410435414207575 l -1.6714039116290906 -0.8290944958635943" fill="#ff0200" stroke="none" /><path d="M 118.64920377521936 109.65438752849418 l 2.5246036732635506 1.3069459968008494 a23.842838642204228,23.842838642204228 0 0,0 -0.19181846597138097,0.36284824894155104 l -2.5017326990672766 -1.3502092608285348" fill="#ff1001" stroke="none" /><line stroke="#e1ed5e" stroke-width="0.3" x1="174.80103733775053" x2="179.2010983576182" y1="140.37084112569926" y2="142.7455964860345" /><path d="M 175.68104954172406 140.8457921977663 a86.0,86.0 0 0,1 -30.038265399797805,32.042727171017184" fill="none" id="id41" stroke="none" /><text fill="#e1ed5e" style="font-size:6.75px; font-family:Arial;" text-anchor="middle"><textPath startOffset="22.206326154141568" xlink:href="#id41">May</textPath></text><path d="M 118.48025628344425 109.97397251340804 l 6.221392687950112 3.3577456239241785 a28.069666374919052,28.069666374919052 0 0,0 -0.23314342831484172,0.4232230434779611 l -6.162672850183763 -3.4643391857999446" fill="#ff4d07" stroke="none" /><path d="M 118.12598468904814 110.60418214915192 l 2.4428914987287547 1.4291563668144542 a23.830230873156378,23.830230873156378 0 0,0 -0.21018164258262356,0.3522765225939706 l -2.417928980447904 -1.4709949832945288" fill="#ff1001" stroke="none" /><path d="M 117.94076556474637 110.91462005526583 l 3.168041002833381 1.9273404883777887 a24.708250956148177,24.708250956148177 0 0,0 -0.22418073805257588,0.36145073044172693 l -3.1343956251128424 -1.9815875501847868" fill="#ff1d02" stroke="none" /><path d="M 117.55443506779137 111.5257021239791 l 4.158237620828955 2.730170922237943 a25.97441186231205,25.97441186231205 0 0,0 -0.2486083868146472,0.3716358066590273 l -4.110626128603585 -2.8013436431027774" fill="#ff2f04" stroke="none" /><path d="M 116.93607887273984 112.41649034213515 l 6.707862965683823 4.917792149860555 a29.317457856558256,29.317457856558256 0 0,0 -0.3018842833629609,0.40442333078920817 l -6.62221741562577 -5.032528360159078" fill="#ff5e08" stroke="none" /><path d="M 115.80600337817218 113.82643327865902 l 1.9432340534279133 1.6998601949967578 a23.581798456296752,23.581798456296752 0 0,0 -0.26988936039749534,0.3032235574840516 l -1.9136858433820798 -1.733057922221676" fill="#ff0c01" stroke="none" /><path d="M 113.48314897796784 116.09983520530334 l 4.420709550873367 5.278640425606185 a27.885253639193465,27.885253639193465 0 0,0 -0.37064796494317886,0.3050180415632557 l -4.329191457385497 -5.353953586026619" fill="#ff4a06" stroke="none" /><path d="M 111.7513745106137 117.40417183066458 l 3.364474447279694 4.982897221720661 a27.012399939178156,27.012399939178156 0 0,0 -0.3875961690204492,0.25687760585364894 l -3.278203579519281 -5.040072848665629" fill="#ff3e05" stroke="none" /><path d="M 111.1453310114006 117.79835938074945 l 2.7098401067172304 4.327436128580331 a26.105872780525928,26.105872780525928 0 0,0 -0.3829119914439505,0.23521581969460106 l -2.634948915340971 -4.37344041510331" fill="#ff3104" stroke="none" /><line stroke="#e1ed5e" stroke-width="0.3" x1="143.8653032363475" x2="146.44561519142675" y1="172.8068346515853" y2="177.08958963109032" /><path d="M 144.38136562736335 173.6633856474863 a86.0,86.0 0 0,1 -40.68145358897372,12.25698825130547" fill="none" id="id42" stroke="none" /><text fill="#e1ed5e" style="font-size:6.75px; font-family:Arial;" text-anchor="middle"><textPath startOffset="21.466115282336833" xlink:href="#id42">June</textPath></text><path d="M 109.89434966115114 118.52300852407294 l 2.227892590828965 4.170791902844747 a25.7285315366513,25.7285315366513 0 0,0 -0.39243251027730347,0.20530214187123033 l -2.155769178025166 -4.208523463660693" fill="#ff2b04" stroke="none" /><path d="M 108.59647513512805 119.15986991738527 l 1.3257934893735468 2.9549356444843715 a24.23873015848952,24.23873015848952 0 0,0 -0.38214011562026035,0.16751899662512157 l -1.2747326990955328 -2.9773191944039477" fill="#ff1602" stroke="none" /><path d="M 107.59598834532513 119.57807347666477 l 1.095964891466319 2.824764888716284 a24.029923385145423,24.029923385145423 0 0,0 -0.3869158423507968,0.14629846450449688 l -1.0471788283552472 -2.8432116033274117" fill="#ff1302" stroke="none" /><path d="M 105.53697534728816 120.25689768951611 l 0.9966109505697942 3.6460783723429997 a24.779830800983426,24.779830800983426 0 0,0 -0.4124184614503683,0.1089234640821081 l -0.9337020463079284 -3.6626931857286915" fill="#ff1e03" stroke="none" /><path d="M 104.48393922423573 120.51570834832081 l 3.7511799292882184 17.163058985142474 a38.56820834887196,38.56820834887196 0 0,0 -0.6497981633905547,0.13617152300769228 l -3.4551903044682857 -17.225086488876705" fill="#ffd914" stroke="none" /><path d="M 103.7750983002368 120.6578951692458 l 0.7362940399485843 4.029109676440532 a25.09583369999937,25.09583369999937 0 0,0 -0.4256146182867222,0.07399855694782848 l -0.6668304501898122 -4.041186811909367" fill="#ff2203" stroke="none" /><path d="M 101.98527174616119 120.90594882070398 l 0.3942885497196716 4.152064450102629 a25.170743657700157,25.170743657700157 0 0,0 -0.43168506452341726,0.0372476038031011 l -0.3227591674547126 -4.158236306184394" fill="#ff2303" stroke="none" /><line stroke="#e1ed5e" stroke-width="0.3" x1="102.19456741930631" x2="102.32365962044197" y1="184.97166512339345" y2="189.96999836594603" /><path d="M 102.22038585953345 185.97133177190398 a86.0,86.0 0 0,1 -42.740103519485714,-10.115201625700543" fill="none" id="id43" stroke="none" /><text fill="#e1ed5e" style="font-size:6.75px; font-family:Arial;" text-anchor="middle"><textPath startOffset="22.20632615414155" xlink:href="#id43">July</textPath></text><path d="M 100.18074693466247 120.99922214144158 l 0.028096176577225254 3.2642205212061666 a24.26434143529774,24.26434143529774 0 0,0 -0.41768622247935916,0.0 l 0.028096176577223006 -3.2642205212061666" fill="#ff1602" stroke="none" /><path d="M 98.37488393609728 120.93702456842531 l -0.23298357207118556 3.001621164693567 a24.010649591232998,24.010649591232998 0 0,0 -0.4117891373809187,-0.03553089949155096 l 0.28461702719364596 -2.9971660129233526" fill="#ff1302" stroke="none" /><path d="M 96.58105272829116 120.7198165907248 l -0.9031950995705014 5.473625452956644 a26.54764247109914,26.54764247109914 0 0,0 -0.45023667481305946,-0.07827941708221747 l 0.9972807458556108 -5.45726745735342" fill="#ff3705" stroke="none" /><path d="M 96.22490169976321 120.6578951692458 l -0.8464499616695066 4.631899141032694 a25.70860565245272,25.70860565245272 0 0,0 -0.43463750432504256,-0.08329931214987103 l 0.9260550805662442 -4.616642630534355" fill="#ff2b04" stroke="none" /><line stroke="#e1ed5e" stroke-width="0.3" x1="58.666819895761336" x2="56.23545636021788" y1="174.27360380694188" y2="178.64263932499728" /><path d="M 58.180547188652646 175.14741091055294 a86.0,86.0 0 0,1 -31.652253787137756,-30.449443065178592" fill="none" id="id44" stroke="none" /><text fill="#e1ed5e" style="font-size:6.75px; font-family:Arial;" text-anchor="middle"><textPath startOffset="22.20632615414155" xlink:href="#id44">August</textPath></text><path d="M 87.36589467227662 116.77436683061367 l -4.8073288692807745 6.382715343663041 a28.990586087118515,28.990586087118515 0 0,0 -0.3960269663109867,-0.30365659031109393 l 4.916484564085248 -6.29901941152458" fill="#ff5a08" stroke="none" /><path d="M 86.24171649860922 115.8653595955263 l -3.710474653144668 4.278732491322416 a26.663494847170533,26.663494847170533 0 0,0 -0.34415924650292223,-0.30368052032938164 l 3.783576252554178 -4.214228829220746" fill="#ff3905" stroke="none" /><path d="M 85.70375840098266 115.38237550388516 l -17.629467993317434 18.96883839914776 a46.896234705848386,46.896234705848386 0 0,0 -0.5865695409154374,-0.5546381127602967 l 17.953373368623687 -18.662565649641536" fill="#c0ff1e" stroke="none" /><path d="M 85.18274418774928 114.88116024355367 l -1.808629124881627 1.8164294502001608 a23.563309434876043,23.563309434876043 0 0,0 -0.2849582540811512,-0.2886612069236671 l 1.8396280040183117 -1.7850277492958313" fill="#ff0c01" stroke="none" /><path d="M 83.95833913139862 113.55231037782056 l -16.855307560942222 14.239695094578476 a43.0651378731364,43.0651378731364 0 0,0 -0.4735196476211218,-0.5703849195360339 l 17.09792320845688 -13.947448917928682" fill="#edff1a" stroke="none" /><path d="M 83.28015986056508 112.70617746262583 l -3.256738284609714 2.474945588503528 a25.090440064405747,25.090440064405747 0 0,0 -0.25835833226618987,-0.346113206385812 l 3.2988578835709887 -2.4185195026084103" fill="#ff2203" stroke="none" /><path d="M 82.64656182679789 111.8261652097733 l -9.793457215421038 6.674126582204793 a32.85140370865726,32.85140370865726 0 0,0 -0.31443000611135463,-0.47003019671302015 l 9.906890326943126 -6.50455947128595" fill="#ff8f0d" stroke="none" /><path d="M 82.24976979558568 111.22182372390057 l -5.002437498662546 3.16257711327375 a26.9183000029931,26.9183000029931 0 0,0 -0.24423276145696923,-0.39378097687285235 l 5.056134899787471 -3.075999805035633" fill="#ff3d05" stroke="none" /><line stroke="#e1ed5e" stroke-width="0.3" x1="26.63291911575756" x2="22.317208475507996" y1="142.92168965132927" y2="145.44649492493687" /><path d="M 25.769776987707644 143.4266507060508 a86.0,86.0 0 0,1 -11.730757126820373,-40.83630448921669" fill="none" id="id45" stroke="none" /><text fill="#e1ed5e" style="font-size:6.75px; font-family:Arial;" text-anchor="middle"><textPath startOffset="21.46611528233685" xlink:href="#id45">September</textPath></text><path d="M 81.87401531095188 110.60418214915194 l -6.4221284420322755 3.757115596909174 a28.44040666459153,28.44040666459153 0 0,0 -0.24356906510673718,-0.4246831955111927 l 6.485849503291387 -3.646012555539674" fill="#ff5207" stroke="none" /><path d="M 81.02952815118164 109.00673069616217 l -31.005288268408048 14.720576473580005 a55.32234363095852,55.32234363095852 0 0,0 -0.40102214078768733,-0.8637660146522042 l 31.25408502603556 -14.184690391648974" fill="#63ff29" stroke="none" /><path d="M 80.87730276802145 108.67885076344099 l -6.463396164344123 2.933417292280985 a28.097917087985138,28.097917087985138 0 0,0 -0.19609524998693031,-0.4421430210864284 l 6.512932499062333 -2.8217259347018606" fill="#ff4d07" stroke="none" /><path d="M 80.73074385275274 108.34839909993369 l -2.7620491627617048 1.1966569216874776 a24.010133446499538,24.010133446499538 0 0,0 -0.16103827320863057,-0.38064690792831823 l 2.7822384171626418 -1.1489354880930007" fill="#ff1302" stroke="none" /><path d="M 80.58989483394504 108.01547362559985 l -5.383645532081061 2.2231960312837815 a26.82462357655946,26.82462357655946 0 0,0 -0.1725684056534678,-0.4283006305999607 l 5.421116551991916 -2.1301960328410154" fill="#ff3b05" stroke="none" /><path d="M 80.32549172779595 107.34259656027581 l -13.841079130966582 5.165540028317841 a35.773566776301266,35.773566776301266 0 0,0 -0.2103413140087064,-0.5787689581522444 l 13.927944705980511 -4.92652327315948" fill="#ffb510" stroke="none" /><path d="M 80.0844068197444 106.66101706037122 l -25.178828449517 8.421371351804272 a47.549819162005534,47.549819162005534 0 0,0 -0.25293729824628824,-0.7784609587501917 l 25.320057998779536 -7.986711493076277" fill="#b8ff1f" stroke="none" /><path d="M 79.67330655649465 105.27499134158121 l -17.166778071171883 4.454959973689734 a38.73541478827167,38.73541478827167 0 0,0 -0.16193005497609683,-0.646830075982926 l 17.24091944044304 -4.1588020583094165" fill="#ffdc14" stroke="none" /><path d="M 79.4281124754447 104.21870165774334 l -61.14393482333237 12.538860077484271 a83.41637427568703,83.41637427568703 0 0,0 -0.2763467975850686,-1.4090863672410354 l 61.35071155389311 -11.48450998317528" fill="#4cd7ff" stroke="none" /><path d="M 79.1416061653843 102.43462659150553 l -3.6885773847263192 0.4305369175059535 a24.713618876574436,24.713618876574436 0 0,0 -0.04568218125565616,-0.42296026303707296 l 3.695441867483027 -0.3669803325840985" fill="#ff1d02" stroke="none" /><path d="M 79.0095281055655 100.63252640178507 l -3.127060539285648 0.09423077103868684 a24.128479991076816,24.128479991076816 0 0,0 -0.008936657375078445,-0.4152513522990125 l 3.128219259345734 -0.040389602949545494" fill="#ff1402" stroke="none" /><line stroke="#e1ed5e" stroke-width="0.3" x1="15.007084014347285" x2="10.007500721073583" y1="101.09737516637583" y2="101.16192664675087" /><path d="M 14.007167355692545 101.11028546245083 a86.0,86.0 0 0,1 10.666146001902534,-42.60595125391555" fill="none" id="id46" stroke="none" /><text fill="#e1ed5e" style="font-size:6.75px; font-family:Arial;" text-anchor="middle"><textPath startOffset="22.20632615414155" xlink:href="#id46">October</textPath></text><path d="M 79.00175016825051 100.2711162175752 l -7.135927383483368 0.09213461391320853 a28.136522150839912,28.136522150839912 0 0,0 -0.0020843839892390552,-0.48433743208766505 l 7.13645606476211 0.030712296378131887" fill="#ff4e07" stroke="none" /><path d="M 79.16333360222342 97.38593545837743 l -4.449157217763179 -0.5581691380488706 a25.48403308808537,25.48403308808537 0 0,0 0.05835115576274714,-0.4347838869370621 l 4.438890062942598 0.634671367050592" fill="#ff2803" stroke="none" /><path d="M 79.3925641242962 95.95851677861259 l -8.349149826154818 -1.6374161801972316 a29.508198079896395,29.508198079896395 0 0,0 0.10204314861151817,-0.49759863251636466 l 8.319727381628304 1.7808904688769989" fill="#ff6108" stroke="none" /><path d="M 79.54389044137918 95.25157060432595 l -4.306087006315872 -0.9995620165469485 a25.420577963443897,25.420577963443897 0 0,0 0.10261100998632282,-0.42538888171942285 l 4.288243196068734 1.0735361299257682" fill="#ff2703" stroke="none" /><path d="M 79.62865764111835 94.90015583598534 l -6.27448825215041 -1.5707807434180516 a27.468118348504955,27.468118348504955 0 0,0 0.1187717096507031,-0.4576758473137487 l 6.246520210629399 1.6785530162806641" fill="#ff4406" stroke="none" /><path d="M 80.38941819471856 92.48833698450439 l -1.9466924669657935 -0.7456636397555885 a23.084616469424272,23.084616469424272 0 0,0 0.145330247417392,-0.36984962774940217 l 1.9335686696667103 0.779062272400754" fill="#ff0500" stroke="none" /><path d="M 80.65960295795068 91.81776055985345 l -14.916885227219238 -6.310807702909478 a37.196905838620324,37.196905838620324 0 0,0 0.2545495682912748,-0.587535499304861 l 14.806044949085281 6.566642346800938" fill="#ffc812" stroke="none" /><path d="M 80.95270993114464 91.15688171328213 l -13.072935558655368 -6.06939439058886 a35.41316038866103,35.41316038866103 0 0,0 0.26145334992522606,-0.5506874338597876 l 12.966524014888392 6.29352424008918" fill="#ffb110" stroke="none" /><line stroke="#e1ed5e" stroke-width="0.3" x1="26.266209847984257" x2="21.92892807433627" y1="57.711370442889674" y2="55.22380399835377" /><path d="M 25.39875349325466 57.213857153982495 a86.0,86.0 0 0,1 29.58750427330802,-30.492523968695096" fill="none" id="id47" stroke="none" /><text fill="#e1ed5e" style="font-size:6.75px; font-family:Arial;" text-anchor="middle"><textPath startOffset="21.46611528233685" xlink:href="#id47">November</textPath></text><path d="M 81.78341655067847 89.55222093294921 l -54.64975034796461 -31.34333720115236 a84.0,84.0 0 0,0 0.7301613021187001,-1.2480823505844327 l 54.10212937137559 32.27939896409068" fill="#4dd2ff" stroke="none" /><path d="M 83.17141714833178 87.43820079747576 l -6.393671880563337 -4.772595710428489 a28.978515521793934,28.978515521793934 0 0,0 0.30182374100977993,-0.397164663787632 l 6.310572199329446 4.881945150097147" fill="#ff5a08" stroke="none" /><path d="M 86.65592168130627 83.78471172551755 l -2.2410688202241786 -2.7232736570484 a24.526841202571326,24.526841202571326 0 0,0 0.3283053193329038,-0.26546673612929855 l 2.193860102326774 2.7614464904418328" fill="#ff1a02" stroke="none" /><path d="M 88.09926311788651 82.69761687909137 l -17.68382739419411 -25.710370681183168 a52.20482193302011,52.20482193302011 0 0,0 0.7447771228797785,-0.5028768379818727 l 17.238645576907793 26.010959431463704" fill="#84ff25" stroke="none" /><line stroke="#e1ed5e" stroke-width="0.3" x1="56.762969772571076" x2="54.21961505331055" y1="26.818313649435495" y2="22.513508569990535" /><path d="M 56.25429882871897 25.957352633546506 a86.0,86.0 0 0,1 42.265352541879196,-11.944610805530505" fill="none" id="id48" stroke="none" /><text fill="#e1ed5e" style="font-size:6.75px; font-family:Arial;" text-anchor="middle"><textPath startOffset="22.20632615414155" xlink:href="#id48">December</textPath></text><path d="M 89.3179101791058 81.91981866633112 l -7.491586612582713 -12.68003234418067 a35.727765961723335,35.727765961723335 0 0,0 0.5321791397400634,-0.3082725075240786 l 7.272210740377329 12.807109009094797" fill="#ffb510" stroke="none" /><path d="M 89.94658935756843 81.56283822128135 l -1.7642790545707043 -3.23554856245854 a24.685302576780423,24.685302576780423 0 0,0 0.3748110002168584,-0.20021105578889667 l 1.7083230078255405 3.2654383447491884" fill="#ff1c02" stroke="none" /><path d="M 90.58718382345135 81.22770947309562 l -28.124213842056346 -56.089049566189566 a83.74514232569868,83.74514232569868 0 0,0 1.294176425380502,-0.6350467513877134 l 27.154566149665417 56.564851477712104" fill="#4dd4ff" stroke="none" /><path d="M 91.56875222667455 80.76684994638697 l -1.0255706962010174 -2.339506040022666 a23.554424350848695,23.554424350848695 0 0,0 0.3727389422707855,-0.15958736262874268 l 0.9851479961399235 2.356812930614195" fill="#ff0c01" stroke="none" /><path d="M 98.55514903715128 79.0497635885617 l -0.48608027794206243 -7.048129530083666 a28.06487111768089,28.06487111768089 0 0,0 0.48223193303257206,-0.029089547118808515 l 0.3646862960698674 7.055452346582782" fill="#ff4d07" stroke="none" /></svg>