<?xml version="1.0" encoding="utf-8" ?>
<svg baseProfile="full" height="200mm" version="1.1" viewBox="0,0,200,200" width="200mm" xmlns="http://www.w3.org/2000/svg" xmlns:ev="http://www.w3.org/2001/xml-events" xmlns:xlink="http://www.w3.org/1999/xlink"><defs /><rect fill="#1a1a1a" height="200" width="200" x="0" y="0" /><rect fill="#1a1a1a" height="200" width="180" x="10" y="0" /><text alignment-baseline="middle" fill="#e1ed5e" style="dominant-baseline: central; font-size:9.0px; font-family:Arial;" text-anchor="middle" x="100.0" y="100.0">2024</text><line stroke="#e1ed5e" stroke-width="0.3" x1="100.0" x2="100.0" y1="15.0" y2="10.0" /><path d="M 100.0 14.0 a86.0,86.0 0 0,1 42.35913384403234,11.155469271406648" fill="none" id="id145" stroke="none" /><text fill="#e1ed5e" style="font-size:6.75px; font-family:Arial;" text-anchor="middle"><textPath startOffset="22.145653131862478" xlink:href="#id145">January</textPath></text><path d="M 100.0 79.0 l 0.0 -15.341584158415841 a36.34158415841584,36.34158415841584 0 0,0 0.6238516174718158,0.005355015828700301 l -0.2633586926229611 15.339323540781576" fill="#ffbf11" stroke="none" /><path d="M 100.72087961077811 79.0123766808444 l 0.5108354809049996 -14.872417656148455 a35.88118811881188,35.88118811881188 0 0,0 0.6154037923538752,0.02642808676321958 l -0.766065033859711 14.861457000959405" fill="#ffb911" stroke="none" /><path d="M 101.44090949804482 79.04949213459386 l 1.0210688239327468 -14.846116606178883 a35.88118811881188,35.88118811881188 0 0,0 0.6141338816287382,0.04753784649218556 l -1.2757717003367186 14.826400992691644" fill="#ffb911" stroke="none" /><path d="M 102.15924093988457 79.11130261209362 l 0.7650493004824388 -7.401157985389737 a28.44059405940594,28.44059405940594 0 0,0 0.4852020851728956,0.054367905678324474 l -0.8919872872561311 7.3869343192044425" fill="#ff5507" stroke="none" /><path d="M 102.87502721639298 79.19773525538626 l 2.0373248025641906 -14.741067379139293 a35.88118811881188,35.88118811881188 0 0,0 0.6094247134737201,0.08956444618804814 l -2.2900746216455925 14.703921859652363" fill="#ffb911" stroke="none" /><path d="M 103.58742460773223 79.30868818359171 l 1.2710747726123377 -7.331221513451592 a28.44059405940594,28.44059405940594 0 0,0 0.4803281366688346,0.08753178707315007 l -1.396737642832226 7.308321552447075" fill="#ff5507" stroke="none" /><path d="M 104.64783097203109 79.52079915486377 l 4.93380077016878 -21.73923654069978 a43.29207920792079,43.29207920792079 0 0,0 0.7233237424669273,0.1707024337137531 l -5.306256666375592 21.6513379633398" fill="#e8ff1a" stroke="none" /><path d="M 105.3480935250658 79.69241777938227 l 1.9024689130891788 -7.223984340149021 a28.47029702970297,28.47029702970297 0 0,0 0.47154756323068875,0.12852238523739723 l -2.0261978772545604 7.1902614607674815" fill="#ff5507" stroke="none" /><path d="M 106.38641147887787 79.99465700312896 l 1.1155895581915383 -3.494568401857952 a24.668316831683168,24.668316831683168 0 0,0 0.4023017912072842,0.13224458949875686 l -1.1754140870465648 3.4749028909571735" fill="#ff1f03" stroke="none" /><path d="M 107.06938296918511 80.22567764915836 l 10.559078381130808 -29.53562150281298 a52.366336633663366,52.366336633663366 0 0,0 0.843873162141129,0.3098819139994672 l -11.064540694926063 29.35000873980479" fill="#81ff25" stroke="none" /><line stroke="#e1ed5e" stroke-width="0.3" x1="143.13028292997686" x2="145.6673583964461" y1="26.7553504044142" y2="22.446841604673864" /><path d="M 143.63769802327073 25.89364864446614 a86.0,86.0 0 0,1 29.32050498858742,28.57503671076993" fill="none" id="id146" stroke="none" /><text fill="#e1ed5e" style="font-size:6.75px; font-family:Arial;" text-anchor="middle"><textPath startOffset="20.669276256404974" xlink:href="#id146">February</textPath></text><path d="M 112.16784306229584 82.88440491214696 l 4.3112371811953425 -6.064295006375085 a28.44059405940594,28.44059405940594 0 0,0 0.39548540674246924,0.2863009355166633 l -4.414703598311779 5.989393299485347" fill="#ff5507" stroke="none" /><path d="M 112.7482090630111 83.31218511350987 l 6.004460562917536 -7.860031622632549 a30.89108910891089,30.89108910891089 0 0,0 0.4186331790372913,0.32553169209954386 l -6.138503686590052 7.7557988789122145" fill="#ff770a" stroke="none" /><path d="M 113.86319453409587 84.22622945171908 l 6.019803001368361 -6.84943077556187 a30.11881188118812,30.11881188118812 0 0,0 0.38542752871442315,0.3446516728405172 l -6.136495556906159 6.745083572837966" fill="#ff6c09" stroke="none" /><path d="M 114.13192950727249 84.46653392183569 l 16.026847353509314 -17.61631273192665 a44.81584158415842,44.81584158415842 0 0,0 0.5646160693656149,0.5226002045763405 l -16.326893194188894 17.338594781217935" fill="#d6ff1c" stroke="none" /><path d="M 115.41159269507618 85.73525988315684 l 5.449643810140093 -5.0441089522076235 a28.425742574257427,28.425742574257427 0 0,0 0.32838811922817995,0.36095606816309495 l -5.53542963021015 4.949815308486857" fill="#ff5507" stroke="none" /><path d="M 116.7966241395341 87.39550010848427 l 6.450188760797043 -4.8403418961054046 a29.064356435643564,29.064356435643564 0 0,0 0.2960384354133331,0.4016329934659205 l -6.532329215794202 4.728902593370609" fill="#ff5d08" stroke="none" /><line stroke="#e1ed5e" stroke-width="0.3" x1="172.87174338648825" x2="177.1583165268699" y1="56.24261187166439" y2="53.66864786411523" /><path d="M 173.72905801456457 55.72781907015455 a86.0,86.0 0 0,1 12.242430191666344,42.057860355516425" fill="none" id="id147" stroke="none" /><text fill="#e1ed5e" style="font-size:6.75px; font-family:Arial;" text-anchor="middle"><textPath startOffset="22.145653131862474" xlink:href="#id147">March</textPath></text><path d="M 118.18653347947321 89.5 l 7.035384592130017 -4.061881188118812 a29.12376237623762,29.12376237623762 0 0,0 0.24625754681264617,0.4351134892755512 l -7.104075503964038 3.9405109287441427" fill="#ff5e08" stroke="none" /><path d="M 119.4528033332814 92.08871423366111 l 23.25669309399731 -9.458294616687331 a46.10643564356435,46.10643564356435 0 0,0 0.2918786022402169,0.7357247468603157 l -23.41563037120365 9.057668852613451" fill="#c7ff1e" stroke="none" /><path d="M 119.71291397450082 92.76114493625339 l 7.151856342941249 -2.6262607126605455 a28.61881188118812,28.61881188118812 0 0,0 0.16538924492596987,0.4626231535035172 l -7.195885757911162 2.5031026027761114" fill="#ff5708" stroke="none" /><path d="M 119.94978838288452 93.4421083053983 l 7.0684893775283895 -2.3235528564324226 a28.44059405940594,28.44059405940594 0 0,0 0.14848060062698196,0.46511336667679903 l -7.1073346939326285 2.201870456064236" fill="#ff5507" stroke="none" /><path d="M 120.05942366710727 93.78553927170692 l 6.355460963835964 -1.968938052528499 a27.653465346534652,27.653465346534652 0 0,0 0.1365866281140353,0.45465246259835423 l -6.388323911953626 1.8595479863394213" fill="#ff4a06" stroke="none" /><path d="M 120.16314734710363 94.1308016681162 l 17.681967970585934 -5.146963176475184 a39.415841584158414,39.415841584158414 0 0,0 0.18353049648801928,0.6512849858284322 l -17.767716959148533 4.842670266743739" fill="#ffe615" stroke="none" /><path d="M 120.43855184770803 95.1765574152323 l 14.483330234373016 -3.418026499248402 a35.88118811881188,35.88118811881188 0 0,0 0.13632995648987126,0.6006949428594854 l -14.539871052420553 3.16889722244989" fill="#ffb911" stroke="none" /><path d="M 120.7213421655516 96.59031103205396 l 2.945537323391706 -0.48468704565569637 a23.985148514851485,23.985148514851485 0 0,0 0.063364773830765,0.4068473028152209 l -2.9534235893607366 0.43405156090903424" fill="#ff1502" stroke="none" /><path d="M 120.77682067341334 96.94652285012252 l 7.567229594630745 -1.1121221585480234 a28.64851485148515,28.64851485148515 0 0,0 0.06733149049858204,0.4871771241032778 l -7.58520560168454 0.9820567262446599" fill="#ff5808" stroke="none" /><line stroke="#e1ed5e" stroke-width="0.3" x1="184.99686870605535" x2="189.99668451229388" y1="99.2704041080226" y2="99.22748670261217" /><path d="M 185.99683186730306 99.26182062694052 a86.0,86.0 0 0,1 -10.086455211305974,41.156179273409016" fill="none" id="id148" stroke="none" /><text fill="#e1ed5e" style="font-size:6.75px; font-family:Arial;" text-anchor="middle"><textPath startOffset="21.40746469413373" xlink:href="#id148">April</textPath></text><path d="M 120.99922638620191 100.18025310272382 l 7.752189656009475 0.06654322462647594 a28.752475247524753,28.752475247524753 0 0,0 -0.008473174275090563,0.49351992269015454 l -7.749905050135715 -0.1996100632857015" fill="#ff5908" stroke="none" /><path d="M 119.83427380445688 106.89939002012753 l 16.84650837280956 5.8600901090333535 a38.836633663366335,38.836633663366335 0 0,0 -0.22443844083103848,0.6277942638358489 l -16.74342976193458 -6.148419329250124" fill="#ffdf14" stroke="none" /><line stroke="#e1ed5e" stroke-width="0.3" x1="174.33088141563837" x2="178.70328620479359" y1="141.23008692659167" y2="143.65538615756765" /><path d="M 175.20536237346943 141.71514677278685 a86.0,86.0 0 0,1 -30.301960400862466,31.631185727798858" fill="none" id="id149" stroke="none" /><text fill="#e1ed5e" style="font-size:6.75px; font-family:Arial;" text-anchor="middle"><textPath startOffset="22.145653131862474" xlink:href="#id149">May</textPath></text><path d="M 118.18653347947321 110.5 l 10.546646006483757 6.089108910891086 a33.17821782178218,33.17821782178218 0 0,0 -0.2890080138402434,0.49079879068756044 l -10.440564282513748 -6.269258869872195" fill="#ff950d" stroke="none" /><path d="M 118.00360718960297 110.81064883170644 l 20.19357920983757 12.12566410685037 a44.554455445544555,44.554455445544555 0 0,0 -0.39936075433789675,0.6523257790850983 l -19.98245049104427 -12.470527002060026" fill="#d9ff1c" stroke="none" /><path d="M 117.62189284568427 111.42229804090321 l 18.706125290927933 12.125084412585382 a43.29207920792079,43.29207920792079 0 0,0 -0.4095751489010479,0.62014897782294 l -18.495225703106158 -12.444413268747383" fill="#e8ff1a" stroke="none" /><path d="M 117.01052211995028 112.31430620078461 l 6.03909625474897 4.3718399666151875 a28.455445544554458,28.455445544554458 0 0,0 -0.2898363016105979,0.39321860780822565 l -5.963157933554544 -4.47486488369229" fill="#ff5507" stroke="none" /><path d="M 116.1254893667686 113.45245675266167 l 17.11765172526144 14.280153879593477 a43.29207920792079,43.29207920792079 0 0,0 -0.48096559220421586,0.5665762582457866 l -16.869991569550105 -14.571896920288822" fill="#e8ff1a" stroke="none" /><path d="M 115.6541949942343 113.99807769240083 l 1.147239821870983 1.0258689229488298 a22.5390147029703,22.5390147029703 0 0,0 -0.2603817517952033,0.2862051573921592 l -1.1294603692338998 -1.0454116558986606" fill="#ff0000" stroke="none" /><path d="M 115.41159269507618 114.26474011684316 l 3.7306128533631795 3.4529995622569496 a26.08337272277228,26.08337272277228 0 0,0 -0.3069692097579016,0.32599066307344465 l -3.670787809869018 -3.516531685274891" fill="#ff3304" stroke="none" /><path d="M 115.16444852881244 114.52719865689866 l 3.1002714420942246 2.969989910548994 a25.293311435643567,25.293311435643567 0 0,0 -0.30305385713386424,0.31095995500698903 l -3.0488307838095534 -3.0227725576237203" fill="#ff2803" stroke="none" /><path d="M 114.65682725009322 115.03919595460226 l 2.532044648757969 2.5981008705844553 a24.627861386138612,24.627861386138612 0 0,0 -0.3053004730051016,0.2924709469627891 l -2.4870716898875553 -2.6411839478528245" fill="#ff1f03" stroke="none" /><path d="M 114.39649973595853 115.28858382429668 l 11.704608820336688 12.429888956505117 a38.073371287128715,38.073371287128715 0 0,0 -0.47967050229923225,0.44397585586337257 l -11.489508546723489 -12.62898255850087" fill="#ffd513" stroke="none" /><path d="M 113.86319453409587 115.77377054828091 l 4.980553623281966 5.666955755676592 a28.544554455445542,28.544554455445542 0 0,0 -0.37083524745105484,0.3203186544574347 l -4.8825388960680565 -5.751618542598744" fill="#ff5608" stroke="none" /><path d="M 113.59037401385872 116.0094264158162 l 1.0274823503052966 1.2103716250920185 a22.587677376237625,22.587677376237625 0 0,0 -0.2977547061625372,0.2483975658938845 l -1.0065533099808643 -1.2278313748977732" fill="#ff0100" stroke="none" /><path d="M 112.45986205192187 116.90419585922612 l 13.408964550962093 18.1918356795869 a43.59962866336633,43.59962866336633 0 0,0 -0.6062818814450679,0.4389013270407582 l -13.094701659143057 -18.419337778000738" fill="#e5ff1a" stroke="none" /><path d="M 111.8722381534696 117.32195027204791 l 4.44159404751444 6.480418453969835 a28.856435643564357,28.856435643564357 0 0,0 -0.41100319110857325,0.2765412894674778 l -4.329694568308863 -6.555709417494434" fill="#ff5b08" stroke="none" /><path d="M 111.5731344415666 117.5232005979908 l 5.704720442554401 8.63767384497849 a31.351485148514854,31.351485148514854 0 0,0 -0.45163212892889154,0.29274248950712756 l -5.5556026813685 -8.734330176189513" fill="#ff7d0b" stroke="none" /><line stroke="#e1ed5e" stroke-width="0.3" x1="143.1302829299769" x2="145.66735839644613" y1="173.24464959558577" y2="177.55315839532614" /><path d="M 143.63769802327073 174.10635135553383 a86.0,86.0 0 0,1 -40.68552437913181,11.842963189579606" fill="none" id="id150" stroke="none" /><text fill="#e1ed5e" style="font-size:6.75px; font-family:Arial;" text-anchor="middle"><textPath startOffset="21.407464694133747" xlink:href="#id150">June</textPath></text><path d="M 110.65571695917076 118.09573695890943 l 7.597502152470719 12.90221962751508 a35.972952623762374,35.972952623762374 0 0,0 -0.534810798211412,0.30877315831287855 l -7.374898886398908 -13.03073968310413" fill="#ffba11" stroke="none" /><path d="M 110.34350942703117 118.27599006163325 l 11.743818268606237 20.750201609694734 a44.842989207920795,44.842989207920795 0 0,0 -0.6731910937262174,0.3734077517167671 l -11.385882986723924 -20.948742276844644" fill="#d6ff1c" stroke="none" /><path d="M 109.71004243097381 118.62028667847754 l 6.874627636243197 13.183004946127205 a35.86782178217822,35.86782178217822 0 0,0 -0.5483895805088594,0.2800116272382837 l -6.647310834020755 -13.299074525038327" fill="#ffb911" stroke="none" /><path d="M 109.3889696526874 118.78422872680471 l 1.5391535823853875 3.0793382028807157 a24.442574257425743,24.442574257425743 0 0,0 -0.37692748356752914,0.1843741202899502 l -1.4860658495557888 -3.1053060732678897" fill="#ff1c02" stroke="none" /><path d="M 109.06512990194946 118.94263497670748 l 1.748496359650519 3.65368490658241 a25.050512673267328,25.050512673267328 0 0,0 -0.38948929100603086,0.18230065465803905 l -1.6855183547729817 -3.6831617928109828" fill="#ff2503" stroke="none" /><path d="M 108.73861861582097 119.09545874513695 l 3.094978927017779 6.763087510300272 a28.437623762376237,28.437623762376237 0 0,0 -0.44564003975392186,0.19932912146946158 l -2.9784254844082305 -6.815220382679583" fill="#ff5507" stroke="none" /><path d="M 108.4095320186766 119.2426549942271 l 19.84242710903894 45.40335636505757 a70.5498403911651,70.5498403911651 0 0,0 -1.1138977393349876,0.4754567084682276 l -19.06009429453352 -45.7372877231852" fill="#3cffa6" stroke="none" /><path d="M 108.07796709384702 119.3841803445677 l 11.429295125150757 27.426147611564684 a50.71232673267326,50.71232673267326 0 0,0 -0.8064359654775706,0.327970486610081 l -10.956804698482745 -27.618305354754057" fill="#93ff23" stroke="none" /><path d="M 107.74402155503746 119.51999308798841 l 1.9613477266816122 4.943877518401563 a26.318722574257425,26.318722574257425 0 0,0 -0.42138497834300226,0.16300076200341893 l -1.8761904858450806 -4.976818168543023" fill="#ff3705" stroke="none" /><path d="M 107.407793817531 119.65005319985036 l 6.106499839794056 16.198216320878164 a38.31102400990099,38.31102400990099 0 0,0 -0.6173745779137954,0.22670849653889844 l -5.827536110226133 -16.300655666425783" fill="#ffd814" stroke="none" /><path d="M 107.06938296918513 119.77432235084164 l 2.502921539672708 7.001117008385537 a28.435069306930693,28.435069306930693 0 0,0 -0.46104652240522204,0.16037591327303027 l -2.3823692452224643 -7.043051354227158" fill="#ff5507" stroke="none" /><path d="M 106.38641147887787 120.00534299687104 l 5.420663212923435 16.980150308778423 a38.82439603960396,38.82439603960396 0 0,0 -0.6366449737780683,0.19723424027862638 l -5.128377606273742 -17.070701136863693" fill="#ffdf14" stroke="none" /><path d="M 106.0420521117495 120.11202640906438 l 1.184228753885822 3.9419123721573928 a25.115953217821783,25.115953217821783 0 0,0 -0.4139826540876655,0.1205043171570715 l -1.1163860874165499 -3.9616603836169824" fill="#ff2603" stroke="none" /><path d="M 105.69591212413111 120.21278271476187 l 8.059075167648535 28.598814675439215 a50.71263861386139,50.71263861386139 0 0,0 -0.8399428055989692,0.2289301467257505 l -7.566950961114871 -28.73294531630911" fill="#93ff23" stroke="none" /><path d="M 104.9986988182912 120.39639698878246 l 2.6351167557626267 10.752175599309329 a32.070371287128715,32.070371287128715 0 0,0 -0.53583152867987,0.1264547817748396 l -2.4501530733428774 -10.795826524730394" fill="#ff870c" stroke="none" /><path d="M 104.64783097203109 120.47920084513623 l 4.569281215189812 20.1330961230908 a41.64509361386139,41.64509361386139 0 0,0 -0.698522244486495,0.1522396720295676 l -4.222996554084181 -20.20856725325409" fill="#fcff18" stroke="none" /><path d="M 103.58742460773223 120.69131181640829 l 1.269917866232477 7.324548784888451 a28.433821782178217,28.433821782178217 0 0,0 -0.4816452420047799,0.07925454128437386 l -1.1439951211746249 -7.345269324668496" fill="#ff5507" stroke="none" /><path d="M 103.2317021107853 120.74984581791261 l 5.11243473871074 32.82549843574853 a54.22123321782178,54.22123321782178 0 0,0 -0.9209215538946495,0.13534375474710486 l -4.548188079208406 -32.90842326379452" fill="#6dff28" stroke="none" /><path d="M 102.51750503828377 120.84855314841334 l 0.8943908458146037 7.406839232040623 a28.460643564356435,28.460643564356435 0 0,0 -0.4855441336402463,0.05440623292253635 l -0.7671108105735581 -7.42110122547013" fill="#ff5507" stroke="none" /><path d="M 101.80034050326958 120.92268563240118 l 1.0042919769901961 11.671395094176905 a32.714523712871284,32.714523712871284 0 0,0 -0.55993400683651,0.04334243339930226 l -0.8037889753784504 -11.68691529457126" fill="#ff8f0d" stroke="none" /><path d="M 101.44090949804482 120.95050786540614 l 2.02921442202033 29.50433234482726 a50.57403148514851,50.57403148514851 0 0,0 -0.8666357554933916,0.05213465500405871 l -1.5224343143944732 -29.53481897765601" fill="#95ff23" stroke="none" /><path d="M 100.72087961077811 120.9876233191556 l 0.9098044151715013 26.48796286402602 a47.50358316831683,47.50358316831683 0 0,0 -0.8152218527521189,0.020997223135902708 l -0.4549692483486386 -26.49967780451197" fill="#b7ff1f" stroke="none" /><line stroke="#e1ed5e" stroke-width="0.3" x1="101.45913802915013" x2="101.54496967792366" y1="184.9874750549273" y2="189.98673829345242" /><path d="M 101.47630435890484 185.9873277026323 a86.0,86.0 0 0,1 -42.54439059252881,-10.42667462771756" fill="none" id="id151" stroke="none" /><text fill="#e1ed5e" style="font-size:6.75px; font-family:Arial;" text-anchor="middle"><textPath startOffset="22.145653131862474" xlink:href="#id151">July</textPath></text><path d="M 100.36049292484886 120.99690560180557 l 0.03259136990565175 1.8982839056533858 a22.898563663366335,22.898563663366335 0 0,0 -0.39308429475450374,0.0033741559073844594 l -2.3250699133190556e-16 -1.8985636633663354" fill="#ff0500" stroke="none" /><path d="M 100.0 121.0 l 1.6389429925165274e-15 13.382985148514848 a34.38298514851485,34.38298514851485 0 0,0 -0.5902296610106078,-0.0050664117696593665 l 0.22973673616175397 -13.381013134939623" fill="#ffa50f" stroke="none" /><path d="M 99.63950707515114 120.99690560180557 l -0.2199908328835596 12.81336312843152 a33.815251485148515,33.815251485148515 0 0,0 -0.5803126865046204,-0.014946796293541753 l 0.4399168334589239 -12.807698614787933" fill="#ff9e0e" stroke="none" /><path d="M 98.91894614982273 120.97215588758144 l -1.242144452012364 24.097270527482113 a45.12926376237624,45.12926376237624 0 0,0 -0.7733343070950293,-0.04652187155634553 l 1.6556231112398394 -24.072396678101075" fill="#d3ff1c" stroke="none" /><path d="M 98.55909050195518 120.95050786540614 l -0.2043513339394753 2.9712235465270287 a23.978242574257425,23.978242574257425 0 0,0 -0.4104058967613608,-0.03176801199762451 l 0.2553262254760722 -2.9672777675343505" fill="#ff1502" stroke="none" /><path d="M 98.19965949673042 120.92268563240118 l -2.292661057074575 26.64419673484237 a47.742653465346535,47.742653465346535 0 0,0 -0.8159456749462278,-0.07727090375292794 l 2.7497062954058182 -26.600914075584257" fill="#b4ff20" stroke="none" /><path d="M 97.48249496171623 120.84855314841334 l -1.6025504136911042 13.271416328774292 a34.36782178217822,34.36782178217822 0 0,0 -0.5851075476396843,-0.07575388630315505 l 1.8301357832215825 -13.24195084627074" fill="#ffa50f" stroke="none" /><path d="M 97.12497278360702 120.80226474461374 l -1.9195584826395196 13.888968953391045 a35.0209900990099,35.0209900990099 0 0,0 -0.5948146640513652,-0.08741727204764593 l 2.1576982522985695 -13.853970608044516" fill="#ffae10" stroke="none" /><path d="M 96.41257539226777 120.69131181640829 l -1.2696184913359319 7.322822070040972 a28.432069306930693,28.432069306930693 0 0,0 -0.4801841636398754,-0.08750555039128062 l 1.3951373885268643 -7.299948345718325" fill="#ff5507" stroke="none" /><path d="M 95.70440661134978 120.55596938700252 l -4.559107081520295 21.816977800416502 a43.28824752475248,43.28824752475248 0 0,0 -0.7260832236624506,-0.15824645916294788 l 4.9329527218018825 -21.735499883119836" fill="#e9ff1a" stroke="none" /><path d="M 95.35216902796893 120.47920084513623 l -0.9061474702348848 3.9926529492837672 a25.09418866336634,25.09418866336634 0 0,0 -0.4192735204742985,-0.09894740920932633 l 0.9745531444490712 -3.9765093964282134" fill="#ff2503" stroke="none" /><path d="M 95.00130118170881 120.39639698878247 l -2.4761729809612114 10.10363075842344 a31.402633663366338,31.402633663366338 0 0,0 -0.5224720943220349,-0.1328103632654308 l 2.6492503685086253 -10.059635163322746" fill="#ff7e0b" stroke="none" /><path d="M 94.6519064749342 120.30758222061772 l -4.0817792021098995 15.499180477071821 a37.02764851485149,37.02764851485149 0 0,0 -0.6132811825294363,-0.1671525134386775 l 4.347241785574031 -15.426827469489" fill="#ffc812" stroke="none" /><path d="M 93.61358852112213 120.00534299687104 l -5.5395130659094125 17.352445780496137 a39.21520188118812,39.21520188118812 0 0,0 -0.6395388087076365,-0.21022910927704141 l 5.836574612264792 -17.254795749817074" fill="#ffe415" stroke="none" /><path d="M 93.27111125876986 119.89276391827306 l -8.076924664564116 23.8779925953238 a46.20704747524752,46.20704747524752 0 0,0 -0.7492015693411157,-0.2606111966355177 l 8.485632005950253 -23.73582296611969" fill="#c6ff1e" stroke="none" /><path d="M 92.59220618246901 119.65005319985036 l -2.620813538155495 6.952019281336876 a28.429618811881188,28.429618811881188 0 0,0 -0.45518221006144,-0.17607425727933967 l 2.7397680107104634 -6.9060051359194965" fill="#ff5507" stroke="none" /><path d="M 92.25597844496254 119.51999308798841 l -2.750557064786435 6.933200600122706 a28.458876237623763,28.458876237623763 0 0,0 -0.4525578456708489,-0.18405133602390952 l 2.869169371647725 -6.884962007519505" fill="#ff5507" stroke="none" /><path d="M 90.93487009805054 118.94263497670748 l -3.2131461924170153 6.714239741524703 a28.443475247524752,28.443475247524752 0 0,0 -0.43862513972756734,-0.21455353562680526 l 3.327931581406652 -6.658092455800676" fill="#ff5507" stroke="none" /><path d="M 90.6110303473126 118.78422872680471 l -1.3431273008531115 2.687154327015983 a24.004128712871285,24.004128712871285 0 0,0 -0.3670034426755407,-0.18739457283319064 l 1.3890579652422346 -2.663701802509956" fill="#ff1502" stroke="none" /><path d="M 90.28995756902619 118.62028667847754 l -6.885848434922275 13.204522307112097 a35.892089108910895,35.892089108910895 0 0,0 -0.5438697228209896,-0.28957999381821425 l 7.111506973529827 -13.084371845571308" fill="#ffb911" stroke="none" /><line stroke="#e1ed5e" stroke-width="0.3" x1="58.13341422392154" x2="55.67067388415222" y1="173.97424548756322" y2="178.32567169271397" /><path d="M 57.64086615596768 174.84453072859336 a86.0,86.0 0 0,1 -31.369924170532247,-30.572349798747897" fill="none" id="id152" stroke="none" /><text fill="#e1ed5e" style="font-size:6.75px; font-family:Arial;" text-anchor="middle"><textPath startOffset="22.145653131862474" xlink:href="#id152">August</textPath></text><path d="M 88.72937992617639 117.7192867562869 l -3.9894886474469384 6.272138790237942 a28.433420792079207,28.433420792079207 0 0,0 -0.4095961101755351,-0.2654952500159722 l 4.096570389879483 -6.202729698518075" fill="#ff5507" stroke="none" /><path d="M 88.1277618465304 117.32195027204791 l -4.201059479890253 6.129471331343507 a28.430970297029702,28.430970297029702 0 0,0 -0.40020639916642137,-0.27937514821345094 l 4.30566097023044 -6.056451367324927" fill="#ff5507" stroke="none" /><path d="M 87.2517909369889 116.68781488649013 l -0.9943197362353868 1.3015964528244548 a22.63793316831683,22.63793316831683 0 0,0 -0.3067871739864423,-0.23855956207748955 l 1.0165168548570573 -1.284335839126172" fill="#ff0100" stroke="none" /><path d="M 86.68645165197938 116.24036423190432 l -14.321595713059375 17.47001811104278 a43.59003400990099,43.59003400990099 0 0,0 -0.5746114375569802,-0.4793612979739923 l 14.619381484778248 -17.221594629156918" fill="#e5ff1a" stroke="none" /><path d="M 86.40962598614128 116.0094264158162 l -3.1725353719876535 3.737238690974733 a25.902237623762375,25.902237623762375 0 0,0 -0.33650771161051457,-0.29066734658726817 l 3.2362225633610304 -3.6822272119227426" fill="#ff3104" stroke="none" /><path d="M 85.86807049272751 115.53346607816431 l -10.908710230276437 11.990583467835837 a37.21030693069307,37.21030693069307 0 0,0 -0.468797114958616,-0.43391161087114966 l 11.112937116549022 -11.80155411083231" fill="#ffca12" stroke="none" /><path d="M 84.83555147118756 114.52719865689866 l -10.759476517301907 10.307335114369739 a35.89991584158416,35.89991584158416 0 0,0 -0.42249784617176195,-0.4486780714237071 l 10.934830197209923 -10.12111558300154" fill="#ffb911" stroke="none" /><path d="M 83.8745106332314 113.45245675266167 l -5.7038843781501045 4.758383213930522 a28.42808910891089,28.42808910891089 0 0,0 -0.3093966756575832,-0.3774136371064864 l 5.784727873046317 -4.65976729512554" fill="#ff5507" stroke="none" /><path d="M 83.20337586046588 112.60449989151573 l -20.20036380312532 15.158729590536254 a46.2555297029703,46.2555297029703 0 0,0 -0.471141161264071,-0.6391934705346626 l 20.45760698397322 -14.809729810732712" fill="#c6ff1e" stroke="none" /><path d="M 82.78059297857968 112.02048342749411 l -6.0980934674761915 4.256942842103828 a28.436955445544555,28.436955445544555 0 0,0 -0.2759877796917768,-0.40267441856502434 l 6.1702709839832925 -4.1516336884687535" fill="#ff5507" stroke="none" /><path d="M 82.576782715395 111.72311816256416 l -12.329994390883403 8.29617049635253 a35.86119801980198,35.86119801980198 0 0,0 -0.33927350655043254,-0.5137033310106598 l 12.470592336354562 -8.083287287002811" fill="#ffb911" stroke="none" /><path d="M 81.99639281039703 110.81064883170644 l -30.472798577000084 18.298039990870112 a56.54447524752476,56.54447524752476 0 0,0 -0.49254624141375036,-0.8364511988141594 l 30.782418528543605 -17.772237623762393" fill="#55ff2b" stroke="none" /><line stroke="#e1ed5e" stroke-width="0.3" x1="26.387840678322732" x2="22.057713659400548" y1="142.50000000000003" y2="145.00000000000006" /><path d="M 25.521815274538298 143.00000000000003 a86.0,86.0 0 0,1 -11.493303480769221,-40.785679425670985" fill="none" id="id153" stroke="none" /><text fill="#e1ed5e" style="font-size:6.75px; font-family:Arial;" text-anchor="middle"><textPath startOffset="21.40746469413373" xlink:href="#id153">September</textPath></text><path d="M 81.29705330413844 109.54985784667822 l -6.623554660796554 3.382034204498185 a28.437044554455447,28.437044554455447 0 0,0 -0.21826120520423004,-0.4366686177935195 l 6.680635779212521 -3.2678337305409126" fill="#ff5507" stroke="none" /><path d="M 80.9802524753101 108.90220220490708 l -6.73611126124074 3.152840196457572 a28.437445544554457,28.437445544554457 0 0,0 -0.2031456481676923,-0.443909903198798 l 6.789241374263489 -3.0367413110440853" fill="#ff5507" stroke="none" /><path d="M 80.68587082218212 108.24405325689762 l -27.32073723017454 11.661598132104418 a50.7054801980198,50.7054801980198 0 0,0 -0.3348352211348739,-0.8034826382414214 l 27.5168982958459 -11.190882984421716" fill="#93ff23" stroke="none" /><path d="M 80.41425534168474 107.57618678355246 l -13.864047767610264 5.362911510179159 a35.865148514851484,35.865148514851484 0 0,0 -0.21718792435844575,-0.576116772838441 l 13.954066375783146 -5.1241264571465726" fill="#ffb911" stroke="none" /><path d="M 79.83685265289637 105.86919833188381 l -20.650998547272735 6.011204706233459 a42.50809900990099,42.50809900990099 0 0,0 -0.19792885810625627,-0.7023796917325028 l 20.751145897453565 -5.65581709059796" fill="#f2ff19" stroke="none" /><path d="M 79.48165901384964 104.47187691870673 l -14.519468798229237 3.1644506461078095 a35.86030693069307,35.86030693069307 0 0,0 -0.12592481541000627,-0.60259582703321 l 14.57165132446361 -2.9147383677891905" fill="#ffb911" stroke="none" /><path d="M 79.34024301695615 103.76489593502545 l -7.31136234289748 1.3323737731699767 a28.431772277227722,28.431772277227722 0 0,0 -0.08337980403391913,-0.480912552346973 l 7.333156964423633 -1.206668187902411" fill="#ff5507" stroke="none" /><path d="M 79.2786578344484 103.40968896794605 l -43.98261676873953 7.237322851947501 a65.5740891089109,65.5740891089109 0 0,0 -0.17323583895974567,-1.1122983571273455 l 44.100374099837545 -6.481236312888705" fill="#36ff6e" stroke="none" /><path d="M 79.22317932658666 103.0534771498775 l -8.896284903492774 1.3074475204175957 a29.991846534653465,29.991846534653465 0 0,0 -0.07048867071998549,-0.5100209074377856 l 8.91741809076797 -1.1545383047797244" fill="#ff6a09" stroke="none" /><path d="M 79.03789590574601 101.26102812881392 l -31.749820457519597 1.9099903569651016 a52.80721871287129,52.80721871287129 0 0,0 -0.04666752593000112,-0.9053375357122758 l 31.77792957290617 -1.3646810278760948" fill="#7cff26" stroke="none" /><path d="M 79.01933749520258 100.90099992219065 l -3.66985246469125 0.15759925523714555 a24.6732349009901,24.6732349009901 0 0,0 -0.014539952604763963,-0.4233148556078405 l 3.6720171042928618 -0.09457813506518516" fill="#ff1f03" stroke="none" /><line stroke="#e1ed5e" stroke-width="0.3" x1="15.003131293944662" x2="10.003315487706104" y1="100.72959589197737" y2="100.7725132973878" /><path d="M 14.003168132696942 100.73817937305945 a86.0,86.0 0 0,1 10.791469493833604,-42.45332614584628" fill="none" id="id154" stroke="none" /><text fill="#e1ed5e" style="font-size:6.75px; font-family:Arial;" text-anchor="middle"><textPath startOffset="22.145653131862435" xlink:href="#id154">October</textPath></text><path d="M 79.00077361379809 100.18025310272382 l -17.822298870103815 0.1529830008937064 a38.82295544554455,38.82295544554455 0 0,0 0.0,-0.6664722072350413 l 17.822298870103815 0.15298300089369982" fill="#ffdf14" stroke="none" /><path d="M 79.00077361379809 99.81974689727619 l -23.646607321745066 -0.20297768404634672 a44.64747846534654,44.64747846534654 0 0,0 0.013157332115708692,-0.7663486336685467 l 23.639638558030693 0.6088732336839457" fill="#d8ff1c" stroke="none" /><path d="M 79.00696218219943 99.45929381324524 l -1.8699382154718207 -0.04816297530305227 a22.870558366336635,22.870558366336635 0 0,0 0.013477634206676959,-0.39238661453863427 l 1.8688358942682932 0.08025585440582507" fill="#ff0500" stroke="none" /><path d="M 79.01933749520258 99.09900007780938 l -17.808012421274938 -0.7647526765310447 a38.824425742574256,38.824425742574256 0 0,0 0.03431045866874247,-0.6656137320608584 l 17.792260373149624 1.070338201968615" fill="#ffdf14" stroke="none" /><path d="M 79.06263194458094 98.37931529534042 l -41.460549364553685 -3.209308735656698 a62.58457425742574,62.58457425742574 0 0,0 0.09210773644291012,-1.0704315158200532 l 41.39934800541304 3.920561298852432" fill="#32ff4b" stroke="none" /><path d="M 79.13060592940154 97.66154086499901 l -17.71106070712215 -1.9845612939704886 a38.82190099009901,38.82190099009901 0 0,0 0.07989531277265696,-0.661647801819464 l 17.674383308089826 2.288302772713389" fill="#ffdf14" stroke="none" /><path d="M 79.17382384314186 97.30363454192245 l -18.360395194128007 -2.3771207457974617 a39.51363861386139,39.51363861386139 0 0,0 0.09286736840237785,-0.6719420159317715 l 18.31688330917042 2.6919510699293" fill="#ffe715" stroke="none" /><path d="M 79.407916724674 95.88100663000787 l -40.96531391872784 -8.194210084274003 a62.77681202970297,62.77681202970297 0 0,0 0.22044313458184403,-1.0549002002871621 l 40.81861307332163 8.896226735846573" fill="#32ff4d" stroke="none" /><path d="M 79.48165901384962 95.52812308129327 l -1.955583489743364 -0.426210319649632 a23.00148995049505,23.00148995049505 0 0,0 0.08739376504952866,-0.38507305404004766 l 1.9479788631361734 0.45971770762868785" fill="#ff0701" stroke="none" /><path d="M 79.56144815229197 95.17655741523228 l -1.8646585191875622 -0.44005433332634986 a22.915880792079207,22.915880792079207 0 0,0 0.09364135299171278,-0.38208867539624997 l 1.8568296396795512 0.4719988333307175" fill="#ff0600" stroke="none" /><path d="M 79.83685265289637 94.1308016681162 l -7.136955620385693 -2.0774637659885724 a28.433168316831683,28.433168316831683 0 0,0 0.14043775484657073,-0.46747161097988676 l 7.100241545535493 2.199672980559183" fill="#ff5507" stroke="none" /><path d="M 80.05021161711548 93.44210830539832 l -44.84162581829685 -14.740333074336426 a68.20221207920792,68.20221207920792 0 0,0 0.3751595131505648,-1.1090924391527435 l 44.58198088357392 15.50792718796333" fill="#39ff8c" stroke="none" /><path d="M 80.41425534168474 92.42381321644754 l -15.815260126551172 -6.117682367433038 a37.9572548019802,37.9572548019802 0 0,0 0.24028989276301993,-0.6056874987384959 l 15.70791155882202 6.3882708833851165" fill="#ffd413" stroke="none" /><path d="M 80.68587082218212 91.75594674310238 l -13.95087961679761 -5.95480093783037 a36.16860891089109,36.16860891089109 0 0,0 0.24864388863388134,-0.5689458765099953 l 13.846601846146752 6.1934088841162325" fill="#ffbd11" stroke="none" /><path d="M 80.9802524753101 91.09779779509293 l -33.62956347532245 -15.740333762656444 a58.13092574257426,58.13092574257426 0 0,0 0.43077989521605087,-0.9001642997556161 l 33.35440432214649 16.315310564477148" fill="#45ff2d" stroke="none" /><path d="M 81.29705330413844 90.45014215332179 l -15.733404058376466 -8.03358821714933 a38.6657449009901,38.6657449009901 0 0,0 0.3069175086699243,-0.5885547914650013 l 15.593178480731602 8.302489251718818" fill="#ffdd14" stroke="none" /><path d="M 81.63589988554816 89.8137432299009 l -16.88453638721581 -9.365567711587024 a40.30806638613862,40.30806638613862 0 0,0 0.34082703384199536,-0.6022087113831818 l 16.721275988352446 9.654033193069312" fill="#fff116" stroke="none" /><line stroke="#e1ed5e" stroke-width="0.3" x1="26.387840678322718" x2="22.05771365940052" y1="57.49999999999999" y2="54.99999999999999" /><path d="M 25.521815274538284 56.99999999999999 a86.0,86.0 0 0,1 29.574782752854787,-30.34633250058573" fill="none" id="id155" stroke="none" /><text fill="#e1ed5e" style="font-size:6.75px; font-family:Arial;" text-anchor="middle"><textPath startOffset="21.40746469413373" xlink:href="#id155">November</textPath></text><path d="M 81.99639281039701 89.18935116829357 l -12.54076629386402 -7.530369833982924 a35.627962574257424,35.627962574257424 0 0,0 0.31934875798378815,-0.5216321961756208 l 12.409649571424838 7.7445391462830875" fill="#ffb610" stroke="none" /><path d="M 82.18462484594161 88.88188828441811 l -44.09838299971046 -27.52065249412436 a72.98128217821782,72.98128217821782 0 0,0 0.6724089020925659,-1.0571384782395719 l 43.619456405992004 28.273604647042603" fill="#3fffc0" stroke="none" /><path d="M 82.576782715395 88.27688183743585 l -12.33684538721314 -8.300780152433424 a35.86945544554456,35.86945544554456 0 0,0 0.3481220549832299,-0.5079204819741878 l 12.192533595414597 8.511335369477646" fill="#ffb911" stroke="none" /><path d="M 82.78059297857968 87.97951657250589 l -12.189610923784368 -8.509295117693629 a35.86589108910891,35.86589108910891 0 0,0 0.3567544345849171,-0.5018197898255373 l 12.041741390669479 8.717292134228686" fill="#ffb911" stroke="none" /><path d="M 83.2033758604659 87.39550010848427 l -1.9524240287505736 -1.4651353899535384 a23.441020544554455,23.441020544554455 0 0,0 0.2442867140463245,-0.31977915039550614 l 1.9269853373499424 1.498435453589929" fill="#ff0d01" stroke="none" /><path d="M 83.42222388311158 87.10902102172516 l -24.858023566423043 -19.32974947766193 a52.48905445544555,52.48905445544555 0 0,0 0.5592173097888702,-0.7065528027300291 l 24.52253982599261 19.753622224306646" fill="#80ff26" stroke="none" /><path d="M 83.8745106332314 86.54754324733833 l -11.419937000398052 -9.526917609866059 a35.87202475247525,35.87202475247525 0 0,0 0.39853039965523,-0.46946780870342464 l 11.254712037235707 9.72155220101904" fill="#ffb911" stroke="none" /><path d="M 84.34580500576568 86.00192230759919 l -11.082361883191883 -9.909916333184741 a35.86691584158416,35.86691584158416 0 0,0 0.4143522022323629,-0.4554456540755373 l 10.910611980117654 10.098699562817936" fill="#ffb911" stroke="none" /><path d="M 84.83555147118756 85.47280134310135 l -5.371657344954733 -5.145926224661545 a28.438767326732673,28.438767326732673 0 0,0 0.3407413913527262,-0.3496306852060967 l 5.282529152451205 5.237379601935372" fill="#ff5507" stroke="none" /><path d="M 85.34317274990677 84.96080404539775 l -21.92492398845788 -22.49690349253998 a52.41357920792079,52.41357920792079 0 0,0 0.649747465814295,-0.622443374367796 l 21.535504036778285 22.869958997213345" fill="#81ff25" stroke="none" /><path d="M 86.13680546590413 84.22622945171909 l -11.818167451288996 -13.44690512849044 a38.90218811881188,38.90218811881188 0 0,0 0.5053959619494185,-0.4365489947695066 l 11.585592009576729 13.647798255724657" fill="#ffe015" stroke="none" /><path d="M 86.68645165197937 83.75963576809568 l -9.424598733117481 -11.496478036084772 a35.865801980198015,35.865801980198015 0 0,0 0.4794902988824715,-0.3862434434423749 l 9.225857663879765 11.656569773320546" fill="#ffb911" stroke="none" /><path d="M 87.25179093698888 83.31218511350988 l -19.02496199517977 -24.904285961174832 a52.339633663366335,52.339633663366335 0 0,0 0.7186655680160882,-0.5393000402250024 l 18.594643438252927 25.227205028663835" fill="#81ff25" stroke="none" /><path d="M 87.83215693770416 82.88440491214696 l -8.609437387681087 -12.110251875156044 a35.858688118811884,35.858688118811884 0 0,0 0.5047621062852271,-0.3523631519878067 l 8.400280190222094 12.256259842948976" fill="#ffb911" stroke="none" /><path d="M 88.4268655584334 82.4767994020092 l -5.266725593540255 -7.974493818952408 a30.556722772277226,30.556722772277226 0 0,0 0.44018322236918006,-0.2853214465968858 l 5.129056738914049 8.0637291072532" fill="#ff720a" stroke="none" /><line stroke="#e1ed5e" stroke-width="0.3" x1="56.869717070023135" x2="54.33264160355391" y1="26.7553504044142" y2="22.446841604673864" /><path d="M 56.362301976729285 25.89364864446614 a86.0,86.0 0 0,1 42.16139366436587,-11.88097634709845" fill="none" id="id156" stroke="none" /><text fill="#e1ed5e" style="font-size:6.75px; font-family:Arial;" text-anchor="middle"><textPath startOffset="22.145653131862474" xlink:href="#id156">December</textPath></text><path d="M 89.34428304082924 81.90426304109057 l -31.967150877512267 -54.287210876728295 a84.0,84.0 0 0,0 1.2488301285584011,-0.721012410895304 l 31.030528281093464 54.827970184899776" fill="#4dd2ff" stroke="none" /><path d="M 90.28995756902619 81.37971332152246 l -5.49374148888842 -10.53497368191101 a32.88136633663366,32.88136633663366 0 0,0 0.5027291258836408,-0.25669707376303086 l 5.312085141291197 10.627728707346876" fill="#ff910d" stroke="none" /><path d="M 90.61103034731259 81.2157712731953 l -2.001882378111329 -4.005105764064282 a25.477544554455445,25.477544554455445 0 0,0 0.3928876989490375,-0.19218106140963953 l 1.9328344299002382 4.038880575571136" fill="#ff2b04" stroke="none" /><path d="M 91.5904679813234 80.7573450057729 l -11.894765622252823 -27.21755153531408 a50.70320792079208,50.70320792079208 0 0,0 0.8005431106131156,-0.34170425068486604 l 11.425787436469276 27.417730435658353" fill="#93ff23" stroke="none" /><path d="M 91.92203290615298 80.6158196554323 l -6.552910890426483 -15.724600633575452 a38.035366336633665,38.035366336633665 0 0,0 0.6048448050050522,-0.24598511662808994 l 6.282011624230989 15.834773006782832" fill="#ffd513" stroke="none" /><path d="M 92.592206182469 80.34994680014964 l -5.4329304702579275 -14.411493543328444 a36.40155445544554,36.40155445544554 0 0,0 0.5866038535417056,-0.21540906033052354 l 5.184737465062095 14.502633452667688" fill="#ffc011" stroke="none" /><path d="M 93.61358852112211 79.99465700312896 l -2.3593228691968897 -7.390545284272642 a28.758000000000003,28.758000000000003 0 0,0 0.4715755561846697,-0.14609531275507567 l 2.232106680140604 7.42995718483436" fill="#ff5908" stroke="none" /><path d="M 93.95794788825049 79.88797359093562 l -18.03319248394497 -60.02663280105766 a83.67689108910892,83.67689108910892 0 0,0 1.3792341926442064,-0.4014749723042356 l 17.00009827891914 60.32735146766442" fill="#4dd5ff" stroke="none" /><path d="M 95.00130118170881 79.60360301121753 l -2.828351463051595 -11.540639146553909 a32.88216831683168,32.88216831683168 0 0,0 0.5493950275089825,-0.12965573056701654 l 2.6298242818027067 11.587491020767157" fill="#ff910d" stroke="none" /><path d="M 95.70440661134978 79.44403061299748 l -2.4306284058362255 -11.631436819314077 a32.882688118811885,32.882688118811885 0 0,0 0.5535307531042284,-0.11072165315371388 l 2.2306011672010206 11.671447869130658" fill="#ff910d" stroke="none" /><path d="M 96.41257539226777 79.30868818359171 l -3.8056968151417205 -21.950247905164336 a43.277717821782176,43.277717821782176 0 0,0 0.7330884688442326,-0.1206294285754399 l 3.4283308432444155 22.012343332235446" fill="#e9ff1a" stroke="none" /><path d="M 97.48249496171623 79.15144685158666 l -0.8906644398420989 -7.375979244954606 a28.429559405940594,28.429559405940594 0 0,0 0.4850138318312297,-0.054346811498732314 l 0.7639147064100699 7.390181816960309" fill="#ff5507" stroke="none" /><path d="M 98.1996594967304 79.07731436759882 l -1.0763782600859952 -12.509146973270017 a33.555371287128715,33.555371287128715 0 0,0 0.574325753924928,-0.04445644564371341 l 0.86148351138585 12.525781185908784" fill="#ff9a0e" stroke="none" /><path d="M 98.9189461498227 79.02784411241856 l -1.1470042513258036 -22.25157605107122 a43.281118811881186,43.281118811881186 0 0,0 0.7423211451626116,-0.031878463984588344 l 0.764857345562372 22.267987083481636" fill="#e9ff1a" stroke="none" /><path d="M 99.63950707515114 79.00309439819443 l -0.12753469745768525 -7.428256753157017 a28.429351485148516,28.429351485148516 0 0,0 0.48802762230653557,-0.004189130185933286 l 1.819666303205553e-15 7.429351485148516" fill="#ff5507" stroke="none" /></svg>